<svg width="26" height="26" viewBox="0 0 26 26" fill="none" xmlns="http://www.w3.org/2000/svg">
<mask id="path-1-outside-1_318_551" maskUnits="userSpaceOnUse" x="0" y="0" width="26" height="26" fill="black">
<rect fill="white" width="26" height="26"/>
<path fill-rule="evenodd" clip-rule="evenodd" d="M18 3H8C5.23858 3 3 5.23858 3 8V18C3 20.7614 5.23858 23 8 23H18C20.7614 23 23 20.7614 23 18V8C23 5.23858 20.7614 3 18 3ZM8 1C4.13401 1 1 4.13401 1 8V18C1 21.866 4.13401 25 8 25H18C21.866 25 25 21.866 25 18V8C25 4.13401 21.866 1 18 1H8ZM9 13C9 15.2091 10.7909 17 13 17C15.2091 17 17 15.2091 17 13C17 10.7909 15.2091 9 13 9C10.7909 9 9 10.7909 9 13ZM13 7C9.68629 7 7 9.68629 7 13C7 16.3137 9.68629 19 13 19C16.3137 19 19 16.3137 19 13C19 9.68629 16.3137 7 13 7ZM19.5 5C18.6716 5 18 5.67157 18 6.5C18 7.32843 18.6716 8 19.5 8C20.3284 8 21 7.32843 21 6.5C21 5.67157 20.3284 5 19.5 5Z"/>
</mask>
<path fill-rule="evenodd" clip-rule="evenodd" d="M18 3H8C5.23858 3 3 5.23858 3 8V18C3 20.7614 5.23858 23 8 23H18C20.7614 23 23 20.7614 23 18V8C23 5.23858 20.7614 3 18 3ZM8 1C4.13401 1 1 4.13401 1 8V18C1 21.866 4.13401 25 8 25H18C21.866 25 25 21.866 25 18V8C25 4.13401 21.866 1 18 1H8ZM9 13C9 15.2091 10.7909 17 13 17C15.2091 17 17 15.2091 17 13C17 10.7909 15.2091 9 13 9C10.7909 9 9 10.7909 9 13ZM13 7C9.68629 7 7 9.68629 7 13C7 16.3137 9.68629 19 13 19C16.3137 19 19 16.3137 19 13C19 9.68629 16.3137 7 13 7ZM19.5 5C18.6716 5 18 5.67157 18 6.5C18 7.32843 18.6716 8 19.5 8C20.3284 8 21 7.32843 21 6.5C21 5.67157 20.3284 5 19.5 5Z" fill="#F2424D"/>
<path d="M8 3.1H18V2.9H8V3.1ZM3.1 8C3.1 5.2938 5.29381 3.1 8 3.1V2.9C5.18335 2.9 2.9 5.18335 2.9 8H3.1ZM3.1 18V8H2.9V18H3.1ZM8 22.9C5.29381 22.9 3.1 20.7062 3.1 18H2.9C2.9 20.8167 5.18335 23.1 8 23.1V22.9ZM18 22.9H8V23.1H18V22.9ZM22.9 18C22.9 20.7062 20.7062 22.9 18 22.9V23.1C20.8167 23.1 23.1 20.8167 23.1 18H22.9ZM22.9 8V18H23.1V8H22.9ZM18 3.1C20.7062 3.1 22.9 5.29381 22.9 8H23.1C23.1 5.18335 20.8167 2.9 18 2.9V3.1ZM1.1 8C1.1 4.18924 4.18924 1.1 8 1.1V0.9C4.07878 0.9 0.9 4.07878 0.9 8H1.1ZM1.1 18V8H0.9V18H1.1ZM8 24.9C4.18924 24.9 1.1 21.8108 1.1 18H0.9C0.9 21.9212 4.07878 25.1 8 25.1V24.9ZM18 24.9H8V25.1H18V24.9ZM24.9 18C24.9 21.8108 21.8108 24.9 18 24.9V25.1C21.9212 25.1 25.1 21.9212 25.1 18H24.9ZM24.9 8V18H25.1V8H24.9ZM18 1.1C21.8108 1.1 24.9 4.18924 24.9 8H25.1C25.1 4.07878 21.9212 0.9 18 0.9V1.1ZM8 1.1H18V0.9H8V1.1ZM13 16.9C10.8461 16.9 9.1 15.1539 9.1 13H8.9C8.9 15.2644 10.7356 17.1 13 17.1V16.9ZM16.9 13C16.9 15.1539 15.1539 16.9 13 16.9V17.1C15.2644 17.1 17.1 15.2644 17.1 13H16.9ZM13 9.1C15.1539 9.1 16.9 10.8461 16.9 13H17.1C17.1 10.7356 15.2644 8.9 13 8.9V9.1ZM9.1 13C9.1 10.8461 10.8461 9.1 13 9.1V8.9C10.7356 8.9 8.9 10.7356 8.9 13H9.1ZM7.1 13C7.1 9.74152 9.74152 7.1 13 7.1V6.9C9.63106 6.9 6.9 9.63106 6.9 13H7.1ZM13 18.9C9.74152 18.9 7.1 16.2585 7.1 13H6.9C6.9 16.3689 9.63106 19.1 13 19.1V18.9ZM18.9 13C18.9 16.2585 16.2585 18.9 13 18.9V19.1C16.3689 19.1 19.1 16.3689 19.1 13H18.9ZM13 7.1C16.2585 7.1 18.9 9.74152 18.9 13H19.1C19.1 9.63106 16.3689 6.9 13 6.9V7.1ZM18.1 6.5C18.1 5.7268 18.7268 5.1 19.5 5.1V4.9C18.6163 4.9 17.9 5.61634 17.9 6.5H18.1ZM19.5 7.9C18.7268 7.9 18.1 7.2732 18.1 6.5H17.9C17.9 7.38366 18.6163 8.1 19.5 8.1V7.9ZM20.9 6.5C20.9 7.2732 20.2732 7.9 19.5 7.9V8.1C20.3837 8.1 21.1 7.38366 21.1 6.5H20.9ZM19.5 5.1C20.2732 5.1 20.9 5.7268 20.9 6.5H21.1C21.1 5.61634 20.3837 4.9 19.5 4.9V5.1Z" fill="#F2424D" mask="url(#path-1-outside-1_318_551)"/>
</svg>
