<svg width="290" height="207" viewBox="0 0 290 207" fill="none" xmlns="http://www.w3.org/2000/svg">
<g filter="url(#filter0_b_370_93)">
<path d="M103.173 5.39998V207H35.2045V56.664H0.644531V5.39998H103.173Z" fill="#E2E2E2"/>
<path d="M289.212 154.296V207H127.644V165.24L200.508 97.848C206.844 91.896 211.068 86.808 213.18 82.584C215.292 78.36 216.348 74.232 216.348 70.2C216.348 65.208 214.62 61.368 211.164 58.68C207.9 55.8 203.1 54.36 196.764 54.36C190.62 54.36 184.86 55.992 179.484 59.256C174.108 62.52 169.98 67.128 167.1 73.08L115.836 47.448C123.516 33.048 134.748 21.72 149.532 13.464C164.316 5.01599 182.172 0.791992 203.1 0.791992C219.036 0.791992 233.148 3.38399 245.436 8.568C257.724 13.752 267.324 21.144 274.236 30.744C281.148 40.344 284.604 51.384 284.604 63.864C284.604 75 282.204 85.464 277.404 95.256C272.796 104.856 263.676 115.8 250.044 128.088L221.244 154.296H289.212Z" fill="#E2E2E2"/>
<path d="M75.5633 66.9998V207H28.3633V102.6H4.36328V66.9998H75.5633Z" fill="#EB4B56"/>
<path d="M204.757 170.4V207H92.557V178L143.157 131.2C147.557 127.066 150.49 123.533 151.957 120.6C153.424 117.666 154.157 114.8 154.157 112C154.157 108.533 152.957 105.866 150.557 104C148.29 102 144.957 101 140.557 101C136.29 101 132.29 102.133 128.557 104.4C124.824 106.666 121.957 109.866 119.957 114L84.357 96.1998C89.6904 86.1998 97.4904 78.3331 107.757 72.5998C118.024 66.7331 130.424 63.7998 144.957 63.7998C156.024 63.7998 165.824 65.5998 174.357 69.1998C182.89 72.7998 189.557 77.9331 194.357 84.5998C199.157 91.2665 201.557 98.9331 201.557 107.6C201.557 115.333 199.89 122.6 196.557 129.4C193.357 136.066 187.024 143.666 177.557 152.2L157.557 170.4H204.757Z" fill="#EB4B56"/>
</g>
<defs>
<filter id="filter0_b_370_93" x="-29.3555" y="-29.208" width="348.566" height="266.208" filterUnits="userSpaceOnUse" color-interpolation-filters="sRGB">
<feFlood flood-opacity="0" result="BackgroundImageFix"/>
<feGaussianBlur in="BackgroundImage" stdDeviation="15"/>
<feComposite in2="SourceAlpha" operator="in" result="effect1_backgroundBlur_370_93"/>
<feBlend mode="normal" in="SourceGraphic" in2="effect1_backgroundBlur_370_93" result="shape"/>
</filter>
</defs>
</svg>
