<svg width="371" height="212" viewBox="0 0 371 212" fill="none" xmlns="http://www.w3.org/2000/svg">
<g filter="url(#filter0_b_365_29)">
<path d="M173.821 154.296V207H12.2533V165.24L85.1173 97.848C91.4533 91.896 95.6773 86.808 97.7893 82.584C99.9013 78.36 100.957 74.232 100.957 70.2C100.957 65.208 99.2293 61.368 95.7733 58.68C92.5093 55.8 87.7093 54.36 81.3733 54.36C75.2293 54.36 69.4693 55.992 64.0933 59.256C58.7173 62.52 54.5893 67.128 51.7093 73.08L0.445312 47.448C8.12531 33.048 19.3573 21.72 34.1413 13.464C48.9253 5.01599 66.7813 0.791992 87.7093 0.791992C103.645 0.791992 117.757 3.38399 130.045 8.568C142.333 13.752 151.933 21.144 158.845 30.744C165.757 40.344 169.213 51.384 169.213 63.864C169.213 75 166.813 85.464 162.013 95.256C157.405 104.856 148.285 115.8 134.653 128.088L105.853 154.296H173.821Z" fill="#E2E2E2"/>
<path d="M279.056 211.608C261.2 211.608 245.36 207.48 231.536 199.224C217.904 190.776 207.152 178.68 199.28 162.936C191.6 147 187.76 128.088 187.76 106.2C187.76 84.312 191.6 65.496 199.28 49.752C207.152 33.816 217.904 21.72 231.536 13.464C245.36 5.01599 261.2 0.791992 279.056 0.791992C296.912 0.791992 312.656 5.01599 326.288 13.464C340.112 21.72 350.864 33.816 358.544 49.752C366.416 65.496 370.352 84.312 370.352 106.2C370.352 128.088 366.416 147 358.544 162.936C350.864 178.68 340.112 190.776 326.288 199.224C312.656 207.48 296.912 211.608 279.056 211.608ZM279.056 157.176C294.416 157.176 302.096 140.184 302.096 106.2C302.096 72.216 294.416 55.224 279.056 55.224C263.696 55.224 256.016 72.216 256.016 106.2C256.016 140.184 263.696 157.176 279.056 157.176Z" fill="#E2E2E2"/>
<path d="M138.224 170.4V207H26.0242V178L76.6242 131.2C81.0242 127.066 83.9576 123.533 85.4242 120.6C86.8909 117.666 87.6242 114.8 87.6242 112C87.6242 108.533 86.4242 105.866 84.0242 104C81.7576 102 78.4242 101 74.0242 101C69.7576 101 65.7576 102.133 62.0242 104.4C58.2909 106.666 55.4242 109.866 53.4242 114L17.8242 96.1998C23.1576 86.1998 30.9576 78.3331 41.2242 72.5998C51.4909 66.7331 63.8909 63.7998 78.4242 63.7998C89.4909 63.7998 99.2909 65.5998 107.824 69.1998C116.358 72.7998 123.024 77.9331 127.824 84.5998C132.624 91.2665 135.024 98.9331 135.024 107.6C135.024 115.333 133.358 122.6 130.024 129.4C126.824 136.066 120.491 143.666 111.024 152.2L91.0242 170.4H138.224Z" fill="#EB4B56"/>
<path d="M211.304 210.2C198.904 210.2 187.904 207.333 178.304 201.6C168.837 195.733 161.371 187.333 155.904 176.4C150.571 165.333 147.904 152.2 147.904 137C147.904 121.8 150.571 108.733 155.904 97.7998C161.371 86.7331 168.837 78.3331 178.304 72.5998C187.904 66.7331 198.904 63.7998 211.304 63.7998C223.704 63.7998 234.637 66.7331 244.104 72.5998C253.704 78.3331 261.171 86.7331 266.504 97.7998C271.971 108.733 274.704 121.8 274.704 137C274.704 152.2 271.971 165.333 266.504 176.4C261.171 187.333 253.704 195.733 244.104 201.6C234.637 207.333 223.704 210.2 211.304 210.2ZM211.304 172.4C221.971 172.4 227.304 160.6 227.304 137C227.304 113.4 221.971 101.6 211.304 101.6C200.637 101.6 195.304 113.4 195.304 137C195.304 160.6 200.637 172.4 211.304 172.4Z" fill="#EB4B56"/>
</g>
<defs>
<filter id="filter0_b_365_29" x="-29.5547" y="-29.208" width="429.906" height="270.816" filterUnits="userSpaceOnUse" color-interpolation-filters="sRGB">
<feFlood flood-opacity="0" result="BackgroundImageFix"/>
<feGaussianBlur in="BackgroundImage" stdDeviation="15"/>
<feComposite in2="SourceAlpha" operator="in" result="effect1_backgroundBlur_365_29"/>
<feBlend mode="normal" in="SourceGraphic" in2="effect1_backgroundBlur_365_29" result="shape"/>
</filter>
</defs>
</svg>
