<svg width="186" height="207" viewBox="0 0 186 207" fill="none" xmlns="http://www.w3.org/2000/svg">
<g filter="url(#filter0_b_370_82)">
<path d="M137.584 80.1764C153.136 84.0164 165.04 91.0244 173.296 101.2C181.744 111.184 185.968 123.28 185.968 137.488C185.968 149.584 182.608 160.912 175.888 171.472C169.36 181.84 159.184 190.288 145.36 196.816C131.536 203.344 114.352 206.608 93.8083 206.608C79.6003 206.608 65.3923 205.072 51.1843 202C37.1683 198.928 24.8803 194.416 14.3203 188.464L37.3603 138.352C45.6163 143.152 54.4483 146.8 63.8563 149.296C73.4563 151.792 82.6723 153.04 91.5043 153.04C99.3763 153.04 105.712 151.696 110.512 149.008C115.312 146.32 117.712 142.48 117.712 137.488C117.712 128.272 109.744 123.664 93.8083 123.664H67.0243V81.9044L96.6883 51.6644H24.6883V0.400391H175.024V42.1604L137.584 80.1764Z" fill="#E2E2E2"/>
<path d="M86.475 117.4C97.275 120.067 105.542 124.933 111.275 132C117.142 138.933 120.075 147.333 120.075 157.2C120.075 165.6 117.742 173.467 113.075 180.8C108.542 188 101.475 193.867 91.875 198.4C82.275 202.933 70.3417 205.2 56.075 205.2C46.2083 205.2 36.3417 204.133 26.475 202C16.7417 199.867 8.20833 196.733 0.875 192.6L16.875 157.8C22.6083 161.133 28.7417 163.667 35.275 165.4C41.9417 167.133 48.3417 168 54.475 168C59.9417 168 64.3417 167.067 67.675 165.2C71.0083 163.333 72.675 160.667 72.675 157.2C72.675 150.8 67.1417 147.6 56.075 147.6H37.475V118.6L58.075 97.6H8.075V62H112.475V91L86.475 117.4Z" fill="#EB4B56"/>
</g>
<defs>
<filter id="filter0_b_370_82" x="-29.125" y="-29.5996" width="245.094" height="266.208" filterUnits="userSpaceOnUse" color-interpolation-filters="sRGB">
<feFlood flood-opacity="0" result="BackgroundImageFix"/>
<feGaussianBlur in="BackgroundImage" stdDeviation="15"/>
<feComposite in2="SourceAlpha" operator="in" result="effect1_backgroundBlur_370_82"/>
<feBlend mode="normal" in="SourceGraphic" in2="effect1_backgroundBlur_370_82" result="shape"/>
</filter>
</defs>
</svg>
