<svg width="187" height="207" viewBox="0 0 187 207" fill="none" xmlns="http://www.w3.org/2000/svg">
<g filter="url(#filter0_b_365_25)">
<path d="M104.065 71.5364C132.289 71.5364 153.025 77.4884 166.273 89.3924C179.713 101.104 186.433 116.56 186.433 135.76C186.433 148.432 183.073 160.144 176.353 170.896C169.825 181.456 159.649 190.096 145.825 196.816C132.001 203.344 114.817 206.608 94.2732 206.608C80.0652 206.608 65.8572 205.072 51.6492 202C37.6332 198.928 25.3452 194.416 14.7852 188.464L37.8252 138.352C46.2732 143.152 55.1052 146.8 64.3212 149.296C73.7292 151.792 82.8492 153.04 91.6812 153.04C99.5532 153.04 105.889 151.696 110.689 149.008C115.681 146.128 118.177 142.192 118.177 137.2C118.177 132.4 115.969 128.848 111.553 126.544C107.137 124.048 99.1692 122.8 87.6492 122.8H29.1852L39.2652 0.400391H173.185V51.6644H95.1372L93.6972 71.5364H104.065Z" fill="#E2E2E2"/>
<path d="M62.0859 111.4C81.6859 111.4 96.0859 115.533 105.286 123.8C114.619 131.933 119.286 142.667 119.286 156C119.286 164.8 116.953 172.933 112.286 180.4C107.753 187.733 100.686 193.733 91.0859 198.4C81.4859 202.933 69.5526 205.2 55.2859 205.2C45.4193 205.2 35.5526 204.133 25.6859 202C15.9526 199.867 7.41927 196.733 0.0859375 192.6L16.0859 157.8C21.9526 161.133 28.0859 163.667 34.4859 165.4C41.0193 167.133 47.3526 168 53.4859 168C58.9526 168 63.3526 167.067 66.6859 165.2C70.1526 163.2 71.8859 160.467 71.8859 157C71.8859 153.667 70.3526 151.2 67.2859 149.6C64.2193 147.867 58.6859 147 50.6859 147H10.0859L17.0859 62H110.086V97.6H55.8859L54.8859 111.4H62.0859Z" fill="#EB4B56"/>
</g>
<defs>
<filter id="filter0_b_365_25" x="-29.9141" y="-29.5996" width="246.348" height="266.208" filterUnits="userSpaceOnUse" color-interpolation-filters="sRGB">
<feFlood flood-opacity="0" result="BackgroundImageFix"/>
<feGaussianBlur in="BackgroundImage" stdDeviation="15"/>
<feComposite in2="SourceAlpha" operator="in" result="effect1_backgroundBlur_365_25"/>
<feBlend mode="normal" in="SourceGraphic" in2="effect1_backgroundBlur_365_25" result="shape"/>
</filter>
</defs>
</svg>
