<svg width="390" height="351" viewBox="0 0 390 351" fill="none" xmlns="http://www.w3.org/2000/svg">
<g filter="url(#filter0_b_614_2)">
<path d="M117.886 148.536C130.174 148.536 141.598 151.224 152.158 156.6C162.718 161.976 171.166 169.56 177.502 179.352C183.838 189.144 187.006 200.376 187.006 213.048C187.006 227.064 183.358 239.448 176.062 250.2C168.958 260.952 159.166 269.208 146.686 274.968C134.206 280.728 120.382 283.608 105.214 283.608C85.8218 283.608 68.8298 279.864 54.2378 272.376C39.8378 264.888 28.6058 253.752 20.5418 238.968C12.4778 224.184 8.44575 206.04 8.44575 184.536C8.44575 161.496 13.0538 141.528 22.2698 124.632C31.6778 107.736 44.7338 94.872 61.4378 86.04C78.3338 77.208 97.9178 72.792 120.19 72.792C132.286 72.792 143.806 74.232 154.75 77.112C165.694 79.8 175.006 83.64 182.686 88.632L158.206 136.152C148.222 129.048 136.03 125.496 121.63 125.496C109.918 125.496 100.222 128.472 92.5418 134.424C85.0538 140.184 80.1578 148.632 77.8538 159.768C88.4138 152.28 101.758 148.536 117.886 148.536ZM100.606 236.664C106.75 236.664 111.742 234.84 115.582 231.192C119.422 227.544 121.342 222.552 121.342 216.216C121.342 209.88 119.422 204.888 115.582 201.24C111.742 197.4 106.75 195.48 100.606 195.48C94.4618 195.48 89.4698 197.4 85.6298 201.24C81.7898 204.888 79.8698 209.88 79.8698 216.216C79.8698 222.552 81.7898 227.544 85.6298 231.192C89.4698 234.84 94.4618 236.664 100.606 236.664ZM290.148 283.608C272.292 283.608 256.452 279.48 242.628 271.224C228.996 262.776 218.244 250.68 210.372 234.936C202.692 219 198.852 200.088 198.852 178.2C198.852 156.312 202.692 137.496 210.372 121.752C218.244 105.816 228.996 93.72 242.628 85.464C256.452 77.016 272.292 72.792 290.148 72.792C308.004 72.792 323.748 77.016 337.38 85.464C351.204 93.72 361.956 105.816 369.636 121.752C377.508 137.496 381.444 156.312 381.444 178.2C381.444 200.088 377.508 219 369.636 234.936C361.956 250.68 351.204 262.776 337.38 271.224C323.748 279.48 308.004 283.608 290.148 283.608ZM290.148 229.176C305.508 229.176 313.188 212.184 313.188 178.2C313.188 144.216 305.508 127.224 290.148 127.224C274.788 127.224 267.108 144.216 267.108 178.2C267.108 212.184 274.788 229.176 290.148 229.176Z" fill="#E2E2E2"/>
<path d="M100.948 188.4C109.482 188.4 117.415 190.267 124.748 194C132.082 197.733 137.948 203 142.348 209.8C146.748 216.6 148.948 224.4 148.948 233.2C148.948 242.933 146.415 251.533 141.348 259C136.415 266.467 129.615 272.2 120.948 276.2C112.282 280.2 102.682 282.2 92.1484 282.2C78.6818 282.2 66.8818 279.6 56.7484 274.4C46.7484 269.2 38.9484 261.467 33.3484 251.2C27.7484 240.933 24.9484 228.333 24.9484 213.4C24.9484 197.4 28.1484 183.533 34.5484 171.8C41.0818 160.067 50.1484 151.133 61.7484 145C73.4818 138.867 87.0818 135.8 102.548 135.8C110.948 135.8 118.948 136.8 126.548 138.8C134.148 140.667 140.615 143.333 145.948 146.8L128.948 179.8C122.015 174.867 113.548 172.4 103.548 172.4C95.4151 172.4 88.6818 174.467 83.3484 178.6C78.1484 182.6 74.7484 188.467 73.1484 196.2C80.4818 191 89.7484 188.4 100.948 188.4ZM88.9484 249.6C93.2151 249.6 96.6818 248.333 99.3484 245.8C102.015 243.267 103.348 239.8 103.348 235.4C103.348 231 102.015 227.533 99.3484 225C96.6818 222.333 93.2151 221 88.9484 221C84.6818 221 81.2151 222.333 78.5484 225C75.8818 227.533 74.5484 231 74.5484 235.4C74.5484 239.8 75.8818 243.267 78.5484 245.8C81.2151 248.333 84.6818 249.6 88.9484 249.6ZM220.575 282.2C208.175 282.2 197.175 279.333 187.575 273.6C178.108 267.733 170.642 259.333 165.175 248.4C159.842 237.333 157.175 224.2 157.175 209C157.175 193.8 159.842 180.733 165.175 169.8C170.642 158.733 178.108 150.333 187.575 144.6C197.175 138.733 208.175 135.8 220.575 135.8C232.975 135.8 243.908 138.733 253.375 144.6C262.975 150.333 270.442 158.733 275.775 169.8C281.242 180.733 283.975 193.8 283.975 209C283.975 224.2 281.242 237.333 275.775 248.4C270.442 259.333 262.975 267.733 253.375 273.6C243.908 279.333 232.975 282.2 220.575 282.2ZM220.575 244.4C231.242 244.4 236.575 232.6 236.575 209C236.575 185.4 231.242 173.6 220.575 173.6C209.908 173.6 204.575 185.4 204.575 209C204.575 232.6 209.908 244.4 220.575 244.4Z" fill="#EB4B56"/>
</g>
<defs>
<filter id="filter0_b_614_2" x="-21.5547" y="42.792" width="433" height="270.816" filterUnits="userSpaceOnUse" color-interpolation-filters="sRGB">
<feFlood flood-opacity="0" result="BackgroundImageFix"/>
<feGaussianBlur in="BackgroundImage" stdDeviation="15"/>
<feComposite in2="SourceAlpha" operator="in" result="effect1_backgroundBlur_614_2"/>
<feBlend mode="normal" in="SourceGraphic" in2="effect1_backgroundBlur_614_2" result="shape"/>
</filter>
</defs>
</svg>
