<svg width="378" height="211" viewBox="0 0 378 211" fill="none" xmlns="http://www.w3.org/2000/svg">
<g filter="url(#filter0_b_369_70)">
<path d="M81.792 0C101.184 0 118.08 3.744 132.48 11.232C147.072 18.72 158.4 29.856 166.464 44.64C174.528 59.424 178.56 77.568 178.56 99.072C178.56 122.112 173.856 142.08 164.448 158.976C155.232 175.872 142.176 188.736 125.28 197.568C108.576 206.4 89.088 210.816 66.816 210.816C54.72 210.816 43.2 209.376 32.256 206.496C21.312 203.808 12 199.968 4.32 194.976L28.8 147.456C38.784 154.56 50.976 158.112 65.376 158.112C77.088 158.112 86.688 155.232 94.176 149.472C101.856 143.52 106.848 134.976 109.152 123.84C98.592 131.328 85.248 135.072 69.12 135.072C56.832 135.072 45.408 132.384 34.848 127.008C24.288 121.632 15.84 114.048 9.504 104.256C3.168 94.464 0 83.232 0 70.56C0 56.544 3.552 44.16 10.656 33.408C17.952 22.656 27.84 14.4 40.32 8.63999C52.8 2.88 66.624 0 81.792 0ZM86.4 88.128C92.544 88.128 97.536 86.304 101.376 82.656C105.216 78.816 107.136 73.728 107.136 67.392C107.136 61.056 105.216 56.064 101.376 52.416C97.536 48.768 92.544 46.944 86.4 46.944C80.256 46.944 75.264 48.768 71.424 52.416C67.584 56.064 65.664 61.056 65.664 67.392C65.664 73.728 67.584 78.816 71.424 82.656C75.264 86.304 80.256 88.128 86.4 88.128Z" fill="#E2E2E2"/>
<path d="M286.598 210.816C268.742 210.816 252.902 206.688 239.078 198.432C225.446 189.984 214.694 177.888 206.822 162.144C199.142 146.208 195.302 127.296 195.302 105.408C195.302 83.52 199.142 64.704 206.822 48.96C214.694 33.024 225.446 20.928 239.078 12.672C252.902 4.224 268.742 0 286.598 0C304.454 0 320.198 4.224 333.83 12.672C347.654 20.928 358.406 33.024 366.086 48.96C373.958 64.704 377.894 83.52 377.894 105.408C377.894 127.296 373.958 146.208 366.086 162.144C358.406 177.888 347.654 189.984 333.83 198.432C320.198 206.688 304.454 210.816 286.598 210.816ZM286.598 156.384C301.958 156.384 309.638 139.392 309.638 105.408C309.638 71.424 301.958 54.432 286.598 54.432C271.238 54.432 263.558 71.424 263.558 105.408C263.558 139.392 271.238 156.384 286.598 156.384Z" fill="#E2E2E2"/>
<path d="M74.8 63.0078C88.2667 63.0078 100 65.6078 110 70.8078C120.133 76.0078 128 83.7411 133.6 94.0078C139.2 104.274 142 116.874 142 131.808C142 147.808 138.733 161.674 132.2 173.408C125.8 185.141 116.733 194.074 105 200.208C93.4 206.341 79.8667 209.408 64.4 209.408C56 209.408 48 208.408 40.4 206.408C32.8 204.541 26.3333 201.874 21 198.408L38 165.408C44.9333 170.341 53.4 172.808 63.4 172.808C71.5333 172.808 78.2 170.808 83.4 166.808C88.7333 162.674 92.2 156.741 93.8 149.008C86.4667 154.208 77.2 156.808 66 156.808C57.4667 156.808 49.5333 154.941 42.2 151.208C34.8667 147.474 29 142.208 24.6 135.408C20.2 128.608 18 120.808 18 112.008C18 102.274 20.4667 93.6745 25.4 86.2078C30.4667 78.7411 37.3333 73.0078 46 69.0078C54.6667 65.0078 64.2667 63.0078 74.8 63.0078ZM78 124.208C82.2667 124.208 85.7333 122.941 88.4 120.408C91.0667 117.741 92.4 114.208 92.4 109.808C92.4 105.408 91.0667 101.941 88.4 99.4078C85.7333 96.8745 82.2667 95.6078 78 95.6078C73.7333 95.6078 70.2667 96.8745 67.6 99.4078C64.9333 101.941 63.6 105.408 63.6 109.808C63.6 114.208 64.9333 117.741 67.6 120.408C70.2667 122.941 73.7333 124.208 78 124.208Z" fill="#EB4B56"/>
<path d="M217.027 209.408C204.627 209.408 193.627 206.541 184.027 200.808C174.56 194.941 167.093 186.541 161.627 175.608C156.293 164.541 153.627 151.408 153.627 136.208C153.627 121.008 156.293 107.941 161.627 97.0078C167.093 85.9411 174.56 77.5411 184.027 71.8078C193.627 65.9411 204.627 63.0078 217.027 63.0078C229.427 63.0078 240.36 65.9411 249.827 71.8078C259.427 77.5411 266.893 85.9411 272.227 97.0078C277.693 107.941 280.427 121.008 280.427 136.208C280.427 151.408 277.693 164.541 272.227 175.608C266.893 186.541 259.427 194.941 249.827 200.808C240.36 206.541 229.427 209.408 217.027 209.408ZM217.027 171.608C227.693 171.608 233.027 159.808 233.027 136.208C233.027 112.608 227.693 100.808 217.027 100.808C206.36 100.808 201.027 112.608 201.027 136.208C201.027 159.808 206.36 171.608 217.027 171.608Z" fill="#EB4B56"/>
</g>
<defs>
<filter id="filter0_b_369_70" x="-30" y="-30" width="437.895" height="270.816" filterUnits="userSpaceOnUse" color-interpolation-filters="sRGB">
<feFlood flood-opacity="0" result="BackgroundImageFix"/>
<feGaussianBlur in="BackgroundImage" stdDeviation="15"/>
<feComposite in2="SourceAlpha" operator="in" result="effect1_backgroundBlur_369_70"/>
<feBlend mode="normal" in="SourceGraphic" in2="effect1_backgroundBlur_369_70" result="shape"/>
</filter>
</defs>
</svg>
