<svg width="204" height="218" viewBox="0 0 204 218" fill="none" xmlns="http://www.w3.org/2000/svg">
<g clip-path="url(#clip0_318_44)">
<path d="M95.8046 124.797C81.5168 124.797 65.0965 108.891 50.5686 116.448C6.582 139.33 12.637 101.041 0 86.8016L0.414875 85.9668C14.3583 98.5091 31.7672 108.714 50.7596 115.477C67.9228 121.59 85.2146 124.422 100.759 123.675L100.786 124.678C99.1448 124.758 97.4842 124.797 95.8046 124.797Z" fill="#F2F2F2"/>
<path d="M200.098 32.3497C188.709 41.0036 166.046 38.2697 159.013 53.0934C137.72 97.9756 119.503 63.7862 100.859 60.0888L100.688 59.1721C119.351 60.725 139.371 58.3155 158.581 52.2036C175.942 46.6809 191.431 38.4652 203.373 28.4541L203.998 29.2376C202.737 30.2953 201.437 31.3326 200.098 32.3497Z" fill="#F2F2F2"/>
<path d="M31.6584 58.0439C33.3078 58.0439 34.645 56.2452 34.645 54.0263C34.645 51.8075 33.3078 50.0088 31.6584 50.0088C30.009 50.0088 28.6719 51.8075 28.6719 54.0263C28.6719 56.2452 30.009 58.0439 31.6584 58.0439Z" fill="#E6E6E6"/>
<path d="M157.166 95.6396C158.816 95.6396 160.153 93.8409 160.153 91.622C160.153 89.4032 158.816 87.6045 157.166 87.6045C155.517 87.6045 154.18 89.4032 154.18 91.622C154.18 93.8409 155.517 95.6396 157.166 95.6396Z" fill="#E6E6E6"/>
<path d="M75.1428 8.0351C76.7922 8.0351 78.1293 6.23638 78.1293 4.01755C78.1293 1.79872 76.7922 0 75.1428 0C73.4934 0 72.1562 1.79872 72.1562 4.01755C72.1562 6.23638 73.4934 8.0351 75.1428 8.0351Z" fill="#E6E6E6"/>
<path d="M128.686 148.3L125.213 127.348C125.143 126.923 125.244 126.489 125.493 126.139C125.742 125.789 126.12 125.553 126.542 125.482L142.316 122.851C142.739 122.781 143.172 122.882 143.521 123.132C143.869 123.382 144.105 123.76 144.176 124.184L147.649 145.137C147.718 145.561 147.618 145.996 147.369 146.345C147.119 146.695 146.742 146.931 146.319 147.002L130.546 149.634C130.123 149.704 129.69 149.603 129.341 149.353C128.992 149.103 128.757 148.724 128.686 148.3Z" fill="#3F3D56"/>
<path d="M128.851 141.77L126.618 128.299C126.553 127.902 126.647 127.495 126.88 127.168C127.114 126.84 127.467 126.619 127.863 126.552L141.419 124.291C141.815 124.225 142.221 124.32 142.547 124.554C142.874 124.788 143.094 125.143 143.161 125.54L146.251 144.185C146.317 144.582 146.222 144.989 145.989 145.316C145.755 145.644 145.402 145.865 145.006 145.932L136.608 147.333C134.845 147.625 133.037 147.203 131.583 146.16C130.129 145.117 129.146 143.538 128.851 141.77Z" fill="white"/>
<path d="M129.434 131.692C129.37 131.303 129.462 130.906 129.69 130.586C129.918 130.266 130.264 130.049 130.65 129.984L140.054 128.416C140.246 128.384 140.442 128.39 140.631 128.434C140.82 128.478 140.999 128.559 141.157 128.672C141.315 128.786 141.449 128.929 141.552 129.094C141.655 129.26 141.724 129.444 141.756 129.636C141.788 129.828 141.782 130.025 141.738 130.215C141.694 130.405 141.613 130.584 141.5 130.742C141.387 130.901 141.244 131.036 141.079 131.139C140.915 131.242 140.731 131.311 140.54 131.343L131.136 132.912C130.749 132.976 130.352 132.884 130.033 132.655C129.714 132.426 129.499 132.08 129.434 131.692Z" fill="#C95884"/>
<path d="M130.188 136.245C130.124 135.857 130.216 135.459 130.444 135.139C130.672 134.819 131.018 134.603 131.404 134.538L140.808 132.969C141 132.937 141.196 132.944 141.385 132.988C141.574 133.032 141.753 133.113 141.911 133.226C142.069 133.339 142.203 133.483 142.306 133.648C142.409 133.813 142.478 133.998 142.51 134.19C142.542 134.382 142.536 134.579 142.492 134.768C142.448 134.958 142.367 135.138 142.254 135.296C142.141 135.455 141.998 135.589 141.833 135.692C141.669 135.796 141.485 135.865 141.293 135.897L131.89 137.466C131.503 137.53 131.106 137.437 130.787 137.209C130.468 136.98 130.253 136.633 130.188 136.245Z" fill="#C95884"/>
<path d="M130.946 140.8C130.882 140.412 130.974 140.014 131.202 139.694C131.43 139.374 131.775 139.158 132.162 139.093L141.566 137.524C141.953 137.459 142.35 137.552 142.669 137.781C142.988 138.01 143.203 138.356 143.268 138.744C143.332 139.133 143.24 139.531 143.012 139.851C142.784 140.171 142.438 140.387 142.051 140.452L132.647 142.02C132.26 142.085 131.864 141.992 131.545 141.763C131.226 141.534 131.01 141.188 130.946 140.8Z" fill="#C95884"/>
<path d="M121.566 128.551C121.155 128.087 120.851 127.539 120.674 126.944C120.497 126.35 120.453 125.723 120.544 125.11C120.634 124.496 120.858 123.909 121.199 123.392C121.54 122.874 121.99 122.438 122.518 122.114L117.016 95.832L124.308 98.6447L128.53 123.753C129.014 124.678 129.143 125.749 128.893 126.763C128.643 127.777 128.031 128.663 127.172 129.255C126.314 129.846 125.269 130.101 124.236 129.972C123.203 129.842 122.253 129.337 121.566 128.551Z" fill="#FFB8B8"/>
<path d="M119.138 211.675L125.14 211.674L127.996 188.448L119.137 188.449L119.138 211.675Z" fill="#FFB6B6"/>
<path d="M117.605 209.709L119.295 209.709L125.891 207.018L129.426 209.708H129.427C131.425 209.708 133.341 210.505 134.754 211.922C136.166 213.339 136.96 215.261 136.96 217.265V217.511L117.606 217.512L117.605 209.709Z" fill="#2F2E41"/>
<path d="M64.9023 203.846L70.2745 206.532L83.1581 187.023L75.2295 183.059L64.9023 203.846Z" fill="#FFB6B6"/>
<path d="M64.407 201.4L65.9191 202.156L73.0192 202.7L74.9868 206.69L74.9872 206.69C76.7753 207.584 78.136 209.154 78.7702 211.055C79.4044 212.956 79.26 215.031 78.3689 216.825L78.2597 217.045L60.9375 208.384L64.407 201.4Z" fill="#2F2E41"/>
<path d="M121.798 106.19L83.6328 107.189L84.2965 125.833C84.2965 125.833 83.6328 130.827 84.9603 132.159C86.2878 133.49 86.9515 133.49 86.2878 135.821C85.624 138.151 83.9081 160.419 83.9081 160.419C83.9081 160.419 68.244 188.203 68.9077 188.869C69.5715 189.535 70.2352 188.869 69.5715 190.534C68.9077 192.199 68.244 191.533 68.9077 192.199C69.4957 192.834 70.0496 193.501 70.5671 194.196H81.3849C81.3849 194.196 81.9898 190.867 81.9898 190.534C81.9898 190.201 82.6536 188.203 82.6536 187.87C82.6536 187.538 101.554 167.449 101.554 167.449L105.536 134.156L115.161 166.783C115.161 166.783 115.161 195.415 115.824 196.081C116.488 196.747 116.488 196.414 116.156 197.745C115.824 199.077 114.497 198.744 115.492 199.743C116.488 200.742 116.82 199.077 116.488 200.742L116.156 202.406L128.906 202.549C128.906 202.549 130.234 199.743 129.57 198.744C128.906 197.745 128.946 198.018 129.756 196.384C130.566 194.749 130.898 194.416 130.566 194.083C130.234 193.75 130.234 191.979 130.234 191.979C130.234 191.979 125.449 126.499 125.449 125.5C125.424 124.986 125.518 124.474 125.724 124.002V122.647L124.453 117.843L121.798 106.19Z" fill="#2F2E41"/>
<path d="M156.203 199.162L156.532 191.734C159.965 189.893 163.794 188.921 167.687 188.901C162.33 193.295 162.999 201.765 159.367 207.674C158.22 209.508 156.676 211.06 154.851 212.214C153.025 213.368 150.963 214.096 148.819 214.342L144.336 217.096C143.721 213.655 143.856 210.122 144.733 206.74C145.61 203.357 147.208 200.205 149.416 197.502C150.67 195.997 152.107 194.657 153.695 193.513C154.769 196.353 156.203 199.162 156.203 199.162Z" fill="#F2F2F2"/>
<path d="M102.034 40.8057L121.15 79.5899L117.41 126.659L92.982 124.42L88.6016 46.4698L102.034 40.8057Z" fill="#2F2E41"/>
<path d="M128.879 121.463L117.709 120.438L117.692 120.296L110.195 58.03L111.873 53.364C112.274 52.2563 112.955 51.2715 113.848 50.5054C114.741 49.7393 115.816 49.218 116.969 48.9921V48.9919C117.848 48.8222 118.751 48.8285 119.627 49.0105C120.503 49.1925 121.334 49.5466 122.073 50.0525C122.813 50.5583 123.445 51.2058 123.933 51.9577C124.421 52.7096 124.757 53.5511 124.92 54.4336L126.926 65.3039L129.772 102.049L128.879 121.463Z" fill="#2F2E41"/>
<path d="M99.7969 46.5576L102.05 41.1504L109.022 41.2732L116.293 51.5905L123.924 83.7852C123.924 83.7852 126.665 107.303 123.924 108.545C121.183 109.786 111.893 108.253 111.893 108.253L99.7969 46.5576Z" fill="#C95884"/>
<path d="M109.02 41.2734C109.02 41.2734 124.039 49.9834 124.627 54.53C125.214 59.0766 127.181 114.725 127.181 114.725L121.87 111.282L120.418 90.9998L113.936 49.4752L109.02 41.2734Z" fill="#2F2E41"/>
<path d="M105.475 38.7393C111.128 38.7393 115.711 34.1417 115.711 28.4702C115.711 22.7988 111.128 18.2012 105.475 18.2012C99.8213 18.2012 95.2383 22.7988 95.2383 28.4702C95.2383 34.1417 99.8213 38.7393 105.475 38.7393Z" fill="#FFB8B8"/>
<path d="M93.8626 21.7237C95.0121 19.9398 97.1691 18.7508 99.2601 19.0849C99.4547 17.7462 100.012 16.4867 100.871 15.4435C101.729 14.4004 102.857 13.6136 104.131 13.1688C105.404 12.7241 106.775 12.6383 108.094 12.921C109.413 13.2037 110.629 13.844 111.61 14.7721C111.933 14.5442 112.309 14.4037 112.701 14.3643C113.094 14.3248 113.49 14.3878 113.852 14.547C114.571 14.8753 115.197 15.3795 115.673 16.0134C116.872 17.5145 117.644 19.3139 117.906 21.22C118.167 23.1262 117.908 25.0678 117.157 26.8381C117.412 25.9061 116.481 25.0293 115.541 24.8202C114.6 24.611 113.613 24.8089 112.659 24.6727C111.437 24.4982 110.337 23.7866 109.113 23.6265C108.084 23.4919 107.049 23.7566 106.045 24.022C105.042 24.2873 104.009 24.5578 102.979 24.4351C101.948 24.3123 100.62 28.2306 100.638 30.9905C100.642 31.5135 100.534 32.185 100.025 32.296C99.3972 32.4326 99.0336 31.5639 98.4364 31.3272C98.1611 31.248 97.866 31.2792 97.6132 31.414C97.3604 31.5489 97.1697 31.7769 97.0812 32.0501C97.0059 32.3278 96.9979 32.6195 97.0577 32.901C97.1175 33.1825 97.2435 33.4455 97.4251 33.6683C97.7922 34.1099 98.228 34.4892 98.7156 34.7914L98.4697 34.9966C98.0605 35.5388 97.2119 35.5623 96.6222 35.2268C96.0583 34.8437 95.6016 34.3221 95.2957 33.7117C94.2047 31.8913 93.2477 29.9517 92.8626 27.863C92.4776 25.7743 92.7132 23.5076 93.8626 21.7237Z" fill="#2F2E41"/>
<path d="M71.5669 97.7749L92.0179 75.764C92.4324 75.3189 93.0058 75.057 93.6125 75.0356C94.2193 75.0142 94.8097 75.2351 95.2542 75.6499L111.825 91.1441C112.268 91.5599 112.529 92.1352 112.551 92.7438C112.572 93.3525 112.352 93.9447 111.938 94.3907L91.4873 116.402C91.0729 116.847 90.4994 117.109 89.8927 117.13C89.286 117.151 88.6956 116.931 88.251 116.516L71.6806 101.022C71.237 100.606 70.9759 100.03 70.9545 99.4218C70.9332 98.8132 71.1534 98.2209 71.5669 97.7749Z" fill="#E6E6E6"/>
<path d="M79.0173 92.3156L92.1651 78.1649C92.5532 77.7481 93.0903 77.5028 93.6585 77.4828C94.2267 77.4627 94.7796 77.6696 95.196 78.0581L109.437 91.3741C109.852 91.7635 110.097 92.3023 110.117 92.8723C110.137 93.4423 109.931 93.997 109.543 94.4147L91.3448 114.001C90.9566 114.418 90.4195 114.664 89.8513 114.684C89.2831 114.704 88.7302 114.497 88.3138 114.108L79.4919 105.859C77.6412 104.125 76.5519 101.725 76.4629 99.1859C76.374 96.6468 77.2926 94.176 79.0173 92.3156Z" fill="white"/>
<path d="M90.8 84.2695C91.1792 83.8622 91.7041 83.6224 92.2593 83.6029C92.8146 83.5833 93.3549 83.7855 93.7617 84.165L103.641 93.4024C104.047 93.7825 104.287 94.3091 104.306 94.8663C104.326 95.4235 104.124 95.9657 103.745 96.3735C103.366 96.7814 102.841 97.0215 102.285 97.0411C101.73 97.0607 101.19 96.8581 100.783 96.478L90.9041 87.2407C90.4981 86.8602 90.2591 86.3337 90.2396 85.7767C90.2201 85.2197 90.4216 84.6776 90.8 84.2695Z" fill="#E6E6E6"/>
<path d="M86.3547 89.0537C86.734 88.6464 87.2588 88.4066 87.814 88.387C88.3693 88.3675 88.9096 88.5696 89.3165 88.9492L99.1953 98.1865C99.3966 98.3748 99.559 98.6009 99.6732 98.8521C99.7874 99.1033 99.8511 99.3746 99.8608 99.6505C99.8704 99.9264 99.8258 100.201 99.7295 100.46C99.6332 100.719 99.4871 100.956 99.2994 101.158C99.1118 101.36 98.8863 101.523 98.6359 101.637C98.3856 101.752 98.1151 101.816 97.8401 101.825C97.5651 101.835 97.2908 101.79 97.033 101.694C96.7753 101.597 96.539 101.45 96.3377 101.262L86.4588 92.0249C86.0528 91.6444 85.8138 91.1179 85.7943 90.5609C85.7747 90.0038 85.9763 89.4618 86.3547 89.0537Z" fill="#E6E6E6"/>
<path d="M81.9094 93.8378C82.2886 93.4305 82.8135 93.1908 83.3687 93.1712C83.924 93.1516 84.4643 93.3538 84.8711 93.7334L94.75 102.971C95.1566 103.351 95.3959 103.877 95.4155 104.435C95.435 104.992 95.2331 105.534 94.8541 105.942C94.4752 106.35 93.9502 106.59 93.3948 106.609C92.8394 106.629 92.2989 106.426 91.8924 106.046L82.0135 96.809C81.6074 96.4286 81.3685 95.902 81.349 95.345C81.3294 94.788 81.531 94.246 81.9094 93.8378Z" fill="#E6E6E6"/>
<path d="M105.945 120.073L98.8747 130.229L98.5451 130.628C97.9724 131.319 97.1815 131.792 96.3035 131.97C96.1791 131.995 96.0542 132.014 95.9288 132.026C95.7739 132.042 95.6183 132.049 95.4627 132.046C95.3735 132.044 95.2845 132.039 95.1958 132.031C94.68 131.987 94.1781 131.84 93.7191 131.6L90.7025 129.486C90.4623 129.318 90.291 129.069 90.2203 128.784C90.1851 128.643 90.1751 128.496 90.1907 128.352C90.213 128.15 90.2857 127.956 90.4021 127.789L99.1083 115.283C99.2931 115.018 99.5751 114.838 99.8923 114.782C100.209 114.725 100.536 114.797 100.8 114.982L105.645 118.376C105.656 118.384 105.667 118.392 105.679 118.4C105.686 118.406 105.693 118.411 105.7 118.417C105.71 118.424 105.719 118.432 105.728 118.44C105.74 118.449 105.751 118.459 105.763 118.469C105.773 118.479 105.783 118.488 105.793 118.498L105.799 118.503C105.811 118.516 105.824 118.528 105.836 118.541C105.848 118.554 105.86 118.567 105.871 118.58C105.879 118.59 105.888 118.6 105.896 118.61L105.896 118.611C105.92 118.64 105.942 118.67 105.962 118.702C105.969 118.711 105.975 118.721 105.981 118.731L105.984 118.735C105.989 118.743 105.994 118.751 105.998 118.759C106.012 118.783 106.025 118.808 106.038 118.833C106.058 118.875 106.076 118.917 106.092 118.961C106.097 118.975 106.102 118.989 106.106 119.003C106.11 119.014 106.113 119.026 106.116 119.038L106.117 119.041L106.118 119.045C106.122 119.056 106.124 119.066 106.127 119.076C106.132 119.095 106.136 119.115 106.14 119.135C106.141 119.14 106.143 119.146 106.144 119.151C106.145 119.157 106.145 119.162 106.146 119.168C106.148 119.173 106.148 119.179 106.149 119.184L106.151 119.193C106.153 119.209 106.155 119.225 106.157 119.241C106.159 119.261 106.161 119.282 106.162 119.302C106.163 119.318 106.164 119.335 106.164 119.351C106.164 119.367 106.164 119.381 106.164 119.396C106.164 119.4 106.164 119.404 106.164 119.408C106.163 119.423 106.163 119.439 106.162 119.454C106.16 119.493 106.155 119.532 106.149 119.57C106.147 119.584 106.144 119.598 106.141 119.612C106.138 119.629 106.134 119.646 106.13 119.662C106.129 119.669 106.127 119.675 106.126 119.681C106.123 119.69 106.121 119.7 106.118 119.709C106.115 119.719 106.112 119.729 106.109 119.739L106.101 119.764C106.096 119.778 106.091 119.792 106.086 119.806C106.083 119.814 106.079 119.823 106.076 119.831C106.051 119.892 106.022 119.951 105.989 120.006C105.984 120.013 105.98 120.02 105.976 120.027C105.966 120.042 105.956 120.058 105.945 120.073Z" fill="white"/>
<path d="M101.159 120.459C101.732 120.459 102.197 119.993 102.197 119.418C102.197 118.843 101.732 118.377 101.159 118.377C100.586 118.377 100.121 118.843 100.121 119.418C100.121 119.993 100.586 120.459 101.159 120.459Z" fill="#C95884"/>
<path d="M89.4333 130.42C89.0225 129.957 88.718 129.408 88.5413 128.813C88.3647 128.219 88.3201 127.592 88.4109 126.979C88.5016 126.365 88.7253 125.779 89.0664 125.261C89.4074 124.743 89.8575 124.307 90.3848 123.983L84.8828 97.7012L92.1752 100.514L96.3969 125.622C96.8812 126.547 97.0105 127.618 96.7604 128.632C96.5102 129.646 95.898 130.533 95.0396 131.124C94.1813 131.715 93.1365 131.971 92.1032 131.841C91.0699 131.711 90.1199 131.206 89.4333 130.42Z" fill="#FFB8B8"/>
<path d="M85.3917 119.756L82.4238 100.572L81.3086 63.7304L82.1374 52.6879C82.2046 51.7929 82.4477 50.9202 82.8527 50.1199C83.2577 49.3196 83.8165 48.6076 84.497 48.025C85.1774 47.4423 85.9661 47.0005 86.8176 46.725C87.669 46.4494 88.5664 46.3457 89.458 46.4196C90.6287 46.5197 91.7537 46.9219 92.7237 47.5871C93.6936 48.2523 94.4756 49.1579 94.9935 50.2159L97.1619 54.6737L96.3877 117.531L85.3917 119.756Z" fill="#2F2E41"/>
<path d="M178.743 217.449C178.743 217.522 178.729 217.593 178.701 217.66C178.674 217.727 178.633 217.788 178.582 217.839C178.531 217.891 178.471 217.931 178.404 217.959C178.337 217.986 178.266 218 178.194 218H30.3929C30.2472 218 30.1076 217.942 30.0046 217.839C29.9016 217.736 29.8438 217.595 29.8438 217.449C29.8438 217.303 29.9016 217.163 30.0046 217.06C30.1076 216.956 30.2472 216.898 30.3929 216.898H178.194C178.266 216.898 178.337 216.912 178.404 216.94C178.471 216.968 178.531 217.008 178.582 217.059C178.633 217.111 178.674 217.171 178.701 217.238C178.729 217.305 178.743 217.377 178.743 217.449Z" fill="#CCCCCC"/>
<path d="M97.4581 32.6329C97.4645 32.5167 97.4994 32.4038 97.5596 32.3042C97.6198 32.2046 97.7036 32.1215 97.8035 32.0621C97.9033 32.0027 98.0162 31.9689 98.1322 31.9636C98.2482 31.9584 98.3637 31.9818 98.4685 32.032C98.5732 32.0821 98.6641 32.1573 98.7331 32.251C98.802 32.3448 98.8468 32.4541 98.8637 32.5693C98.8805 32.6845 98.8689 32.8021 98.8297 32.9118C98.7905 33.0214 98.725 33.1196 98.6389 33.1978L99.8274 35.157C99.8761 35.2374 99.8911 35.3339 99.8689 35.4253C99.8467 35.5167 99.7892 35.5955 99.7091 35.6444C99.629 35.6933 99.5329 35.7083 99.4418 35.686C99.3506 35.6638 99.2721 35.6062 99.2233 35.5258L97.8871 33.3229C97.7535 33.2661 97.6407 33.1694 97.5639 33.0459C97.4871 32.9225 97.4502 32.7783 97.4581 32.6329Z" fill="white"/>
<path d="M98.2922 33.9652C98.3362 34.0527 98.4425 34.0878 98.5297 34.0437C98.6168 33.9996 98.6519 33.893 98.6079 33.8055L98.2895 33.1722C98.2455 33.0847 98.1392 33.0496 98.052 33.0937C97.9649 33.1378 97.9299 33.2444 97.9738 33.3319L98.2922 33.9652Z" fill="#2F2E41"/>
</g>
<defs>
<clipPath id="clip0_318_44">
<rect width="204" height="218" fill="white"/>
</clipPath>
</defs>
</svg>
