<svg width="448" height="409" viewBox="0 0 448 409" fill="none" xmlns="http://www.w3.org/2000/svg">
<g clip-path="url(#clip0_318_411)">
<path d="M418.218 242.813C427.178 220.253 430.834 195.941 428.904 171.748C426.975 147.555 419.512 124.127 407.089 103.268L153.406 138.349L396.516 87.747C381.725 68.515 362.701 52.9405 340.917 42.2291C319.133 31.5176 295.173 25.9567 270.892 25.9766C183.348 25.9766 112.379 96.8567 112.379 184.292C112.381 191.518 112.874 198.736 113.854 205.895L418.218 242.813Z" fill="#F2F2F2"/>
<path d="M122.977 241.293C145.888 300.561 203.471 342.608 270.895 342.608C334.162 342.608 388.764 305.585 414.187 252.051L122.977 241.293Z" fill="#F2F2F2"/>
<path d="M410.27 296.354C410.27 358.569 318.425 409 205.135 409C144.272 409 89.6004 394.447 52.0359 371.327C27.5254 356.247 10.2941 337.516 3.38162 316.817C1.15071 310.224 0.00858229 303.313 0 296.354C0 234.146 169.995 -46.4693 205.135 183.715C240.275 413.898 410.27 234.146 410.27 296.354Z" fill="#E85569"/>
<path opacity="0.1" d="M307.082 337.206C307.082 360.177 234.446 378.802 144.839 378.802C110.326 378.802 78.3316 376.04 52.0371 371.327C27.5266 356.247 10.2953 337.516 3.38281 316.817C31.2003 304.158 84.1252 295.609 144.839 295.609C234.446 295.609 307.082 314.235 307.082 337.206Z" fill="black"/>
<path d="M189.968 100.272C177.11 78.5736 151.671 77.5623 151.671 77.5623C151.671 77.5623 126.883 74.3964 110.981 107.444C96.1598 138.247 75.7042 167.988 107.688 175.199L113.465 157.24L117.043 176.536C121.597 176.863 126.165 176.941 130.728 176.769C164.98 175.665 197.6 177.092 196.55 164.817C195.154 148.498 202.34 121.151 189.968 100.272Z" fill="#2F2E41"/>
<path d="M105.865 290.299C105.388 292.667 105.036 295.075 104.225 297.351C103.42 299.611 102.178 301.7 101.443 303.983C99.0976 311.26 102.348 319.374 107.541 324.991C112.043 329.843 117.855 333.29 124.275 334.916C128.959 336.093 133.83 336.262 138.657 336.425C152.023 336.878 165.734 337.283 178.399 332.993C182.401 331.604 186.266 329.85 189.946 327.754C191.108 327.201 192.131 326.396 192.942 325.398C193.908 324.024 194.031 322.243 194.023 320.564C193.995 314.905 192.846 309.275 193.119 303.622C193.27 300.491 193.856 297.362 193.568 294.24C192.913 287.161 187.284 280.825 180.325 279.333C176.732 278.562 173.005 278.982 169.347 279.333C159.852 280.245 150.316 280.67 140.778 280.609C131.032 280.547 121.346 279.061 111.648 278.906C108.78 278.86 108.838 279.743 107.925 282.515C107.084 285.067 106.396 287.666 105.865 290.299Z" fill="#2F2E41"/>
<path d="M133.523 150.555C133.054 153.005 132.548 155.544 131.074 157.556C129.379 159.872 126.614 161.195 124.79 163.412C122.045 166.748 121.887 171.442 121.876 175.76C121.865 179.738 121.946 183.981 124.167 187.283C125.609 189.426 127.802 190.929 129.946 192.372C138.276 197.978 147.277 203.686 157.32 203.87C161.482 203.947 165.944 202.874 168.682 199.743C169.864 198.273 170.793 196.616 171.432 194.842C174 188.52 175.557 181.833 176.045 175.028C176.274 171.826 176.252 168.531 175.167 165.51C173.947 162.112 171.48 159.317 169.85 156.096C167.922 152.265 167.217 147.937 167.83 143.694C167.911 143.395 167.886 143.078 167.759 142.795C167.625 142.644 167.458 142.526 167.27 142.45C167.083 142.374 166.88 142.343 166.679 142.358L146.765 140.926C144.91 140.834 143.063 140.623 141.236 140.295C140.162 140.077 137.327 138.554 136.303 138.959C134.408 139.708 133.911 148.524 133.523 150.555Z" fill="#A0616A"/>
<path opacity="0.1" d="M133.523 151.176C133.054 153.626 132.548 156.165 131.074 158.177C129.379 160.493 126.614 161.816 124.79 164.033C122.045 167.369 121.887 172.063 121.876 176.381C121.865 180.359 121.946 184.602 124.167 187.904C125.609 190.047 127.802 191.55 129.946 192.993C138.276 198.599 147.277 204.307 157.32 204.492C161.482 204.568 165.944 203.495 168.682 200.364C169.864 198.894 170.793 197.238 171.432 195.463C174 189.141 175.557 182.454 176.045 175.649C176.274 172.447 176.252 169.152 175.167 166.131C173.947 162.733 171.48 159.938 169.85 156.717C167.922 152.887 167.217 148.558 167.83 144.315C167.911 144.016 167.886 143.699 167.759 143.416C167.625 143.265 167.458 143.147 167.27 143.071C167.083 142.995 166.88 142.964 166.679 142.979L146.765 141.547C144.91 141.455 143.063 141.244 141.236 140.916C140.162 140.698 137.327 139.175 136.303 139.58C134.408 140.329 133.911 149.145 133.523 151.176Z" fill="black"/>
<path d="M152.568 153.223C168.703 153.223 181.784 140.158 181.784 124.043C181.784 107.927 168.703 94.8633 152.568 94.8633C136.432 94.8633 123.352 107.927 123.352 124.043C123.352 140.158 136.432 153.223 152.568 153.223Z" fill="#A0616A"/>
<path d="M137.619 189.399C139.142 190.989 140.756 192.563 142.751 193.495C144.736 194.422 146.972 194.652 149.162 194.714C154.429 194.862 160.138 193.898 163.801 190.117C168.524 185.242 168.368 177.38 172.07 171.693C172.368 171.177 172.775 170.733 173.263 170.39C173.884 170.052 174.586 169.891 175.292 169.924C179.967 169.88 184.04 172.909 187.715 175.795C189.361 177.088 191.049 178.427 192.088 180.244C192.814 181.66 193.312 183.182 193.562 184.754C195.386 193.646 195.977 202.738 196.563 211.796C196.887 216.8 197.211 221.808 197.187 226.821C197.107 243.339 193.263 259.581 189.441 275.651C188.948 277.722 188.274 280.037 186.389 281.029C185.548 281.406 184.646 281.626 183.725 281.678C172.777 282.962 161.805 284.248 150.782 284.417C146.481 284.484 142.181 284.38 137.883 284.105C137.143 284.096 136.41 283.968 135.71 283.727C134.761 283.272 133.945 282.58 133.341 281.718C127.379 274.214 127.027 263.839 127.065 254.26C127.158 230.838 127.996 207.436 129.578 184.052C129.709 182.122 129.738 179.778 128.345 178.259C130.852 182.268 134.34 185.976 137.619 189.399Z" fill="#D0CDE1"/>
<path d="M131.43 155.707C130.443 157.491 123.168 161.921 121.764 163.4C113.917 171.661 99.5944 171.351 92.4176 180.199C89.8925 183.312 88.5806 187.224 87.6158 191.113C86.2512 196.613 85.5226 202.611 87.8085 207.797C90.0082 212.787 94.6386 216.237 97.7824 220.694C101.234 225.589 102.786 231.531 104.274 237.331C105.372 241.613 106.479 246.001 106.051 250.4C105.565 255.403 103.141 259.983 101.71 264.801C100.279 269.619 100.032 275.358 103.341 279.144C105.772 281.926 109.585 283.029 113.229 283.65C117.881 284.441 122.608 284.667 127.322 284.875C131.488 285.059 136.08 285.094 139.283 282.427C141.81 280.322 142.908 276.907 143.05 273.624C143.192 270.341 142.508 267.087 142.08 263.828C141.636 260.451 141.465 257.044 141.322 253.64C140.682 238.368 140.594 223.086 141.06 207.795C141.157 204.613 141.275 201.392 140.596 198.282C139.702 194.191 137.489 190.535 135.642 186.777C131.976 179.317 130.242 172.07 130.808 163.778C131.368 155.594 134.941 149.359 131.43 155.707Z" fill="#575A89"/>
<path d="M172.457 156.327C173.96 157.87 179.067 158.379 180.979 159.372C182.736 160.285 184.679 160.762 186.581 161.31C193.556 163.319 200.189 166.36 206.262 170.331C207.524 171.068 208.639 172.03 209.553 173.17C210.623 174.656 211.011 176.511 211.374 178.305C212.31 182.936 213.251 187.624 213.04 192.344C212.817 197.355 211.306 202.207 209.807 206.994L204.205 224.88C200.024 238.231 195.816 251.713 194.639 265.652C193.988 273.377 194.278 281.153 195.501 288.809C195.624 289.579 195.728 290.461 195.219 291.052C194.85 291.416 194.364 291.639 193.847 291.682C191.143 292.104 188.527 290.728 186.077 289.509C178.591 285.788 170.601 283.177 162.359 281.758C165.58 277.11 168.064 271.995 169.726 266.591C170.67 263.16 171.413 259.677 171.952 256.16L174.558 241.108C175.513 235.588 176.47 230.055 176.793 224.462C176.99 222.366 176.868 220.252 176.43 218.192C175.931 216.205 174.939 214.384 174.05 212.537C169.756 203.615 167.741 193.434 169.431 183.68C170.17 179.411 171.607 175.136 171.008 170.846C170.432 166.72 171.03 163.514 169.971 159.432C165.619 142.669 169.629 153.425 172.457 156.327Z" fill="#575A89"/>
<path d="M92.3448 194.304C90.387 198.362 87.1139 201.819 85.9998 206.183C85.5663 208.223 85.3806 210.308 85.4466 212.392C85.4202 215.533 85.403 218.738 86.3688 221.728C86.9906 223.653 88.0022 225.428 88.7309 227.315C89.7467 229.951 90.1993 232.77 90.0595 235.591C89.8629 239.5 88.5334 243.294 88.4295 247.206C88.2661 253.358 91.1152 259.142 93.8952 264.634C94.5949 262.903 95.6648 261.346 97.03 260.072C98.3952 258.797 100.023 257.836 101.799 257.255C103.575 256.675 105.456 256.488 107.312 256.71C109.167 256.931 110.952 257.555 112.541 258.537C113.275 257.861 113.353 256.75 113.382 255.753C113.587 248.616 113.785 241.478 113.976 234.34C114.277 223.301 114.564 212.115 112.021 201.368C110.873 196.515 109.087 191.681 105.812 187.918C104.088 185.936 98.2348 180.716 95.4044 182.936C94.1315 183.935 94.429 186.652 94.2273 188.028C93.9229 190.204 93.2881 192.32 92.3448 194.304Z" fill="#575A89"/>
<path d="M213.612 182.612C214.538 185.491 214.594 188.569 214.612 191.593C214.65 197.764 214.568 203.933 214.367 210.101C214.263 213.259 214.121 216.46 213.163 219.471C212.531 221.457 211.555 223.319 210.902 225.298C208.945 231.229 210.014 237.662 210.182 243.904C210.3 245.925 210.128 247.951 209.669 249.923C208.637 253.793 205.861 256.92 203.924 260.426C202.085 263.757 200.975 267.489 198.777 270.596C196.58 273.703 192.777 276.165 189.09 275.211C186.297 274.488 184.312 272.019 182.939 269.484C179.943 263.911 178.919 257.491 180.031 251.263C181.409 243.687 185.865 236.966 187.472 229.434C189.679 219.092 186.325 208.419 186.425 197.845C186.38 196.188 186.605 194.534 187.092 192.949C187.934 190.533 189.745 188.604 191.417 186.667C193.507 184.247 195.449 181.702 197.231 179.047C198.428 177.264 200.055 172.677 202.177 172.295C206.917 171.444 212.437 178.955 213.612 182.612Z" fill="#575A89"/>
<path d="M67.7545 285.699C65.1337 285.041 62.4333 284.754 59.7326 284.847C56.8951 285.004 54.1234 285.762 51.6019 287.071C49.0804 288.381 46.8669 290.211 45.1086 292.441C43.3503 294.671 42.0874 297.249 41.404 300.004C40.7205 302.759 40.6322 305.628 41.1448 308.42C41.7028 311.458 42.9562 314.324 44.3235 317.095C46.4509 321.407 49.0024 325.709 52.9408 328.472C55.2446 330.088 57.9111 331.096 60.5458 332.087L81.2885 339.892C84.34 341.04 87.3919 342.188 90.4736 343.253C105.956 348.597 122.097 351.802 138.449 352.778C143.429 353.075 148.485 353.157 153.344 352.025C154.497 351.756 155.727 351.355 156.395 350.378C156.79 349.69 157.023 348.921 157.077 348.13L158.353 339.206C158.533 337.949 158.706 336.626 158.244 335.443C157.66 333.944 156.194 333 154.797 332.198C141.16 324.376 125.237 320.06 113.759 309.324C111.057 306.796 108.795 302.79 105.512 301.073C101.789 299.126 97.4046 298.015 93.5564 296.221C85.1436 292.299 76.8723 287.792 67.7545 285.699Z" fill="#2F2E41"/>
<path opacity="0.1" d="M88.4602 297.731C95.7919 300.025 126.746 315.921 132.052 321.471C131.341 321.727 107.211 308.222 106.487 308.005C99.9057 306.032 93.2877 304.046 87.0376 301.159C85.7803 300.578 78.8692 297.849 79.1822 296.264C79.5354 294.476 87.1586 297.323 88.4602 297.731Z" fill="black"/>
<path d="M179.927 357.407C180.343 357.438 180.756 357.316 181.089 357.066C181.235 356.878 181.343 356.664 181.405 356.434C181.467 356.205 181.484 355.965 181.452 355.73C181.441 351.677 181.43 347.624 181.418 343.572C177.918 341.906 174.002 341.372 170.159 340.859L152.226 338.465C152.638 338.52 149.422 346.179 149.915 347.202C150.784 349.004 157.426 350.601 159.3 351.452C165.816 354.41 172.588 357.662 179.927 357.407Z" fill="#A0616A"/>
<path d="M123.665 343.529C120.279 344.068 116.5 344.544 114.307 347.176C111.526 350.515 112.71 355.491 114.037 359.627C114.234 360.463 114.629 361.24 115.19 361.892C116.095 362.784 117.483 362.915 118.752 362.995C121.84 363.19 125.126 363.343 127.824 361.83C129.101 361.114 130.157 360.067 131.348 359.214C133.337 357.892 135.524 356.893 137.827 356.256C142.061 354.926 146.418 354.029 150.833 353.579C152.564 353.402 154.329 353.289 155.957 352.677C157.585 352.064 159.093 350.85 159.565 349.178C160.19 346.968 158.905 344.716 157.672 342.778C156.135 340.364 154.508 337.822 152.218 336.046C148.876 333.453 147.223 335.443 143.857 337.102C137.487 340.242 130.68 342.409 123.665 343.529Z" fill="#A0616A"/>
<path d="M114.816 346.577L93.3165 340.23C90.7018 339.458 88.0424 338.68 85.3159 338.682C82.5893 338.684 79.7367 339.577 77.9684 341.649C76.3013 343.603 75.8241 346.274 75.4085 348.808L74.5195 354.227C74.0677 356.982 73.6151 359.789 74.0217 362.55C74.4284 365.311 75.8397 368.07 78.2927 369.406C81.2678 371.028 84.9141 370.236 88.2345 369.558C94.9413 368.188 101.763 367.458 108.608 367.376C111.181 367.345 113.881 367.377 116.155 366.173C118.858 364.743 120.475 361.717 120.753 358.675C121.176 354.045 119.631 347.998 114.816 346.577Z" fill="#2F2E41"/>
<path d="M188.378 341.044C191.165 340.557 193.625 338.975 196.295 338.041C200.054 336.726 204.128 336.726 208.111 336.741C209.573 336.746 211.129 336.779 212.347 337.588C214.101 338.755 214.55 341.089 214.849 343.173C215.449 347.363 216.049 351.554 216.648 355.745C216.987 358.109 217.324 360.537 216.796 362.867C216.268 365.197 214.678 367.443 212.363 368.044C209.551 368.774 206.795 366.98 204.141 365.802C197.507 362.857 189.794 363.609 182.877 361.408C181.593 361 180.218 360.375 179.694 359.136C179.458 358.437 179.373 357.697 179.447 356.963C179.565 352.922 178.712 347.404 179.93 343.542C181.025 340.069 185.267 341.044 188.378 341.044Z" fill="#2F2E41"/>
<path d="M233.878 280.639C238.174 279.563 242.627 279.26 247.029 279.742C250.545 280.129 254.168 281.106 256.735 283.536C259.859 286.495 260.863 291.07 260.947 295.369C261.084 303.932 258.241 312.276 252.902 318.978C251.598 320.673 250.048 322.163 248.303 323.4C246.42 324.576 244.413 325.542 242.318 326.28L195.866 344.579C183.645 349.393 171.382 354.221 158.635 357.395C158.286 357.563 157.908 357.66 157.521 357.68C157.135 357.699 156.748 357.642 156.385 357.51C156.021 357.378 155.687 357.175 155.403 356.912C155.119 356.65 154.89 356.333 154.731 355.981C150.661 350.175 147.246 343.937 144.549 337.381C144.422 337.225 144.334 337.041 144.292 336.844C144.251 336.647 144.258 336.443 144.312 336.249C144.367 336.055 144.467 335.877 144.605 335.73C144.743 335.583 144.914 335.471 145.104 335.405L177.96 316.55C180.314 315.2 182.693 313.83 184.648 311.948C186.068 310.574 187.23 308.957 188.081 307.174C188.762 305.753 188.826 302.401 189.696 301.351C190.547 300.322 193.461 300.24 194.807 299.836C196.704 299.255 198.563 298.554 200.371 297.735C207.72 294.451 214.265 289.68 221.311 285.835C225.263 283.578 229.485 281.833 233.878 280.639Z" fill="#2F2E41"/>
<path opacity="0.1" d="M215.249 294.72C209.604 298.955 202.295 302.847 196.701 307.193C194.791 308.676 162.962 326.549 162.512 328.922C167.731 329.801 200.979 306.57 205.736 304.252C210.493 301.934 214.71 298.665 218.889 295.42C219.954 294.593 224.467 292.108 221.41 291.184C219.688 290.663 216.521 293.874 215.249 294.72Z" fill="black"/>
<path d="M176.41 156.738H126.859C124.846 156.738 122.916 157.537 121.492 158.959C120.069 160.38 119.269 162.309 119.269 164.319V167.095H118.73V173.304H119.269V177.65H118.73V181.375H119.269V227.184C119.269 229.195 120.069 231.123 121.492 232.545C122.916 233.966 124.846 234.765 126.859 234.765H176.41C178.423 234.765 180.354 233.966 181.777 232.545C183.201 231.123 184.001 229.195 184.001 227.184V164.319C184.001 162.309 183.201 160.38 181.777 158.959C180.354 157.537 178.423 156.738 176.41 156.738Z" fill="#3F3D56"/>
<path d="M184.284 98.1812L159.152 85.0332L124.446 90.4121L117.266 122.086L135.14 121.4L140.134 109.763V121.208L148.381 120.891L153.168 102.365L156.16 122.086L185.481 121.489L184.284 98.1812Z" fill="#2F2E41"/>
<path d="M98.9201 276.537C100.162 278.388 101.617 280.199 103.611 281.198C106.104 282.446 109.18 282.223 111.676 280.982C114.15 279.657 116.175 277.629 117.495 275.155C120.227 270.338 120.792 264.573 120.451 259.048C120.111 253.523 118.929 248.082 118.406 242.57C118.026 238.564 117.996 234.534 117.965 230.51C117.958 229.664 117.972 228.753 118.472 228.071C119.077 227.246 120.185 227.018 121.167 226.727C126.679 225.091 130.338 219.931 132.961 214.82C134.713 211.407 136.236 207.676 135.898 203.856C135.561 200.036 132.811 196.188 128.991 195.798C125.842 195.477 122.934 197.474 120.662 199.676C114.931 205.266 111.248 212.617 110.205 220.549C109.706 224.433 109.849 228.423 108.791 232.194C106.533 240.246 99.4658 245.182 95.9441 252.427C92.0635 260.41 94.2052 269.474 98.9201 276.537Z" fill="#A0616A"/>
<path d="M202.913 245.776C202.109 247.643 200.939 249.33 199.472 250.739C198.005 252.147 196.269 253.247 194.369 253.975C192.007 254.922 189.402 255.082 186.942 254.429C185.722 254.091 184.596 253.477 183.653 252.634C182.709 251.791 181.973 250.742 181.501 249.569C181.125 248.387 180.918 247.157 180.888 245.918C180.535 240.488 180.671 234.893 182.646 229.822C183.408 227.866 184.435 226.011 185.036 224C185.721 221.706 185.831 219.286 185.935 216.895L186.585 202.08C186.692 201.005 186.617 199.919 186.364 198.868C185.717 196.724 183.711 195.331 181.87 194.053C177.425 190.966 173.033 187.363 170.879 182.402C170.22 180.884 169.785 179.196 170.119 177.576C170.727 174.634 173.699 172.73 176.637 172.088C178.56 171.668 180.547 171.641 182.48 172.009C184.413 172.377 186.252 173.132 187.885 174.228C189.518 175.325 190.912 176.74 191.983 178.389C193.054 180.037 193.779 181.886 194.116 183.822C194.407 185.494 194.403 187.202 194.573 188.89C194.934 192.471 196.072 195.924 196.784 199.452C198.538 208.144 197.63 217.128 199.364 225.818C200.815 233.084 206.284 237.825 202.913 245.776Z" fill="#A0616A"/>
<path d="M152.298 190.065C155.731 190.065 158.514 187.286 158.514 183.857C158.514 180.428 155.731 177.648 152.298 177.648C148.865 177.648 146.082 180.428 146.082 183.857C146.082 187.286 148.865 190.065 152.298 190.065Z" fill="#D0CDE1"/>
<path d="M414.697 190.504C408.11 190.504 401.672 192.455 396.195 196.109C390.719 199.764 386.45 204.959 383.93 211.036C381.409 217.114 380.749 223.801 382.034 230.253C383.319 236.705 386.491 242.632 391.149 247.283C395.806 251.935 401.74 255.102 408.2 256.386C414.66 257.669 421.356 257.011 427.441 254.493C433.526 251.976 438.727 247.713 442.386 242.243C446.046 236.773 447.999 230.343 447.999 223.764C447.999 219.397 447.137 215.072 445.464 211.036C443.79 207.001 441.337 203.334 438.245 200.246C435.152 197.157 431.481 194.707 427.441 193.036C423.4 191.364 419.07 190.504 414.697 190.504ZM431.155 215.329C431.173 215.688 431.181 216.056 431.181 216.424C431.181 227.645 422.639 240.583 407 240.583C402.386 240.593 397.869 239.26 394.002 236.746C394.674 236.827 395.351 236.868 396.028 236.869C399.854 236.876 403.571 235.595 406.579 233.234C404.806 233.2 403.087 232.614 401.664 231.557C400.241 230.5 399.184 229.025 398.642 227.338C399.167 227.444 399.702 227.497 400.238 227.496C400.994 227.496 401.746 227.396 402.475 227.198C400.552 226.81 398.822 225.769 397.58 224.252C396.338 222.735 395.659 220.836 395.66 218.876V218.771C396.84 219.434 398.165 219.798 399.519 219.831C397.718 218.632 396.442 216.792 395.951 214.686C395.461 212.58 395.792 210.366 396.879 208.496C399.009 211.121 401.668 213.268 404.685 214.797C407.701 216.326 411.007 217.203 414.385 217.37C414.236 216.735 414.163 216.086 414.166 215.434C414.164 213.732 414.675 212.068 415.633 210.66C416.59 209.252 417.95 208.165 419.535 207.539C421.12 206.913 422.857 206.779 424.519 207.153C426.182 207.526 427.693 208.391 428.857 209.635C430.76 209.263 432.585 208.567 434.251 207.576C433.617 209.542 432.289 211.211 430.515 212.272C432.198 212.068 433.841 211.616 435.391 210.931C434.252 212.637 432.817 214.126 431.155 215.329Z" fill="#3F3D56"/>
<path d="M403.988 103.9C407.256 103.9 409.905 101.254 409.905 97.9903C409.905 94.7262 407.256 92.0801 403.988 92.0801C400.72 92.0801 398.07 94.7262 398.07 97.9903C398.07 101.254 400.72 103.9 403.988 103.9Z" fill="#3F3D56"/>
<path d="M411.386 83.2148H396.592C394.632 83.2206 392.754 84.0007 391.368 85.385C389.982 86.7692 389.201 88.645 389.195 90.6026V105.378C389.201 107.336 389.982 109.211 391.368 110.596C392.754 111.98 394.632 112.76 396.592 112.766H411.386C413.346 112.76 415.224 111.98 416.61 110.596C417.996 109.211 418.778 107.336 418.783 105.378V90.6026C418.778 88.645 417.996 86.7693 416.61 85.385C415.224 84.0008 413.346 83.2206 411.386 83.2148H411.386ZM403.989 106.856C402.234 106.856 400.518 106.336 399.058 105.362C397.598 104.387 396.46 103.003 395.789 101.383C395.117 99.763 394.941 97.9805 395.283 96.2608C395.626 94.5411 396.471 92.9614 397.713 91.7216C398.954 90.4818 400.536 89.6374 402.258 89.2954C403.979 88.9533 405.764 89.1289 407.386 89.7999C409.008 90.4709 410.394 91.6071 411.37 93.065C412.345 94.5229 412.866 96.2369 412.866 97.9903C412.865 100.341 411.93 102.596 410.265 104.258C408.601 105.921 406.343 106.855 403.989 106.856ZM413.605 90.6026C413.166 90.6026 412.737 90.4726 412.372 90.229C412.008 89.9855 411.723 89.6394 411.555 89.2344C411.387 88.8294 411.343 88.3838 411.429 87.9539C411.515 87.5239 411.726 87.129 412.036 86.8191C412.347 86.5091 412.742 86.298 413.172 86.2125C413.603 86.127 414.049 86.1709 414.455 86.3387C414.86 86.5064 415.207 86.7905 415.45 87.155C415.694 87.5194 415.824 87.9479 415.824 88.3863C415.825 88.6775 415.768 88.9661 415.657 89.2353C415.546 89.5045 415.382 89.7491 415.176 89.955C414.97 90.161 414.725 90.3242 414.455 90.4353C414.186 90.5465 413.897 90.6033 413.605 90.6026V90.6026Z" fill="#3F3D56"/>
<path d="M403.611 63.2383C396.668 63.2383 389.88 65.2947 384.107 69.1476C378.333 73.0004 373.834 78.4766 371.176 84.8837C368.519 91.2907 367.824 98.3408 369.179 105.143C370.533 111.944 373.877 118.192 378.787 123.096C383.697 127.999 389.952 131.339 396.762 132.692C403.573 134.045 410.631 133.35 417.047 130.697C423.462 128.043 428.945 123.548 432.802 117.782C436.66 112.016 438.719 105.237 438.719 98.3019C438.719 93.6973 437.811 89.1378 436.047 84.8837C434.282 80.6295 431.696 76.7641 428.436 73.5082C425.176 70.2522 421.306 67.6695 417.047 65.9073C412.787 64.1452 408.222 63.2383 403.611 63.2383ZM421.744 105.379C421.736 108.12 420.642 110.746 418.702 112.684C416.762 114.622 414.132 115.714 411.388 115.722H396.594C393.85 115.714 391.221 114.622 389.281 112.684C387.34 110.746 386.247 108.12 386.239 105.379V90.6038C386.247 87.8631 387.34 85.2371 389.281 83.2991C391.221 81.3612 393.85 80.269 396.594 80.2609H411.388C414.132 80.269 416.762 81.3612 418.702 83.2991C420.642 85.2371 421.736 87.8631 421.744 90.6038L421.744 105.379Z" fill="#3F3D56"/>
<path d="M261.2 0C254.368 0 247.689 2.02343 242.009 5.81442C236.328 9.60541 231.9 14.9937 229.286 21.2979C226.671 27.602 225.987 34.539 227.32 41.2315C228.653 47.924 231.943 54.0714 236.774 58.8964C241.605 63.7214 247.76 67.0073 254.461 68.3385C261.162 69.6697 268.108 68.9865 274.42 66.3752C280.732 63.7639 286.127 59.3419 289.922 53.6683C293.718 47.9947 295.744 41.3243 295.744 34.5007C295.744 29.97 294.851 25.4837 293.115 21.2979C291.379 17.112 288.834 13.3087 285.626 10.105C282.419 6.90134 278.611 4.36003 274.42 2.62621C270.229 0.892387 265.737 0 261.2 0ZM272.092 20.876H267.67C264.651 20.876 264.075 22.3023 264.075 24.4042V28.8707H271.266L270.326 35.8769H264.075V54.8939H256.058V35.8769H250.308V28.8707H256.058V23.6911C256.058 17.4855 260.367 14.1075 265.917 14.1075C268.572 14.1075 271.428 14.3077 272.092 14.3952L272.092 20.876Z" fill="#3F3D56"/>
</g>
<defs>
<clipPath id="clip0_318_411">
<rect width="448" height="409" fill="white"/>
</clipPath>
</defs>
</svg>
