<svg width="364" height="253" viewBox="0 0 364 253" fill="none" xmlns="http://www.w3.org/2000/svg">
<path d="M331.114 92.6485L318.734 93.7756V82.7893L325.205 78.8457L331.114 92.6485Z" fill="#A0616A"/>
<path d="M319.576 252.093C343.643 252.093 363.152 250.603 363.152 248.765C363.152 246.927 343.643 245.438 319.576 245.438C295.51 245.438 276 246.927 276 248.765C276 250.603 295.51 252.093 319.576 252.093Z" fill="#E6E6E6"/>
<path d="M336.463 153.495L332.249 165.265C331.929 166.157 331.928 167.132 332.244 168.025C332.56 168.918 333.175 169.674 333.985 170.165C334.574 170.523 335.243 170.726 335.931 170.756C336.62 170.786 337.304 170.643 337.922 170.338C338.541 170.034 339.072 169.579 339.468 169.014C339.865 168.45 340.112 167.795 340.189 167.11L341.527 155.185L351.655 121.664L342.934 117.438L336.463 153.495Z" fill="#A0616A"/>
<path d="M332.944 242.369H339.134V182.086L325.066 181.805L332.944 242.369Z" fill="#A0616A"/>
<path d="M305.373 242.369H311.563V182.086L297.496 181.805L305.373 242.369Z" fill="#A0616A"/>
<path d="M340.117 188.426L324.08 186.735L320.704 168.989L314.514 187.017L295.383 185.045L303.26 155.186C317.66 145.389 331.337 145.603 344.337 155.186L340.117 188.426Z" fill="#2F2E41"/>
<path d="M312.928 244.936C313.024 245.701 312.942 246.478 312.691 247.206C312.439 247.935 312.023 248.595 311.476 249.138C310.929 249.68 310.265 250.089 309.535 250.333C308.804 250.578 308.028 250.651 307.265 250.547L295.862 248.999C294.843 248.84 293.928 248.282 293.318 247.448C292.709 246.614 292.455 245.572 292.612 244.551C292.753 243.63 293.219 242.79 293.926 242.183C294.632 241.576 295.533 241.242 296.463 241.242H298.343L304.529 235.6C304.59 239.443 307.417 238.59 312.089 238.214L312.928 244.936Z" fill="#2F2E41"/>
<path d="M340.498 244.936C340.594 245.701 340.513 246.478 340.261 247.206C340.009 247.935 339.594 248.595 339.046 249.138C338.499 249.68 337.835 250.089 337.105 250.333C336.375 250.578 335.598 250.651 334.835 250.547L323.433 248.999C322.413 248.84 321.498 248.282 320.889 247.448C320.279 246.614 320.025 245.572 320.182 244.551C320.324 243.63 320.79 242.79 321.496 242.183C322.203 241.576 323.103 241.242 324.034 241.242H325.914L332.099 235.6C332.16 239.443 334.987 238.59 339.659 238.214L340.498 244.936Z" fill="#2F2E41"/>
<path d="M318.527 85.8887C324.004 85.8887 328.444 81.443 328.444 75.959C328.444 70.475 324.004 66.0293 318.527 66.0293C313.05 66.0293 308.609 70.475 308.609 75.959C308.609 81.443 313.05 85.8887 318.527 85.8887Z" fill="#A0616A"/>
<path d="M345.745 159.411C333.292 150.28 318.338 151.208 301.855 158.284C309.323 137.117 312.504 117.391 306.638 100.703C306.638 97.7549 307.619 94.8903 309.425 92.5613C311.23 90.2324 313.759 88.5716 316.612 87.8409L318.736 87.2969L329.146 87.8603L338.921 93.5976C340.915 94.7676 342.569 96.4372 343.723 98.442C344.876 100.447 345.488 102.718 345.498 105.031L345.745 159.411Z" fill="#E6E6E6"/>
<path d="M297.634 151.241L293.42 163.011C293.101 163.903 293.099 164.878 293.416 165.771C293.732 166.664 294.347 167.42 295.156 167.911C295.746 168.269 296.415 168.472 297.103 168.502C297.791 168.532 298.476 168.389 299.094 168.084C299.712 167.78 300.244 167.325 300.64 166.761C301.036 166.196 301.284 165.541 301.361 164.856L302.699 152.932L312.827 119.41L304.105 115.185L297.634 151.241Z" fill="#A0616A"/>
<path d="M353.903 128.143H340.117V94.3398C342.501 95.6661 344.573 97.4903 346.191 99.6886C347.809 101.887 348.936 104.408 349.496 107.081L353.903 128.143Z" fill="#E6E6E6"/>
<path d="M310.966 70.5827C310.36 70.8693 309.693 71.0004 309.023 70.9641C308.354 70.9279 307.705 70.7254 307.133 70.3751C306.574 70.0052 306.152 69.4615 305.931 68.8278C305.711 68.1941 305.705 67.5054 305.914 66.8679C306.332 65.7914 307.391 65.1173 308.417 64.5907C310.682 63.4297 313.109 62.6179 315.616 62.1828C316.812 61.9758 318.077 61.8619 319.207 62.3043C319.766 62.5232 320.267 62.8699 320.822 63.099C321.843 63.5205 322.981 63.5223 324.06 63.7509C325.166 63.9926 326.207 64.4693 327.112 65.1486C328.018 65.8279 328.767 66.694 329.309 67.6884C329.665 68.365 329.938 69.0819 330.122 69.8237C330.642 71.8531 330.635 73.982 330.102 76.008C329.253 79.2176 327.092 82.1666 327.286 85.4812C325.688 84.5495 324.939 82.6525 323.605 81.3707C322.613 80.4238 321.329 79.8417 319.964 79.7196C319.591 79.7344 319.222 79.6402 318.901 79.4486C318.669 79.2211 318.508 78.93 318.439 78.6116L316.936 73.8971C316.63 72.9376 316.26 71.8952 315.395 71.3805C314.862 71.1101 314.273 70.9669 313.676 70.9621C312.246 70.8578 310.81 70.8713 309.382 71.0025" fill="#2F2E41"/>
<path d="M314.236 121.945L298.199 115.748L305.482 96.1006C306.33 93.8126 307.819 91.8182 309.771 90.3566C311.723 88.895 314.055 88.0283 316.487 87.8604L314.236 121.945Z" fill="#E6E6E6"/>
<path d="M191.806 211.343H15.68C14.8441 211.342 14.0428 211.009 13.4517 210.418C12.8607 209.826 12.5283 209.023 12.5273 208.187V15.8489C12.5283 15.012 12.8607 14.2097 13.4517 13.6179C14.0428 13.0262 14.8441 12.6933 15.68 12.6924H191.806C192.642 12.6933 193.444 13.0262 194.035 13.6179C194.626 14.2097 194.958 15.012 194.959 15.8489V208.187C194.958 209.023 194.626 209.826 194.035 210.418C193.444 211.009 192.642 211.342 191.806 211.343ZM15.68 13.955C15.1785 13.9555 14.6976 14.1553 14.343 14.5103C13.9884 14.8654 13.7889 15.3468 13.7884 15.8489V208.187C13.7889 208.689 13.9884 209.17 14.343 209.525C14.6976 209.88 15.1785 210.08 15.68 210.08H191.806C192.308 210.08 192.789 209.88 193.143 209.525C193.498 209.17 193.697 208.689 193.698 208.187V15.8489C193.697 15.3468 193.498 14.8654 193.143 14.5103C192.789 14.1553 192.308 13.9555 191.806 13.955H15.68Z" fill="#E6E6E6"/>
<path d="M52.0242 84.3859C54.3093 84.3859 56.1617 82.5311 56.1617 80.2432C56.1617 77.9553 54.3093 76.1006 52.0242 76.1006C49.7391 76.1006 47.8867 77.9553 47.8867 80.2432C47.8867 82.5311 49.7391 84.3859 52.0242 84.3859Z" fill="#E6E6E6"/>
<path d="M69.2625 84.3859C71.5476 84.3859 73.4 82.5311 73.4 80.2432C73.4 77.9553 71.5476 76.1006 69.2625 76.1006C66.9774 76.1006 65.125 77.9553 65.125 80.2432C65.125 82.5311 66.9774 84.3859 69.2625 84.3859Z" fill="#E6E6E6"/>
<path d="M138.223 84.3859C140.509 84.3859 142.361 82.5311 142.361 80.2432C142.361 77.9553 140.509 76.1006 138.223 76.1006C135.938 76.1006 134.086 77.9553 134.086 80.2432C134.086 82.5311 135.938 84.3859 138.223 84.3859Z" fill="#E6E6E6"/>
<path d="M155.462 84.3859C157.747 84.3859 159.599 82.5311 159.599 80.2432C159.599 77.9553 157.747 76.1006 155.462 76.1006C153.177 76.1006 151.324 77.9553 151.324 80.2432C151.324 82.5311 153.177 84.3859 155.462 84.3859Z" fill="#E6E6E6"/>
<path d="M52.0242 97.504C54.3093 97.504 56.1617 95.6493 56.1617 93.3614C56.1617 91.0735 54.3093 89.2188 52.0242 89.2188C49.7391 89.2188 47.8867 91.0735 47.8867 93.3614C47.8867 95.6493 49.7391 97.504 52.0242 97.504Z" fill="#E6E6E6"/>
<path d="M69.2625 97.504C71.5476 97.504 73.4 95.6493 73.4 93.3614C73.4 91.0735 71.5476 89.2188 69.2625 89.2188C66.9774 89.2188 65.125 91.0735 65.125 93.3614C65.125 95.6493 66.9774 97.504 69.2625 97.504Z" fill="#E6E6E6"/>
<path d="M86.5047 97.504C88.7898 97.504 90.6422 95.6493 90.6422 93.3614C90.6422 91.0735 88.7898 89.2188 86.5047 89.2188C84.2196 89.2188 82.3672 91.0735 82.3672 93.3614C82.3672 95.6493 84.2196 97.504 86.5047 97.504Z" fill="#E6E6E6"/>
<path d="M103.743 97.504C106.028 97.504 107.88 95.6493 107.88 93.3614C107.88 91.0735 106.028 89.2188 103.743 89.2188C101.458 89.2188 99.6055 91.0735 99.6055 93.3614C99.6055 95.6493 101.458 97.504 103.743 97.504Z" fill="#E6E6E6"/>
<path d="M120.985 97.504C123.27 97.504 125.123 95.6493 125.123 93.3614C125.123 91.0735 123.27 89.2188 120.985 89.2188C118.7 89.2188 116.848 91.0735 116.848 93.3614C116.848 95.6493 118.7 97.504 120.985 97.504Z" fill="#E6E6E6"/>
<path d="M138.223 97.504C140.509 97.504 142.361 95.6493 142.361 93.3614C142.361 91.0735 140.509 89.2188 138.223 89.2188C135.938 89.2188 134.086 91.0735 134.086 93.3614C134.086 95.6493 135.938 97.504 138.223 97.504Z" fill="#E6E6E6"/>
<path d="M155.462 97.504C157.747 97.504 159.599 95.6493 159.599 93.3614C159.599 91.0735 157.747 89.2188 155.462 89.2188C153.177 89.2188 151.324 91.0735 151.324 93.3614C151.324 95.6493 153.177 97.504 155.462 97.504Z" fill="#E6E6E6"/>
<path d="M103.743 110.622C106.028 110.622 107.88 108.767 107.88 106.48C107.88 104.192 106.028 102.337 103.743 102.337C101.458 102.337 99.6055 104.192 99.6055 106.48C99.6055 108.767 101.458 110.622 103.743 110.622Z" fill="#E6E6E6"/>
<path d="M120.985 110.622C123.27 110.622 125.123 108.767 125.123 106.48C125.123 104.192 123.27 102.337 120.985 102.337C118.7 102.337 116.848 104.192 116.848 106.48C116.848 108.767 118.7 110.622 120.985 110.622Z" fill="#E6E6E6"/>
<path d="M138.223 110.622C140.509 110.622 142.361 108.767 142.361 106.48C142.361 104.192 140.509 102.337 138.223 102.337C135.938 102.337 134.086 104.192 134.086 106.48C134.086 108.767 135.938 110.622 138.223 110.622Z" fill="#E6E6E6"/>
<path d="M155.462 110.622C157.747 110.622 159.599 108.767 159.599 106.48C159.599 104.192 157.747 102.337 155.462 102.337C153.177 102.337 151.324 104.192 151.324 106.48C151.324 108.767 153.177 110.622 155.462 110.622Z" fill="#E6E6E6"/>
<path d="M52.0242 123.74C54.3093 123.74 56.1617 121.886 56.1617 119.598C56.1617 117.31 54.3093 115.455 52.0242 115.455C49.7391 115.455 47.8867 117.31 47.8867 119.598C47.8867 121.886 49.7391 123.74 52.0242 123.74Z" fill="#E6E6E6"/>
<path d="M69.2625 123.74C71.5476 123.74 73.4 121.886 73.4 119.598C73.4 117.31 71.5476 115.455 69.2625 115.455C66.9774 115.455 65.125 117.31 65.125 119.598C65.125 121.886 66.9774 123.74 69.2625 123.74Z" fill="#E6E6E6"/>
<path d="M52.0242 136.859C54.3093 136.859 56.1617 135.005 56.1617 132.717C56.1617 130.429 54.3093 128.574 52.0242 128.574C49.7391 128.574 47.8867 130.429 47.8867 132.717C47.8867 135.005 49.7391 136.859 52.0242 136.859Z" fill="#E6E6E6"/>
<path d="M69.2625 136.859C71.5476 136.859 73.4 135.005 73.4 132.717C73.4 130.429 71.5476 128.574 69.2625 128.574C66.9774 128.574 65.125 130.429 65.125 132.717C65.125 135.005 66.9774 136.859 69.2625 136.859Z" fill="#E6E6E6"/>
<path d="M86.5047 136.859C88.7898 136.859 90.6422 135.005 90.6422 132.717C90.6422 130.429 88.7898 128.574 86.5047 128.574C84.2196 128.574 82.3672 130.429 82.3672 132.717C82.3672 135.005 84.2196 136.859 86.5047 136.859Z" fill="#E6E6E6"/>
<path d="M86.5047 123.74C88.7898 123.74 90.6422 121.886 90.6422 119.598C90.6422 117.31 88.7898 115.455 86.5047 115.455C84.2196 115.455 82.3672 117.31 82.3672 119.598C82.3672 121.886 84.2196 123.74 86.5047 123.74Z" fill="#E6E6E6"/>
<path d="M155.462 123.74C157.747 123.74 159.599 121.886 159.599 119.598C159.599 117.31 157.747 115.455 155.462 115.455C153.177 115.455 151.324 117.31 151.324 119.598C151.324 121.886 153.177 123.74 155.462 123.74Z" fill="#E6E6E6"/>
<path d="M72.4235 43.6254C71.7677 43.6362 71.1424 43.9046 70.6825 44.3727C70.2226 44.8408 69.9648 45.4712 69.9648 46.1279C69.9648 46.7845 70.2226 47.4149 70.6825 47.883C71.1424 48.3511 71.7677 48.6196 72.4235 48.6304H135.092C135.42 48.6361 135.746 48.577 136.052 48.4564C136.358 48.3358 136.637 48.156 136.873 47.9275C137.109 47.6989 137.298 47.4259 137.429 47.1242C137.559 46.8224 137.629 46.4979 137.635 46.169C137.64 45.8401 137.581 45.5134 137.46 45.2076C137.339 44.9017 137.159 44.6227 136.931 44.3864C136.702 44.1502 136.429 43.9614 136.128 43.8308C135.826 43.7002 135.502 43.6304 135.174 43.6254C135.146 43.6249 135.119 43.6249 135.092 43.6254H72.4235Z" fill="#3F3D56"/>
<path d="M149.302 42.9284C149.256 42.9741 149.22 43.0284 149.195 43.0882C149.17 43.1479 149.158 43.212 149.158 43.2766C149.158 43.3413 149.17 43.4053 149.195 43.4651C149.22 43.5248 149.256 43.5791 149.302 43.6248L151.413 45.7388H146.207C146.076 45.7388 145.951 45.7907 145.859 45.883C145.767 45.9754 145.715 46.1007 145.715 46.2313C145.715 46.3619 145.767 46.4871 145.859 46.5795C145.951 46.6718 146.076 46.7237 146.207 46.7237H151.413L149.302 48.8377C149.256 48.8834 149.22 48.9377 149.195 48.9974C149.17 49.0572 149.158 49.1212 149.158 49.1859C149.158 49.2505 149.17 49.3146 149.195 49.3743C149.22 49.4341 149.256 49.4884 149.302 49.5341C149.347 49.5798 149.402 49.6161 149.461 49.6408C149.521 49.6656 149.585 49.6783 149.649 49.6783C149.714 49.6783 149.778 49.6656 149.838 49.6408C149.897 49.6161 149.952 49.5798 149.997 49.5341L152.948 46.5795C153.04 46.4871 153.092 46.3619 153.092 46.2313C153.092 46.1007 153.04 45.9754 152.948 45.883L149.997 42.9284C149.952 42.8827 149.897 42.8464 149.838 42.8217C149.778 42.7969 149.714 42.7842 149.649 42.7842C149.585 42.7842 149.521 42.7969 149.461 42.8217C149.402 42.8464 149.347 42.8827 149.302 42.9284Z" fill="#E6E6E6"/>
<path d="M58.1851 42.9284C58.2308 42.9741 58.267 43.0284 58.2917 43.0882C58.3164 43.1479 58.3292 43.212 58.3292 43.2766C58.3292 43.3413 58.3164 43.4053 58.2917 43.4651C58.267 43.5248 58.2308 43.5791 58.1851 43.6248L56.0738 45.7388H61.2801C61.4106 45.7388 61.5357 45.7907 61.6279 45.8831C61.7201 45.9754 61.772 46.1007 61.772 46.2313C61.772 46.3619 61.7201 46.4871 61.6279 46.5795C61.5357 46.6718 61.4106 46.7237 61.2801 46.7237H56.0738L58.1851 48.8377C58.2773 48.93 58.3292 49.0553 58.3292 49.1859C58.3292 49.3165 58.2774 49.4418 58.1851 49.5341C58.0929 49.6265 57.9678 49.6783 57.8373 49.6783C57.7069 49.6783 57.5818 49.6265 57.4896 49.5341L54.5386 46.5795C54.4464 46.4871 54.3945 46.3619 54.3945 46.2313C54.3945 46.1007 54.4464 45.9754 54.5386 45.8831L57.4896 42.9284C57.5352 42.8827 57.5895 42.8464 57.6491 42.8217C57.7088 42.7969 57.7727 42.7842 57.8373 42.7842C57.9019 42.7842 57.9659 42.7969 58.0255 42.8217C58.0852 42.8464 58.1394 42.8827 58.1851 42.9284Z" fill="#E6E6E6"/>
<path d="M68.92 163.299C67.7422 163.298 66.5758 163.53 65.4875 163.98C64.3991 164.431 63.4102 165.092 62.5771 165.926C61.744 166.759 61.0831 167.749 60.6322 168.838C60.1813 169.928 59.9492 171.095 59.9492 172.275C59.9492 173.454 60.1813 174.621 60.6322 175.711C61.0831 176.8 61.744 177.79 62.5771 178.624C63.4102 179.457 64.3991 180.118 65.4875 180.569C66.5758 181.019 67.7422 181.251 68.92 181.25H138.568C139.746 181.251 140.912 181.019 142.001 180.569C143.089 180.118 144.078 179.457 144.911 178.624C145.744 177.79 146.405 176.8 146.856 175.711C147.307 174.621 147.539 173.454 147.539 172.275C147.539 171.095 147.307 169.928 146.856 168.838C146.405 167.749 145.744 166.759 144.911 165.926C144.078 165.092 143.089 164.431 142.001 163.98C140.912 163.53 139.746 163.298 138.568 163.299H68.92Z" fill="#E6E6E6"/>
<path fill-rule="evenodd" clip-rule="evenodd" d="M7.40265 27.4176C9.77177 29.0026 12.5571 29.8485 15.4064 29.8485C19.2259 29.8442 22.8877 28.3231 25.5885 25.619C28.2893 22.9149 29.8085 19.2485 29.8129 15.4243C29.8129 12.5714 28.9679 9.78264 27.3849 7.41058C25.8019 5.03852 23.552 3.18972 20.9195 2.09799C18.2871 1.00625 15.3904 0.720602 12.5959 1.27717C9.8013 1.83373 7.23432 3.20751 5.21955 5.22478C3.20477 7.24205 1.8327 9.8122 1.27682 12.6102C0.720947 15.4083 1.00624 18.3085 2.09663 20.9442C3.18702 23.5799 5.03352 25.8327 7.40265 27.4176ZM90.6422 80.2432C90.6422 82.5311 88.7898 84.3859 86.5047 84.3859C84.2196 84.3859 82.3672 82.5311 82.3672 80.2432C82.3672 77.9553 84.2196 76.1006 86.5047 76.1006C88.7898 76.1006 90.6422 77.9553 90.6422 80.2432ZM107.88 80.2432C107.88 82.5311 106.028 84.3859 103.743 84.3859C101.458 84.3859 99.6055 82.5311 99.6055 80.2432C99.6055 77.9553 101.458 76.1006 103.743 76.1006C106.028 76.1006 107.88 77.9553 107.88 80.2432ZM120.985 84.3859C123.27 84.3859 125.123 82.5311 125.123 80.2432C125.123 77.9553 123.27 76.1006 120.985 76.1006C118.7 76.1006 116.848 77.9553 116.848 80.2432C116.848 82.5311 118.7 84.3859 120.985 84.3859ZM56.1617 106.48C56.1617 108.767 54.3093 110.622 52.0242 110.622C49.7391 110.622 47.8867 108.767 47.8867 106.48C47.8867 104.192 49.7391 102.337 52.0242 102.337C54.3093 102.337 56.1617 104.192 56.1617 106.48ZM69.2625 110.622C71.5476 110.622 73.4 108.767 73.4 106.48C73.4 104.192 71.5476 102.337 69.2625 102.337C66.9774 102.337 65.125 104.192 65.125 106.48C65.125 108.767 66.9774 110.622 69.2625 110.622ZM90.6422 106.48C90.6422 108.767 88.7898 110.622 86.5047 110.622C84.2196 110.622 82.3672 108.767 82.3672 106.48C82.3672 104.192 84.2196 102.337 86.5047 102.337C88.7898 102.337 90.6422 104.192 90.6422 106.48ZM103.743 123.74C106.028 123.74 107.88 121.886 107.88 119.598C107.88 117.31 106.028 115.455 103.743 115.455C101.458 115.455 99.6055 117.31 99.6055 119.598C99.6055 121.886 101.458 123.74 103.743 123.74ZM125.123 119.598C125.123 121.886 123.27 123.74 120.985 123.74C118.7 123.74 116.848 121.886 116.848 119.598C116.848 117.31 118.7 115.455 120.985 115.455C123.27 115.455 125.123 117.31 125.123 119.598ZM138.223 123.74C140.509 123.74 142.361 121.886 142.361 119.598C142.361 117.31 140.509 115.455 138.223 115.455C135.938 115.455 134.086 117.31 134.086 119.598C134.086 121.886 135.938 123.74 138.223 123.74Z" fill="url(#paint0_linear_354_333)"/>
<path d="M21.0907 14.002H16.8275V9.73343C16.8275 9.35606 16.6777 8.99414 16.4112 8.7273C16.1447 8.46046 15.7832 8.31055 15.4063 8.31055C15.0294 8.31055 14.668 8.46046 14.4014 8.7273C14.1349 8.99414 13.9852 9.35606 13.9852 9.73343V14.002H9.72188C9.34498 14.002 8.98352 14.1519 8.71701 14.4188C8.4505 14.6856 8.30078 15.0475 8.30078 15.4249C8.30078 15.8023 8.4505 16.1642 8.71701 16.431C8.98352 16.6979 9.34498 16.8478 9.72188 16.8478H13.9852V21.1164C13.9852 21.4937 14.1349 21.8556 14.4014 22.1225C14.668 22.3893 15.0294 22.5392 15.4063 22.5392C15.7832 22.5392 16.1447 22.3893 16.4112 22.1225C16.6777 21.8556 16.8275 21.4937 16.8275 21.1164V16.8478H21.0907C21.4676 16.8478 21.8291 16.6979 22.0956 16.431C22.3621 16.1642 22.5118 15.8023 22.5118 15.4249C22.5118 15.0475 22.3621 14.6856 22.0956 14.4188C21.8291 14.1519 21.4676 14.002 21.0907 14.002Z" fill="white"/>
<defs>
<linearGradient id="paint0_linear_354_333" x1="-1" y1="13.5" x2="135.304" y2="130.313" gradientUnits="userSpaceOnUse">
<stop stop-color="#EB4B55"/>
<stop offset="1" stop-color="#8D59B5"/>
</linearGradient>
</defs>
</svg>
