<svg width="447" height="228" viewBox="0 0 447 228" fill="none" xmlns="http://www.w3.org/2000/svg">
<g clip-path="url(#clip0_318_333)">
<path d="M309.262 200.768L304.059 208.937L307.09 198.302C300.69 191.635 291.83 186.757 291.83 186.757C291.83 186.757 280.921 204.659 283.857 215.672C286.793 226.684 294.375 228.787 302.463 226.637C310.551 224.487 316.083 218.899 313.146 207.886C312.493 205.435 311.073 203.029 309.262 200.768Z" fill="#F2F2F2"/>
<path d="M302.374 209.752L302.519 210.294C304.169 216.613 304.416 221.819 303.249 225.841C303.233 225.9 303.214 225.957 303.198 226.016L302.925 225.936L302.665 225.856C303.987 221.496 303.397 215.986 301.959 210.475C301.914 210.297 301.869 210.116 301.818 209.937C301.189 207.609 300.418 205.29 299.579 203.062C299.515 202.888 299.449 202.713 299.382 202.538C298.259 199.602 297.032 196.838 295.895 194.455C295.815 194.286 295.733 194.118 295.652 193.953C293.711 189.928 292.066 187.076 291.696 186.446C291.652 186.369 291.627 186.326 291.621 186.316L291.857 186.176L291.859 186.172L292.098 186.031C292.104 186.041 292.191 186.182 292.342 186.447C292.914 187.435 294.432 190.125 296.183 193.74C296.261 193.903 296.343 194.071 296.423 194.24C297.347 196.173 298.327 198.347 299.26 200.654C299.495 201.233 299.72 201.807 299.934 202.374C300.004 202.548 300.071 202.723 300.134 202.897C301.042 205.306 301.788 207.591 302.374 209.752Z" fill="white"/>
<path d="M296.183 193.74C296.009 193.812 295.833 193.885 295.652 193.953C295.162 194.139 294.662 194.3 294.155 194.435C291.995 195.012 289.733 195.098 287.536 194.686C287.461 194.859 287.386 195.031 287.309 195.207C289.626 195.661 292.017 195.581 294.298 194.972C294.839 194.828 295.373 194.656 295.895 194.455C296.073 194.388 296.25 194.315 296.423 194.24C297.855 193.631 299.185 192.809 300.37 191.801C300.215 191.684 300.063 191.569 299.915 191.456C298.79 192.397 297.533 193.166 296.183 193.74Z" fill="white"/>
<path d="M299.937 202.374C299.754 202.434 299.57 202.489 299.384 202.538C299.328 202.556 299.269 202.572 299.212 202.587C296.871 203.209 294.414 203.257 292.051 202.726C289.687 202.196 287.487 201.102 285.638 199.539C285.573 199.726 285.507 199.913 285.445 200.102C287.357 201.673 289.616 202.767 292.035 203.292C294.454 203.817 296.963 203.76 299.356 203.124C299.431 203.104 299.506 203.084 299.581 203.061C299.769 203.009 299.953 202.954 300.136 202.896C302.971 201.986 305.482 200.279 307.371 197.98C307.243 197.845 307.114 197.709 306.983 197.574C305.152 199.825 302.703 201.493 299.937 202.374Z" fill="white"/>
<path d="M302.377 209.751C302.193 209.817 302.007 209.878 301.821 209.936C301.621 209.998 301.421 210.057 301.219 210.11C298.072 210.943 294.74 210.735 291.722 209.519C288.703 208.302 286.16 206.142 284.474 203.362C284.411 203.612 284.347 203.859 284.289 204.107C286.085 206.851 288.702 208.96 291.767 210.134C294.832 211.308 298.189 211.488 301.362 210.648C301.564 210.594 301.765 210.538 301.962 210.474C302.151 210.418 302.337 210.357 302.522 210.294C306.248 208.985 309.336 206.311 311.162 202.814C311.053 202.63 310.936 202.451 310.818 202.27C309.086 205.764 306.058 208.448 302.377 209.751Z" fill="white"/>
<path d="M282.45 14.7366L277.246 22.9055L280.277 12.271C273.877 5.60327 265.018 0.725586 265.018 0.725586C265.018 0.725586 254.108 18.6281 257.045 29.6406C259.981 40.6531 267.563 42.7553 275.651 40.6053C283.739 38.4553 289.27 32.8673 286.334 21.8548C285.68 19.4036 284.261 16.9973 282.45 14.7366Z" fill="#F2F2F2"/>
<path d="M275.566 23.7203L275.71 24.2631C277.36 30.5813 277.607 35.7876 276.44 39.81C276.424 39.869 276.405 39.9259 276.389 39.9849L276.117 39.9047L275.856 39.8243C277.178 35.4643 276.588 29.9549 275.15 24.4436C275.106 24.2655 275.06 24.0848 275.01 23.9055C274.38 21.5778 273.609 19.259 272.77 17.0303C272.707 16.8572 272.64 16.6821 272.573 16.5071C271.45 13.5711 270.223 10.8066 269.086 8.42388C269.007 8.25509 268.925 8.08705 268.843 7.92167C266.902 3.89656 265.257 1.04469 264.887 0.414886C264.844 0.337298 264.818 0.295204 264.812 0.285176L265.049 0.144651L265.051 0.141245L265.29 0C265.295 0.0100411 265.382 0.151059 265.533 0.415877C266.105 1.40346 267.623 4.09335 269.374 7.70855C269.452 7.87195 269.534 8.04002 269.614 8.20878C270.539 10.1414 271.519 12.3154 272.451 14.623C272.686 15.2022 272.911 15.7755 273.126 16.3429C273.195 16.5172 273.262 16.6923 273.326 16.8653C274.233 19.2744 274.98 21.5594 275.566 23.7203Z" fill="white"/>
<path d="M269.371 7.70881C269.197 7.78095 269.02 7.85377 268.84 7.92193C268.349 8.10782 267.849 8.2685 267.342 8.40334C265.183 8.98053 262.921 9.06653 260.723 8.65499C260.648 8.82745 260.573 8.99993 260.496 9.1758C262.813 9.63021 265.204 9.54983 267.486 8.94079C268.027 8.79678 268.56 8.62431 269.083 8.42412C269.261 8.35666 269.438 8.28382 269.611 8.20902C271.042 7.60019 272.373 6.77781 273.557 5.77C273.402 5.65296 273.25 5.5379 273.102 5.4248C271.978 6.36545 270.72 7.1351 269.371 7.70881Z" fill="white"/>
<path d="M273.124 16.3427C272.941 16.4028 272.757 16.4576 272.571 16.5069C272.516 16.5246 272.456 16.5404 272.4 16.5554C270.059 17.1777 267.602 17.2256 265.238 16.6949C262.874 16.1643 260.674 15.0708 258.826 13.5077C258.76 13.6948 258.695 13.882 258.633 14.0711C260.544 15.6419 262.803 16.7353 265.222 17.2608C267.641 17.7862 270.151 17.7287 272.543 17.0928C272.618 17.0728 272.694 17.0528 272.768 17.0301C272.956 16.9773 273.14 16.9225 273.324 16.8651C276.158 15.9543 278.67 14.2476 280.558 11.9492C280.43 11.8136 280.302 11.6779 280.171 11.543C278.34 13.7934 275.891 15.4615 273.124 16.3427Z" fill="white"/>
<path d="M275.564 23.7205C275.38 23.7867 275.195 23.8476 275.009 23.9057C274.809 23.9674 274.609 24.0265 274.407 24.0801C271.26 24.9127 267.928 24.7052 264.909 23.4886C261.89 22.272 259.347 20.1119 257.661 17.3315C257.598 17.5814 257.534 17.8285 257.477 18.077C259.273 20.8206 261.889 22.9293 264.954 24.1034C268.019 25.2776 271.377 25.4575 274.55 24.6176C274.752 24.5639 274.953 24.5076 275.149 24.4439C275.339 24.3877 275.524 24.3269 275.709 24.2634C279.435 22.9546 282.524 20.2809 284.35 16.7838C284.24 16.5999 284.123 16.4209 284.006 16.2393C282.273 19.7341 279.245 22.4176 275.564 23.7205Z" fill="white"/>
<path d="M139.349 214.48L129.653 214.524L140.252 211.322C142.412 202.342 141.733 192.263 141.733 192.263C141.733 192.263 120.751 192.775 113.059 201.194C105.367 209.613 107.694 217.118 113.877 222.751C120.06 228.383 127.759 230.009 135.451 221.59C137.163 219.716 138.423 217.223 139.349 214.48Z" fill="#F2F2F2"/>
<path d="M128.061 213.552L127.682 213.967C123.25 218.768 118.996 221.79 114.976 222.983C114.918 223.002 114.859 223.016 114.801 223.035L114.722 222.763L114.648 222.5C119.037 221.254 123.36 217.781 127.227 213.594C127.353 213.46 127.481 213.324 127.604 213.185C129.225 211.398 130.762 209.497 132.187 207.588C132.298 207.441 132.41 207.29 132.521 207.139C134.388 204.609 136.054 202.084 137.447 199.841C137.547 199.683 137.644 199.523 137.739 199.365C140.082 195.559 141.595 192.636 141.926 191.985C141.968 191.906 141.99 191.862 141.995 191.852L142.241 191.974L142.245 191.974L142.493 192.098C142.488 192.109 142.416 192.257 142.274 192.528C141.751 193.542 140.306 196.271 138.206 199.696C138.11 199.85 138.013 200.01 137.914 200.168C136.785 201.989 135.483 203.988 134.043 206.018C133.682 206.529 133.32 207.028 132.958 207.515C132.849 207.667 132.738 207.818 132.626 207.965C131.087 210.03 129.565 211.892 128.061 213.552Z" fill="white"/>
<path d="M138.205 199.696C138.05 199.589 137.893 199.48 137.738 199.365C137.316 199.054 136.911 198.721 136.523 198.368C134.87 196.866 133.575 195.012 132.733 192.943C132.548 192.974 132.362 193.004 132.172 193.034C133.042 195.226 134.402 197.191 136.148 198.779C136.562 199.156 136.995 199.51 137.447 199.841C137.6 199.954 137.756 200.063 137.913 200.168C139.2 201.042 140.612 201.715 142.101 202.165C142.116 201.972 142.131 201.782 142.146 201.596C140.746 201.16 139.418 200.52 138.205 199.696Z" fill="white"/>
<path d="M132.956 207.515C132.806 207.394 132.661 207.269 132.519 207.139C132.474 207.102 132.428 207.061 132.385 207.021C130.595 205.391 129.227 203.353 128.397 201.08C127.566 198.808 127.298 196.369 127.616 193.971C127.423 194.017 127.23 194.063 127.037 194.113C126.747 196.568 127.047 199.057 127.911 201.373C128.776 203.689 130.181 205.766 132.01 207.432C132.067 207.485 132.125 207.537 132.185 207.588C132.33 207.717 132.476 207.842 132.624 207.965C134.923 209.854 137.719 211.041 140.676 211.386C140.721 211.204 140.766 211.023 140.809 210.84C137.923 210.518 135.194 209.363 132.956 207.515Z" fill="white"/>
<path d="M128.059 213.552C127.904 213.433 127.753 213.31 127.603 213.185C127.443 213.051 127.285 212.914 127.131 212.774C124.728 210.58 123.102 207.669 122.495 204.475C121.889 201.282 122.335 197.978 123.766 195.059C123.521 195.141 123.278 195.221 123.038 195.306C121.697 198.298 121.335 201.636 122.002 204.846C122.669 208.055 124.332 210.973 126.755 213.185C126.91 213.325 127.066 213.464 127.226 213.594C127.375 213.723 127.527 213.846 127.68 213.967C130.797 216.39 134.719 217.539 138.653 217.183C138.749 216.991 138.836 216.796 138.926 216.599C135.045 217.033 131.147 215.94 128.059 213.552Z" fill="white"/>
<path d="M107.161 222.076L112.732 222.075L115.382 200.619L107.16 200.62L107.161 222.076Z" fill="#FFB6B6"/>
<path d="M105.738 220.26L116.71 220.26H116.71C118.565 220.26 120.343 220.995 121.654 222.305C122.965 223.614 123.702 225.389 123.702 227.241V227.468L105.739 227.469L105.738 220.26Z" fill="#2F2E41"/>
<path d="M63.0829 222.076L68.6541 222.075L71.3043 200.619L63.082 200.62L63.0829 222.076Z" fill="#FFB6B6"/>
<path d="M61.6602 220.26L72.6316 220.26H72.6321C74.4864 220.26 76.2648 220.995 77.576 222.305C78.8872 223.614 79.6239 225.389 79.624 227.241V227.468L61.6605 227.469L61.6602 220.26Z" fill="#2F2E41"/>
<path d="M72.5309 133.942L68.7761 137.393L64.5441 179.08L61.6953 212.274L70.3043 213.433L91.1857 156.717L106.465 213.164L116.765 213.433L109.929 139.75L72.5309 133.942Z" fill="#2F2E41"/>
<path d="M90.6758 72.3008C96.5826 72.3008 101.371 67.5196 101.371 61.6216C101.371 55.7236 96.5826 50.9424 90.6758 50.9424C84.7689 50.9424 79.9805 55.7236 79.9805 61.6216C79.9805 67.5196 84.7689 72.3008 90.6758 72.3008Z" fill="#FFB9B9"/>
<path d="M85.2023 56.6627C85.2023 56.6627 83.9272 59.418 89.0276 58.3159C89.0276 58.3159 90.9402 59.418 90.9402 57.7648C90.9402 57.7648 93.4904 60.5201 94.1279 58.867C94.7655 57.2138 96.0406 59.418 96.0406 59.418L97.3157 56.6627L98.5908 58.3159H103.054C103.054 58.3159 104.329 47.2947 89.0276 48.3968C73.7264 49.4989 81.2538 66.961 81.2538 66.961C81.2538 66.961 81.377 63.8265 82.6521 65.4797C83.9272 67.1329 85.2023 56.6627 85.2023 56.6627Z" fill="#2F2E41"/>
<path d="M98.8265 75.7865L83.7449 74.8438L70.3053 78.4035L72.3424 112.984L68.7773 137.393C68.7773 137.393 88.3374 149.332 110.54 139.936L108.431 134.397C108.431 134.397 108.359 125.919 106.577 124.259C104.796 122.6 104.938 108.916 104.938 108.916L111.559 83.4888L98.8265 75.7865Z" fill="#3F3D56"/>
<path d="M73.8955 79.4946L70.3054 78.4033C70.3054 78.4033 64.7141 78.5897 61.8069 84.9407C58.8997 91.2917 57.082 100.366 57.082 100.366L75.5468 101.033L73.8955 79.4946Z" fill="#3F3D56"/>
<path d="M116.751 140.116L116.153 102.635L108.176 103.83L109.938 139.34C109.213 139.935 108.679 140.729 108.403 141.625C108.127 142.52 108.122 143.477 108.387 144.376C108.653 145.274 109.178 146.075 109.896 146.678C110.615 147.28 111.495 147.658 112.427 147.764C113.359 147.87 114.302 147.7 115.138 147.274C115.974 146.848 116.666 146.186 117.127 145.37C117.588 144.555 117.798 143.621 117.732 142.687C117.665 141.752 117.324 140.858 116.751 140.116Z" fill="#FFB9B9"/>
<path d="M107.066 86.754L111.557 83.4883C111.557 83.4883 120.186 90.2267 120.215 105.052L108.177 107.967L101.371 98.192L107.066 86.754Z" fill="#3F3D56"/>
<path d="M349.251 222.055L354.822 222.055L357.472 200.599L349.25 200.599L349.251 222.055Z" fill="#9E616A"/>
<path d="M347.832 220.239L358.804 220.238H358.804C360.658 220.238 362.437 220.974 363.748 222.283C365.059 223.592 365.796 225.368 365.796 227.22V227.446L347.832 227.447L347.832 220.239Z" fill="#2F2E41"/>
<path d="M316.277 217.324L321.589 219.002L330.597 199.343L322.758 196.867L316.277 217.324Z" fill="#9E616A"/>
<path d="M315.47 215.165L325.931 218.469L325.931 218.469C327.699 219.027 329.172 220.264 330.027 221.907C330.882 223.551 331.048 225.465 330.489 227.231L330.42 227.447L313.293 222.038L315.47 215.165Z" fill="#2F2E41"/>
<path d="M328.821 124.062L325.73 132.769L325.642 179.77L316.875 211.95L327.637 214.949L339.525 184.606L343.338 157.954L348.363 184.761L347.672 216.622H358.963L359.816 167.524C360.055 153.734 357.639 140.028 352.698 127.149L328.821 124.062Z" fill="#2F2E41"/>
<path d="M321.411 79.9928L323.465 70.7475C324.197 67.4644 326.205 64.6059 329.047 62.8002C331.889 60.9945 335.332 60.3892 338.621 61.1174C341.91 61.8457 344.774 63.8478 346.585 66.6838C348.396 69.5199 349.006 72.9579 348.279 76.2423L346.226 85.4876C346.128 85.9287 345.858 86.3128 345.476 86.5556C345.094 86.7984 344.632 86.88 344.19 86.7827L322.708 82.026C322.266 81.9277 321.882 81.6584 321.639 81.2772C321.396 80.896 321.314 80.4341 321.411 79.9928Z" fill="#2F2E41"/>
<path d="M332.966 83.8446C338.112 83.8446 342.284 79.6792 342.284 74.5409C342.284 69.4027 338.112 65.2373 332.966 65.2373C327.82 65.2373 323.648 69.4027 323.648 74.5409C323.648 79.6792 327.82 83.8446 332.966 83.8446Z" fill="#9E616A"/>
<path d="M320.365 70.8363C320.945 68.2387 322.534 65.9769 324.782 64.5471C327.03 63.1173 329.754 62.6363 332.357 63.2096L334.209 63.6197C336.81 64.1988 339.075 65.7847 340.507 68.0293C341.939 70.274 342.421 72.9941 341.847 75.593L341.806 75.7779L337.892 74.9113L337.386 70.8837L336.29 74.5566L334.268 74.1088L334.013 72.0766L333.46 73.9298L320.324 71.0212L320.365 70.8363Z" fill="#2F2E41"/>
<path d="M329.774 84.681C329.645 84.3919 329.601 84.0724 329.646 83.7594C329.692 83.4463 329.824 83.1524 330.03 82.9114C332.82 79.619 337.097 73.3407 334.393 68.2861L334.199 67.9229L344.787 70.2674L341.262 86.1397L331.267 85.7044C331.166 85.7 331.065 85.6868 330.966 85.6651C330.704 85.6069 330.459 85.4874 330.251 85.3163C330.044 85.1453 329.88 84.9275 329.774 84.681Z" fill="#2F2E41"/>
<path d="M446.457 227.999H0.5395C0.396271 227.999 0.25905 227.942 0.157919 227.841C0.0567873 227.739 0 227.602 0 227.459C0 227.316 0.0567873 227.179 0.157919 227.078C0.25905 226.976 0.396271 226.919 0.5395 226.919H446.457C446.601 226.919 446.738 226.976 446.84 227.077C446.941 227.178 446.998 227.316 446.998 227.459C446.998 227.602 446.941 227.74 446.84 227.841C446.738 227.942 446.601 227.999 446.457 227.999Z" fill="#CACACA"/>
<path d="M225.373 94.25H81.1789C80.0843 94.25 79.0005 94.4653 77.9892 94.8835C76.9779 95.3018 76.0591 95.9148 75.2851 96.6876C74.5111 97.4605 73.8971 98.3779 73.4782 99.3877C73.0593 100.397 72.8437 101.48 72.8438 102.573V137.199C72.8437 138.292 73.0593 139.374 73.4782 140.384C73.8971 141.394 74.5111 142.311 75.2851 143.084C76.059 143.857 76.9779 144.47 77.9892 144.888C79.0005 145.307 80.0843 145.522 81.1789 145.522H83.2954V151.778C83.2954 152.157 83.4081 152.529 83.6193 152.844C83.8306 153.16 84.1308 153.406 84.482 153.551C84.8333 153.696 85.2198 153.734 85.5926 153.66C85.9655 153.586 86.308 153.403 86.5769 153.135L94.2014 145.522H225.373C226.467 145.522 227.551 145.307 228.562 144.888C229.574 144.47 230.493 143.857 231.266 143.084C232.04 142.311 232.654 141.394 233.073 140.384C233.492 139.374 233.708 138.292 233.708 137.199V102.573C233.708 101.48 233.492 100.397 233.073 99.3877C232.654 98.3779 232.04 97.4605 231.266 96.6876C230.492 95.9148 229.574 95.3018 228.562 94.8835C227.551 94.4653 226.467 94.25 225.373 94.25Z" fill="#E6E6E6"/>
<path fill-rule="evenodd" clip-rule="evenodd" d="M316.987 101.987L290.474 92.0267L289.742 87.6627L307.464 72.6895L313.363 77.107L302.672 88.7956L321.696 89.5193L321.695 89.5263L321.697 89.5196L325.14 88.7959H343.391L343.734 89.1378L372.392 93.2065L374.054 97.3083L360.006 115.763L353.288 112.728L361.186 99.0021L351.335 100.798L353.296 127.887L325.73 132.316L316.875 102.284L316.987 101.987Z" fill="url(#paint0_linear_318_333)"/>
<path d="M190.693 141.211H81.1785C80.1131 141.21 79.0917 140.787 78.3384 140.035C77.5851 139.283 77.1614 138.263 77.1602 137.199V102.573C77.1614 101.509 77.5851 100.489 78.3384 99.737C79.0917 98.9849 80.113 98.5618 81.1783 98.5605H225.372C226.437 98.5617 227.459 98.9848 228.212 99.737C228.965 100.489 229.389 101.509 229.39 102.573C229.379 112.817 225.298 122.638 218.043 129.882C210.789 137.125 200.953 141.2 190.693 141.211Z" fill="white"/>
<path d="M208.383 30.335H312.659C313.45 30.335 314.234 30.4906 314.966 30.7931C315.697 31.0956 316.361 31.5389 316.921 32.0978C317.481 32.6567 317.925 33.3201 318.228 34.0504C318.531 34.7806 318.687 35.5632 318.687 36.3536V61.3943C318.687 62.1847 318.531 62.9674 318.228 63.6976C317.925 64.4278 317.481 65.0913 316.921 65.6502C316.361 66.209 315.697 66.6524 314.966 66.9548C314.234 67.2573 313.45 67.413 312.659 67.413H311.128V71.937C311.128 72.2115 311.047 72.4799 310.894 72.7082C310.741 72.9364 310.524 73.1143 310.27 73.2193C310.016 73.3244 309.737 73.3519 309.467 73.2983C309.197 73.2448 308.95 73.1126 308.755 72.9184L303.241 67.413H208.383C207.592 67.413 206.808 67.2573 206.076 66.9548C205.345 66.6524 204.681 66.2091 204.121 65.6502C203.561 65.0913 203.117 64.4278 202.814 63.6976C202.511 62.9674 202.355 62.1847 202.355 61.3944V36.3536C202.355 35.5632 202.511 34.7806 202.814 34.0504C203.117 33.3202 203.561 32.6567 204.121 32.0978C204.681 31.5389 205.345 31.0956 206.076 30.7931C206.808 30.4906 207.592 30.335 208.383 30.335Z" fill="#E6E6E6"/>
<path d="M312.659 64.359H233.462C226.026 64.3506 218.896 61.3974 213.638 56.1474C208.38 50.8973 205.423 43.779 205.414 36.3542C205.415 35.5683 205.728 34.8148 206.285 34.259C206.841 33.7032 207.596 33.3906 208.383 33.3896H312.659C313.446 33.3905 314.2 33.7031 314.757 34.2588C315.313 34.8146 315.626 35.5681 315.627 36.354V61.3946C315.626 62.1806 315.313 62.9341 314.757 63.4898C314.2 64.0455 313.446 64.3581 312.659 64.359Z" fill="white"/>
<path d="M229.028 50.6787L291.794 50.6787C292.883 50.6787 293.766 49.7973 293.766 48.71C293.766 47.6227 292.883 46.7412 291.794 46.7412L229.028 46.7412C227.939 46.7412 227.056 47.6227 227.056 48.71C227.056 49.7973 227.939 50.6787 229.028 50.6787Z" fill="#E6E6E6"/>
<path d="M229.028 58.5537L291.794 58.5537C292.883 58.5537 293.766 57.6723 293.766 56.585C293.766 55.4977 292.883 54.6162 291.794 54.6162L229.028 54.6162C227.939 54.6162 227.056 55.4977 227.056 56.585C227.056 57.6723 227.939 58.5537 229.028 58.5537Z" fill="#E6E6E6"/>
<path d="M196.825 116.937H110.031C108.525 116.937 107.305 118.155 107.305 119.659V119.659C107.305 121.162 108.525 122.381 110.031 122.381H196.825C198.331 122.381 199.552 121.162 199.552 119.659C199.552 118.155 198.331 116.937 196.825 116.937Z" fill="#E6E6E6"/>
<path d="M196.825 127.826H110.031C108.525 127.826 107.305 129.045 107.305 130.549V130.549C107.305 132.052 108.525 133.271 110.031 133.271H196.825C198.331 133.271 199.552 132.052 199.552 130.549C199.552 129.045 198.331 127.826 196.825 127.826Z" fill="#E6E6E6"/>
<path d="M430.807 118.359H326.532C325.74 118.359 324.956 118.515 324.225 118.818C323.494 119.12 322.829 119.563 322.269 120.122C321.71 120.681 321.266 121.345 320.963 122.075C320.66 122.805 320.504 123.588 320.504 124.378V149.419C320.504 150.209 320.66 150.992 320.963 151.722C321.266 152.452 321.71 153.116 322.269 153.675C322.829 154.233 323.494 154.677 324.225 154.979C324.956 155.282 325.74 155.437 326.532 155.437H328.062V159.961C328.062 160.236 328.144 160.504 328.296 160.733C328.449 160.961 328.666 161.139 328.92 161.244C329.174 161.349 329.454 161.376 329.723 161.323C329.993 161.269 330.241 161.137 330.435 160.943L335.949 155.437H430.807C431.599 155.437 432.383 155.282 433.114 154.979C433.845 154.677 434.51 154.234 435.07 153.675C435.629 153.116 436.073 152.452 436.376 151.722C436.679 150.992 436.835 150.209 436.835 149.419V124.378C436.835 123.588 436.679 122.805 436.376 122.075C436.073 121.345 435.629 120.681 435.069 120.122C434.51 119.563 433.845 119.12 433.114 118.818C432.383 118.515 431.599 118.359 430.807 118.359Z" fill="#E6E6E6"/>
<path d="M430.807 152.384H326.531C325.744 152.383 324.99 152.07 324.433 151.514C323.876 150.959 323.563 150.205 323.562 149.419V124.378C323.563 123.592 323.876 122.839 324.433 122.283C324.99 121.728 325.744 121.415 326.531 121.414H405.729C413.165 121.423 420.294 124.376 425.552 129.626C430.81 134.876 433.767 141.994 433.776 149.419C433.775 150.205 433.462 150.959 432.905 151.514C432.349 152.07 431.594 152.383 430.807 152.384Z" fill="white"/>
<path d="M410.16 134.766H347.394C346.305 134.766 345.422 135.647 345.422 136.734C345.422 137.822 346.305 138.703 347.394 138.703H410.16C411.249 138.703 412.132 137.822 412.132 136.734C412.132 135.647 411.249 134.766 410.16 134.766Z" fill="#E6E6E6"/>
<path d="M410.16 142.641H347.394C346.305 142.641 345.422 143.522 345.422 144.609C345.422 145.697 346.305 146.578 347.394 146.578H410.16C411.249 146.578 412.132 145.697 412.132 144.609C412.132 143.522 411.249 142.641 410.16 142.641Z" fill="#E6E6E6"/>
<path fill-rule="evenodd" clip-rule="evenodd" d="M282.427 42.8047H238.392C237.303 42.8047 236.42 41.9232 236.42 40.8359C236.42 39.7486 237.303 38.8672 238.392 38.8672H282.427C283.516 38.8672 284.398 39.7486 284.398 40.8359C284.398 41.9232 283.516 42.8047 282.427 42.8047ZM183.872 106.047H122.98C121.475 106.047 120.254 107.266 120.254 108.769C120.254 110.273 121.475 111.492 122.98 111.492H183.872C185.378 111.492 186.599 110.273 186.599 108.769C186.599 107.266 185.378 106.047 183.872 106.047ZM400.796 126.891H356.761C355.672 126.891 354.789 127.772 354.789 128.859C354.789 129.947 355.672 130.828 356.761 130.828H400.796C401.885 130.828 402.767 129.947 402.767 128.859C402.767 127.772 401.885 126.891 400.796 126.891Z" fill="url(#paint1_linear_318_333)"/>
<path d="M310.872 78.8139C313.382 78.8139 315.416 76.7825 315.416 74.2766C315.416 71.7707 313.382 69.7393 310.872 69.7393C308.363 69.7393 306.328 71.7707 306.328 74.2766C306.328 76.7825 308.363 78.8139 310.872 78.8139Z" fill="#9E616A"/>
<path d="M88.21 93.5601C88.21 92.2966 87.7073 91.0848 86.8125 90.1913C85.9177 89.2978 84.704 88.7959 83.4386 88.7959C82.1731 88.7959 80.9595 89.2978 80.0647 90.1913C79.1699 91.0848 78.6672 92.2966 78.6672 93.5601C78.6672 93.6066 78.6728 93.6517 78.6741 93.6979L70.3057 102.054L70.9421 100.593L61.3993 100.139L60.0072 110.199C59.8852 111.128 60.055 112.072 60.4932 112.9C60.9313 113.728 61.6161 114.4 62.4531 114.823C63.2901 115.246 64.238 115.399 65.1658 115.261C66.0937 115.124 66.9558 114.701 67.6331 114.053L84.1287 98.2689C85.2619 98.1042 86.2978 97.5377 87.0472 96.6731C87.7966 95.8085 88.2094 94.7035 88.21 93.5601Z" fill="#FFB9B9"/>
<path d="M355.861 121.011C358.37 121.011 360.405 118.98 360.405 116.474C360.405 113.968 358.37 111.937 355.861 111.937C353.351 111.937 351.316 113.968 351.316 116.474C351.316 118.98 353.351 121.011 355.861 121.011Z" fill="#9E616A"/>
</g>
<defs>
<linearGradient id="paint0_linear_318_333" x1="289.742" y1="101.453" x2="370.601" y2="125.608" gradientUnits="userSpaceOnUse">
<stop stop-color="#EB4B55"/>
<stop offset="1" stop-color="#8D59B5"/>
</linearGradient>
<linearGradient id="paint1_linear_318_333" x1="120.254" y1="83.2286" x2="327.905" y2="218.001" gradientUnits="userSpaceOnUse">
<stop stop-color="#EB4B55"/>
<stop offset="1" stop-color="#8D59B5"/>
</linearGradient>
<clipPath id="clip0_318_333">
<rect width="447" height="228" fill="white"/>
</clipPath>
</defs>
</svg>
