<svg width="983" height="804" viewBox="0 0 983 804" fill="none" xmlns="http://www.w3.org/2000/svg">
<g clip-path="url(#clip0_367_4)">
<path opacity="0.1" d="M958.989 465.51C958.989 466.12 958.989 466.73 958.989 467.33C958.882 477.85 958.259 488.343 957.119 498.81C957.124 498.873 957.124 498.936 957.119 499C957.029 499.87 956.929 500.73 956.829 501.6C956.659 503.07 956.479 504.53 956.279 506C953.947 523.893 950.09 541.554 944.749 558.79V558.79C937.593 582.08 927.477 604.355 914.649 625.07C910.702 631.403 906.499 637.533 902.039 643.46C899.659 646.6 897.229 649.67 894.719 652.69C892.959 654.803 891.165 656.883 889.339 658.93L888.199 660.19C878.587 670.742 868.227 680.588 857.199 689.65C839.199 704.57 819.819 717.55 800.129 729.59C799.009 730.28 797.879 730.96 796.749 731.59C796.67 731.647 796.586 731.697 796.499 731.74C769.739 747.92 741.989 762.52 713.399 774.21C682.099 787.04 649.779 796.37 616.619 800.45C570.399 806.13 523.619 801.51 477.679 793.57C439.471 787.005 401.727 777.986 364.679 766.57L358.579 764.66C355.419 763.653 352.262 762.626 349.109 761.58C330.062 755.28 311.229 748.28 292.609 740.58C245.844 721.318 201.168 697.331 159.279 668.99C153.945 665.403 148.689 661.736 143.509 657.99C136.269 652.776 129.115 647.41 122.049 641.89L117.689 638.51C99.1951 624.028 81.8684 608.116 65.8686 590.92C44.3486 567.5 25.9586 541.08 13.8686 510.92C11.9619 506.18 10.2152 501.35 8.62856 496.43L8.47856 495.94C7.67856 493.44 6.93856 490.94 6.25856 488.34C5.25856 484.62 4.3819 480.853 3.62856 477.04C3.46856 476.31 3.32856 475.58 3.19856 474.84C0.80845 462.006 -0.247174 448.96 0.0485621 435.91C0.298667 424.475 1.63806 413.09 4.04856 401.91V401.91C6.51578 390.32 10.3178 379.054 15.3786 368.34V368.34C19.952 358.705 25.7791 349.717 32.7086 341.61V341.61C37.5778 335.941 43.0539 330.824 49.0386 326.35C59.8886 318.27 71.9186 312.64 84.3886 308.19C90.2486 306.09 96.1886 304.25 102.159 302.54C106.389 301.32 110.639 300.16 114.869 299.02L127.349 295.65C135.349 293.47 143.349 291.23 151.229 288.81C172.709 282.25 193.759 274.31 213.229 262.47C216.309 260.6 219.449 258.55 222.589 256.35C226.589 253.57 230.529 250.55 234.429 247.29C238.369 243.99 242.229 240.46 245.909 236.72C246.479 236.14 247.039 235.56 247.599 234.97C250.599 231.81 253.509 228.5 256.209 225.06C257.529 223.38 258.809 221.67 260.029 219.93C261.719 217.52 263.319 215.07 264.799 212.55C272.219 199.95 276.799 186.05 276.259 171.4C276.18 168.986 275.963 166.579 275.609 164.19C274.309 155.36 273.059 146.74 272.139 138.31C268.279 103.44 269.909 71.8196 296.079 42.1096C328.619 5.1796 379.689 -2.3504 426.179 0.5996C560.589 9.0996 682.949 85.8396 790.479 177.2C799.779 185.093 808.965 193.093 818.039 201.2C820.325 203.24 822.615 205.293 824.909 207.36C841.909 222.67 858.649 238.55 874.239 255.56C875.499 256.94 876.759 258.32 877.999 259.71C878.759 260.57 879.529 261.42 880.279 262.29C885.139 267.79 889.855 273.423 894.429 279.19C906.68 294.499 917.498 310.901 926.749 328.19C940.912 355.322 950.501 384.605 955.129 414.86V414.86C956.868 425.846 958.013 436.919 958.559 448.03C958.729 451.3 958.838 454.58 958.898 457.85C958.898 458.9 958.898 459.94 958.898 460.99C958.998 462.51 958.999 463.99 958.989 465.51Z" fill="url(#paint0_linear_367_4)"/>
<path d="M393.98 448.74L377.98 733.53L393.98 733.74L406.98 444.74L393.98 448.74Z" fill="#3F3D56"/>
<path d="M334.98 593.03H136.98V636.03H334.98V593.03Z" fill="url(#paint1_linear_367_4)"/>
<path d="M347.978 631.02V658.02H143.448C136.208 652.806 129.055 647.439 121.988 641.919V631.02H347.978Z" fill="#3F3D56"/>
<path d="M388.821 569.57C388.261 572.16 387.531 574.72 386.761 577.27C384.491 584.64 381.761 591.91 381.231 599.57C380.521 609.69 383.231 621.46 376.231 628.81C374.431 630.71 372.081 632.13 370.471 634.16C370.223 634.479 369.996 634.813 369.791 635.16C368.351 637.54 368.181 640.44 368.161 643.16C368.178 648.962 368.555 654.756 369.291 660.51C371.661 680.31 376.341 700.15 370.191 718.84C369.077 722.082 367.778 725.257 366.301 728.35C363.301 734.95 360.031 741.46 359.051 748.61C358.331 753.91 358.551 759.37 358.511 764.76C355.351 763.754 352.194 762.727 349.041 761.68C329.994 755.38 311.161 748.38 292.541 740.68C292.591 740.41 292.641 740.13 292.681 739.86C294.111 730.96 292.151 721.86 289.771 713.18C284.771 694.79 277.691 676.58 273.501 658.06C271.814 650.827 270.707 643.47 270.191 636.06C270.071 634.4 270.001 632.73 269.991 631.06C269.941 628.88 269.991 626.7 270.081 624.5C270.291 620.11 270.481 614.9 266.971 612.23C265.041 610.78 262.491 610.53 260.241 609.65C255.901 607.96 252.931 604.04 249.491 600.9C247.85 599.309 245.847 598.14 243.653 597.495C241.46 596.851 239.142 596.749 236.901 597.2C214.421 602.35 197.901 621.42 176.981 631.06C176.171 631.44 175.361 631.8 174.541 632.14C171.835 633.131 169.259 634.448 166.871 636.06C165.193 637.225 163.976 638.941 163.431 640.91C162.901 643.03 163.361 645.25 163.621 647.43C164.042 650.975 163.89 654.564 163.171 658.06C162.9 659.415 162.543 660.751 162.101 662.06C161.301 664.43 160.231 666.75 159.211 669.06C153.878 665.474 148.621 661.807 143.441 658.06C136.201 652.847 129.048 647.48 121.981 641.96L117.691 638.51C99.1976 624.029 81.8709 608.117 65.8711 590.92C68.0011 584.92 71.0811 579.34 72.5611 573.19C73.4011 569.66 73.7111 565.99 74.8711 562.56C76.2088 559.004 78.0693 555.668 80.3911 552.66C88.8946 540.802 99.2779 530.412 111.131 521.9C123.521 513.02 137.831 505.9 148.981 495.82C153.506 491.859 157.407 487.237 160.551 482.11C160.741 481.8 160.921 481.47 161.081 481.11C161.951 479.3 162.554 477.374 162.871 475.39C163.671 470.91 163.551 465.99 163.951 461.69C177.534 464.042 191.381 464.459 205.081 462.93C221.031 461.14 236.631 456.71 252.581 454.99C253.781 454.85 254.991 454.74 256.201 454.64C261.311 454.23 266.431 454.14 271.561 454.2C275.851 454.2 280.141 454.39 284.431 454.53L331.661 456.13C336.891 456.31 342.231 456.51 347.101 458.42C352.881 460.69 357.511 465.21 361.221 470.18C361.691 470.82 362.161 471.46 362.601 472.12C365.654 476.574 368.102 481.413 369.881 486.51C370.071 487.03 370.251 487.51 370.421 488.08C370.871 489.47 371.261 490.87 371.611 492.29C371.881 493.4 372.121 494.51 372.341 495.63C373.441 501.17 374.091 506.83 375.831 512.18C375.951 512.57 376.081 512.96 376.221 513.34C378.311 519.2 381.781 524.45 384.401 530.08C386.29 534.156 387.732 538.424 388.701 542.81C390.66 551.619 390.701 560.745 388.821 569.57V569.57Z" fill="#35323E"/>
<path d="M413.978 443.02L406.638 452.29L392.798 469.76L376.798 489.95L372.328 495.59H363.658L148.968 495.84L14.5183 495.99H8.51828C7.71828 493.49 6.97828 490.99 6.29828 488.39C5.29828 484.67 4.42161 480.903 3.66828 477.09C3.50828 476.36 3.36828 475.63 3.23828 474.89L52.0183 443L70.3583 442.9L126.458 442.58L157.788 442.4H163.508H167.098L187.978 442.29L347.118 441.38L355.258 441.33H358.788L368.138 441.28L402.928 441.08L409.608 438.54L410.098 439.06L413.978 443.02Z" fill="#3F3D56"/>
<path d="M410.979 438.02L410.149 439.02L404.689 445.45L393.449 458.72L369.879 486.51L161.079 481.18L3.62856 477.18C3.46856 476.45 3.32856 475.72 3.19856 474.98C0.80845 462.147 -0.247174 449.1 0.0485621 436.05L17.5086 427.11L21.5086 425.05L52.6386 409.05L79.9586 395.05L151.219 404.31L166.999 406.36L174.139 407.28L184.589 408.64L185.469 408.76L349.339 430.01L367.449 432.36L378.079 433.74L410.839 438L410.979 438.02Z" fill="#504F60"/>
<path d="M376.981 486.02L376.811 489.95L375.811 512.14L370.431 634.14L369.291 660.51L366.291 728.35L364.601 766.669L358.501 764.76C355.341 763.753 352.185 762.726 349.031 761.68L363.661 495.68L363.971 490.1L370.411 488.1L376.981 486.02Z" fill="#3F3D56"/>
<path d="M14.9817 485.73L14.5317 496L13.8717 511C11.9651 506.26 10.2184 501.43 8.63172 496.51L8.48172 496.021C7.68172 493.521 6.94172 491.02 6.26172 488.42L14.9817 485.73Z" fill="#3F3D56"/>
<path d="M276.48 334.53C301.886 334.53 322.48 306.772 322.48 272.53C322.48 238.289 301.886 210.53 276.48 210.53C251.075 210.53 230.48 238.289 230.48 272.53C230.48 306.772 251.075 334.53 276.48 334.53Z" fill="#A1616A"/>
<path d="M73.451 301.25C71.081 303.77 68.891 306.49 66.351 308.85C64.1166 310.837 61.7801 312.706 59.351 314.45C55.431 317.383 51.5977 320.42 47.851 323.56C43.9422 326.65 40.4052 330.184 37.311 334.09C31.971 341.26 29.4411 350.18 24.4411 357.59C20.0211 364.16 13.791 369.35 9.30105 375.87C7.33127 378.611 5.86819 381.683 4.98105 384.94C4.31885 388.092 4.02023 391.31 4.09105 394.53C4.00105 399.81 3.92105 405.15 5.00105 410.32C6.08105 415.49 8.45105 420.57 12.511 423.96C16.281 427.11 21.151 428.56 25.921 429.76C28.381 430.37 31.041 430.94 33.381 429.97C35.0933 429.105 36.5796 427.851 37.7211 426.31L49.891 412.31C58.031 402.91 66.4911 393.31 77.6611 387.81C81.1611 386.1 84.8511 384.81 88.3611 383.15C103.241 375.98 113.761 361.3 117.841 345.3C118.841 341.39 119.481 337.4 120.131 333.41L121.891 322.47C122.026 321.921 122.026 321.348 121.891 320.8C121.615 320.183 121.172 319.656 120.611 319.28C112.134 312.434 104.197 304.945 96.871 296.88C95.131 294.96 93.501 292.33 91.491 290.72C88.971 288.72 89.161 288.87 86.131 290.72C81.47 293.671 77.2083 297.21 73.451 301.25V301.25Z" fill="#A1616A"/>
<path fill-rule="evenodd" clip-rule="evenodd" d="M245.261 211.7C241.041 208.34 234.921 210.8 229.981 212.97C225.839 214.799 221.576 216.34 217.221 217.58C216.33 217.923 215.364 218.023 214.421 217.87C213.108 217.555 212.295 216.426 211.47 215.28C211.038 214.68 210.603 214.075 210.091 213.58C207.501 211.09 203.261 211.68 199.921 213.03C199.232 213.309 198.544 213.613 197.855 213.918C195.206 215.09 192.542 216.268 189.701 216.03C187.867 215.886 186.149 215.161 184.43 214.437C182.569 213.652 180.708 212.867 178.701 212.82C175.611 212.747 172.746 214.438 169.936 216.097C166.563 218.087 163.269 220.031 159.761 218.82C158.268 218.306 156.898 217.248 155.559 216.215C153.382 214.536 151.291 212.922 148.901 213.82C146.951 214.561 146.154 216.575 145.338 218.638C144.899 219.748 144.454 220.872 143.821 221.82C142.106 224.364 139.082 225.437 136.115 226.489L136.115 226.489C135.397 226.744 134.683 226.997 133.991 227.27C129.603 229.003 125.796 231.975 122.878 235.666C117.233 236.904 110.29 242.498 107.448 245.34C103.856 248.507 100.596 252.017 97.3343 255.53C95.2297 257.796 93.1243 260.063 90.9281 262.24C83.2481 269.86 74.5181 276.34 65.8281 282.79C68.9439 283.661 71.7801 285.326 74.0589 287.622C76.3378 289.919 77.9811 292.768 78.8281 295.89C78.995 296.535 79.1252 297.193 79.2552 297.849C79.4213 298.686 79.587 299.522 79.8281 300.33C80.8281 303.74 83.0281 306.68 85.3881 309.33C88.8007 313.177 92.6719 316.687 96.5346 320.189L96.5347 320.189C104.149 327.094 111.731 333.969 115.698 343.33C115.893 344.016 116.317 344.616 116.898 345.03C117.385 345.245 117.925 345.308 118.448 345.21C123.858 344.64 127.998 340.28 131.448 336.04C132.637 334.554 133.799 333.043 134.928 331.506L134.961 331.58C135.445 331.125 135.826 330.809 136.2 330.498C136.599 330.166 136.99 329.84 137.491 329.36C134.996 334.534 134.515 340.451 136.141 345.96C136.647 347.648 137.346 349.265 138.045 350.884L138.045 350.884C138.494 351.922 138.943 352.961 139.341 354.02C140.401 357.06 141.256 360.167 141.901 363.32L150.601 401.7L150.636 401.855C154.025 416.803 157.413 431.753 158.001 447.06C158.368 457.048 157.604 467.045 155.721 476.86C161.83 475.848 167.738 474.179 173.612 472.518C182.893 469.895 192.091 467.295 201.871 467.35C206.76 467.35 211.615 468.046 216.464 468.742C217.426 468.88 218.389 469.018 219.351 469.15C236.29 471.521 253.377 472.68 270.481 472.62C273.141 472.772 275.805 472.398 278.321 471.52C279.655 470.95 280.841 470.112 282.033 469.271C282.806 468.725 283.582 468.177 284.401 467.7C288.471 465.3 293.401 464.7 298.091 464.7C311.287 464.46 324.185 467.347 337.12 470.243L337.121 470.243C345.154 472.041 353.2 473.843 361.341 474.9C369.731 457.29 370.231 436.19 363.791 417.78C363.283 416.326 362.729 414.882 362.174 413.437C360.643 409.447 359.109 405.452 358.551 401.23C358.246 397.696 358.166 394.145 358.311 390.6C358.278 381.525 356.643 372.527 353.481 364.02C353.334 363.624 353.182 363.226 353.031 362.828C351.909 359.881 350.767 356.878 350.881 353.75C351.011 350.2 352.761 346.89 354.481 343.75L354.548 343.628L354.548 343.628C356.23 340.543 357.92 337.445 359.772 334.46C366.511 330.667 373.917 328.162 381.613 327.095C391.333 325.748 401.234 326.733 410.498 329.97L401.988 309.97C400.931 307.504 400.529 304.943 400.131 302.405C399.766 300.083 399.404 297.78 398.548 295.583C396.545 283.963 393.852 272.07 388.981 261.5C383.331 249.24 374.881 237.97 363.451 230.8C359.598 228.482 355.565 226.476 351.391 224.8C345.551 222.34 339.471 220.17 333.141 219.8C327.648 219.487 322.219 220.537 316.797 221.584C315.112 221.91 313.427 222.236 311.741 222.52C289.361 226.29 263.021 225.83 245.261 211.7Z" fill="url(#paint2_linear_367_4)"/>
<path opacity="0.1" d="M276.48 334.53C301.886 334.53 322.48 306.772 322.48 272.53C322.48 238.289 301.886 210.53 276.48 210.53C251.075 210.53 230.48 238.289 230.48 272.53C230.48 306.772 251.075 334.53 276.48 334.53Z" fill="black"/>
<path d="M282.98 299.03C318.327 299.03 346.98 270.376 346.98 235.03C346.98 199.684 318.327 171.03 282.98 171.03C247.634 171.03 218.98 199.684 218.98 235.03C218.98 270.376 247.634 299.03 282.98 299.03Z" fill="#A1616A"/>
<path d="M284.249 136.39C280.341 136.702 276.461 137.293 272.639 138.16C262.519 140.62 253.769 146.08 245.249 151.44C241.429 153.85 237.499 156.36 235.129 159.9C230.869 166.25 232.519 174.33 230.129 181.38C228.889 185 226.609 188.25 224.679 191.62C219.369 200.86 216.589 211.01 213.859 221.06C213.299 223.14 213.139 225.96 215.409 226.76C216.716 227.032 218.075 226.877 219.289 226.32C226.459 223.95 235.569 223.27 240.889 228.08C246.209 232.89 245.759 241.42 252.089 245.08C259.339 249.31 270.659 244.2 277.239 249.19C280.059 251.33 281.079 254.76 283.389 257.34C288.769 263.34 299.119 263.05 307.729 261.84C312.669 261.14 318.729 260.67 321.729 264.14C323.169 265.78 323.579 268.03 325.249 269.51C328.249 272.19 333.739 270.83 336.669 268.08C339.599 265.33 340.999 261.61 343.439 258.52C348.189 252.52 356.539 249.25 361.439 243.32C365.539 238.32 366.779 232.06 367.899 226.02L372.069 203.63C373.759 194.55 375.299 184.63 370.189 176.63C368.369 173.75 365.759 171.27 364.189 168.29C363.139 166.29 362.549 164.18 361.329 162.29C359.882 160.321 358.153 158.576 356.199 157.11L346.329 148.94C342.954 145.986 339.345 143.311 335.539 140.94C321.449 132.73 300.349 134.89 284.249 136.39Z" fill="#464353"/>
<path d="M156.7 374.05C156.599 373.818 156.452 373.608 156.268 373.434C156.084 373.26 155.866 373.125 155.629 373.038C155.391 372.95 155.138 372.911 154.885 372.923C154.632 372.936 154.384 372.999 154.156 373.109C153.928 373.22 153.725 373.376 153.559 373.567C153.392 373.758 153.266 373.981 153.188 374.222C153.11 374.463 153.082 374.717 153.104 374.969C153.127 375.222 153.2 375.467 153.32 375.69L152.32 376.18L182.14 437.3L187.53 434.67L157.71 373.51L156.7 374.05Z" fill="#3F3D56"/>
<path opacity="0.04" d="M73.451 301.25C71.081 303.77 68.891 306.49 66.351 308.85C64.1166 310.837 61.7801 312.706 59.351 314.45C55.431 317.383 51.5977 320.42 47.851 323.56C43.9422 326.65 40.4052 330.184 37.311 334.09C31.971 341.26 29.4411 350.18 24.4411 357.59C20.0211 364.16 13.791 369.35 9.30105 375.87C7.33127 378.611 5.86819 381.683 4.98105 384.94C4.31885 388.092 4.02023 391.31 4.09105 394.53C4.00105 399.81 3.92105 405.15 5.00105 410.32C6.08105 415.49 8.45105 420.57 12.511 423.96C16.281 427.11 21.151 428.56 25.921 429.76C28.381 430.37 31.041 430.94 33.381 429.97C35.0933 429.105 36.5796 427.851 37.7211 426.31L49.891 412.31C58.031 402.91 66.4911 393.31 77.6611 387.81C81.1611 386.1 84.8511 384.81 88.3611 383.15C103.241 375.98 113.761 361.3 117.841 345.3C118.841 341.39 119.481 337.4 120.131 333.41L121.891 322.47C122.026 321.921 122.026 321.348 121.891 320.8C121.615 320.183 121.172 319.656 120.611 319.28C112.134 312.434 104.197 304.945 96.871 296.88C95.131 294.96 93.501 292.33 91.491 290.72C88.971 288.72 89.161 288.87 86.131 290.72C81.47 293.671 77.2083 297.21 73.451 301.25V301.25Z" fill="black"/>
<path d="M418.188 413.89C418.088 420.27 417.838 426.84 415.188 432.66C414.048 435.18 412.278 437.66 409.628 438.49C408.024 438.861 406.365 438.922 404.738 438.67C385.119 436.946 365.35 438.514 346.248 443.31C351.348 433.11 348.418 420.88 349.828 409.56C350.218 406.47 350.928 403.43 351.198 400.33C352.198 389.33 347.488 378.65 345.328 367.79C343.453 358.389 343.453 348.711 345.328 339.31C345.696 336.89 346.528 334.564 347.778 332.46C349.243 330.413 351.168 328.738 353.398 327.57C361.498 322.96 371.048 322.43 380.148 323.04C386.278 323.45 398.568 322.87 403.678 326.64C409.268 330.77 411.038 344.64 412.548 351.05C414.809 360.881 416.347 370.865 417.148 380.92C418.128 391.88 418.338 402.89 418.188 413.89Z" fill="#A1616A"/>
<path d="M59.9805 436.03L95.9805 460.03L257.98 454.03L150.98 436.03H59.9805Z" fill="white"/>
<path d="M60.1883 369.98C62.3183 371.68 64.1883 373.69 66.3783 375.31C68.6943 376.918 71.1589 378.301 73.7383 379.44L83.5983 384.18C86.6538 385.768 89.851 387.067 93.1483 388.06C97.3683 389.19 101.798 389.3 106.038 390.35C111.388 391.67 116.278 394.42 121.548 396.01C126.818 397.6 132.988 397.86 137.388 394.55C140.138 392.48 142.218 389.06 145.628 388.55C147.828 388.26 149.948 389.32 151.908 390.35L177.568 403.84C181.028 405.66 184.688 407.68 186.498 411.15C188.308 414.62 187.088 419.89 183.278 420.79C181.95 420.943 180.615 421.02 179.278 421.02C177.958 421.18 176.518 421.96 176.338 423.29C176.332 424.116 176.549 424.928 176.968 425.64C178.118 428.28 178.458 431.44 177.118 434C175.778 436.56 172.488 438.15 169.858 437C170.308 440.87 166.098 443.58 162.348 444.61C152.888 447.2 142.858 445.61 133.188 443.97C129.388 443.33 125.528 442.67 122.068 440.97C120.408 440.16 118.868 439.12 117.188 438.37C112.578 436.32 107.338 436.59 102.298 436.68C78.9883 437.09 55.8783 432.77 32.9583 428.47C28.7083 427.67 24.3383 426.82 20.7083 424.47C13.7083 419.91 11.1083 410.55 12.2583 402.27C13.4083 393.99 17.6083 386.49 21.7383 379.21L27.0883 369.78C27.7877 368.336 28.7666 367.044 29.9683 365.98C37.8383 359.97 53.4483 364.56 60.1883 369.98Z" fill="#A1616A"/>
<path opacity="0.04" d="M60.1883 369.98C62.3183 371.68 64.1883 373.69 66.3783 375.31C68.6943 376.918 71.1589 378.301 73.7383 379.44L83.5983 384.18C86.6538 385.768 89.851 387.067 93.1483 388.06C97.3683 389.19 101.798 389.3 106.038 390.35C111.388 391.67 116.278 394.42 121.548 396.01C126.818 397.6 132.988 397.86 137.388 394.55C140.138 392.48 142.218 389.06 145.628 388.55C147.828 388.26 149.948 389.32 151.908 390.35L177.568 403.84C181.028 405.66 184.688 407.68 186.498 411.15C188.308 414.62 187.088 419.89 183.278 420.79C181.95 420.943 180.615 421.02 179.278 421.02C177.958 421.18 176.518 421.96 176.338 423.29C176.332 424.116 176.549 424.928 176.968 425.64C178.118 428.28 178.458 431.44 177.118 434C175.778 436.56 172.488 438.15 169.858 437C170.308 440.87 166.098 443.58 162.348 444.61C152.888 447.2 142.858 445.61 133.188 443.97C129.388 443.33 125.528 442.67 122.068 440.97C120.408 440.16 118.868 439.12 117.188 438.37C112.578 436.32 107.338 436.59 102.298 436.68C78.9883 437.09 55.8783 432.77 32.9583 428.47C28.7083 427.67 24.3383 426.82 20.7083 424.47C13.7083 419.91 11.1083 410.55 12.2583 402.27C13.4083 393.99 17.6083 386.49 21.7383 379.21L27.0883 369.78C27.7877 368.336 28.7666 367.044 29.9683 365.98C37.8383 359.97 53.4483 364.56 60.1883 369.98Z" fill="black"/>
<path d="M365.452 387.26C360.242 389.72 354.262 389.96 348.822 391.85C343.382 393.74 338.762 397.14 333.772 399.91C320.772 407.17 305.772 409.91 291.042 412.52C282.112 414.12 273.042 415.72 264.042 415.34C251.862 414.82 240.162 410.76 228.362 407.7C216.562 404.64 203.972 402.58 192.282 406.02C186.177 407.878 180.597 411.149 175.993 415.568C171.388 419.986 167.89 425.427 165.782 431.45C163.332 438.64 162.992 446.39 163.462 453.97C165.922 455.78 169.362 453.27 170.702 450.52C172.042 447.77 172.772 444.4 175.372 442.8C179.882 444.33 180.982 450.34 184.702 453.31C187.022 455.17 190.122 455.66 193.072 456.08L208.272 458.24C211.932 458.76 216.182 459.11 218.832 456.53C220.122 455.28 220.832 453.53 222.012 452.19C224.432 449.51 228.472 449.05 232.072 449.41C243.312 450.53 253.852 457.82 265.012 456.09C268.852 455.5 272.422 453.86 276.082 452.57C297.772 444.91 321.872 449.57 344.442 445.18C353.052 443.51 361.342 440.55 369.532 437.43C373.982 435.74 378.482 433.97 382.282 431.11C385.882 428.341 388.721 424.705 390.533 420.541C392.345 416.377 393.07 411.821 392.642 407.3C391.805 400.409 388.367 394.099 383.032 389.66C381.272 388.16 378.962 385.29 376.852 384.35C372.822 382.58 368.872 385.65 365.452 387.26Z" fill="#A1616A"/>
<g opacity="0.1">
<path opacity="0.1" d="M336.229 259.51C334.559 258.03 334.149 255.78 332.709 254.14C329.709 250.67 323.649 251.14 318.709 251.84C310.099 253.05 299.709 253.33 294.369 247.34C292.059 244.76 291.039 241.34 288.219 239.19C281.639 234.19 270.319 239.31 263.069 235.08C256.739 231.39 257.149 222.83 251.869 218.08C246.589 213.33 237.439 213.95 230.269 216.32C229.055 216.877 227.696 217.032 226.389 216.76C224.119 215.96 224.279 213.14 224.839 211.06C227.569 201.01 230.349 190.86 235.659 181.62C237.589 178.25 239.869 175 241.109 171.38C243.279 165.04 242.169 157.87 245.019 151.87C241.959 153.87 239.019 156.05 237.129 158.87C232.869 165.22 234.519 173.3 232.129 180.35C230.889 183.97 228.609 187.22 226.679 190.59C221.369 199.83 218.589 209.98 215.859 220.03C215.299 222.11 215.139 224.93 217.409 225.73C218.716 226.002 220.075 225.847 221.289 225.29C228.459 222.92 237.569 222.24 242.889 227.05C248.209 231.86 247.759 240.39 254.089 244.05C261.339 248.28 272.659 243.17 279.239 248.16C282.059 250.3 283.079 253.73 285.389 256.31C290.769 262.31 301.119 262.02 309.729 260.81C314.669 260.11 320.729 259.64 323.729 263.11C325.169 264.75 325.579 267 327.249 268.48C330.249 271.16 335.739 269.8 338.669 267.05C340.547 265.094 342.155 262.894 343.449 260.51C340.849 261.3 338.079 261.18 336.229 259.51Z" fill="black"/>
<path opacity="0.1" d="M354.45 248.51C353.806 249.339 353.208 250.204 352.66 251.1C356.5 248.36 360.57 245.8 363.44 242.31C364.185 241.406 364.854 240.443 365.44 239.43C361.45 242.29 357.29 244.92 354.45 248.51Z" fill="black"/>
</g>
<path d="M556.48 446.53L559.48 733.53L573.48 731.53L570.48 446.53H556.48Z" fill="#3F3D56"/>
<path d="M640.48 498.53L643.48 785.53L657.48 783.53L654.48 498.53H640.48Z" fill="#3F3D56"/>
<path d="M902.009 643.51L901.949 638V634.72L901.419 584.24L900.589 505.32L900.449 498.51H886.449L886.519 505.07L886.959 547.34L887.149 565.64L887.309 580.46L887.569 606.08L887.729 621.19V622.79L887.939 642.65L888.119 660.16L889.259 658.9C891.093 656.853 892.886 654.773 894.639 652.66L902.009 643.51Z" fill="#3F3D56"/>
<path d="M624.98 545.03L616.98 556.99L624.98 611.48L692.98 630.09H802.98L868.98 634.08L900.42 612.56L894.98 575.6L870.98 545.03H624.98Z" fill="url(#paint3_linear_367_4)"/>
<path d="M616.98 556.99L612.98 590.21C612.98 590.21 591.98 655.34 760.98 651.35C929.98 647.36 900.98 634.07 900.98 634.07L899.98 595.53C899.98 595.53 905.87 613.77 819.98 611.3C734.09 608.83 653.98 600.85 653.98 600.85C653.98 600.85 623.98 606.16 616.98 556.99Z" fill="#3F3D56"/>
<path d="M757.778 259.23C748.138 263.62 740.838 272.13 735.948 281.54C731.058 290.95 728.308 301.28 725.598 311.54C722.738 322.36 719.868 333.21 718.388 344.3C715.748 364.02 717.728 384.75 726.788 402.46C735.848 420.17 752.588 434.46 772.188 437.87C779.758 439.2 787.538 438.93 795.188 438.14C809.016 436.676 822.636 433.674 835.798 429.19C849.548 424.54 863.858 417.38 869.978 404.19C873.528 396.54 873.828 387.82 873.658 379.4C873.187 356.451 869.721 333.662 863.348 311.61C861.498 305.21 859.348 298.76 855.428 293.37C851.508 287.98 846.148 284.03 840.678 280.37C817.288 264.62 786.548 246.15 757.778 259.23Z" fill="#FBBEBE"/>
<path opacity="0.05" d="M757.778 259.23C748.138 263.62 740.838 272.13 735.948 281.54C731.058 290.95 728.308 301.28 725.598 311.54C722.738 322.36 719.868 333.21 718.388 344.3C715.748 364.02 717.728 384.75 726.788 402.46C735.848 420.17 752.588 434.46 772.188 437.87C779.758 439.2 787.538 438.93 795.188 438.14C809.016 436.676 822.636 433.674 835.798 429.19C849.548 424.54 863.858 417.38 869.978 404.19C873.528 396.54 873.828 387.82 873.658 379.4C873.187 356.451 869.721 333.662 863.348 311.61C861.498 305.21 859.348 298.76 855.428 293.37C851.508 287.98 846.148 284.03 840.678 280.37C817.288 264.62 786.548 246.15 757.778 259.23Z" fill="black"/>
<path d="M746.95 385.1C749.741 388.935 753.115 392.31 756.95 395.1C766.47 401.68 778.69 402.57 790.25 402.93C799.53 403.21 810.17 402.68 815.99 395.44C818.61 392.18 819.79 388.02 820.85 383.97C827.392 359.101 832.038 333.772 834.75 308.2L861.23 308.29C872.69 357.36 871.75 408.37 870.75 458.76L869.3 532.24L852.24 530.43C811.73 526.14 771.16 521.85 730.43 521.11C706.565 520.671 682.694 521.459 658.91 523.47L696.06 413.01C700.88 398.65 705.75 384.1 706.88 369.01C708.51 347.12 702.37 324.01 710.88 303.76C711.56 302.13 712.42 300.44 713.97 299.59C715.52 298.74 717.48 298.95 719.26 299.18C722.62 299.63 732.89 299.18 735.33 301.33C738.93 304.45 736.55 304.92 735.28 309.95C733.01 318.95 730.86 327.28 730.89 336.66C730.92 353.69 736.2 371.67 746.95 385.1Z" fill="url(#paint4_linear_367_4)"/>
<path d="M902.01 643.51C906.47 637.59 910.673 631.46 914.62 625.12C912.62 620.84 910.42 616.66 908.67 612.29C905.99 605.59 904.45 598.49 902.93 591.44C902.41 589.04 901.893 586.64 901.38 584.24C895.78 558.13 890.52 531.65 889.43 505.18C889.33 502.98 889.266 500.78 889.24 498.58C889.24 498.26 889.24 497.95 889.24 497.58C889.24 495.17 889.24 492.76 889.24 490.36C889.36 484.36 889.74 478.31 890.43 472.29C890.56 471.11 890.71 469.93 890.87 468.75C890.87 468.49 890.93 468.24 890.97 467.98L958.97 465.5L964.69 465.29C968.62 465.15 972.779 464.93 976.019 462.7C981.469 458.96 982.109 451.29 982.019 444.7C981.689 428.044 979.8 411.455 976.38 395.15C973.8 382.89 970.12 370.36 961.86 360.94C955.08 353.2 945.26 347.57 941.73 337.94C940.42 334.36 940.089 330.43 938.389 327.01C936.689 323.59 933.88 321.08 931.23 318.44C921.903 309.199 914.166 298.482 908.33 286.72C904.28 278.56 899.89 269.56 894.6 263.92C894.34 263.63 894.08 263.36 893.81 263.1C889.31 258.65 884.16 256.7 878.06 259.73C876.963 260.281 875.918 260.93 874.94 261.67V261.67C872.766 263.331 870.777 265.222 869.01 267.31C862.848 274.395 857.442 282.104 852.88 290.31C849.672 296.088 846.917 302.106 844.64 308.31C842.842 313.212 841.356 318.222 840.19 323.31C839.33 327.08 838.65 330.89 838.11 334.71C836.11 349.07 836.11 363.71 836.39 378.25C836.69 391.61 837.28 405 838.49 418.31C838.79 421.53 839.123 424.747 839.49 427.96C840.223 434.314 841.13 440.647 842.21 446.96C842.64 449.37 843.08 451.78 843.57 454.18C843.69 454.82 843.82 455.46 843.95 456.09L844.01 456.36C845.33 461.939 846.355 467.584 847.08 473.27C847.16 473.984 847.22 474.694 847.26 475.4C847.428 478.669 847.401 481.945 847.18 485.21C846.95 489.07 846.59 492.92 846.41 496.78C846.41 497.46 846.41 498.13 846.34 498.78C846.29 500.73 846.34 502.68 846.34 504.63C846.542 509.296 847.097 513.939 848 518.52C849.686 527.042 852.6 535.275 856.65 542.96C857.03 543.68 857.42 544.39 857.81 545.09C862.88 554.15 869.28 562.46 873.97 571.73C878.015 580.072 881.037 588.873 882.97 597.94C883.636 600.934 884.27 603.934 884.87 606.94C885.8 611.74 886.63 616.58 887.48 621.42C887.56 621.9 887.65 622.42 887.74 622.86C888.87 629.28 890.06 635.67 891.59 641.94C892.48 645.59 893.48 649.19 894.65 652.73L902.01 643.51Z" fill="#464353"/>
<path d="M888.652 564.69C888.652 565.59 888.592 566.49 888.552 567.4C888.373 571.787 887.97 576.163 887.342 580.51C886.513 586.442 885.062 592.271 883.012 597.9C881.653 601.601 879.924 605.155 877.852 608.51C876.014 611.488 873.862 614.261 871.432 616.78C865.432 623.02 856.792 625.01 848.432 627.64C844.585 628.753 840.868 630.272 837.342 632.17C836.712 632.52 836.092 632.9 835.492 633.3L825.032 640.23C821.772 642.38 818.442 644.61 816.202 647.8C815.835 648.342 815.501 648.907 815.202 649.49C813.786 652.426 812.751 655.531 812.122 658.73C806.682 681.39 801.232 704.07 797.502 727.07C797.252 728.59 797.012 730.12 796.752 731.65L796.662 732.13C796.617 732.016 796.563 731.905 796.502 731.8C769.742 747.98 741.992 762.58 713.402 774.27L707.192 722.27C706.545 718.042 706.33 713.76 706.552 709.49C707.142 702.76 709.882 696.38 710.622 689.67C711.323 683.101 710.082 676.47 707.052 670.6C705.872 668.32 704.392 666.08 704.122 663.53C703.852 660.98 705.322 658.65 707.882 658.39C709.882 656.17 710.042 653.14 709.452 650.14C709.138 648.573 708.669 647.043 708.052 645.57C706.352 641.39 704.202 636.84 705.662 632.57C706.048 631.796 706.221 630.933 706.162 630.07C706.172 630.017 706.172 629.962 706.162 629.91C705.822 628.79 704.492 628.3 703.802 627.35C702.502 625.58 703.802 623.17 704.602 621.13C705.38 618.938 705.831 616.643 705.942 614.32C706.052 613.03 706.132 611.73 706.272 610.45C706.467 608.717 706.777 607 707.202 605.31C709.631 595.73 715.473 587.367 723.632 581.79C727.522 579.17 731.852 577.26 735.822 574.79C739.889 572.048 743.77 569.042 747.442 565.79C756.249 558.456 765.405 551.543 774.912 545.05C785.134 538.068 795.723 531.639 806.632 525.79C808.965 524.53 811.299 523.303 813.632 522.11C816.172 520.776 818.729 519.513 821.302 518.32C829.542 514.39 838.892 515.86 848.002 518.48C851.822 519.57 855.592 520.87 859.232 522.05C862.787 523.205 866.206 524.741 869.432 526.63C877.502 531.37 884.172 538.37 886.942 547.21C886.946 547.266 886.946 547.323 886.942 547.38C888.702 552.92 888.812 558.86 888.652 564.69Z" fill="#F86D70"/>
<path opacity="0.1" d="M888.652 564.69C888.652 565.59 888.592 566.49 888.552 567.4C888.373 571.787 887.97 576.163 887.342 580.51C886.513 586.442 885.062 592.271 883.012 597.9C881.653 601.601 879.924 605.155 877.852 608.51C876.014 611.488 873.862 614.261 871.432 616.78C865.432 623.02 856.792 625.01 848.432 627.64C844.585 628.753 840.868 630.272 837.342 632.17C836.712 632.52 836.092 632.9 835.492 633.3L825.032 640.23C821.772 642.38 818.442 644.61 816.202 647.8C815.835 648.342 815.501 648.907 815.202 649.49C813.786 652.426 812.751 655.531 812.122 658.73C806.682 681.39 801.232 704.07 797.502 727.07C797.252 728.59 797.012 730.12 796.752 731.65L796.662 732.13C796.617 732.016 796.563 731.905 796.502 731.8C769.742 747.98 741.992 762.58 713.402 774.27L707.192 722.27C706.545 718.042 706.33 713.76 706.552 709.49C707.142 702.76 709.882 696.38 710.622 689.67C711.323 683.101 710.082 676.47 707.052 670.6C705.872 668.32 704.392 666.08 704.122 663.53C703.852 660.98 705.322 658.65 707.882 658.39C709.882 656.17 710.042 653.14 709.452 650.14C709.138 648.573 708.669 647.043 708.052 645.57C706.352 641.39 704.202 636.84 705.662 632.57C706.048 631.796 706.221 630.933 706.162 630.07C706.172 630.017 706.172 629.962 706.162 629.91C705.822 628.79 704.492 628.3 703.802 627.35C702.502 625.58 703.802 623.17 704.602 621.13C705.38 618.938 705.831 616.643 705.942 614.32C706.052 613.03 706.132 611.73 706.272 610.45C706.467 608.717 706.777 607 707.202 605.31C709.631 595.73 715.473 587.367 723.632 581.79C727.522 579.17 731.852 577.26 735.822 574.79C739.889 572.048 743.77 569.042 747.442 565.79C756.249 558.456 765.405 551.543 774.912 545.05C785.134 538.068 795.723 531.639 806.632 525.79C808.965 524.53 811.299 523.303 813.632 522.11C816.172 520.776 818.729 519.513 821.302 518.32C829.542 514.39 838.892 515.86 848.002 518.48C851.822 519.57 855.592 520.87 859.232 522.05C862.787 523.205 866.206 524.741 869.432 526.63C877.502 531.37 884.172 538.37 886.942 547.21C886.946 547.266 886.946 547.323 886.942 547.38C888.702 552.92 888.812 558.86 888.652 564.69Z" fill="black"/>
<path d="M793.7 399.05C793.599 398.818 793.452 398.608 793.268 398.434C793.084 398.26 792.866 398.125 792.629 398.038C792.391 397.95 792.138 397.911 791.885 397.923C791.632 397.936 791.384 397.999 791.156 398.109C790.928 398.22 790.725 398.376 790.559 398.567C790.392 398.758 790.266 398.981 790.188 399.222C790.11 399.463 790.082 399.717 790.104 399.969C790.127 400.222 790.2 400.467 790.32 400.69L789.32 401.18L819.14 462.3L824.53 459.67L794.71 398.51L793.7 399.05Z" fill="#3F3D56"/>
<path d="M830.98 335.03C866.327 335.03 894.98 306.376 894.98 271.03C894.98 235.684 866.327 207.03 830.98 207.03C795.634 207.03 766.98 235.684 766.98 271.03C766.98 306.376 795.634 335.03 830.98 335.03Z" fill="#FBBEBE"/>
<path d="M915.449 231.41C915.149 226.323 914.393 221.272 913.189 216.32C909.429 200.15 902.559 184.23 890.729 172.62C890 169.782 889.129 166.982 888.119 164.23C888.1 164.162 888.076 164.095 888.049 164.03C884.52 154.338 879.418 145.294 872.949 137.26C869.199 132.6 864.339 128 858.359 127.82C856.679 127.76 854.899 128.05 853.359 127.28C852.226 126.548 851.273 125.571 850.569 124.42C847.607 120.678 843.68 117.816 839.21 116.144C834.741 114.471 829.899 114.052 825.209 114.93L824.589 115.06C824.239 115.13 823.889 115.21 823.589 115.3C823.289 115.39 822.749 115.54 822.329 115.67C822.789 116.43 823.239 117.2 823.679 117.98C824.865 120.094 825.965 122.254 826.979 124.46C827.819 126.3 828.595 128.17 829.309 130.07C819.069 131.24 810.729 138.51 803.109 145.43L785.169 161.71C785.136 161.738 785.106 161.768 785.079 161.8L784.559 162.3C784.429 162.43 784.299 162.56 784.179 162.7C784.13 162.742 784.087 162.789 784.049 162.84C783.899 163 783.759 163.17 783.619 163.34C783.369 163.655 783.145 163.99 782.949 164.34C782.851 164.49 782.764 164.647 782.689 164.81C782.661 164.858 782.638 164.908 782.619 164.96C782.553 165.097 782.497 165.237 782.449 165.38C782.444 165.4 782.444 165.421 782.449 165.44C782.421 165.522 782.397 165.606 782.379 165.69C782.175 166.394 782.235 167.148 782.549 167.81L794.379 167.94H795.769C795.829 169.52 795.879 171.11 795.939 172.69C794.062 174.095 792.259 175.597 790.539 177.19C788.663 178.927 786.902 180.784 785.269 182.75C774.599 195.64 769.029 212.29 768.469 229.05C768.469 229.57 768.469 230.05 768.469 230.59C768.469 232.12 768.469 233.65 768.469 235.17C768.469 236.17 768.559 237.17 768.639 238.17C768.644 239.473 768.988 240.752 769.639 241.88C769.724 242.006 769.818 242.127 769.919 242.24C770.519 242.892 771.239 243.421 772.039 243.8L772.899 244.22C773.329 244.43 773.739 244.63 774.139 244.86C777.909 246.99 780.139 251.1 783.569 253.74C783.769 253.89 783.969 254.04 784.169 254.17L784.619 254.47L784.899 254.65L785.279 254.87C785.528 255.021 785.785 255.157 786.049 255.28V255.28L786.529 255.52H786.609C787.009 255.7 787.409 255.87 787.819 256.02L788.389 256.22L788.559 256.28C788.719 256.33 788.889 256.39 789.059 256.43C789.399 256.53 789.732 256.62 790.059 256.7L791.059 256.92C791.449 256.99 791.849 257.06 792.249 257.11L792.839 257.19L793.439 257.25C794.392 257.337 795.352 257.387 796.319 257.4C799.352 257.382 802.382 257.171 805.389 256.77L830.909 253.77C836.699 253.1 842.609 252.43 848.319 253.61C853.159 254.61 857.619 256.91 862.319 258.54C863.379 258.91 864.439 259.25 865.509 259.54C865.899 259.65 866.299 259.77 866.699 259.87L867.249 260.01L868.529 260.32C868.989 260.43 869.449 260.54 869.909 260.63C870.559 260.77 871.199 260.89 871.849 261.01C872.289 261.1 872.739 261.17 873.189 261.25H873.279L874.559 261.45H874.869L875.819 261.58C876.279 261.65 876.739 261.71 877.209 261.76C878.229 261.887 879.249 261.997 880.269 262.09C881.919 262.25 883.579 262.37 885.269 262.47L886.929 262.57L888.589 262.65L893.589 262.87H893.809H894.509C896.587 263.015 898.676 262.908 900.729 262.55C901.089 262.48 901.439 262.4 901.789 262.3C902.139 262.2 902.429 262.1 902.789 261.98C906.539 260.54 909.279 257.23 911.179 253.69C911.579 252.94 911.949 252.19 912.289 251.42C912.629 250.65 912.939 249.87 913.219 249.09C913.569 248.09 913.869 247.14 914.129 246.14C914.209 245.87 914.279 245.6 914.339 245.32C914.399 245.04 914.539 244.49 914.619 244.07C914.869 242.92 915.059 241.76 915.199 240.59C915.199 240.22 915.289 239.84 915.329 239.47C915.419 238.47 915.489 237.54 915.529 236.56C915.529 235.82 915.529 235.07 915.529 234.32C915.519 233.51 915.449 232.44 915.449 231.41ZM889.809 171.71C888.999 170.95 888.169 170.22 887.329 169.53C888.263 170.12 889.097 170.856 889.799 171.71H889.809Z" fill="#464353"/>
<path d="M708.148 267.51C700.618 266.58 693.148 263.28 685.718 264.9C681.068 265.9 677.068 268.79 673.348 271.76C659.504 282.856 647.733 296.313 638.578 311.51C637.026 313.782 635.935 316.337 635.368 319.03C634.888 322.15 635.738 325.32 636.748 328.31C643.588 348.52 658.218 365.4 664.878 385.67C671.878 406.99 669.448 430.29 664.288 452.13C657.892 479.092 647.497 504.945 633.448 528.83C631.541 532.382 629.151 535.653 626.348 538.55C622.708 542.05 617.818 544.55 615.658 549.13C614.658 551.13 614.368 553.41 613.658 555.55C611.658 561.55 606.818 566.69 606.348 573.02C605.998 577.85 608.288 582.42 609.678 587.02C612.022 594.923 611.773 603.369 608.968 611.12C603.898 625.02 590.638 637.66 594.488 651.95C603.078 649.48 612.598 646.27 616.648 638.3C618.078 635.48 618.788 632.12 621.198 630.06C626.008 625.97 634.198 629.67 639.308 625.91C643.168 623.05 643.308 617.19 641.588 612.69C639.868 608.19 636.908 604.23 635.588 599.6C633.288 591.25 636.968 582.42 636.288 573.79C635.968 569.79 634.738 565.96 634.648 561.98C634.478 554.25 638.758 546.98 644.448 541.73C650.138 536.48 657.168 533 664.088 529.57L690.248 516.57C699.738 511.87 710.138 506.14 713.248 496.02C714.428 492.23 714.438 488.19 714.498 484.23C715.388 423.72 730.548 364.43 745.618 305.82C747.958 296.74 750.338 287.62 753.818 278.9C757.298 270.18 764.108 263.18 767.578 255.08C747.448 252.72 729.058 270.13 708.148 267.51Z" fill="#464353"/>
<path d="M852.361 647.12C854.671 661.12 856.081 675.42 857.181 689.65C839.181 704.57 819.801 717.55 800.111 729.59C798.991 730.28 797.861 730.96 796.731 731.59L796.641 732.07C796.596 731.957 796.543 731.846 796.481 731.74C794.954 728.44 792.282 725.804 788.961 724.32C781.581 708.82 774.208 693.32 766.841 677.82C762.841 669.45 758.841 661.001 756.841 651.971C756.841 651.781 756.751 651.58 756.721 651.39C755.201 644.39 754.851 637.121 753.841 630.031C753.33 625.97 752.415 621.97 751.111 618.09C749.911 614.64 748.261 611.29 746.801 607.92C745.001 603.76 743.491 599.55 743.421 595.06C743.421 593.63 743.511 592.06 742.811 590.86C742.063 589.827 741.139 588.934 740.081 588.221C738.761 587.05 737.76 585.563 737.173 583.9C736.585 582.236 736.43 580.45 736.721 578.71C730.721 579.02 727.341 585.47 724.931 590.94C722.74 596.29 719.863 601.333 716.371 605.94C713.826 609.232 710.59 611.925 706.891 613.83C706.561 613.99 706.231 614.151 705.891 614.291C697.541 617.971 687.791 616.67 678.741 615.01C670.831 613.56 662.651 611.76 656.291 606.84L655.611 606.3C653.729 604.736 652.049 602.942 650.611 600.96C645.281 593.68 642.921 584.09 641.611 574.96C641.491 574.1 641.371 573.24 641.261 572.38C640.352 565.929 640.101 559.402 640.511 552.901C640.631 551.301 640.801 549.7 641.011 548.11C641.151 547.11 641.301 546.03 641.471 544.99C641.467 544.961 641.467 544.93 641.471 544.901C641.731 543.251 642.011 541.591 642.291 539.901C643.291 534.231 644.291 528.411 647.291 523.531C649.266 520.494 651.757 517.827 654.651 515.651C655.731 514.801 656.841 513.99 657.961 513.21C659.781 511.95 661.651 510.75 663.551 509.62C668.332 506.759 673.35 504.317 678.551 502.32C679.791 501.84 681.051 501.39 682.311 500.96C687.209 499.218 692.48 498.801 697.591 499.75C702.12 500.406 706.697 500.674 711.271 500.55C723.001 500.32 734.781 498.08 746.491 496.63C762.751 494.63 780.221 494.39 794.401 502.63C795.081 503.02 795.741 503.43 796.401 503.86C803.401 508.44 809.041 514.861 813.591 522.031C814.591 523.541 815.461 525.091 816.321 526.661C818.304 530.264 820.096 533.969 821.691 537.76C822.635 539.622 823.145 541.674 823.181 543.76C823.158 544.157 823.105 544.552 823.021 544.94C822.751 546.36 822.211 547.74 822.021 549.18C821.391 554.63 826.021 559.18 827.751 564.37C828.871 567.75 828.751 571.37 829.381 574.93C830.291 579.93 832.741 584.43 834.941 588.93C838.418 596.174 841.392 603.648 843.841 611.3C845.581 616.63 847.071 622.04 848.381 627.5C848.808 629.254 849.211 631.01 849.591 632.77C850.681 637.61 851.571 642.35 852.361 647.12Z" fill="#F86D70"/>
<path d="M958.98 499.03V506.03L957.69 506.01L956.25 505.99L940.17 505.79L900.55 505.27L889.43 505.13L886.55 505.09L869.86 504.88L846.341 504.57L796.44 503.92L709.85 502.8L678.6 502.4L666.06 502.24L654.521 502.09L647.331 501.99L640.521 501.9L590.031 501.25L576.031 501.07L572.98 501.03L571 495.92L556.61 458.81L553.98 452.03L555.98 444.03L564.98 450.03L570.521 450.72L661.73 462.06L678.85 464.19L715.151 468.71L750.711 473.13L764.651 474.86L847.141 485.12L870.19 487.99L889.271 490.36L957.11 498.8L958.98 499.03Z" fill="#3F3D56"/>
<path d="M555.98 444.03L573.98 491.03L958.98 499.03V448.03L555.98 444.03Z" fill="#504F60"/>
<path d="M575.98 496.03L578.98 783.03L592.98 781.03L589.98 496.03H575.98Z" fill="#3F3D56"/>
<path d="M957.69 506H956.25C953.919 523.893 950.062 541.554 944.72 558.79L940.17 505.79L939.98 503.53L956.8 501.59L957.36 501.53L957.69 506Z" fill="#3F3D56"/>
<path d="M902.98 472.03L756.48 475.03L710.98 460.03L832.98 453.03L902.98 472.03Z" fill="white"/>
<path d="M719.209 413.71C717.656 414.305 716.28 415.286 715.209 416.56C714.372 417.939 713.863 419.492 713.719 421.1L711.259 435.77C710.884 437.111 710.951 438.538 711.449 439.84C712.089 441.07 713.949 441.71 714.879 440.69C714.759 443.56 715.009 446.62 716.679 448.96C718.349 451.3 721.849 452.53 724.209 450.9C724.579 451.503 725.076 452.018 725.665 452.41C726.254 452.802 726.921 453.061 727.621 453.17C728.32 453.278 729.034 453.233 729.714 453.038C730.394 452.843 731.024 452.502 731.559 452.04C730.139 452.52 730.039 454.69 731.049 455.79C732.18 456.788 733.622 457.364 735.129 457.42C752.702 459.897 770.618 457.642 787.029 450.89C788.579 450.25 784.499 431.14 784.089 429.18C783.089 424.57 782.589 418.94 778.699 415.84C769.399 408.42 752.879 406.96 741.549 407.84C733.808 408.425 726.238 410.414 719.209 413.71V413.71Z" fill="#FBBEBE"/>
<path opacity="0.1" d="M868.27 415.93C832.1 416.62 795.18 417.21 760.66 406.38C763.957 419.159 763.729 432.592 760 445.25L929.12 459.25C936.29 459.84 966.02 463.2 973.01 461.51C980 459.82 914.36 438.2 917.01 431.51C924.3 413.08 948.72 402.28 931.13 401.59C908.93 400.71 890.64 415.51 868.27 415.93Z" fill="black"/>
<path d="M869.27 417.93C833.1 418.62 796.18 419.21 761.66 408.38C764.957 421.159 764.729 434.592 761 447.25L930.12 461.25C937.29 461.84 967.02 465.25 974.01 463.51C981 461.77 979.36 453.2 982.01 446.51C989.3 428.08 949.72 404.28 932.13 403.59C909.93 402.71 891.64 417.51 869.27 417.93Z" fill="#464353"/>
<path d="M811.762 420.71C813.316 421.304 814.692 422.285 815.762 423.56C816.598 424.941 817.11 426.493 817.262 428.1L819.722 442.77C820.092 444.112 820.026 445.537 819.532 446.84C818.892 448.07 817.022 448.71 816.102 447.69C816.212 450.56 815.972 453.62 814.302 455.96C812.632 458.3 809.132 459.53 806.762 457.9C806.392 458.503 805.895 459.018 805.306 459.41C804.717 459.802 804.05 460.061 803.351 460.17C802.651 460.278 801.937 460.233 801.257 460.038C800.577 459.843 799.947 459.502 799.412 459.04C800.832 459.52 800.942 461.69 799.932 462.79C798.797 463.788 797.352 464.364 795.842 464.42C778.272 466.897 760.36 464.643 743.952 457.89C742.402 457.25 746.472 438.14 746.892 436.18C747.892 431.57 748.392 425.94 752.282 422.84C761.572 415.42 778.102 413.96 789.432 414.84C797.17 415.426 804.736 417.415 811.762 420.71V420.71Z" fill="#FBBEBE"/>
<path d="M572.76 388.86C569.44 393.14 566.11 397.51 563.97 402.5C559.88 412.02 560.48 422.8 561.16 433.14C561.35 436.14 561.59 439.2 563.16 441.69C564.518 443.571 566.308 445.098 568.38 446.14C577.04 451.06 587.18 452.53 597.08 453.63C612.24 455.31 627.454 456.334 642.72 456.7C680.54 457.62 718.94 454.53 755.78 463.1C751.22 456.17 751.23 447 753.78 439.1C756.33 431.2 761.24 424.32 766.05 417.55C749.19 412.21 731.11 420.55 713.45 419.72C695.32 418.87 678.54 408.39 660.39 408.4C656.49 408.4 652.52 408.89 648.73 407.95C644.94 407.01 641.27 404.15 640.92 400.26C645.76 401.35 650.35 397.21 652.35 392.67C654.35 388.13 654.71 383 656.65 378.43C661.48 367.06 674.53 361.79 682.65 352.43C683.93 350.95 685.14 349.2 685.1 347.24C684.91 345.58 684.211 344.019 683.1 342.77C676.35 333.77 666.18 328.77 657.73 321.77C654.79 319.33 648.86 310.13 645.56 309.28C639.44 307.71 634.25 316.55 630.27 320.86C610.177 342.694 591.007 365.36 572.76 388.86Z" fill="#464353"/>
<path opacity="0.07" d="M773.84 386.32C776.374 388.2 778.627 390.433 780.53 392.95C781.478 394.215 782.153 395.662 782.513 397.201C782.873 398.74 782.909 400.337 782.62 401.89C782.309 398.992 782.956 396.072 784.459 393.575C785.963 391.078 788.243 389.141 790.95 388.06L773.84 386.32Z" fill="black"/>
<g opacity="0.1">
<path opacity="0.1" d="M829.3 124.08C828.124 120.954 826.768 117.899 825.24 114.93C824.252 115.12 823.277 115.37 822.32 115.68C824.036 118.529 825.582 121.478 826.95 124.51C827.72 124.31 828.5 124.17 829.3 124.08Z" fill="black"/>
<path opacity="0.1" d="M887.32 163.51C887.59 163.73 887.85 163.98 888.11 164.21C888.091 164.145 888.068 164.081 888.04 164.02C887.814 163.853 887.574 163.683 887.32 163.51Z" fill="black"/>
<path opacity="0.1" d="M794.361 167.91C794.881 167.5 795.361 167.07 795.921 166.67L795.761 161.92L785.081 161.81C783.351 163.4 781.511 165.68 782.531 167.81L794.361 167.91Z" fill="black"/>
<path opacity="0.1" d="M911.121 247.87C909.221 251.41 906.482 254.73 902.732 256.16C899.842 257.26 896.662 257.16 893.572 257.02C883.032 256.59 872.312 256.12 862.352 252.63C857.692 250.99 853.232 248.7 848.352 247.69C842.642 246.51 836.732 247.18 830.942 247.86L805.421 250.86C797.891 251.74 789.501 252.4 783.491 247.78C780.051 245.14 777.831 241.03 774.061 238.91C772.471 238.01 770.581 237.43 769.551 235.91C768.901 234.781 768.557 233.502 768.551 232.2C768.471 231.15 768.422 230.1 768.382 229.05C768.273 232.101 768.33 235.155 768.551 238.2C768.557 239.502 768.901 240.781 769.551 241.91C770.551 243.42 772.471 244 774.061 244.91C777.831 247.03 780.061 251.14 783.491 253.78C789.491 258.4 797.891 257.78 805.421 256.86L830.942 253.86C836.732 253.18 842.642 252.51 848.352 253.69C853.192 254.69 857.652 256.99 862.352 258.63C872.352 262.12 883.032 262.63 893.572 263.02C896.662 263.15 899.842 263.26 902.732 262.16C906.482 260.73 909.221 257.41 911.121 253.87C914.801 247.02 915.831 239.25 915.441 231.42C915.227 237.154 913.752 242.77 911.121 247.87V247.87Z" fill="black"/>
</g>
<path opacity="0.1" d="M829.012 130.51L843.012 143.51C843.012 143.51 831.012 138.51 829.012 130.51Z" fill="black"/>
</g>
<defs>
<linearGradient id="paint0_linear_367_4" x1="-4.22098e-06" y1="387.36" x2="941.832" y2="625.007" gradientUnits="userSpaceOnUse">
<stop stop-color="#EB4B55"/>
<stop offset="1" stop-color="#8D59B5"/>
</linearGradient>
<linearGradient id="paint1_linear_367_4" x1="136.98" y1="613.773" x2="243.249" y2="717.153" gradientUnits="userSpaceOnUse">
<stop stop-color="#EB4B55"/>
<stop offset="1" stop-color="#8D59B5"/>
</linearGradient>
<linearGradient id="paint2_linear_367_4" x1="65.8281" y1="338.757" x2="400.923" y2="430.211" gradientUnits="userSpaceOnUse">
<stop stop-color="#EB4B55"/>
<stop offset="1" stop-color="#8D59B5"/>
</linearGradient>
<linearGradient id="paint3_linear_367_4" x1="616.98" y1="587.987" x2="820.873" y2="725.095" gradientUnits="userSpaceOnUse">
<stop stop-color="#EB4B55"/>
<stop offset="1" stop-color="#8D59B5"/>
</linearGradient>
<linearGradient id="paint4_linear_367_4" x1="658.91" y1="411.502" x2="872.868" y2="452.66" gradientUnits="userSpaceOnUse">
<stop stop-color="#EB4B55"/>
<stop offset="1" stop-color="#8D59B5"/>
</linearGradient>
<clipPath id="clip0_367_4">
<rect width="982.89" height="803.03" fill="white"/>
</clipPath>
</defs>
</svg>
