<svg width="949" height="569" viewBox="0 0 949 569" fill="none" xmlns="http://www.w3.org/2000/svg">
<g clip-path="url(#clip0_365_77)">
<path d="M368.453 509.5C363.347 511.295 357.864 511.745 352.534 510.806C347.203 509.867 342.204 507.571 338.019 504.139C327.359 495.192 324.017 480.451 321.297 466.803L313.254 426.433L330.094 438.028C342.204 446.367 354.587 454.972 362.972 467.05C371.357 479.129 375.017 495.616 368.28 508.685" fill="#6E9268"/>
<path d="M367.015 558.377C368.719 545.962 370.472 533.387 369.276 520.839C368.215 509.695 364.815 498.81 357.893 489.886C354.219 485.157 349.748 481.106 344.682 477.914C343.361 477.08 342.145 479.174 343.46 480.004C352.227 485.544 359.007 493.725 362.824 503.367C367.039 514.089 367.716 525.778 366.99 537.168C366.55 544.056 365.619 550.899 364.681 557.733C364.607 558.042 364.653 558.368 364.81 558.644C364.967 558.921 365.223 559.127 365.526 559.222C365.836 559.305 366.166 559.263 366.444 559.105C366.723 558.947 366.928 558.685 367.015 558.377V558.377Z" fill="#F2F2F2"/>
<path d="M350.596 536.408C348.406 539.736 345.396 542.445 341.856 544.272C338.315 546.1 334.363 546.984 330.382 546.841C320.148 546.356 311.617 539.213 303.938 532.433L281.223 512.377L296.256 511.658C307.067 511.14 318.157 510.658 328.455 513.992C338.752 517.326 348.249 525.35 350.132 536.008" fill="#6E9268"/>
<path d="M371.833 565.513C363.63 550.998 354.114 534.865 337.112 529.709C332.384 528.28 327.427 527.768 322.507 528.201C320.956 528.334 321.344 530.725 322.891 530.591C331.138 529.906 339.369 532.084 346.198 536.757C352.769 541.23 357.886 547.449 362.217 554.044C364.869 558.083 367.246 562.294 369.622 566.499C370.382 567.843 372.602 566.873 371.833 565.513V565.513Z" fill="#F2F2F2"/>
<path d="M591.711 274.723L412.858 422.958C410.608 424.818 407.711 425.711 404.804 425.439C401.896 425.166 399.216 423.752 397.35 421.506L321.955 330.537C320.094 328.287 319.202 325.39 319.474 322.483C319.746 319.576 321.16 316.895 323.406 315.029L502.26 166.795C504.51 164.934 507.407 164.041 510.314 164.314C513.222 164.586 515.902 166 517.768 168.246L593.163 259.215C595.024 261.465 595.916 264.362 595.644 267.269C595.372 270.177 593.958 272.857 591.711 274.723Z" fill="#CCCCCC"/>
<path d="M584.545 270.26L409.803 415.087C408.644 416.045 407.151 416.505 405.654 416.365C404.156 416.225 402.775 415.496 401.814 414.339L329.826 327.482C328.868 326.323 328.408 324.83 328.548 323.333C328.688 321.835 329.417 320.454 330.574 319.493L505.316 174.666C506.475 173.707 507.967 173.248 509.465 173.388C510.963 173.528 512.344 174.257 513.305 175.414L585.292 262.271C586.251 263.43 586.711 264.922 586.57 266.42C586.43 267.918 585.702 269.299 584.545 270.26Z" fill="white"/>
<path d="M592.6 300.577L556.66 297.213L582.383 276.968L596.24 293.687C596.781 294.325 597.116 295.112 597.202 295.943C597.288 296.775 597.121 297.613 596.722 298.348C596.461 298.847 596.104 299.29 595.671 299.651C595.246 300.001 594.756 300.263 594.228 300.422C593.701 300.581 593.148 300.634 592.6 300.577V300.577Z" fill="#CCCCCC"/>
<path d="M520.428 236.202L432.029 309.467C431.489 309.915 430.866 310.251 430.196 310.458C429.526 310.665 428.822 310.738 428.124 310.672C427.425 310.607 426.747 310.405 426.127 310.077C425.507 309.75 424.957 309.303 424.51 308.763C424.062 308.223 423.726 307.6 423.519 306.93C423.312 306.26 423.239 305.556 423.304 304.858C423.37 304.159 423.572 303.481 423.9 302.861C424.227 302.241 424.674 301.691 425.214 301.244L513.612 227.979C514.152 227.531 514.775 227.194 515.445 226.988C516.115 226.781 516.82 226.708 517.518 226.773C518.216 226.839 518.895 227.041 519.515 227.368C520.135 227.696 520.684 228.143 521.132 228.682C521.579 229.222 521.916 229.845 522.123 230.515C522.33 231.185 522.402 231.89 522.337 232.588C522.272 233.286 522.069 233.965 521.742 234.585C521.414 235.205 520.968 235.754 520.428 236.202V236.202Z" fill="#CCCCCC"/>
<path d="M477.162 242.582L417.545 291.993C416.454 292.897 415.049 293.33 413.639 293.198C412.229 293.066 410.929 292.38 410.025 291.289C409.122 290.199 408.688 288.794 408.82 287.384C408.952 285.974 409.639 284.674 410.729 283.77L470.347 234.358C471.438 233.455 472.842 233.021 474.253 233.153C475.663 233.285 476.963 233.972 477.866 235.062C478.77 236.153 479.204 237.558 479.072 238.968C478.94 240.378 478.253 241.678 477.162 242.582Z" fill="#CCCCCC"/>
<path d="M517.532 293.496C520.481 293.496 522.872 291.105 522.872 288.156C522.872 285.206 520.481 282.815 517.532 282.815C514.582 282.815 512.191 285.206 512.191 288.156C512.191 291.105 514.582 293.496 517.532 293.496Z" fill="#6E9268"/>
<path d="M531.922 281.569C534.872 281.569 537.262 279.178 537.262 276.229C537.262 273.28 534.872 270.889 531.922 270.889C528.973 270.889 526.582 273.28 526.582 276.229C526.582 279.178 528.973 281.569 531.922 281.569Z" fill="#6E9268"/>
<path d="M546.313 269.642C549.262 269.642 551.653 267.251 551.653 264.302C551.653 261.353 549.262 258.962 546.313 258.962C543.364 258.962 540.973 261.353 540.973 264.302C540.973 267.251 543.364 269.642 546.313 269.642Z" fill="#6E9268"/>
<path d="M760.57 77.6673C762.034 77.5265 763.51 77.7083 764.896 78.1998C766.281 78.6913 767.542 79.4806 768.589 80.5121C769.637 81.5436 770.445 82.7923 770.958 84.17C771.471 85.5478 771.675 87.0213 771.557 88.4866L804.264 102.882L788.662 112.952L759.995 97.7387C757.546 97.3767 755.316 96.1291 753.726 94.2324C752.136 92.3356 751.296 89.9215 751.367 87.4474C751.438 84.9733 752.414 82.6113 754.111 80.8087C755.807 79.0062 758.105 77.8885 760.57 77.6674V77.6673Z" fill="#A0616A"/>
<path d="M892.502 59.7109C906.067 59.7109 917.063 48.7146 917.063 35.1499C917.063 21.5852 906.067 10.5889 892.502 10.5889C878.938 10.5889 867.941 21.5852 867.941 35.1499C867.941 48.7146 878.938 59.7109 892.502 59.7109Z" fill="#A0616A"/>
<path d="M848.049 385.364L835.789 385.363L829.957 338.075L848.051 338.076L848.049 385.364Z" fill="#A0616A"/>
<path d="M851.175 397.248L811.645 397.247V396.747C811.645 394.726 812.042 392.725 812.816 390.858C813.589 388.992 814.722 387.296 816.151 385.867C817.58 384.438 819.276 383.305 821.143 382.531C823.01 381.758 825.01 381.36 827.031 381.36H827.032L851.176 381.361L851.175 397.248Z" fill="#2F2E41"/>
<path d="M899.049 385.364L886.789 385.363L880.957 338.075L899.051 338.076L899.049 385.364Z" fill="#A0616A"/>
<path d="M902.175 397.248L862.645 397.247V396.747C862.645 394.726 863.042 392.725 863.816 390.858C864.589 388.992 865.722 387.296 867.151 385.867C868.58 384.438 870.276 383.305 872.143 382.531C874.01 381.758 876.01 381.36 878.031 381.36H878.032L902.176 381.361L902.175 397.248Z" fill="#2F2E41"/>
<path d="M898.467 375.292C898.284 375.292 898.101 375.28 897.919 375.258L879.973 373.049C878.922 372.921 877.949 372.426 877.228 371.651C876.506 370.876 876.081 369.871 876.028 368.813L870.799 251.05C870.781 250.716 870.652 250.397 870.432 250.145C870.213 249.892 869.915 249.721 869.586 249.657C869.258 249.593 868.918 249.641 868.62 249.793C868.322 249.945 868.083 250.193 867.942 250.496L854.507 295.28L851.741 367.217C851.717 367.837 851.565 368.446 851.295 369.005C851.024 369.563 850.641 370.06 850.169 370.463C849.697 370.867 849.147 371.168 848.553 371.349C847.959 371.529 847.334 371.585 846.718 371.512L831.177 369.683C830.066 369.555 829.043 369.017 828.308 368.174C827.573 367.331 827.179 366.244 827.204 365.126L828.524 297.412L839.052 191.12L839.523 191.138L903.545 193.605L902.968 370.807C902.964 371.998 902.488 373.138 901.644 373.979C900.801 374.82 899.658 375.292 898.467 375.292H898.467Z" fill="#2F2E41"/>
<path d="M901.119 203.318C901.08 203.318 901.041 203.318 901.002 203.317L836.523 201.628C835.891 201.611 835.269 201.462 834.699 201.189C834.129 200.916 833.622 200.526 833.213 200.045C832.803 199.563 832.5 199.001 832.322 198.394C832.144 197.787 832.096 197.15 832.182 196.523L844.572 105.332C845.345 99.1745 847.409 93.2495 850.628 87.9437C853.847 82.6379 858.148 78.0706 863.252 74.5399C867.741 71.4494 872.84 69.3555 878.206 68.3988C883.571 67.442 889.079 67.6447 894.36 68.993C916.866 74.6962 930.368 98.8632 924.457 122.865L905.489 199.894C905.244 200.869 904.682 201.735 903.891 202.355C903.099 202.975 902.124 203.314 901.119 203.318V203.318Z" fill="#3F3D56"/>
<path d="M816.532 130.904C812.283 130.909 808.124 129.674 804.568 127.349L766.965 102.68C766.415 102.319 765.95 101.841 765.605 101.281C765.259 100.721 765.04 100.092 764.964 99.438C764.888 98.7842 764.956 98.1216 765.164 97.497C765.371 96.8724 765.714 96.301 766.166 95.8231L771.831 89.8426C772.449 89.1871 773.25 88.7327 774.129 88.5389C775.009 88.345 775.927 88.4206 776.763 88.7557L818.764 105.481L857.673 77.6952C859.492 76.396 861.562 75.4886 863.75 75.0304C865.938 74.5722 868.198 74.5732 870.385 75.0333C872.573 75.4934 874.642 76.4025 876.46 77.7032C878.278 79.004 879.807 80.6679 880.949 82.5898C882.091 84.5118 882.821 86.6498 883.094 88.8687C883.367 91.0876 883.177 93.339 882.535 95.4805C881.893 97.622 880.814 99.6069 879.365 101.31C877.917 103.012 876.13 104.396 874.119 105.373L826.031 128.73C823.07 130.164 819.822 130.908 816.532 130.904V130.904Z" fill="#3F3D56"/>
<path d="M901.011 58.6378C905.202 59.6272 910.257 60.3864 913.251 57.2929C913.782 56.7089 914.256 56.0761 914.667 55.4028L918.582 49.4254C921.582 44.8465 924.633 40.1481 925.903 34.8236C926.632 31.7641 926.746 28.5901 926.239 25.486C925.731 22.382 924.612 19.4097 922.946 16.742C921.28 14.0742 919.1 11.764 916.534 9.94574C913.967 8.12743 911.065 6.83719 907.996 6.14999C902.15 4.84117 896.43 2.58922 890.454 3C884.477 3.41078 877.469 3.27592 872.454 0C872.767 1.46046 874.456 7.91341 874.456 7.91341C874.456 7.91341 866.915 14.8321 865.402 16.5572C867.382 15.6796 869.537 15.2675 871.701 15.3526C873.865 15.4378 875.98 16.0179 877.885 17.0485C879.79 18.079 881.433 19.5325 882.688 21.2973C883.943 23.062 884.777 25.0911 885.125 27.2285C885.553 29.8543 885.302 32.7665 886.862 34.9216C888.346 36.9714 891.007 37.6896 893.244 38.8732C896.468 40.71 898.93 43.6386 900.185 47.1307C901.441 50.6227 901.407 54.4485 900.091 57.9179L901.011 58.6378Z" fill="#2F2E41"/>
<path d="M871.524 212.115H667.934C665.375 212.112 662.921 211.094 661.112 209.284C659.302 207.474 658.284 205.021 658.281 202.462V98.9118C658.284 96.3525 659.302 93.8989 661.112 92.0893C662.921 90.2796 665.375 89.2617 667.934 89.2588H871.524C874.083 89.2617 876.537 90.2796 878.346 92.0893C880.156 93.8989 881.174 96.3525 881.177 98.9118V202.462C881.174 205.021 880.156 207.474 878.346 209.284C876.537 211.094 874.083 212.112 871.524 212.115V212.115Z" fill="#CCCCCC"/>
<path d="M869.183 205.094H670.274C668.955 205.093 667.691 204.569 666.759 203.636C665.827 202.704 665.302 201.44 665.301 200.122V101.252C665.302 99.9336 665.827 98.6696 666.759 97.7374C667.691 96.8051 668.955 96.2808 670.274 96.2793H869.183C870.501 96.2808 871.765 96.8051 872.697 97.7374C873.63 98.6696 874.154 99.9336 874.156 101.252V200.122C874.154 201.44 873.63 202.704 872.697 203.636C871.765 204.569 870.501 205.093 869.183 205.094V205.094Z" fill="white"/>
<path d="M857.663 230.057L835.293 207.687L863.973 208.412V227.443C863.981 228.176 863.767 228.894 863.36 229.503C862.953 230.113 862.371 230.585 861.691 230.858C861.236 231.049 860.747 231.147 860.253 231.149C859.771 231.147 859.294 231.05 858.849 230.862C858.404 230.675 858.001 230.401 857.663 230.057V230.057Z" fill="#CCCCCC"/>
<path d="M844.965 146.253H744.34C743.099 146.253 741.909 145.76 741.031 144.882C740.153 144.004 739.66 142.814 739.66 141.573C739.66 140.332 740.153 139.141 741.031 138.263C741.909 137.386 743.099 136.893 744.34 136.893H844.965C846.206 136.893 847.397 137.386 848.274 138.263C849.152 139.141 849.645 140.332 849.645 141.573C849.645 142.814 849.152 144.004 848.274 144.882C847.397 145.76 846.206 146.253 844.965 146.253V146.253Z" fill="#CCCCCC"/>
<path d="M812.203 126.362H744.339C743.724 126.363 743.115 126.243 742.546 126.008C741.978 125.773 741.461 125.429 741.026 124.994C740.59 124.559 740.245 124.043 740.009 123.475C739.774 122.907 739.652 122.297 739.652 121.682C739.652 121.067 739.774 120.458 740.009 119.89C740.245 119.321 740.59 118.805 741.026 118.37C741.461 117.936 741.978 117.591 742.546 117.356C743.115 117.121 743.724 117.001 744.339 117.002H812.203C813.444 117.002 814.634 117.495 815.512 118.373C816.39 119.25 816.883 120.441 816.883 121.682C816.883 122.923 816.39 124.114 815.512 124.992C814.634 125.869 813.444 126.362 812.203 126.362Z" fill="#CCCCCC"/>
<path d="M813.954 184.372C816.538 184.372 818.634 182.277 818.634 179.692C818.634 177.107 816.538 175.012 813.954 175.012C811.369 175.012 809.273 177.107 809.273 179.692C809.273 182.277 811.369 184.372 813.954 184.372Z" fill="#6E9268"/>
<path d="M830.336 184.372C832.921 184.372 835.017 182.277 835.017 179.692C835.017 177.107 832.921 175.012 830.336 175.012C827.752 175.012 825.656 177.107 825.656 179.692C825.656 182.277 827.752 184.372 830.336 184.372Z" fill="#6E9268"/>
<path d="M846.715 184.372C849.3 184.372 851.396 182.277 851.396 179.692C851.396 177.107 849.3 175.012 846.715 175.012C844.131 175.012 842.035 177.107 842.035 179.692C842.035 182.277 844.131 184.372 846.715 184.372Z" fill="#6E9268"/>
<path d="M868.37 199.801C868.531 198.339 869.011 196.931 869.776 195.676C870.54 194.42 871.571 193.348 872.795 192.533C874.019 191.719 875.407 191.183 876.86 190.963C878.314 190.744 879.798 190.845 881.208 191.261L901.992 162.191L908.657 179.524L887.898 204.471C887.043 206.794 885.365 208.722 883.183 209.89C881.001 211.059 878.467 211.386 876.059 210.81C873.652 210.234 871.54 208.796 870.122 206.766C868.705 204.737 868.081 202.259 868.369 199.801H868.37Z" fill="#A0616A"/>
<path d="M892.178 198.232C891.851 198.259 891.523 198.251 891.197 198.207C890.545 198.12 889.919 197.89 889.365 197.534C888.812 197.178 888.343 196.705 887.992 196.147L883.6 189.179C883.117 188.418 882.875 187.53 882.905 186.629C882.935 185.728 883.236 184.858 883.768 184.131L910.37 147.577L893.08 103.001C891.535 99.0794 891.593 94.7075 893.242 90.8281C894.891 86.9486 897.998 83.8723 901.893 82.262V82.262C904.094 81.3389 906.473 80.9149 908.857 81.0208C911.242 81.1266 913.573 81.7596 915.684 82.8741C917.795 83.9887 919.632 85.5571 921.064 87.4666C922.496 89.3762 923.488 91.5793 923.966 93.9177L934.694 146.291C935.44 149.985 935.22 153.808 934.055 157.392C932.89 160.975 930.819 164.197 928.044 166.746L894.834 197.071C894.101 197.741 893.168 198.149 892.178 198.232V198.232Z" fill="#3F3D56"/>
<path d="M948 399.652H737C736.735 399.652 736.48 399.547 736.293 399.359C736.105 399.172 736 398.918 736 398.652C736 398.387 736.105 398.133 736.293 397.945C736.48 397.758 736.735 397.652 737 397.652H948C948.265 397.652 948.52 397.758 948.707 397.945C948.895 398.133 949 398.387 949 398.652C949 398.918 948.895 399.172 948.707 399.359C948.52 399.547 948.265 399.652 948 399.652Z" fill="#CCCCCC"/>
<path d="M256.617 150.777H53.028C50.4687 150.774 48.0151 149.756 46.2055 147.946C44.3958 146.137 43.3779 143.683 43.375 141.124V37.5739C43.3779 35.0146 44.3958 32.561 46.2055 30.7514C48.0151 28.9417 50.4687 27.9238 53.028 27.9209H256.617C259.177 27.9238 261.63 28.9417 263.44 30.7514C265.25 32.5611 266.268 35.0147 266.27 37.5739V141.124C266.268 143.683 265.25 146.137 263.44 147.946C261.63 149.756 259.177 150.774 256.617 150.777V150.777Z" fill="#CCCCCC"/>
<path d="M254.277 143.756H55.3673C54.0489 143.754 52.7849 143.23 51.8526 142.297C50.9204 141.365 50.396 140.101 50.3945 138.783V39.9132C50.396 38.5948 50.9204 37.3308 51.8526 36.3985C52.7849 35.4663 54.0489 34.9419 55.3673 34.9404H254.277C255.595 34.9419 256.859 35.4663 257.791 36.3985C258.723 37.3308 259.248 38.5948 259.249 39.9132V138.783C259.248 140.101 258.723 141.365 257.791 142.297C256.859 143.23 255.595 143.754 254.277 143.756Z" fill="white"/>
<path fill-rule="evenodd" clip-rule="evenodd" d="M102.408 70.2888C102.408 78.3663 95.8595 84.9144 87.7819 84.9144C79.7044 84.9144 73.1562 78.3663 73.1562 70.2888C73.1562 62.2112 79.7044 55.6631 87.7819 55.6631C95.8595 55.6631 102.408 62.2112 102.408 70.2888ZM702.684 146.253C710.762 146.253 717.31 139.705 717.31 131.628C717.31 123.55 710.762 117.002 702.684 117.002C694.607 117.002 688.059 123.55 688.059 131.628C688.059 139.705 694.607 146.253 702.684 146.253ZM384.786 343.635C394.002 343.635 401.474 336.163 401.474 326.947C401.474 317.73 394.002 310.259 384.786 310.259C375.569 310.259 368.098 317.73 368.098 326.947C368.098 336.163 375.569 343.635 384.786 343.635Z" fill="url(#paint0_linear_365_77)"/>
<path d="M242.757 168.718L220.387 146.348L249.067 147.073V166.104C249.074 166.837 248.861 167.555 248.454 168.164C248.047 168.774 247.465 169.246 246.785 169.519C246.33 169.71 245.841 169.809 245.347 169.81C244.865 169.808 244.387 169.711 243.943 169.523C243.498 169.336 243.095 169.062 242.757 168.718V168.718Z" fill="#CCCCCC"/>
<path d="M230.059 84.9151H129.434C128.193 84.9151 127.002 84.422 126.125 83.5443C125.247 82.6666 124.754 81.4762 124.754 80.2349C124.754 78.9936 125.247 77.8032 126.125 76.9255C127.002 76.0478 128.193 75.5547 129.434 75.5547H230.059C231.3 75.5547 232.491 76.0478 233.368 76.9255C234.246 77.8032 234.739 78.9936 234.739 80.2349C234.739 81.4762 234.246 82.6666 233.368 83.5443C232.491 84.422 231.3 84.9151 230.059 84.9151V84.9151Z" fill="#CCCCCC"/>
<path d="M197.297 65.0235H129.434C128.193 65.0235 127.002 64.5304 126.125 63.6527C125.247 62.775 124.754 61.5846 124.754 60.3433C124.754 59.102 125.247 57.9116 126.125 57.0339C127.002 56.1562 128.193 55.6631 129.434 55.6631H197.297C198.539 55.6631 199.729 56.1562 200.607 57.0339C201.484 57.9116 201.978 59.102 201.978 60.3433C201.978 61.5846 201.484 62.775 200.607 63.6527C199.729 64.5304 198.539 65.0235 197.297 65.0235V65.0235Z" fill="#CCCCCC"/>
<path d="M199.051 123.033C201.636 123.033 203.732 120.938 203.732 118.353C203.732 115.768 201.636 113.673 199.051 113.673C196.466 113.673 194.371 115.768 194.371 118.353C194.371 120.938 196.466 123.033 199.051 123.033Z" fill="#6E9268"/>
<path d="M215.43 123.033C218.015 123.033 220.11 120.938 220.11 118.353C220.11 115.768 218.015 113.673 215.43 113.673C212.845 113.673 210.75 115.768 210.75 118.353C210.75 120.938 212.845 123.033 215.43 123.033Z" fill="#6E9268"/>
<path d="M231.809 123.033C234.394 123.033 236.489 120.938 236.489 118.353C236.489 115.768 234.394 113.673 231.809 113.673C229.224 113.673 227.129 115.768 227.129 118.353C227.129 120.938 229.224 123.033 231.809 123.033Z" fill="#6E9268"/>
<path d="M248.176 17.9715C246.792 18.4695 245.535 19.2646 244.493 20.301C243.45 21.3374 242.647 22.5898 242.141 23.9699C241.635 25.3501 241.437 26.8245 241.562 28.2892C241.688 29.754 242.132 31.1735 242.866 32.4477L219.445 59.4379L237.854 61.8766L257.272 35.8724C259.331 34.4989 260.815 32.4178 261.442 30.0236C262.069 27.6293 261.796 25.0881 260.675 22.8816C259.554 20.6751 257.662 18.9566 255.358 18.0516C253.055 17.1466 250.499 17.1182 248.176 17.9715V17.9715Z" fill="#FFB8B8"/>
<path d="M91.7999 28.7774C92.2994 30.16 92.4897 31.6353 92.3574 33.0994C92.2251 34.5636 91.7734 35.9809 91.0341 37.2515C90.2948 38.5222 89.2858 39.6153 88.0784 40.4538C86.8709 41.2924 85.4943 41.856 84.0454 42.105L78.2173 77.3614L64.5898 64.7468L72.2135 33.2007C71.9566 30.739 72.6116 28.2686 74.0545 26.2576C75.4973 24.2465 77.6277 22.8346 80.042 22.2894C82.4562 21.7442 84.9866 22.1035 87.1537 23.2992C89.3208 24.495 90.9739 26.4442 91.7999 28.7774V28.7774Z" fill="#FFB8B8"/>
<path d="M128.4 385.364L140.66 385.363L146.492 338.075L128.398 338.076L128.4 385.364Z" fill="#FFB8B8"/>
<path d="M125.273 381.361L149.417 381.36H149.418C151.439 381.36 153.44 381.758 155.306 382.531C157.173 383.305 158.869 384.438 160.298 385.867C161.727 387.295 162.86 388.992 163.634 390.858C164.407 392.725 164.805 394.726 164.805 396.747V397.247L125.274 397.248L125.273 381.361Z" fill="#2F2E41"/>
<path d="M65.4004 385.364L77.6604 385.363L83.4924 338.075L65.3984 338.076L65.4004 385.364Z" fill="#FFB8B8"/>
<path d="M62.2734 381.361L86.4172 381.36H86.4182C88.4388 381.36 90.4396 381.758 92.3064 382.531C94.1732 383.305 95.8694 384.438 97.2982 385.867C98.7269 387.295 99.8603 388.992 100.634 390.858C101.407 392.725 101.805 394.726 101.805 396.747V397.247L62.2742 397.248L62.2734 381.361Z" fill="#2F2E41"/>
<path d="M125.838 62.5078C139.403 62.5078 150.399 51.5115 150.399 37.9468C150.399 24.3821 139.403 13.3857 125.838 13.3857C112.274 13.3857 101.277 24.3821 101.277 37.9468C101.277 51.5115 112.274 62.5078 125.838 62.5078Z" fill="#FFB8B8"/>
<path d="M122.895 369.654L120.864 240.248C120.859 239.882 120.72 239.531 120.474 239.26C120.228 238.99 119.891 238.818 119.528 238.778C119.164 238.738 118.798 238.833 118.499 239.044C118.2 239.255 117.989 239.568 117.905 239.924L84.6138 366.5C84.3633 367.513 83.7726 368.409 82.9406 369.039C82.1086 369.668 81.0856 369.993 80.0428 369.959L61.7528 369.177C61.131 369.15 60.5215 368.995 59.9628 368.72C59.4041 368.446 58.9084 368.059 58.5069 367.583C58.1055 367.108 57.807 366.554 57.6304 365.957C57.4537 365.361 57.4028 364.734 57.4808 364.116L85.7295 201.458L85.7874 200.999L164.47 204.722L164.983 204.745L148.11 369.925C148.022 371.056 147.511 372.112 146.68 372.884C145.849 373.655 144.757 374.086 143.623 374.091H127.394C126.213 374.086 125.081 373.619 124.24 372.79C123.399 371.961 122.916 370.835 122.895 369.654V369.654Z" fill="#2F2E41"/>
<path d="M185.04 215.684L70.8623 206.313C70.1731 206.257 69.5063 206.042 68.9135 205.686C68.3207 205.331 67.8179 204.843 67.4442 204.261C67.0705 203.679 66.8359 203.019 66.7586 202.332C66.6814 201.645 66.7636 200.949 66.9988 200.299L84.9795 150.587L86.0141 91.584C86.0517 89.4421 86.5141 87.329 87.3747 85.3673C88.2352 83.4055 89.4767 81.6342 91.0271 80.1559C92.5776 78.6777 94.4061 77.522 96.4066 76.756C98.4072 75.9899 100.54 75.6288 102.681 75.6934L110.274 68.8105H138.094L140.516 71.9863L159.873 74.9609C163.321 75.5052 166.503 77.1437 168.948 79.6346C171.393 82.1255 172.973 85.3366 173.453 88.7939L189.868 210.599C189.953 211.234 189.902 211.88 189.717 212.494C189.533 213.108 189.219 213.676 188.797 214.159C188.376 214.642 187.856 215.029 187.272 215.295C186.689 215.56 186.055 215.698 185.414 215.699C185.29 215.699 185.165 215.694 185.04 215.684Z" fill="#2F2E41"/>
<path d="M162.793 80.6809L211.477 66.4172L233.509 37.4093C234.116 36.6104 234.972 36.037 235.942 35.7805C236.912 35.5239 237.939 35.5989 238.862 35.9933L252.618 41.8732C253.204 42.1239 253.731 42.4964 254.163 42.966C254.594 43.4356 254.921 43.9915 255.121 44.597C255.322 45.2026 255.391 45.8438 255.325 46.4781C255.259 47.1125 255.058 47.7255 254.737 48.2765L238.271 76.5324C235.59 81.1545 231.509 84.8045 226.618 86.9553L169.356 112.268L162.793 80.6809Z" fill="#2F2E41"/>
<path d="M69.3914 102.018C66.4821 99.9216 64.162 97.1113 62.655 93.8577C61.1479 90.604 60.5048 87.0169 60.7877 83.4424L62.9242 55.1348C63.0123 54.0041 63.523 52.9481 64.3546 52.177C65.1861 51.4059 66.2776 50.9763 67.4117 50.9736H67.4515L83.5833 51.1172C84.2442 51.1232 84.8956 51.2747 85.4913 51.5609C86.087 51.8471 86.6124 52.261 87.0301 52.7731C87.4478 53.2853 87.7477 53.8831 87.9082 54.5242C88.0688 55.1653 88.0863 55.8338 87.9594 56.4824L84.9662 71.7539L106.326 80.7793L88.3392 115.772L69.3914 102.018Z" fill="#2F2E41"/>
<path d="M140.128 8.49622C140.128 8.49622 114.443 -5.33399 100.443 10.9886C86.443 27.3112 105.777 52.8362 105.777 52.8362L133.325 56.3106C133.325 56.3106 134.325 37.5841 140.884 37.9477C147.443 38.3112 167.813 14.6812 140.128 8.49622Z" fill="#2F2E41"/>
<path d="M212 398.652H1C0.734784 398.652 0.480429 398.547 0.292892 398.359C0.105356 398.172 0 397.918 0 397.652C0 397.387 0.105356 397.133 0.292892 396.945C0.480429 396.758 0.734784 396.652 1 396.652H212C212.265 396.652 212.52 396.758 212.707 396.945C212.895 397.133 213 397.387 213 397.652C213 397.918 212.895 398.172 212.707 398.359C212.52 398.547 212.265 398.652 212 398.652Z" fill="#CCCCCC"/>
<path d="M461.197 556.214L473.457 556.213L479.289 508.925L461.195 508.926L461.197 556.214Z" fill="#FFB8B8"/>
<path d="M458.07 552.211L482.214 552.21H482.215C484.236 552.21 486.236 552.608 488.103 553.381C489.97 554.154 491.666 555.288 493.095 556.716C494.524 558.145 495.657 559.841 496.43 561.708C497.204 563.575 497.602 565.576 497.602 567.596V568.096L458.071 568.098L458.07 552.211Z" fill="#2F2E41"/>
<path d="M417.197 556.214L429.457 556.213L435.289 508.925L417.195 508.926L417.197 556.214Z" fill="#FFB8B8"/>
<path d="M414.07 552.211L438.214 552.21H438.215C440.236 552.21 442.236 552.608 444.103 553.381C445.97 554.154 447.666 555.288 449.095 556.716C450.524 558.145 451.657 559.841 452.43 561.708C453.204 563.575 453.602 565.576 453.602 567.596V568.096L414.071 568.098L414.07 552.211Z" fill="#2F2E41"/>
<path d="M429.501 541.745H429.499L419.073 541.742C417.907 541.746 416.785 541.295 415.945 540.485C415.106 539.675 414.616 538.57 414.578 537.404L414.25 528.283C411.614 455.343 408.889 379.919 425.767 346.019L425.9 345.752L481.78 343.729L492.998 446.641C493.477 451.03 493.302 455.467 492.478 459.805L477.648 537.953C477.447 539.013 476.873 539.965 476.029 540.636C475.185 541.308 474.128 541.654 473.051 541.611L461.34 541.231C460.727 541.207 460.125 541.058 459.572 540.792C459.019 540.527 458.525 540.151 458.122 539.688C457.719 539.225 457.415 538.685 457.229 538.1C457.043 537.515 456.978 536.899 457.039 536.288L466.238 464.009C466.551 460.889 466.268 457.738 465.403 454.725L453.962 414.73C453.868 414.4 453.662 414.112 453.381 413.914C453.099 413.717 452.758 413.622 452.415 413.647C452.072 413.671 451.747 413.812 451.496 414.047C451.245 414.282 451.082 414.596 451.034 414.937L433.957 537.864C433.804 538.938 433.27 539.922 432.452 540.634C431.633 541.347 430.586 541.741 429.501 541.745V541.745Z" fill="#2F2E41"/>
<path d="M436.182 240.842C449.747 240.842 460.743 229.845 460.743 216.281C460.743 202.716 449.747 191.72 436.182 191.72C422.617 191.72 411.621 202.716 411.621 216.281C411.621 229.845 422.617 240.842 436.182 240.842Z" fill="#FFB8B8"/>
<path d="M371.875 394.462C373.405 394.107 374.838 393.421 376.074 392.452C377.31 391.482 378.318 390.254 379.028 388.853C379.737 387.452 380.131 385.913 380.182 384.343C380.232 382.773 379.938 381.212 379.319 379.768L418.922 290.296L396.267 284.59L364.463 374.332C362.107 375.532 360.272 377.554 359.307 380.016C358.342 382.478 358.314 385.208 359.228 387.689C360.141 390.171 361.933 392.231 364.264 393.479C366.595 394.727 369.303 395.077 371.875 394.462H371.875Z" fill="#FFB8B8"/>
<path d="M537.076 164.224C537.554 165.72 537.698 167.302 537.499 168.86C537.299 170.418 536.761 171.913 535.921 173.24C535.081 174.567 533.96 175.694 532.638 176.541C531.316 177.388 529.823 177.935 528.267 178.143L471.698 257.978L455.195 241.441L515.99 168.166C515.814 165.528 516.611 162.917 518.232 160.827C519.852 158.738 522.182 157.315 524.782 156.83C527.381 156.344 530.068 156.828 532.334 158.191C534.599 159.554 536.287 161.7 537.076 164.224V164.224Z" fill="#FFB8B8"/>
<path fill-rule="evenodd" clip-rule="evenodd" d="M484.576 250.65C484.789 249.992 484.858 249.295 484.777 248.607C484.697 247.92 484.469 247.258 484.11 246.666C483.751 246.074 483.268 245.567 482.694 245.179L462.552 231.536C461.979 231.148 461.329 230.887 460.646 230.773C459.964 230.659 459.264 230.693 458.596 230.873C457.928 231.054 457.306 231.376 456.774 231.818C456.241 232.26 455.81 232.812 455.51 233.436L447.795 249.478C443.872 248.378 439.742 248.09 435.66 248.659C431.247 249.262 427.024 250.845 423.302 253.293C420.144 255.37 417.414 258.024 415.253 261.11C413.657 261.083 412.054 261.341 410.522 261.888C407.188 263.078 404.462 265.542 402.941 268.739L389.55 288.962C389.168 289.539 388.915 290.191 388.808 290.875C388.701 291.559 388.742 292.258 388.93 292.924C389.117 293.591 389.446 294.209 389.894 294.737C390.342 295.265 390.898 295.69 391.525 295.983L413.558 306.297C414.185 306.59 414.868 306.745 415.56 306.751C416.252 306.757 416.937 306.613 417.569 306.33C417.74 306.253 417.907 306.167 418.067 306.071L426.396 328.979L423.885 346.176C423.792 346.815 423.837 347.467 424.018 348.087C424.199 348.707 424.511 349.28 424.934 349.769C425.356 350.258 425.879 350.65 426.466 350.918C427.054 351.187 427.692 351.326 428.338 351.326H479.161H479.161C479.821 351.326 480.474 351.181 481.072 350.9C481.67 350.62 482.199 350.211 482.621 349.704C483.043 349.196 483.349 348.601 483.515 347.962C483.682 347.323 483.706 346.655 483.586 346.006L469.92 272.365L468.334 268.99L483.542 252.424C484.01 251.914 484.363 251.309 484.576 250.65Z" fill="url(#paint1_linear_365_77)"/>
<path d="M468.453 206C468.438 203.777 468.129 201.566 467.535 199.424C463.578 184.802 448.969 176.025 434.31 178.228C431.459 177.41 428.507 176.997 425.541 177V177C417.996 177 410.699 179.698 404.969 184.607C399.239 189.515 395.453 196.311 394.295 203.767L382.453 280H446.453L456.787 213.475C457.171 211.002 457.261 208.493 457.056 206H468.453Z" fill="#2F2E41"/>
<path d="M548 568.652H337C336.735 568.652 336.48 568.547 336.293 568.359C336.105 568.172 336 567.918 336 567.652C336 567.387 336.105 567.133 336.293 566.945C336.48 566.758 336.735 566.652 337 566.652H548C548.265 566.652 548.52 566.758 548.707 566.945C548.895 567.133 549 567.387 549 567.652C549 567.918 548.895 568.172 548.707 568.359C548.52 568.547 548.265 568.652 548 568.652Z" fill="#CCCCCC"/>
</g>
<defs>
<linearGradient id="paint0_linear_365_77" x1="73.1562" y1="194.579" x2="623.217" y2="454.525" gradientUnits="userSpaceOnUse">
<stop stop-color="#EB4B55"/>
<stop offset="1" stop-color="#8D59B5"/>
</linearGradient>
<linearGradient id="paint1_linear_365_77" x1="388.75" y1="288.893" x2="486.335" y2="305.312" gradientUnits="userSpaceOnUse">
<stop stop-color="#EB4B55"/>
<stop offset="1" stop-color="#8D59B5"/>
</linearGradient>
<clipPath id="clip0_365_77">
<rect width="949" height="568.653" fill="white"/>
</clipPath>
</defs>
</svg>
