<svg width="214" height="237" viewBox="0 0 214 237" fill="none" xmlns="http://www.w3.org/2000/svg">
<g filter="url(#filter0_b_366_204)">
<path d="M91.9334 5.33359C100.736 -1.77785 113.264 -1.77787 122.067 5.33359L204.992 72.3259C210.686 76.9266 214 83.8808 214 91.2323V212.76C214 226.147 203.221 237 189.925 237H157.825C144.529 237 133.75 226.147 133.75 212.76V154.357C133.75 149.894 130.157 146.277 125.725 146.277H88.275C83.8429 146.277 80.25 149.894 80.25 154.357V212.76C80.25 226.147 69.4713 237 56.175 237H24.075C10.7788 237 0 226.147 0 212.76V91.2323C0 83.8809 3.31351 76.9266 9.0084 72.3259L91.9334 5.33359ZM112.022 17.9379C109.088 15.5674 104.912 15.5674 101.978 17.9379L19.0528 84.9302C17.1545 86.4638 16.05 88.7818 16.05 91.2323V212.76C16.05 217.222 19.6429 220.84 24.075 220.84H56.175C60.6071 220.84 64.2 217.222 64.2 212.76V154.357C64.2 140.969 74.9788 130.117 88.275 130.117H125.725C139.021 130.117 149.8 140.969 149.8 154.357V212.76C149.8 217.222 153.393 220.84 157.825 220.84H189.925C194.357 220.84 197.95 217.222 197.95 212.76V91.2323C197.95 88.7818 196.846 86.4638 194.947 84.9302L112.022 17.9379Z" fill="#E2E2E2"/>
<path d="M85.7424 44.1633C92.6119 38.6122 102.388 38.6122 109.258 44.1633L173.97 96.4569C178.414 100.048 181 105.477 181 111.215V206.078C181 216.529 172.589 225 162.213 225H137.163C126.786 225 118.375 216.529 118.375 206.078V160.489C118.375 157.006 115.571 154.182 112.113 154.182H82.8875C79.4288 154.182 76.625 157.006 76.625 160.489V206.078C76.625 216.529 68.2136 225 57.8375 225H32.7875C22.4115 225 14 216.529 14 206.078V111.215C14 105.477 16.5858 100.048 21.0299 96.4569L85.7424 44.1633ZM101.419 54.0022C99.1294 52.1518 95.8706 52.1518 93.5808 54.0022L28.8683 106.296C27.3869 107.493 26.525 109.302 26.525 111.215V206.078C26.525 209.562 29.3288 212.386 32.7875 212.386H57.8375C61.2962 212.386 64.1 209.562 64.1 206.078V160.489C64.1 150.039 72.5115 141.568 82.8875 141.568H112.113C122.489 141.568 130.9 150.039 130.9 160.489V206.078C130.9 209.562 133.704 212.386 137.163 212.386H162.213C165.671 212.386 168.475 209.562 168.475 206.078V111.215C168.475 109.302 167.613 107.493 166.132 106.296L101.419 54.0022Z" fill="#EB4B56"/>
</g>
<defs>
<filter id="filter0_b_366_204" x="-30" y="-30" width="274" height="297" filterUnits="userSpaceOnUse" color-interpolation-filters="sRGB">
<feFlood flood-opacity="0" result="BackgroundImageFix"/>
<feGaussianBlur in="BackgroundImage" stdDeviation="15"/>
<feComposite in2="SourceAlpha" operator="in" result="effect1_backgroundBlur_366_204"/>
<feBlend mode="normal" in="SourceGraphic" in2="effect1_backgroundBlur_366_204" result="shape"/>
</filter>
</defs>
</svg>
