<svg width="196" height="185" viewBox="0 0 196 185" fill="none" xmlns="http://www.w3.org/2000/svg">
<g filter="url(#filter0_b_350_22)">
<path d="M100.742 4.16335C107.612 -1.38778 117.388 -1.38779 124.258 4.16335L188.97 56.4569C193.414 60.0482 196 65.4766 196 71.2151V166.078C196 176.529 187.589 185 177.213 185H152.163C141.786 185 133.375 176.529 133.375 166.078V120.489C133.375 117.006 130.571 114.182 127.113 114.182H97.8875C94.4288 114.182 91.625 117.006 91.625 120.489V166.078C91.625 176.529 83.2136 185 72.8375 185H47.7875C37.4115 185 29 176.529 29 166.078V71.2151C29 65.4766 31.5858 60.0482 36.0299 56.4569L100.742 4.16335ZM116.419 14.0022C114.129 12.1518 110.871 12.1518 108.581 14.0022L43.8683 66.2957C42.3869 67.4928 41.525 69.3023 41.525 71.2151V166.078C41.525 169.562 44.3288 172.386 47.7875 172.386H72.8375C76.2962 172.386 79.1 169.562 79.1 166.078V120.489C79.1 110.039 87.5115 101.568 97.8875 101.568H127.113C137.489 101.568 145.9 110.039 145.9 120.489V166.078C145.9 169.562 148.704 172.386 152.163 172.386H177.213C180.671 172.386 183.475 169.562 183.475 166.078V71.2151C183.475 69.3023 182.613 67.4928 181.132 66.2957L116.419 14.0022Z" fill="#C5C5C5" fill-opacity="0.5"/>
<path d="M75.7424 4.16335C82.6119 -1.38778 92.3882 -1.38779 99.2576 4.16335L163.97 56.4569C168.414 60.0482 171 65.4766 171 71.2151V166.078C171 176.529 162.589 185 152.213 185H127.163C116.786 185 108.375 176.529 108.375 166.078V120.489C108.375 117.006 105.571 114.182 102.113 114.182H72.8875C69.4288 114.182 66.625 117.006 66.625 120.489V166.078C66.625 176.529 58.2136 185 47.8375 185H22.7875C12.4115 185 4 176.529 4 166.078V71.2151C4 65.4766 6.58578 60.0482 11.0299 56.4569L75.7424 4.16335ZM91.4192 14.0022C89.1294 12.1518 85.8706 12.1518 83.5808 14.0022L18.8683 66.2957C17.3869 67.4928 16.525 69.3023 16.525 71.2151V166.078C16.525 169.562 19.3288 172.386 22.7875 172.386H47.8375C51.2962 172.386 54.1 169.562 54.1 166.078V120.489C54.1 110.039 62.5115 101.568 72.8875 101.568H102.113C112.489 101.568 120.9 110.039 120.9 120.489V166.078C120.9 169.562 123.704 172.386 127.163 172.386H152.213C155.671 172.386 158.475 169.562 158.475 166.078V71.2151C158.475 69.3023 157.613 67.4928 156.132 66.2957L91.4192 14.0022Z" fill="url(#paint0_linear_350_22)"/>
</g>
<g filter="url(#filter1_b_350_22)">
<path d="M96.7424 4.16335C103.612 -1.38778 113.388 -1.38779 120.258 4.16335L184.97 56.4569C189.414 60.0482 192 65.4766 192 71.2151V166.078C192 176.529 183.589 185 173.213 185H148.163C137.786 185 129.375 176.529 129.375 166.078V120.489C129.375 117.006 126.571 114.182 123.113 114.182H93.8875C90.4288 114.182 87.625 117.006 87.625 120.489V166.078C87.625 176.529 79.2136 185 68.8375 185H43.7875C33.4115 185 25 176.529 25 166.078V71.2151C25 65.4766 27.5858 60.0482 32.0299 56.4569L96.7424 4.16335ZM112.419 14.0022C110.129 12.1518 106.871 12.1518 104.581 14.0022L39.8683 66.2957C38.3869 67.4928 37.525 69.3023 37.525 71.2151V166.078C37.525 169.562 40.3288 172.386 43.7875 172.386H68.8375C72.2962 172.386 75.1 169.562 75.1 166.078V120.489C75.1 110.039 83.5115 101.568 93.8875 101.568H123.113C133.489 101.568 141.9 110.039 141.9 120.489V166.078C141.9 169.562 144.704 172.386 148.163 172.386H173.213C176.671 172.386 179.475 169.562 179.475 166.078V71.2151C179.475 69.3023 178.613 67.4928 177.132 66.2957L112.419 14.0022Z" fill="#C5C5C5" fill-opacity="0.5"/>
<path d="M71.7424 4.16335C78.6119 -1.38778 88.3882 -1.38779 95.2576 4.16335L159.97 56.4569C164.414 60.0482 167 65.4766 167 71.2151V166.078C167 176.529 158.589 185 148.213 185H123.163C112.786 185 104.375 176.529 104.375 166.078V120.489C104.375 117.006 101.571 114.182 98.1125 114.182H68.8875C65.4288 114.182 62.625 117.006 62.625 120.489V166.078C62.625 176.529 54.2136 185 43.8375 185H18.7875C8.41146 185 0 176.529 0 166.078V71.2151C0 65.4766 2.58578 60.0482 7.02992 56.4569L71.7424 4.16335ZM87.4192 14.0022C85.1294 12.1518 81.8706 12.1518 79.5808 14.0022L14.8683 66.2957C13.3869 67.4928 12.525 69.3023 12.525 71.2151V166.078C12.525 169.562 15.3288 172.386 18.7875 172.386H43.8375C47.2962 172.386 50.1 169.562 50.1 166.078V120.489C50.1 110.039 58.5115 101.568 68.8875 101.568H98.1125C108.489 101.568 116.9 110.039 116.9 120.489V166.078C116.9 169.562 119.704 172.386 123.163 172.386H148.213C151.671 172.386 154.475 169.562 154.475 166.078V71.2151C154.475 69.3023 153.613 67.4928 152.132 66.2957L87.4192 14.0022Z" fill="url(#paint1_linear_350_22)"/>
</g>
<defs>
<filter id="filter0_b_350_22" x="-26" y="-30" width="252" height="245" filterUnits="userSpaceOnUse" color-interpolation-filters="sRGB">
<feFlood flood-opacity="0" result="BackgroundImageFix"/>
<feGaussianBlur in="BackgroundImage" stdDeviation="15"/>
<feComposite in2="SourceAlpha" operator="in" result="effect1_backgroundBlur_350_22"/>
<feBlend mode="normal" in="SourceGraphic" in2="effect1_backgroundBlur_350_22" result="shape"/>
</filter>
<filter id="filter1_b_350_22" x="-30" y="-30" width="252" height="245" filterUnits="userSpaceOnUse" color-interpolation-filters="sRGB">
<feFlood flood-opacity="0" result="BackgroundImageFix"/>
<feGaussianBlur in="BackgroundImage" stdDeviation="15"/>
<feComposite in2="SourceAlpha" operator="in" result="effect1_backgroundBlur_350_22"/>
<feBlend mode="normal" in="SourceGraphic" in2="effect1_backgroundBlur_350_22" result="shape"/>
</filter>
<linearGradient id="paint0_linear_350_22" x1="4" y1="89.243" x2="172.331" y2="121.346" gradientUnits="userSpaceOnUse">
<stop stop-color="#EB4B55"/>
<stop offset="1" stop-color="#8D59B5"/>
</linearGradient>
<linearGradient id="paint1_linear_350_22" x1="-7.35046e-07" y1="89.243" x2="168.331" y2="121.346" gradientUnits="userSpaceOnUse">
<stop stop-color="#EB4B55"/>
<stop offset="1" stop-color="#8D59B5"/>
</linearGradient>
</defs>
</svg>
