<svg width="1082" height="531" viewBox="0 0 1082 531" fill="none" xmlns="http://www.w3.org/2000/svg">
<g clip-path="url(#clip0_365_152)">
<path d="M851.786 530.317C978.529 530.317 1081.27 525.393 1081.27 519.317C1081.27 513.242 978.529 508.317 851.786 508.317C725.043 508.317 622.297 513.242 622.297 519.317C622.297 525.393 725.043 530.317 851.786 530.317Z" fill="#D0CDE1"/>
<path d="M851.219 296.521L868.51 363.767C868.51 363.767 869.151 411.159 872.993 429.732C876.836 448.304 889.645 493.135 889.645 493.135L905.015 495.697L901.813 432.934C901.813 432.934 901.813 395.148 898.611 386.823C895.409 378.497 889.004 293.319 889.004 293.319L851.219 296.521Z" fill="#FFB8B8"/>
<path opacity="0.1" d="M851.219 296.521L868.51 363.767C868.51 363.767 869.151 411.159 872.993 429.732C876.836 448.304 889.645 493.135 889.645 493.135L905.015 495.697L901.813 432.934C901.813 432.934 901.813 395.148 898.611 386.823C895.409 378.497 889.004 293.319 889.004 293.319L851.219 296.521Z" fill="black"/>
<path d="M899.157 14.6689H899.157C877.809 14.6689 860.504 33.8744 860.504 57.5655V87.6653H869.761L875.121 76.513L873.781 87.6653H933.283L938.156 77.5269L936.938 87.6653H943.637V64.0315C943.637 36.7694 923.723 14.6689 899.157 14.6689Z" fill="#2F2E41"/>
<path d="M834.888 285.954C834.888 285.954 827.203 318.616 837.45 321.818C847.696 325.021 845.135 285.954 845.135 285.954H834.888Z" fill="#FFB8B8"/>
<path d="M847.695 120.081L842.571 125.845L843.852 236.64L832.324 289.156L857.942 291.718L870.75 186.046L866.908 132.25L847.695 120.081Z" fill="#3F3D56"/>
<path opacity="0.1" d="M847.695 120.081L842.571 125.845L843.852 236.64L832.324 289.156L857.942 291.718L870.75 186.046L866.908 132.25L847.695 120.081Z" fill="black"/>
<path d="M895.74 83.4591C910.937 83.4591 923.257 71.1393 923.257 55.942C923.257 40.7447 910.937 28.4248 895.74 28.4248C880.543 28.4248 868.223 40.7447 868.223 55.942C868.223 71.1393 880.543 83.4591 895.74 83.4591Z" fill="#FFB8B8"/>
<path d="M879.961 72.4518C879.961 72.4518 888.033 114.278 884.364 118.681C880.695 123.083 923.255 110.609 923.255 110.609C923.255 110.609 909.313 81.991 916.651 65.8477L879.961 72.4518Z" fill="#FFB8B8"/>
<path d="M949.524 255.854C949.524 255.854 957.209 288.516 946.962 291.718C936.715 294.92 939.277 255.854 939.277 255.854H949.524Z" fill="#FFB8B8"/>
<path d="M890.284 288.836C890.284 288.836 879.397 354.16 880.037 363.767C880.678 373.373 880.037 374.654 880.037 374.654C880.037 374.654 869.15 402.833 865.948 418.844C862.746 434.855 855.701 455.349 855.701 455.349C855.701 455.349 847.375 473.922 854.42 473.922C861.465 473.922 871.071 471.36 871.071 471.36C871.046 463.962 873.53 456.775 878.116 450.971C885.801 441.259 908.857 395.789 908.857 390.025C908.857 384.261 912.7 367.609 912.7 367.609L927.43 296.521L890.284 288.836Z" fill="#FFB8B8"/>
<path d="M845.453 245.287C845.453 245.287 834.565 300.364 844.172 301.645C853.779 302.926 867.228 293.319 884.519 304.207C901.811 315.094 930.631 312.532 930.631 312.532C930.631 312.532 950.484 261.938 932.552 249.77C914.62 237.601 845.453 245.287 845.453 245.287Z" fill="#2F2E41"/>
<path d="M857.622 466.236C860.441 465.009 863.539 464.566 866.588 464.955C869.506 465.387 872.48 464.701 874.914 463.034C874.914 463.034 869.79 481.606 870.431 488.651C871.071 495.696 868.509 525.796 855.06 522.594C841.611 519.392 837.769 509.785 842.892 493.134C848.015 476.483 846.735 457.27 846.735 457.27C846.735 457.27 856.081 447.615 857.812 448.92C859.543 450.225 857.622 466.236 857.622 466.236Z" fill="#2F2E41"/>
<path d="M900.53 489.932C900.53 489.932 894.125 475.842 886.44 488.651C878.755 501.46 878.115 504.662 878.115 504.662C878.115 504.662 856.34 524.515 871.71 526.437C887.081 528.358 899.249 525.796 899.249 522.594C899.249 519.392 906.934 520.032 907.575 517.471C908.215 514.909 906.294 491.213 906.294 491.213L900.53 489.932Z" fill="#2F2E41"/>
<path d="M914.941 93.8235C914.941 93.8235 888.042 98.947 884.84 98.3065C884.119 98.1792 883.389 98.1018 882.657 98.075C876.395 97.7903 870.184 99.3304 864.781 102.508C855.862 107.689 842.571 116.908 842.571 125.845C842.571 139.294 859.863 162.35 859.863 162.35C859.863 162.35 843.852 217.427 845.133 222.551C846.414 227.674 835.527 244.966 842.571 250.73C849.616 256.494 916.862 250.73 929.03 256.494C941.198 262.258 935.434 179.642 935.434 179.642C935.434 179.642 968.097 104.711 951.445 97.6661C946.057 95.3865 941.407 93.6434 937.581 92.3283C933.897 91.0603 929.997 90.5394 926.11 90.7961C922.223 91.0529 918.426 92.0821 914.941 93.8235V93.8235Z" fill="#3F3D56"/>
<path d="M939.916 98.3066L954.612 100.735C954.612 100.735 961.051 107.273 961.051 110.475C961.051 113.677 959.77 252.011 957.849 256.494C955.927 260.977 934.793 259.056 934.793 259.056L938.636 180.282L939.916 98.3066Z" fill="#3F3D56"/>
<path d="M910.145 26.4846C908.285 23.9869 905.875 21.9513 903.101 20.5358C900.327 19.1202 897.264 18.3628 894.15 18.3223H893.391C878.76 18.3223 866.898 31.5623 866.898 47.8946V47.8946H871.801L872.593 41.868L873.754 47.8946H902.831L905.267 42.796L904.658 47.8946H910.379C913.048 61.1512 909.213 74.4078 898.873 87.6644H908.617L913.489 77.467L912.271 87.6644H930.847L934.501 64.2104C934.501 46.6455 924.295 31.7508 910.145 26.4846Z" fill="#2F2E41"/>
<path d="M915.485 28.9548C923.481 28.9548 929.963 22.473 929.963 14.4774C929.963 6.48175 923.481 0 915.485 0C907.49 0 901.008 6.48175 901.008 14.4774C901.008 22.473 907.49 28.9548 915.485 28.9548Z" fill="#2F2E41"/>
<path d="M708.413 18.5889H98.3828V408.892H708.413V18.5889Z" fill="#3F3D56"/>
<path fill-rule="evenodd" clip-rule="evenodd" d="M416.406 89.0605H691.064V408.531H416.406V89.0605ZM305.32 182.588C309.219 174.422 311.237 165.485 311.227 156.435C311.227 146.583 308.828 136.879 304.238 128.161C299.648 119.443 293.005 111.974 284.882 106.398C276.759 100.822 267.401 97.3075 257.616 96.1578C247.831 95.0081 237.913 96.2579 228.719 99.7991C219.525 103.34 211.331 109.066 204.845 116.483C198.36 123.9 193.777 132.784 191.493 142.368C189.209 151.952 189.293 161.948 191.737 171.492C194.181 181.037 198.911 189.843 205.52 197.15C206.938 198.734 208.447 200.235 210.038 201.646C216.214 207.191 223.464 211.408 231.338 214.034C233.253 214.674 235.2 215.215 237.171 215.653C238.299 215.913 239.441 216.137 240.597 216.318C243.879 216.865 247.201 217.138 250.528 217.135C252.21 217.137 253.875 217.07 255.522 216.932C262.231 216.391 268.801 214.728 274.958 212.01C276.816 211.196 278.63 210.287 280.394 209.285C283.316 207.635 286.094 205.742 288.698 203.626C295.741 197.944 301.421 190.755 305.32 182.588Z" fill="url(#paint0_linear_365_152)"/>
<path d="M675.885 118.786H509.305V125.503H675.885V118.786Z" fill="white"/>
<path d="M675.885 133.563H509.305V140.28H675.885V133.563Z" fill="white"/>
<path d="M565.727 148.341H509.305V155.058H565.727V148.341Z" fill="white"/>
<path d="M333.819 263.239H167.238V269.956H333.819V263.239Z" fill="white"/>
<path d="M333.819 278.017H167.238V284.734H333.819V278.017Z" fill="white"/>
<path d="M223.661 292.794H167.238V299.511H223.661V292.794Z" fill="white"/>
<path d="M636.858 201.184H470.277V207.901H636.858V201.184Z" fill="white"/>
<path d="M636.858 215.961H470.277V222.678H636.858V215.961Z" fill="white"/>
<path d="M636.858 230.417H470.277V237.134H636.858V230.417Z" fill="white"/>
<path d="M636.858 244.872H470.277V251.589H636.858V244.872Z" fill="white"/>
<path d="M636.858 259.328H470.277V266.045H636.858V259.328Z" fill="white"/>
<path d="M636.858 273.784H470.277V280.501H636.858V273.784Z" fill="white"/>
<path d="M636.858 288.239H470.277V294.956H636.858V288.239Z" fill="white"/>
<path d="M636.858 302.695H470.277V309.412H636.858V302.695Z" fill="white"/>
<path d="M636.858 317.151H470.277V323.868H636.858V317.151Z" fill="white"/>
<path d="M636.858 331.606H470.277V338.323H636.858V331.606Z" fill="white"/>
<path d="M636.858 346.062H470.277V352.779H636.858V346.062Z" fill="white"/>
<path d="M708.051 189.527C681.214 189.527 655.476 200.188 636.499 219.165C617.523 238.142 606.862 263.88 606.862 290.717V290.717C606.862 298.577 603.739 306.114 598.182 311.672C592.624 317.229 585.087 320.351 577.228 320.351H528.078C516.498 320.351 505.032 322.632 494.333 327.064C483.635 331.495 473.914 337.99 465.726 346.178C457.537 354.367 451.042 364.088 446.611 374.786C442.179 385.484 439.898 396.951 439.898 408.531V408.531H708.051V189.527H708.051Z" fill="#3F3D56"/>
<path d="M409.541 18.5889H396.531V408.892H409.541V18.5889Z" fill="#2F2E41"/>
<path d="M76.7736 487.587C76.8962 500.148 69.4718 504.606 60.2614 504.695C60.0475 504.698 59.8346 504.697 59.6227 504.695C59.1957 504.69 58.7731 504.674 58.3549 504.649C50.0365 504.141 43.5326 499.594 43.4186 487.912C43.3007 475.824 58.6021 460.417 59.7498 459.278L59.7518 459.277C59.7954 459.234 59.8177 459.212 59.8177 459.212C59.8177 459.212 76.6511 475.028 76.7736 487.587Z" fill="#D0CDE1"/>
<path d="M60 507.164C93.1371 507.164 120 505.268 120 502.929C120 500.59 93.1371 498.693 60 498.693C26.8629 498.693 0 500.59 0 502.929C0 505.268 26.8629 507.164 60 507.164Z" fill="#D0CDE1"/>
</g>
<defs>
<linearGradient id="paint0_linear_365_152" x1="189.84" y1="243.171" x2="661.604" y2="399.544" gradientUnits="userSpaceOnUse">
<stop stop-color="#EB4B55"/>
<stop offset="1" stop-color="#8D59B5"/>
</linearGradient>
<clipPath id="clip0_365_152">
<rect width="1081.27" height="530.317" fill="white"/>
</clipPath>
</defs>
</svg>
