<svg width="234" height="234" viewBox="0 0 234 234" fill="none" xmlns="http://www.w3.org/2000/svg">
<g filter="url(#filter0_b_366_211)">
<path fill-rule="evenodd" clip-rule="evenodd" d="M117 58.5C84.6913 58.5 58.5 84.6913 58.5 117C58.5 149.309 84.6913 175.5 117 175.5C149.309 175.5 175.5 149.309 175.5 117C175.5 84.6913 149.309 58.5 117 58.5ZM78 117C78 138.539 95.4609 156 117 156C138.539 156 156 138.539 156 117C156 95.4609 138.539 78 117 78C95.4609 78 78 95.4609 78 117Z" fill="#E2E2E2"/>
<path d="M180.375 39C172.298 39 165.75 45.5478 165.75 53.625C165.75 61.7022 172.298 68.25 180.375 68.25C188.452 68.25 195 61.7022 195 53.625C195 45.5478 188.452 39 180.375 39Z" fill="#E2E2E2"/>
<path fill-rule="evenodd" clip-rule="evenodd" d="M68.25 0C30.5566 0 0 30.5566 0 68.25V165.75C0 203.443 30.5566 234 68.25 234H165.75C203.443 234 234 203.443 234 165.75V68.25C234 30.5566 203.443 0 165.75 0H68.25ZM165.75 19.5H68.25C41.3261 19.5 19.5 41.3261 19.5 68.25V165.75C19.5 192.674 41.3261 214.5 68.25 214.5H165.75C192.674 214.5 214.5 192.674 214.5 165.75V68.25C214.5 41.3261 192.674 19.5 165.75 19.5Z" fill="#E2E2E2"/>
<path fill-rule="evenodd" clip-rule="evenodd" d="M106.5 79.25C80.4045 79.25 59.25 100.405 59.25 126.5C59.25 152.595 80.4045 173.75 106.5 173.75C132.595 173.75 153.75 152.595 153.75 126.5C153.75 100.405 132.595 79.25 106.5 79.25ZM75 126.5C75 143.897 89.103 158 106.5 158C123.897 158 138 143.897 138 126.5C138 109.103 123.897 95 106.5 95C89.103 95 75 109.103 75 126.5Z" fill="#EB4B56"/>
<path d="M157.688 63.5C151.164 63.5 145.875 68.7886 145.875 75.3125C145.875 81.8364 151.164 87.125 157.688 87.125C164.211 87.125 169.5 81.8364 169.5 75.3125C169.5 68.7886 164.211 63.5 157.688 63.5Z" fill="#EB4B56"/>
<path fill-rule="evenodd" clip-rule="evenodd" d="M67.125 32C36.6803 32 12 56.6803 12 87.125V165.875C12 196.32 36.6803 221 67.125 221H145.875C176.32 221 201 196.32 201 165.875V87.125C201 56.6803 176.32 32 145.875 32H67.125ZM145.875 47.75H67.125C45.3788 47.75 27.75 65.3788 27.75 87.125V165.875C27.75 187.621 45.3788 205.25 67.125 205.25H145.875C167.621 205.25 185.25 187.621 185.25 165.875V87.125C185.25 65.3788 167.621 47.75 145.875 47.75Z" fill="#EB4B56"/>
</g>
<defs>
<filter id="filter0_b_366_211" x="-30" y="-30" width="294" height="294" filterUnits="userSpaceOnUse" color-interpolation-filters="sRGB">
<feFlood flood-opacity="0" result="BackgroundImageFix"/>
<feGaussianBlur in="BackgroundImage" stdDeviation="15"/>
<feComposite in2="SourceAlpha" operator="in" result="effect1_backgroundBlur_366_211"/>
<feBlend mode="normal" in="SourceGraphic" in2="effect1_backgroundBlur_366_211" result="shape"/>
</filter>
</defs>
</svg>
