<svg width="183" height="224" viewBox="0 0 183 224" fill="none" xmlns="http://www.w3.org/2000/svg">
<g filter="url(#filter0_b_366_197)">
<path d="M26.2286 64.9807C23.0319 43.7527 37.9046 24.6392 60.6426 17.6344C69.0164 15.0547 77.9375 19.4821 81.0095 27.7421L88.2993 47.3427C90.6986 53.7938 88.9697 61.0662 83.9298 65.7229L62.2483 85.7558C60.0771 87.7619 59.113 90.7825 59.7036 93.69L59.8963 94.5726C60.0161 95.0996 60.1925 95.8454 60.4303 96.778C60.9055 98.6413 61.6291 101.262 62.642 104.381C64.6572 110.588 67.8703 118.935 72.6511 127.276C77.4319 135.617 83.0017 142.594 87.33 147.455C89.5057 149.898 91.3966 151.84 92.761 153.186C93.4439 153.86 93.9969 154.386 94.3901 154.754L95.0633 155.373C97.2677 157.342 100.336 158.002 103.146 157.111L131.21 148.213C137.734 146.145 144.85 148.273 149.197 153.592L162.474 169.837C168 176.599 167.35 186.524 160.991 192.497C143.593 208.836 119.673 212.182 103.023 198.706C86.9711 185.714 68.0805 166.406 52.2995 139.08C36.4817 111.69 29.3203 85.5112 26.2286 64.9807ZM77.2748 94.801L95.2689 78.1752C105.349 68.8618 108.806 54.317 104.008 41.4147L96.7181 21.8141C90.5367 5.19366 72.586 -3.71493 55.7366 1.47581C27.511 10.1712 4.84766 35.6667 9.64364 67.5149C12.993 89.7565 20.7398 118.035 37.7997 147.576C54.7904 176.998 75.1551 197.826 92.5156 211.878C117.467 232.073 150.793 225.176 172.43 204.856C185.272 192.795 186.584 172.752 175.424 159.098L162.148 142.852C153.455 132.215 139.221 127.959 126.174 132.096L102.883 139.48C101.987 138.553 100.95 137.444 99.8178 136.173C95.991 131.875 91.2042 125.851 87.1784 118.827C83.1526 111.803 80.3673 104.616 78.5856 99.1285C78.0587 97.5057 77.6242 96.0461 77.2748 94.801Z" fill="#E2E2E2"/>
<path d="M14.1592 85.377C11.532 67.9397 23.7549 52.2393 42.4419 46.4854C49.3238 44.3663 56.6555 48.0031 59.1803 54.7882L65.1713 70.8886C67.1431 76.1878 65.7222 82.1615 61.5802 85.9867L43.7615 102.442C41.9772 104.09 41.1848 106.571 41.6702 108.96L41.8286 109.685C41.9271 110.118 42.072 110.73 42.2674 111.496C42.658 113.027 43.2526 115.179 44.0851 117.742C45.7412 122.84 48.3819 129.696 52.311 136.548C56.24 143.4 60.8175 149.13 64.3746 153.123C66.1627 155.131 67.7167 156.725 68.838 157.831C69.3993 158.385 69.8538 158.817 70.1769 159.12L70.7302 159.628C72.5418 161.245 75.0634 161.787 77.373 161.055L100.437 153.747C105.798 152.048 111.647 153.796 115.219 158.165L126.131 171.509C130.672 177.063 130.138 185.216 124.912 190.122C110.614 203.543 90.9554 206.292 77.2715 195.222C64.0797 184.55 48.5546 168.691 35.5852 146.244C22.5856 123.745 16.7 102.241 14.1592 85.377ZM56.1109 109.872L70.8991 96.2153C79.1831 88.5651 82.0248 76.6175 78.0812 66.0192L72.0902 49.9188C67.01 36.2662 52.2575 28.9485 38.41 33.2123C15.2131 40.3549 -3.41255 61.2976 0.528972 87.4586C3.28159 105.729 9.64824 128.958 23.6687 153.223C37.6323 177.391 54.3688 194.5 68.6364 206.042C89.1425 222.631 116.531 216.966 134.313 200.274C144.867 190.367 145.945 173.903 136.774 162.687L125.863 149.343C118.718 140.605 107.021 137.109 96.2981 140.507L77.1567 146.573C76.4205 145.811 75.5678 144.9 74.6376 143.856C71.4926 140.326 67.5586 135.378 64.2501 129.608C60.9415 123.838 58.6524 117.934 57.1882 113.427C56.7551 112.094 56.3981 110.895 56.1109 109.872Z" fill="#EB4B56"/>
</g>
<defs>
<filter id="filter0_b_366_197" x="-30" y="-30" width="243" height="284" filterUnits="userSpaceOnUse" color-interpolation-filters="sRGB">
<feFlood flood-opacity="0" result="BackgroundImageFix"/>
<feGaussianBlur in="BackgroundImage" stdDeviation="15"/>
<feComposite in2="SourceAlpha" operator="in" result="effect1_backgroundBlur_366_197"/>
<feBlend mode="normal" in="SourceGraphic" in2="effect1_backgroundBlur_366_197" result="shape"/>
</filter>
</defs>
</svg>
