<svg width="343" height="188" viewBox="0 0 343 188" fill="none" xmlns="http://www.w3.org/2000/svg">
<path d="M62.4499 186.549C50.3463 183.396 39.6509 176.268 32.0781 166.306C24.5053 156.344 20.4936 144.126 20.6863 131.61C20.7343 128.491 21.0619 125.308 22.3717 122.478C23.6815 119.648 26.1143 117.2 29.1576 116.53C32.4789 115.798 35.9835 117.294 38.4587 119.628C40.9338 121.962 42.5567 125.042 44.0498 128.1C53.0434 146.519 59.8765 166.283 62.4348 186.623L62.4499 186.549Z" fill="#F2F2F2"/>
<path d="M27.6523 117.145L33.9555 131.478L40.2587 145.812C42.2549 150.351 44.2473 154.893 46.3107 159.402C48.3559 163.872 50.4712 168.311 52.7277 172.678C54.9811 177.039 57.3761 181.329 59.9756 185.493C60.2994 186.012 60.6263 186.528 60.9564 187.043C61.1848 187.399 61.7558 187.069 61.5258 186.71C58.8763 182.576 56.435 178.313 54.1453 173.97C51.8532 169.622 49.7108 165.197 47.6476 160.737C45.5733 156.253 43.5788 151.733 41.5896 147.21C39.4958 142.45 37.4024 137.69 35.3093 132.929L29.0061 118.596L28.2217 116.812C28.0511 116.424 27.4828 116.76 27.6523 117.145V117.145Z" fill="white"/>
<path d="M59.8205 186.649C52.6861 188.282 45.2104 187.471 38.5916 184.345C31.9728 181.219 26.5944 175.96 23.3184 169.41C22.5022 167.778 21.8135 166.036 21.7302 164.213C21.6469 162.39 22.2498 160.462 23.649 159.291C25.1759 158.014 27.399 157.844 29.3136 158.387C31.2283 158.93 32.9015 160.09 34.5016 161.275C44.1393 168.408 53.018 176.823 59.8327 186.692L59.8205 186.649Z" fill="#F2F2F2"/>
<path d="M23.034 160.018L30.1727 165.757L37.3115 171.495C39.5723 173.313 41.8317 175.132 44.1193 176.916C46.3868 178.684 48.6824 180.417 51.032 182.074C53.3782 183.73 55.7787 185.31 58.2517 186.77C58.5596 186.951 58.8687 187.131 59.1789 187.309C59.3936 187.433 59.6009 187.107 59.3847 186.982C56.8942 185.552 54.4766 183.998 52.1165 182.362C49.7538 180.725 47.4479 179.006 45.1736 177.248C42.8872 175.48 40.6323 173.672 38.3797 171.862C36.0086 169.956 33.6377 168.05 31.2669 166.144L24.1282 160.405L23.2398 159.691C23.0466 159.536 22.842 159.864 23.034 160.018Z" fill="white"/>
<path d="M283.648 186.191C300.527 181.794 315.443 171.853 326.003 157.96C336.564 144.068 342.158 127.029 341.889 109.576C341.822 105.227 341.366 100.787 339.539 96.8406C337.713 92.8942 334.32 89.481 330.076 88.5459C325.444 87.5254 320.557 89.6115 317.105 92.8666C313.654 96.1216 311.39 100.416 309.308 104.681C296.766 130.367 287.237 157.929 283.67 186.294L283.648 186.191Z" fill="#F2F2F2"/>
<path d="M332.176 89.403L323.386 109.391L314.596 129.38C311.812 135.71 309.034 142.043 306.156 148.332C303.304 154.565 300.354 160.755 297.207 166.846C294.065 172.927 290.725 178.91 287.1 184.717C286.648 185.44 286.192 186.161 285.732 186.878C285.414 187.375 284.617 186.914 284.938 186.414C288.633 180.649 292.037 174.704 295.23 168.647C298.427 162.585 301.415 156.414 304.292 150.194C307.184 143.941 309.966 137.637 312.74 131.33C315.66 124.692 318.579 118.053 321.498 111.414L330.288 91.4259L331.382 88.9385C331.62 88.3975 332.412 88.8654 332.176 89.403Z" fill="white"/>
<path d="M287.314 186.33C297.263 188.607 307.688 187.476 316.919 183.117C326.149 178.757 333.649 171.423 338.218 162.288C339.356 160.012 340.316 157.584 340.432 155.042C340.549 152.499 339.708 149.81 337.757 148.178C335.627 146.397 332.527 146.16 329.857 146.917C327.187 147.674 324.854 149.292 322.622 150.944C309.182 160.891 296.8 172.626 287.297 186.389L287.314 186.33Z" fill="#F2F2F2"/>
<path d="M338.617 149.191L328.662 157.194L318.706 165.197C315.554 167.731 312.403 170.268 309.213 172.756C306.05 175.222 302.849 177.638 299.573 179.95C296.301 182.258 292.953 184.462 289.504 186.498C289.075 186.751 288.644 187.002 288.211 187.25C287.912 187.422 287.623 186.968 287.924 186.794C291.398 184.8 294.769 182.633 298.06 180.351C301.355 178.067 304.571 175.671 307.742 173.219C310.931 170.754 314.075 168.233 317.217 165.708C320.523 163.05 323.83 160.392 327.136 157.734L337.091 149.731L338.33 148.736C338.599 148.519 338.885 148.976 338.617 149.191Z" fill="white"/>
<path d="M85.0351 57.8855V57.8894L81.7509 60.6365L59.1664 65.6577C58.4713 65.939 57.8385 66.3546 57.3039 66.8807C56.7693 67.4068 56.3435 68.0331 56.0508 68.7239C55.4596 70.119 55.4464 71.6921 56.014 73.0969C56.2951 73.7926 56.7103 74.426 57.236 74.961C57.7617 75.496 58.3875 75.9222 59.0777 76.2152C60.4716 76.8068 62.0433 76.8201 63.447 76.2519L77.8325 73.828C78.6293 73.6956 79.4161 73.5086 80.1874 73.2684C80.4906 73.1777 80.79 73.0753 81.0854 72.9688C82.3639 67.3931 84.1595 61.9489 86.4488 56.707L85.0351 57.8855Z" fill="#2F2E41"/>
<path d="M272.618 71.7587L269.488 71.739L267.814 71.7311L258.225 54.953C258.305 54.7775 258.375 54.5971 258.434 54.413C259.501 51.1181 256.685 48.8519 254.003 48.8992C253.698 48.8988 253.394 48.9345 253.098 49.0056C258.38 58.573 261.923 69.0034 263.561 79.8108C263.833 79.8879 264.111 79.9432 264.392 79.9763C265.855 80.1083 267.328 80.058 268.779 79.8266C270.732 79.5782 272.579 79.2275 273.564 79.3024L272.618 71.7587Z" fill="#A0616A"/>
<path d="M282.937 72.0787L271.43 70.4786C271.008 70.4204 270.58 70.5157 270.223 70.7473C269.866 70.9788 269.604 71.331 269.485 71.7398C269.46 71.8224 269.442 71.9067 269.429 71.992L268.508 78.6252C268.446 79.0904 268.569 79.5614 268.851 79.9362C269.134 80.3109 269.552 80.5593 270.016 80.6274L281.523 82.2276C282.868 82.4152 284.232 82.0605 285.315 81.2415C286.399 80.4226 287.113 79.2064 287.3 77.8606C287.487 76.5147 287.133 75.1495 286.315 74.0652C285.497 72.9809 284.281 72.2663 282.937 72.0787V72.0787Z" fill="url(#paint0_linear_318_151)"/>
<path d="M264.39 79.9769C262.798 69.0827 259.28 58.5593 254.002 48.8997C245.515 33.3691 232.816 20.5549 217.369 11.9347C201.921 3.31437 184.354 -0.761053 166.692 0.178239C149.031 1.11753 131.994 7.03329 117.546 17.2435C103.098 27.4537 91.8276 41.5426 85.0337 57.8859V57.8898C82.9735 62.8651 81.3514 68.011 80.186 73.2688C78.6921 80.0111 77.9408 86.8969 77.9453 93.803C77.9453 118.681 87.8198 142.54 105.397 160.132C122.973 177.723 146.813 187.606 171.67 187.606C196.527 187.606 220.366 177.723 237.943 160.132C255.52 142.54 265.394 118.681 265.394 93.803C265.396 89.176 265.06 84.555 264.39 79.9769ZM171.67 186.818C120.425 186.818 78.7329 145.091 78.7329 93.803C78.7182 81.0374 81.3448 68.407 86.4474 56.7075C100.79 23.8252 133.593 0.788294 171.67 0.788294C206.698 0.788294 237.261 20.2859 253.096 49.0061C258.378 58.5735 261.921 69.0039 263.559 79.8114C264.258 84.4424 264.608 89.1194 264.607 93.803C264.607 145.091 222.915 186.818 171.67 186.818Z" fill="#3F3D56"/>
<path d="M141.25 84.3431C136.69 84.3424 132.272 82.7573 128.749 79.8585C125.227 76.9598 122.82 72.9272 121.938 68.4494C121.056 63.9716 121.755 59.3263 123.915 55.3068C126.075 51.2874 129.562 48.1431 133.781 46.4108C138 44.6786 142.689 44.466 147.047 45.8092C151.405 47.1524 155.162 49.9681 157.677 53.7755C160.191 57.583 161.307 62.1459 160.834 66.6852C160.36 71.2245 158.327 75.4585 155.081 78.6642C151.403 82.3137 146.43 84.3557 141.25 84.3431ZM141.25 45.7184C137.511 45.7181 133.856 46.8275 130.747 48.9064C127.638 50.9852 125.215 53.94 123.784 57.3972C122.353 60.8543 121.979 64.6585 122.708 68.3287C123.437 71.9989 125.238 75.3702 127.882 78.0162C130.526 80.6622 133.894 82.4642 137.561 83.1942C141.228 83.9241 145.029 83.5493 148.483 82.1172C151.938 80.685 154.89 78.2599 156.967 75.1483C159.044 72.0368 160.153 68.3787 160.152 64.6366C160.147 59.621 158.153 54.8123 154.61 51.2657C151.066 47.7191 146.262 45.7241 141.25 45.7184Z" fill="#3F3D56"/>
<path d="M201.893 84.3437C197.999 84.3437 194.192 83.1879 190.954 81.0225C187.716 78.8572 185.192 75.7794 183.702 72.1785C182.212 68.5776 181.822 64.6153 182.581 60.7926C183.341 56.9699 185.217 53.4586 187.97 50.7026C190.724 47.9466 194.232 46.0697 198.052 45.3093C201.871 44.5489 205.83 44.9392 209.428 46.4307C213.026 47.9223 216.101 50.4481 218.265 53.6888C220.428 56.9296 221.583 60.7396 221.583 64.6372C221.577 69.8619 219.501 74.8709 215.81 78.5653C212.118 82.2597 207.113 84.3378 201.893 84.3437ZM201.893 45.7189C198.155 45.7189 194.5 46.8285 191.392 48.9072C188.283 50.986 185.86 53.9406 184.43 57.3975C182.999 60.8543 182.625 64.6582 183.354 68.3279C184.083 71.9977 185.884 75.3686 188.527 78.0144C191.171 80.6602 194.539 82.4619 198.205 83.1919C201.872 83.9219 205.673 83.5472 209.127 82.1153C212.581 80.6835 215.533 78.2587 217.61 75.1476C219.687 72.0365 220.796 68.3788 220.796 64.6372C220.79 59.6215 218.797 54.8129 215.253 51.2662C211.709 47.7196 206.905 45.7246 201.893 45.7189Z" fill="#3F3D56"/>
<path d="M154.804 78.3843C151.193 81.9502 146.323 83.9494 141.25 83.9494C136.177 83.9494 131.307 81.9502 127.695 78.3843C128.903 75.8065 130.819 73.6264 133.219 72.0991C135.62 70.5719 138.405 69.7607 141.25 69.7607C144.094 69.7607 146.88 70.5719 149.281 72.0991C151.681 73.6264 153.597 75.8065 154.804 78.3843Z" fill="#3F3D56"/>
<path d="M215.449 78.3843C211.837 81.9502 206.968 83.9494 201.894 83.9494C196.821 83.9494 191.952 81.9502 188.34 78.3843C189.547 75.8065 191.463 73.6264 193.864 72.0991C196.264 70.5719 199.05 69.7607 201.894 69.7607C204.739 69.7607 207.525 70.5719 209.925 72.0991C212.326 73.6264 214.242 75.8065 215.449 78.3843Z" fill="#3F3D56"/>
<path d="M158.969 96.9559C158.969 94.7792 166.021 93.0146 174.721 93.0146C183.42 93.0146 190.473 94.7792 190.473 96.9559C190.473 99.1327 183.42 107.203 174.721 107.203C166.021 107.203 158.969 99.1327 158.969 96.9559Z" fill="#3F3D56"/>
<path d="M122.152 96.3653C125.849 96.3653 128.846 93.3655 128.846 89.6651C128.846 85.9646 125.849 82.9648 122.152 82.9648C118.454 82.9648 115.457 85.9646 115.457 89.6651C115.457 93.3655 118.454 96.3653 122.152 96.3653Z" fill="#FF6584"/>
<path d="M221.191 96.5616C224.888 96.5616 227.885 93.5618 227.885 89.8614C227.885 86.1609 224.888 83.1611 221.191 83.1611C217.493 83.1611 214.496 86.1609 214.496 89.8614C214.496 93.5618 217.493 96.5616 221.191 96.5616Z" fill="#FF6584"/>
<path d="M77.9188 182.625L82.7468 182.625L85.0434 163.987L77.918 163.988L77.9188 182.625Z" fill="#FFB8B8"/>
<path d="M92.0586 187.899L76.8852 187.9L76.8849 182.033L86.1959 182.032C87.7507 182.032 89.2419 182.65 90.3413 183.751C91.4408 184.851 92.0585 186.343 92.0586 187.899Z" fill="#2F2E41"/>
<path d="M53.8953 182.625L58.7233 182.625L61.02 163.987L53.8945 163.988L53.8953 182.625Z" fill="#FFB8B8"/>
<path d="M68.0352 187.899L52.8617 187.9L52.8615 182.033L62.1724 182.032C63.7273 182.032 65.2184 182.65 66.3179 183.751C67.4174 184.851 68.0351 186.343 68.0352 187.899Z" fill="#2F2E41"/>
<path d="M79.237 106.664L83.4809 140.317C84.0644 144.944 84.4726 149.587 84.7056 154.248L85.8489 177.135C85.8596 177.348 85.8268 177.561 85.7526 177.762C85.6783 177.962 85.5641 178.145 85.417 178.3C85.2699 178.455 85.0928 178.578 84.8966 178.662C84.7004 178.746 84.4892 178.79 84.2757 178.79H77.8346C77.4578 178.79 77.0934 178.655 76.8077 178.409C76.522 178.163 76.3337 177.823 76.2772 177.45L70.4844 139.253C70.4564 139.069 70.3643 138.901 70.2242 138.778C70.0841 138.656 69.9051 138.587 69.719 138.584C69.533 138.58 69.3518 138.643 69.2076 138.761C69.0634 138.879 68.9656 139.044 68.9315 139.227L61.9527 176.637C61.8837 176.973 61.7068 177.277 61.4491 177.504C61.1914 177.73 60.8668 177.866 60.5247 177.892L54.5964 178.268C54.3763 178.284 54.1553 178.254 53.9477 178.179C53.74 178.104 53.5504 177.986 53.3911 177.834C53.2319 177.681 53.1065 177.496 53.0231 177.291C52.9397 177.087 52.9001 176.867 52.907 176.646L54.8214 115.335L79.237 106.664Z" fill="#2F2E41"/>
<path d="M60.4339 58.7296C65.7756 58.7296 70.106 54.3956 70.106 49.0494C70.106 43.7031 65.7756 39.3691 60.4339 39.3691C55.0921 39.3691 50.7617 43.7031 50.7617 49.0494C50.7617 54.3956 55.0921 58.7296 60.4339 58.7296Z" fill="#FFB8B8"/>
<path d="M52.8513 116.123C55.2141 121.641 65.4529 125.582 67.8157 117.699C69.643 111.606 76.881 109.044 80.0747 108.197C80.4762 108.09 80.8195 107.829 81.0303 107.47C81.2411 107.112 81.3024 106.685 81.2011 106.281L72.2735 71.1842C71.7535 69.1397 70.7179 67.263 69.2658 65.7338C67.8137 64.2046 65.9937 63.074 63.98 62.4502C56.8839 60.251 49.4017 64.7795 48.2005 72.1143C47.8724 74.171 47.6634 76.245 47.5744 78.3258C46.8339 93.8112 51.2957 112.489 52.8513 116.123Z" fill="url(#paint1_linear_318_151)"/>
<path d="M106.575 84.5042C106.098 84.1749 105.556 83.9541 104.985 83.8574C104.414 83.7606 103.829 83.7904 103.271 83.9444C102.713 84.0985 102.195 84.3731 101.755 84.749C101.314 85.1249 100.961 85.5929 100.721 86.1201L86.7109 84.7981L90.146 91.2592L102.924 91.5241C103.835 91.8694 104.842 91.868 105.752 91.5203C106.663 91.1725 107.415 90.5025 107.865 89.6372C108.315 88.7719 108.432 87.7714 108.194 86.8254C107.956 85.8793 107.38 85.0535 106.575 84.5042Z" fill="#FFB8B8"/>
<path d="M99.607 91.6894C99.4406 91.8747 99.2371 92.0229 99.0097 92.1242C98.7823 92.2256 98.5361 92.278 98.2872 92.2779L79.9991 91.8596C75.5723 91.8562 71.2975 90.2436 67.9698 87.3219L57.0042 77.6968C56.3458 77.3363 55.7649 76.8495 55.2947 76.2641C54.8244 75.6787 54.4742 75.0063 54.2639 74.2853C54.0536 73.5642 53.9874 72.8088 54.0691 72.0622C54.1508 71.3155 54.3788 70.5923 54.74 69.934C55.1013 69.2756 55.5887 68.695 56.1744 68.2254C56.7601 67.7557 57.4325 67.4063 58.1533 67.197C58.874 66.9877 59.6289 66.9227 60.3748 67.0057C61.1207 67.0887 61.8429 67.3181 62.5001 67.6807L80.6613 82.0236L98.3443 85.4342C98.698 85.5211 99.0165 85.7146 99.2567 85.9886C99.4969 86.2626 99.6472 86.6037 99.6874 86.966L100.05 90.3127C100.089 90.6716 100.018 91.0339 99.8456 91.3511C99.7797 91.4729 99.6996 91.5865 99.607 91.6894Z" fill="#2F2E41"/>
<path d="M53.0928 56.9672C53.3011 57.0908 53.535 57.1647 53.7765 57.1833C54.0179 57.2019 54.2604 57.1646 54.4852 57.0744C54.7099 56.9841 54.9109 56.8433 55.0725 56.6629C55.2342 56.4824 55.3521 56.2672 55.4173 56.0337L55.4227 56.0117C55.5983 55.277 55.4525 54.5098 55.4021 53.7561C55.3517 53.0023 55.4255 52.1743 55.9384 51.6201C56.8945 50.5871 58.5956 51.1347 59.9782 50.8735C60.788 50.6926 61.5042 50.2225 61.9927 49.5513C62.4813 48.88 62.7087 48.0536 62.6324 47.2266C62.6127 47.07 62.5818 46.9131 62.5472 46.7564C62.4607 46.3592 62.4674 45.9474 62.5667 45.5533C62.666 45.1592 62.8553 44.7935 63.1196 44.4848C63.3839 44.1762 63.716 43.9331 64.09 43.7746C64.464 43.6161 64.8696 43.5465 65.275 43.5713C66.6722 43.6513 68.1804 44.075 69.3364 43.0392C69.7603 42.6306 70.0545 42.1062 70.1824 41.5314C70.3103 40.9565 70.2663 40.3567 70.0557 39.8068C69.3956 37.8999 67.53 36.9016 65.6838 36.3528C63.4005 35.6925 60.9988 35.5497 58.6534 35.9349C56.3081 36.3201 54.0779 37.2235 52.1251 38.5794C50.959 39.4021 49.87 40.4357 49.373 41.7741C48.876 43.1126 49.1157 44.8012 50.2365 45.6847C49.3678 46.6053 48.756 47.7382 48.4625 48.9699C48.169 50.2016 48.2042 51.4889 48.5644 52.7028C49.1179 54.488 51.7598 56.1995 53.0928 56.9672Z" fill="#2F2E41"/>
<path d="M261.535 182.551H256.707L254.41 163.913L261.536 163.913L261.535 182.551Z" fill="#A0616A"/>
<path d="M253.257 181.958H262.568V187.825H247.395C247.395 187.055 247.546 186.292 247.841 185.58C248.135 184.868 248.567 184.221 249.112 183.677C249.656 183.132 250.302 182.699 251.014 182.405C251.725 182.11 252.487 181.958 253.257 181.958Z" fill="#2F2E41"/>
<path d="M295.797 182.551H290.969L288.672 163.913L295.798 163.913L295.797 182.551Z" fill="#A0616A"/>
<path d="M287.519 181.958H296.83V187.825H281.656C281.656 187.055 281.808 186.292 282.103 185.58C282.397 184.868 282.829 184.221 283.373 183.677C283.918 183.132 284.564 182.699 285.275 182.405C285.987 182.11 286.749 181.958 287.519 181.958Z" fill="#2F2E41"/>
<path d="M261.616 171.008C261.563 171.008 261.511 171.006 261.458 171.002L254.625 170.454C254.354 170.433 254.09 170.355 253.85 170.226C253.611 170.098 253.4 169.921 253.232 169.707C253.065 169.492 252.943 169.246 252.875 168.982C252.807 168.719 252.794 168.444 252.838 168.175L263.198 104.043L263.892 94.9969C263.923 94.574 264.089 94.1725 264.368 93.8526C264.646 93.5328 265.02 93.3118 265.434 93.2229L275.855 90.9417C276.238 90.856 276.638 90.8876 277.003 91.0324C277.367 91.1773 277.68 91.4286 277.901 91.7538L280.441 95.4707C281.439 96.9156 282.523 98.2988 283.688 99.6125C285.491 101.667 288.556 106.23 288.831 113.697C288.905 116.15 289.16 118.594 289.593 121.009L297.982 166.24C298.025 166.505 298.012 166.776 297.946 167.037C297.88 167.297 297.762 167.541 297.598 167.754C297.434 167.967 297.229 168.144 296.994 168.274C296.76 168.404 296.501 168.485 296.234 168.512L289.756 169.003C289.293 169.049 288.828 168.928 288.446 168.663C288.063 168.397 287.788 168.003 287.669 167.553L276.179 124.79C276.156 124.706 276.107 124.632 276.038 124.579C275.969 124.526 275.885 124.498 275.798 124.498C275.711 124.498 275.627 124.527 275.558 124.58C275.49 124.633 275.44 124.707 275.418 124.791L263.518 169.544C263.406 169.964 263.159 170.335 262.815 170.599C262.471 170.864 262.049 171.008 261.616 171.008Z" fill="#2F2E41"/>
<path d="M279.789 61.8761C285.131 61.8761 289.461 57.5421 289.461 52.1959C289.461 46.8496 285.131 42.5156 279.789 42.5156C274.448 42.5156 270.117 46.8496 270.117 52.1959C270.117 57.5421 274.448 61.8761 279.789 61.8761Z" fill="#A0616A"/>
<path d="M263.396 96.4519L263.196 82.6281C262.459 73.7867 266.371 69.1446 269.783 66.8094C270.663 66.215 271.654 65.8055 272.697 65.6058C273.74 65.4061 274.812 65.4202 275.849 65.6474L283.461 67.2944C284.521 67.5255 285.523 67.9694 286.407 68.5992C287.29 69.229 288.037 70.0316 288.602 70.9586C289.142 71.8331 289.497 72.8095 289.644 73.8271C289.791 74.8446 289.728 75.8816 289.458 76.8736C288.929 78.7303 287.756 80.3375 286.15 81.4068C279.609 86.0279 279.148 93.79 279.144 93.8681L279.136 94.0286L263.396 96.4519Z" fill="url(#paint2_linear_318_151)"/>
<path d="M242.269 88.3695C241.875 88.8407 241.385 89.2228 240.833 89.4908C240.28 89.7588 239.677 89.9066 239.063 89.9244C238.45 89.9421 237.839 89.8295 237.272 89.5939C236.705 89.3583 236.194 89.0051 235.773 88.5576C231.958 84.5537 238.194 78.5417 242.023 82.5542C242.158 82.6925 242.283 82.84 242.398 82.9956L261.705 82.5153L264.01 78.2969L271.092 81.0492C269.733 83.1596 268.171 91.4424 264.615 91.0391C264.149 91.0517 242.746 88.4036 242.269 88.3695Z" fill="#A0616A"/>
<path d="M268.097 85.1768L262.699 81.2126C262.321 80.934 262.068 80.5165 261.997 80.0517C261.926 79.5869 262.042 79.1128 262.319 78.7334L269.192 69.3599C269.59 68.8173 270.091 68.3583 270.666 68.0094C271.241 67.6604 271.879 67.4282 272.543 67.326C273.208 67.2238 273.886 67.2537 274.539 67.4139C275.192 67.5741 275.807 67.8614 276.349 68.2596C276.891 68.6578 277.35 69.1589 277.698 69.7344C278.047 70.3099 278.279 70.9485 278.381 71.6136C278.483 72.2788 278.453 72.9576 278.292 73.6112C278.132 74.2647 277.845 74.8803 277.447 75.4228L270.574 84.7963C270.295 85.175 269.878 85.4278 269.414 85.4992C268.949 85.5705 268.476 85.4546 268.097 85.1768Z" fill="url(#paint3_linear_318_151)"/>
<path d="M277.436 49.7771C276.069 50.2103 274.649 50.455 273.216 50.5045C271.784 50.4883 270.296 50.0328 269.329 48.9756C267.955 47.474 267.973 45.0277 269.036 43.292C270.099 41.5563 272.008 40.475 273.981 39.9799C275.954 39.4848 278.015 39.5081 280.049 39.5355C282.464 37.773 285.986 38.0412 288.465 39.7136C290.943 41.386 292.458 44.2209 293.101 47.1426C293.744 50.0642 293.604 53.0976 293.36 56.0793C293.226 57.7133 293.363 59.8347 294.923 60.3356C295.907 60.6518 296.971 60.0718 297.676 59.3155C298.381 58.5592 298.874 57.6196 299.611 56.8944C301.183 55.349 303.704 55.0357 305.78 55.774C307.855 56.5124 309.511 58.1566 310.679 60.0263C312.271 62.5771 313.049 65.5531 312.909 68.5577C312.769 71.5623 311.716 74.4527 309.893 76.8436C308.069 79.2345 305.561 81.0123 302.702 81.9401C299.843 82.8679 296.77 82.9015 293.892 82.0365C288.566 80.4361 284.545 75.9375 281.958 71.0114C278.64 64.6627 277.268 57.4757 278.012 50.3501L277.436 49.7771Z" fill="#2F2E41"/>
<path d="M342.606 188H0.3938C0.289358 188 0.189193 187.959 0.115341 187.885C0.0414893 187.811 0 187.711 0 187.606C0 187.502 0.0414893 187.401 0.115341 187.327C0.189193 187.253 0.289358 187.212 0.3938 187.212H342.606C342.711 187.212 342.811 187.253 342.885 187.327C342.959 187.401 343 187.502 343 187.606C343 187.711 342.959 187.811 342.885 187.885C342.811 187.959 342.711 188 342.606 188Z" fill="#3F3D56"/>
<defs>
<linearGradient id="paint0_linear_318_151" x1="268.492" y1="76.1613" x2="286.18" y2="82.1254" gradientUnits="userSpaceOnUse">
<stop stop-color="#EB4B55"/>
<stop offset="1" stop-color="#8D59B5"/>
</linearGradient>
<linearGradient id="paint1_linear_318_151" x1="47.4922" y1="90.9552" x2="82.2682" y2="95.0718" gradientUnits="userSpaceOnUse">
<stop stop-color="#EB4B55"/>
<stop offset="1" stop-color="#8D59B5"/>
</linearGradient>
<linearGradient id="paint2_linear_318_151" x1="263.105" y1="80.4133" x2="290.023" y2="85.2981" gradientUnits="userSpaceOnUse">
<stop stop-color="#EB4B55"/>
<stop offset="1" stop-color="#8D59B5"/>
</linearGradient>
<linearGradient id="paint3_linear_318_151" x1="261.977" y1="76.0718" x2="284.499" y2="76.0582" gradientUnits="userSpaceOnUse">
<stop stop-color="#EB4B55"/>
<stop offset="1" stop-color="#8D59B5"/>
</linearGradient>
</defs>
</svg>
