<svg width="302" height="165" viewBox="0 0 302 165" fill="none" xmlns="http://www.w3.org/2000/svg">
<g clip-path="url(#clip0_354_93)">
<path opacity="0.1" d="M298.799 153.086C297.627 155.982 296.184 158.761 294.489 161.385C293.695 162.636 292.823 163.837 291.879 164.979C291.871 164.991 291.861 165.002 291.85 165.011H0L0.0393912 164.979C0.302 164.774 1.84351 163.525 4.24113 161.385C5.96122 159.852 8.11986 157.859 10.5437 155.461C30.3681 135.936 68.449 89.7225 36.7337 47.3871C7.25063 8.03103 38.9948 0.889241 59.9352 0.0556822C67.9806 -0.259914 76.0069 1.05392 83.5332 3.91845C93.2077 7.59979 110.889 13.2427 133.925 15.8302C134.682 15.9143 135.443 15.9985 136.215 16.0747C148.411 17.3182 160.689 17.5416 172.923 16.7426C173.282 16.7216 173.645 16.6953 174.01 16.669C186.111 15.8181 198.121 13.9579 209.914 11.1076C210.678 10.9209 211.432 10.7447 212.183 10.5685C251.477 1.46511 287.701 32.4909 278.644 67.5529C275.295 80.5217 276.146 94.3452 287.31 105.529C305.587 123.783 303.373 141.761 298.799 153.086Z" fill="url(#paint0_linear_354_93)"/>
<path d="M298.798 153.085C297.626 155.981 296.184 158.76 294.489 161.384C293.694 162.635 292.823 163.836 291.879 164.979H0.0390625C0.301671 164.774 1.84318 163.525 4.2408 161.384C5.96089 159.851 8.11953 157.858 10.5434 155.46L41.3028 149.096C41.7002 149.014 42.105 148.973 42.5108 148.973L75.3027 148.925H75.3369L91.5792 148.904H91.616L105.324 148.889H114.297H123.489L161.152 148.836H161.213H164.13H169.256H175.656H177.358L183.826 148.762H185.963L204.777 148.736H210.785H213.674L235.405 148.707H241.875L262.459 148.678L279.833 148.657C280.317 148.657 280.799 148.715 281.269 148.828L298.798 153.085Z" fill="#454B69"/>
<path opacity="0.4" d="M4.2408 161.385H294.489C293.694 162.636 292.823 163.837 291.879 164.979H0.0390625C0.296419 164.761 1.83793 163.512 4.2408 161.385Z" fill="black"/>
<path d="M192.55 79.6065L191.967 79.7196L165.612 84.7893C157.957 86.2619 150.192 87.7423 142.416 87.1769C136.783 86.7667 131.52 85.0944 126.108 83.6271C123.048 82.7962 119.805 82.4648 118.768 79.0359C117.337 74.3028 119.666 67.2951 120.215 62.4989C120.74 57.792 121.05 52.9668 120.115 48.3152C119.907 47.2699 119.634 46.2388 119.296 45.2281C118.358 42.4435 116.885 39.5484 117.681 36.7216C118.308 34.4787 120.223 32.8773 122.014 31.3942C125.522 28.5017 129.104 25.2595 130.496 20.9235C131.179 18.8198 131.307 16.5558 132.043 14.468C133.437 10.4974 136.94 7.52866 140.838 5.95621C144.735 4.38375 149.02 4.0498 153.225 4.0498C156.937 4.05001 160.645 4.29685 164.325 4.7887C168.338 5.3146 172.387 6.17972 175.914 8.1729C179.441 10.1661 182.414 13.4319 183.236 17.413C184.399 23.0429 181.169 29.0382 182.902 34.505C183.774 37.2686 185.791 39.501 187.191 42.0306C188.332 44.1467 189.036 46.471 189.262 48.8652C189.487 51.2595 189.23 53.6747 188.504 55.9671C186.828 61.1657 182.726 66.4247 184.827 71.4655C186.164 74.6709 189.578 76.3827 191.957 78.9229C192.169 79.1508 192.367 79.3786 192.55 79.6065Z" fill="#454B69"/>
<path opacity="0.1" d="M191.966 78.9435V79.7192L165.611 84.7889C157.956 86.2615 150.191 87.7419 142.415 87.1766C136.782 86.7663 131.519 85.094 126.107 83.6267C123.047 82.7958 119.804 82.4644 118.767 79.0355C117.336 74.3024 119.665 67.2947 120.214 62.4985C120.739 57.7916 128.825 40.6077 127.89 35.9561L176.21 38.0597C176.535 40.6287 189.306 53.5239 188.51 55.9878C186.835 61.1863 182.733 66.4454 184.834 71.4862C186.173 74.6916 189.587 76.4034 191.966 78.9435Z" fill="black"/>
<path d="M142.598 65.9323C142.884 67.5599 143.036 69.3507 142.206 70.7706C141.101 72.6744 138.69 73.2818 136.534 73.713L129.05 75.2119C128.54 75.3144 127.999 75.4301 127.618 75.7798C127.169 76.1822 127.017 76.8185 126.951 77.418C126.649 80.1317 127.608 82.8059 128.482 85.3908C130.25 90.6261 131.733 95.972 133.968 101.023C136.203 106.075 139.27 110.897 143.648 114.273C148.026 117.65 153.819 119.448 159.179 118.128C163.848 116.979 167.677 113.679 170.978 110.179C173.701 107.287 176.248 104.131 177.569 100.379C178.48 97.8021 178.777 95.0569 179.063 92.338C179.506 88.1693 179.949 84.0006 180.392 79.8319C180.6 77.8756 180.736 75.6747 179.468 74.1732C178.911 73.5132 178.155 73.0741 177.383 72.6665C174.51 71.1387 171.485 69.8766 168.811 68.0359C166.138 66.1952 163.766 63.6604 162.955 60.5155C162.469 58.6275 162.556 56.5712 161.729 54.812C160.804 52.8399 158.84 51.5041 156.739 50.9177C154.638 50.3313 152.422 50.4102 150.258 50.6547C148.094 50.8993 139.754 51.5251 138.858 53.9679C138.377 55.2827 140.371 58.1042 140.843 59.3979C141.621 61.5193 142.209 63.7062 142.598 65.9323Z" fill="#EFB7B9"/>
<path opacity="0.1" d="M142.598 65.9323C142.884 67.5599 143.036 69.3507 142.206 70.7706C141.101 72.6744 138.69 73.2818 136.534 73.713L129.05 75.2119C128.54 75.3144 127.999 75.4301 127.618 75.7798C127.169 76.1822 127.017 76.8185 126.951 77.418C126.649 80.1317 127.608 82.8059 128.482 85.3908C130.25 90.6261 131.733 95.972 133.968 101.023C136.203 106.075 139.27 110.897 143.648 114.273C148.026 117.65 153.819 119.448 159.179 118.128C163.848 116.979 167.677 113.679 170.978 110.179C173.701 107.287 176.248 104.131 177.569 100.379C178.48 97.8021 178.777 95.0569 179.063 92.338C179.506 88.1693 179.949 84.0006 180.392 79.8319C180.6 77.8756 180.736 75.6747 179.468 74.1732C178.911 73.5132 178.155 73.0741 177.383 72.6665C174.51 71.1387 171.485 69.8766 168.811 68.0359C166.138 66.1952 163.766 63.6604 162.955 60.5155C162.469 58.6275 162.556 56.5712 161.729 54.812C160.804 52.8399 158.84 51.5041 156.739 50.9177C154.638 50.3313 152.422 50.4102 150.258 50.6547C148.094 50.8993 139.754 51.5251 138.858 53.9679C138.377 55.2827 140.371 58.1042 140.843 59.3979C141.621 61.5193 142.209 63.7062 142.598 65.9323Z" fill="black"/>
<path d="M160.607 94.5261L164.996 85.2229C167.052 80.8631 169.153 76.2825 168.935 71.4678C168.893 70.5107 168.882 69.3142 169.722 68.8804C170.087 68.7312 170.485 68.6804 170.875 68.7331C175.495 68.9696 180.054 69.8931 184.402 71.4731C185.245 71.7781 186.109 72.1305 186.7 72.8036C187.291 73.4768 187.53 74.3813 187.732 75.2491C188.421 78.183 188.924 81.1577 189.237 84.1553C190.025 91.5758 189.633 99.062 189.237 106.506L188.071 129.233C188.077 129.556 188.012 129.875 187.879 130.169C187.59 130.695 186.939 130.871 186.354 130.971C184.098 131.358 181.792 131.279 179.507 131.192C163.436 130.582 147.28 129.646 131.313 131.597C131.385 129.232 131.347 126.866 131.2 124.497C130.568 114.271 127.92 104.295 125.321 94.3867C123.805 88.6018 122.337 82.2909 124.777 76.8399C125.136 75.9791 125.651 75.1926 126.298 74.5207C127.335 73.5031 128.75 72.9666 130.153 72.5827C132.572 71.9239 135.077 71.6401 137.582 71.7413L154.139 107.837C154.896 109.488 155.518 111.226 156.272 112.857C156.949 110.04 156.135 106.74 156.949 103.687C157.826 100.519 159.208 97.487 160.607 94.5261Z" fill="white"/>
<path d="M158.879 119.362C161.842 119.549 164.72 118.029 166.758 115.88C168.796 113.732 170.14 111.008 171.277 108.255C172.912 104.331 174.211 100.274 175.161 96.1301C175.949 92.6066 176.508 88.9594 175.965 85.3885C175.214 80.4582 172.427 75.9775 171.952 71.0129C171.871 70.1452 171.923 69.1302 172.619 68.6069C173.05 68.2835 173.617 68.2388 174.153 68.2072C179.106 67.9127 184.547 67.9679 188.383 71.1155C189.552 72.0726 190.5 73.269 191.642 74.2551C194.363 76.6217 198.208 77.826 199.954 80.9683C200.563 82.0622 200.855 83.3007 201.28 84.4787C202.283 87.266 204.019 89.7167 205.745 92.128C204.072 99.1962 202.149 106.27 200.477 113.338C199.497 117.485 198.51 121.647 196.971 125.618C195.962 128.221 194.694 130.877 195.004 133.664C195.127 134.76 195.492 135.81 195.81 136.867C196.924 140.577 197.446 144.44 197.357 148.313L122.424 148.497C126.014 143.343 127.067 137.022 126.702 130.75C126.526 127.745 125.848 124.721 124.338 122.12C121.959 118.045 117.773 115.389 113.648 113.114C110.759 111.537 107.658 120.414 104.535 119.396C105.039 115.825 105.27 102.041 105.06 98.4467C104.992 97.2687 104.887 96.0591 105.249 94.9337C105.496 94.1633 105.951 93.4743 106.258 92.7249C107.49 89.7246 106.316 85.8881 108.306 83.3349C109.682 81.5599 112.096 81.0551 114.057 79.9612C116.072 78.8358 117.629 77.0687 119.383 75.5594C122.825 72.6327 127.031 70.7524 131.505 70.1399C132.81 72.2012 133.604 74.5455 133.819 76.9767C133.953 78.5044 133.855 80.0532 134.068 81.5731C134.36 83.632 135.21 85.5647 136.053 87.4685C139.565 95.407 143.089 103.369 147.537 110.824C148.795 112.928 150.163 115.031 151.986 116.669C153.808 118.308 156.432 119.478 158.879 119.362Z" fill="url(#paint1_linear_354_93)"/>
<path opacity="0.1" d="M158.879 119.362C161.842 119.549 164.72 118.029 166.758 115.88C168.796 113.732 170.14 111.008 171.277 108.255C172.912 104.331 174.211 100.274 175.161 96.1301C175.949 92.6066 176.508 88.9594 175.965 85.3885C175.214 80.4582 172.427 75.9775 171.952 71.0129C171.871 70.1452 171.923 69.1302 172.619 68.6069C173.05 68.2835 173.617 68.2388 174.153 68.2072C179.106 67.9127 184.547 67.9679 188.383 71.1155C189.552 72.0726 190.5 73.269 191.642 74.2551C194.363 76.6217 198.208 77.826 199.954 80.9683C200.563 82.0622 200.855 83.3007 201.28 84.4787C202.283 87.266 204.019 89.7167 205.745 92.128C204.072 99.1962 202.149 106.27 200.477 113.338C199.497 117.485 198.51 121.647 196.971 125.618C195.962 128.221 194.694 130.877 195.004 133.664C195.127 134.76 195.492 135.81 195.81 136.867C196.924 140.577 197.446 144.44 197.357 148.313L122.424 148.497C126.014 143.343 127.067 137.022 126.702 130.75C126.526 127.745 125.848 124.721 124.338 122.12C121.959 118.045 117.773 115.389 113.648 113.114C110.759 111.537 107.658 120.414 104.535 119.396C105.039 115.825 105.27 102.041 105.06 98.4467C104.992 97.2687 104.887 96.0591 105.249 94.9337C105.496 94.1633 105.951 93.4743 106.258 92.7249C107.49 89.7246 106.316 85.8881 108.306 83.3349C109.682 81.5599 112.096 81.0551 114.057 79.9612C116.072 78.8358 117.629 77.0687 119.383 75.5594C122.825 72.6327 127.031 70.7524 131.505 70.1399C132.81 72.2012 133.604 74.5455 133.819 76.9767C133.953 78.5044 133.855 80.0532 134.068 81.5731C134.36 83.632 135.21 85.5647 136.053 87.4685C139.565 95.407 143.089 103.369 147.537 110.824C148.795 112.928 150.163 115.031 151.986 116.669C153.808 118.308 156.432 119.478 158.879 119.362Z" fill="black"/>
<path d="M154.913 65.3354C167.346 65.3354 177.424 55.2438 177.424 42.7952C177.424 30.3465 167.346 20.2549 154.913 20.2549C142.481 20.2549 132.402 30.3465 132.402 42.7952C132.402 55.2438 142.481 65.3354 154.913 65.3354Z" fill="#EFB7B9"/>
<path d="M143.105 72.8326C143.722 67.0003 141.301 61.2942 138.559 56.1114C137.246 53.6344 135.839 51.1653 135.18 48.4438C134.52 45.7222 134.709 42.6404 136.395 40.4027C137.829 38.4989 140.103 37.4708 142.207 36.3532C148.145 33.1978 153.573 28.5593 156.183 22.3562C154.707 23.1609 155.091 25.5616 156.393 26.6213C157.696 27.681 159.471 27.8861 161.073 28.391C166.913 30.2317 170.416 36.064 173.226 41.5123C173.686 42.4011 174.153 43.3399 174.148 44.3417C174.143 45.3436 173.686 46.2323 173.208 47.0843C171.821 49.556 170.125 51.9305 169.495 54.6941C168.772 57.8496 169.534 61.168 170.524 64.263C171.574 67.5551 172.969 70.8736 175.49 73.2349C178.011 75.5962 181.921 76.769 185.023 75.2439C181.926 69.9138 178.72 63.958 179.928 57.9153C180.511 55.0228 182.079 52.3933 182.746 49.5166C184.017 44.0288 181.9 38.3832 179.823 33.1452L173.615 17.5127C172.667 15.1224 171.588 12.5718 169.413 11.2176C167.943 10.3051 166.162 10.0685 164.439 9.90282C158.893 9.40847 153.147 9.57151 147.984 11.6383C138.578 15.4012 132.679 24.6781 128 33.6763C126.597 36.3716 125.214 39.2352 125.271 42.2749C125.303 43.942 125.768 45.5644 126.146 47.1895C127.685 53.8054 127.769 60.6605 127.847 67.4526C127.908 72.6643 127.637 77.5762 125.361 82.3225C128.48 82.9431 133.005 84.6181 136.093 83.3928C140.119 81.7993 142.598 76.8899 143.105 72.8326Z" fill="#454B69"/>
<g opacity="0.1">
<path opacity="0.1" d="M127.831 67.3414C127.842 66.5999 127.842 65.8513 127.831 65.0958C127.752 58.3037 127.668 51.4485 126.13 44.8327C125.786 43.5452 125.517 42.2387 125.326 40.9199C125.272 41.3727 125.248 41.8287 125.255 42.2846C125.287 43.9518 125.751 45.5742 126.13 47.1992C127.661 53.7757 127.755 60.5888 127.831 67.3414Z" fill="black"/>
<path opacity="0.1" d="M182.743 49.5159C183.088 47.9795 183.203 46.4003 183.085 44.8301C183.033 45.6111 182.919 46.3867 182.743 47.1493C182.076 50.0418 180.509 52.6477 179.926 55.548C179.674 56.8273 179.604 58.1355 179.716 59.4345C179.757 58.9243 179.827 58.4169 179.926 57.9146C180.509 55.0142 182.076 52.3979 182.743 49.5159Z" fill="black"/>
<path opacity="0.1" d="M173.94 43.1344C174.069 42.7609 174.138 42.3696 174.145 41.9748C174.145 40.9729 173.683 40.0342 173.223 39.1454C170.413 33.697 166.921 27.87 161.07 26.0241C159.468 25.5192 157.695 25.3141 156.39 24.2544C156.054 23.9648 155.78 23.6109 155.582 23.2136C155.384 22.8162 155.268 22.3834 155.24 21.9404C152.393 27.1732 147.503 31.1753 142.204 33.9863C140.103 35.1038 137.826 36.132 136.392 38.0358C135.045 39.8238 134.654 42.151 134.888 44.4018C135.02 42.9572 135.54 41.5754 136.392 40.4023C137.826 38.4985 140.101 37.4704 142.204 36.3529C147.503 33.5419 152.393 29.5398 155.24 24.307C155.268 24.7499 155.384 25.1828 155.582 25.5801C155.78 25.9775 156.054 26.3314 156.39 26.621C157.703 27.6728 159.468 27.8858 161.07 28.3907C166.91 30.2313 170.413 36.0636 173.223 41.512C173.508 42.0313 173.748 42.5741 173.94 43.1344Z" fill="black"/>
<path opacity="0.1" d="M175.484 70.8681C172.963 68.5016 171.574 65.1884 170.518 61.8962C169.885 60.0469 169.462 58.1318 169.258 56.1875C169.014 58.888 169.683 61.6516 170.518 64.2628C171.569 67.5549 172.963 70.8734 175.484 73.2347C178.005 75.596 181.916 76.7688 185.017 75.2437C184.644 74.6047 184.274 73.9552 183.906 73.3004C181.025 74.113 177.717 72.956 175.484 70.8681Z" fill="black"/>
<path opacity="0.1" d="M143.103 70.4653C142.596 74.5227 140.117 79.432 136.08 81.036C133.278 82.1483 129.289 80.8703 126.246 80.163C125.984 80.9011 125.684 81.6252 125.348 82.3323C128.467 82.9529 132.992 84.6279 136.08 83.4026C140.117 81.7986 142.596 76.8892 143.103 72.8319C143.207 71.8168 143.226 70.7947 143.16 69.7764C143.145 70.0051 143.121 70.2365 143.103 70.4653Z" fill="black"/>
</g>
<path d="M174.925 135.663C170.867 135.018 166.75 133.775 162.727 134.611C160.395 135.095 158.262 136.257 156.324 137.661C157.39 138.516 158.635 139.278 159.313 140.467C159.733 141.289 160.049 142.161 160.253 143.062C160.678 144.64 161.106 146.249 161.172 147.89C161.238 149.531 160.909 151.24 159.932 152.563C165.048 153.067 170.006 151.805 174.996 150.572C175.566 150.472 176.109 150.252 176.59 149.928C177.378 149.307 177.609 148.203 177.614 147.196C177.614 145.397 177.11 143.643 176.598 141.918C175.988 139.849 175.537 137.719 174.925 135.663Z" fill="white"/>
<path d="M202.32 91.3102C204.335 91.5732 205.897 93.2008 207.047 94.8732C210.275 99.5275 211.667 105.17 213.216 110.621C215.142 117.4 217.406 124.072 220.01 130.637C220.57 132.154 221.252 133.622 222.047 135.029C222.696 136.115 223.484 137.159 223.77 138.392C224.463 141.374 222.008 144.177 219.448 145.839C218.083 146.76 216.593 147.479 215.023 147.974C213.494 148.431 211.9 148.605 210.317 148.778L195.739 150.356C189.03 151.087 182.26 151.818 175.547 151.113C175.125 149.641 175.954 148.6 175.894 147.067C175.852 145.97 175.369 144.95 174.938 143.94C174.144 142.142 173.619 140.236 173.381 138.284C173.305 137.566 173.278 136.83 173.005 136.162C172.732 135.494 172.147 134.895 171.43 134.847C175.369 134.455 178.36 133.711 182.299 133.317C183.762 133.17 185.282 133.004 186.53 132.226C188.076 131.261 188.943 129.52 189.631 127.832C191.335 123.651 192.433 119.044 191.538 114.616C190.802 110.984 188.751 107.603 188.762 103.898C188.762 101.692 189.513 99.5538 190.401 97.5343C191.341 95.3991 192.567 93.2166 194.631 92.1333C196.695 91.0499 199.991 90.9947 202.32 91.3102Z" fill="url(#paint2_linear_354_93)"/>
<path d="M111.032 87.8949C111.985 85.6282 112.955 83.2879 112.981 80.8293C113.01 78.1709 111.93 75.6465 111.106 73.1222C110.086 70.0336 109.407 66.8425 109.081 63.6059C109.013 63.2959 109.06 62.9718 109.212 62.6935C109.43 62.3858 109.85 62.3227 110.221 62.2412C112.038 61.8258 113.411 60.3559 114.546 58.8754C116.306 56.5891 117.792 54.1038 118.974 51.4707C119.843 49.5327 121.019 47.1688 123.141 47.1504C122.287 51.1681 121.228 55.1395 119.969 59.049C122.188 58.481 124.297 57.6553 126.516 57.0874C126.95 56.95 127.405 56.8895 127.86 56.9086C129.189 57.0479 130.003 58.8491 129.231 59.9404C130.316 61.2131 132.12 61.5549 133.538 62.4279C134.956 63.3009 135.975 65.4624 134.714 66.5589C134.467 66.7719 134.155 66.9218 133.976 67.1952C133.367 68.1366 134.859 69.2174 134.735 70.3323C134.635 71.2447 133.467 71.6707 132.582 71.4288C131.697 71.1869 131.006 70.5242 130.218 70.0378C129.431 69.5513 128.401 69.2489 127.637 69.7538C127.432 72.2282 127.212 74.7499 126.143 77.0034C125.751 77.8264 125.25 78.5969 124.935 79.4515C124.633 80.3833 124.446 81.3484 124.378 82.3255L123.425 91.0529C118.876 91.9654 114.798 90.6006 111.032 87.8949Z" fill="#EFB7B9"/>
<path d="M109.921 95.7175L109.083 90.0404C109.003 89.5781 108.958 89.1105 108.949 88.6414C108.949 87.3267 109.527 86.0724 110.086 84.876C114.721 87.0427 119.732 87.8132 124.845 87.8158C125.52 87.8158 126.289 87.7527 126.709 87.2241C127.579 88.226 127.605 89.8379 127.235 91.1106C126.864 92.3833 126.153 93.5297 125.68 94.7709C125.441 95.3993 125.247 96.0856 124.79 96.5695C124.081 97.3347 122.931 97.4661 121.885 97.4609C120.786 97.4539 119.689 97.3492 118.608 97.148C115.809 96.6273 112.72 95.2153 109.921 95.7175Z" fill="white"/>
<path fill-rule="evenodd" clip-rule="evenodd" d="M207.047 94.8732C205.897 93.2008 204.335 91.5732 202.32 91.3102C199.991 90.9947 196.695 91.0499 194.631 92.1333C192.567 93.2166 191.341 95.3991 190.401 97.5343C189.513 99.5538 188.762 101.692 188.762 103.898C188.755 106.15 189.511 108.282 190.269 110.424C190.758 111.806 191.249 113.191 191.538 114.616C192.433 119.044 191.335 123.651 189.631 127.832C188.943 129.52 188.076 131.261 186.53 132.226C185.282 133.004 183.762 133.17 182.299 133.317C180.335 133.514 178.606 133.797 176.878 134.081C175.141 134.366 173.404 134.651 171.43 134.847C172.147 134.895 172.732 135.494 173.005 136.162C173.232 136.717 173.289 137.319 173.345 137.918C173.357 138.04 173.368 138.162 173.381 138.284C173.619 140.236 174.144 142.142 174.938 143.94C174.978 144.033 175.018 144.126 175.058 144.219C175.454 145.138 175.856 146.071 175.894 147.067C175.92 147.72 175.784 148.285 175.652 148.831C175.474 149.566 175.305 150.269 175.547 151.113C182.26 151.818 189.03 151.087 195.739 150.356L210.317 148.778L210.335 148.776C211.913 148.604 213.5 148.43 215.023 147.974C216.593 147.479 218.083 146.76 219.448 145.839C222.008 144.177 224.463 141.374 223.77 138.392C223.544 137.418 223.006 136.563 222.47 135.712C222.327 135.484 222.184 135.257 222.047 135.029C221.252 133.622 220.57 132.154 220.01 130.637C217.406 124.072 215.142 117.4 213.216 110.621C213.075 110.126 212.935 109.628 212.796 109.13C211.398 104.152 209.981 99.1041 207.047 94.8732ZM116.489 93.7505C120.039 94.4973 123.613 95.0758 127.211 95.486C126.05 97.0292 125.385 98.8886 125.302 100.819C124.918 108.123 126.033 115.366 127.15 122.619C127.647 125.85 128.145 129.082 128.511 132.323C128.726 134.219 128.894 136.144 128.595 138.029C128.172 140.693 126.859 143.112 125.546 145.478L125.527 145.512C124.433 147.479 123.312 149.494 121.557 150.89C120.455 151.746 119.189 152.366 117.838 152.712C112.757 154.072 106.919 151.755 104.146 147.285C101.714 143.377 101.654 138.487 101.669 133.874L101.693 126.63C101.696 125.812 101.73 124.91 102.287 124.311C102.492 124.09 102.75 123.931 103.009 123.772C103.228 123.639 103.446 123.505 103.634 123.333C104.023 122.926 104.301 122.426 104.443 121.881C105.146 119.692 105.074 117.376 105.003 115.055C104.938 112.955 104.874 110.851 105.383 108.833C105.691 107.617 106.199 106.469 106.707 105.319C107.047 104.552 107.387 103.783 107.667 102.993C108.852 99.6827 108.791 96.1276 107.801 92.7539C108.631 93.2216 109.61 93.1537 110.57 93.0871C110.787 93.0721 111.003 93.0571 111.215 93.0484C112.859 92.9827 114.486 93.327 116.1 93.6685C116.23 93.6959 116.359 93.7233 116.489 93.7505Z" fill="url(#paint3_linear_354_93)"/>
<path d="M142.246 139.136C140.421 139.242 138.583 139.347 136.766 139.136C135.453 138.979 134.171 138.655 132.869 138.434C129.311 137.859 125.672 138.061 122.2 139.027C118.728 139.993 115.506 141.7 112.755 144.03C111.747 144.892 110.728 146.215 111.285 147.422C111.884 148.721 113.714 148.684 115.124 148.442C113.602 149.17 112.257 150.223 111.185 151.527C110.791 152.008 110.418 152.579 110.494 153.202C110.655 154.503 112.419 154.74 113.724 154.627C113.299 155.085 113.585 155.894 114.126 156.205C114.667 156.515 115.339 156.452 115.951 156.339C117.304 156.091 118.611 155.638 119.827 154.995C119.581 155.639 120.009 156.394 120.615 156.715C121.222 157.036 121.96 157.012 122.64 156.902C125.849 156.376 128.528 154.141 131.658 153.262C136.663 151.861 141.9 154.096 147.102 154.254C148.73 154.304 150.4 154.138 151.884 153.465C153.704 152.636 155.172 151.082 157.094 150.53C159.229 149.92 161.679 150.622 163.633 149.568C165.054 148.803 163.772 142.905 163.41 141.769C162.746 139.691 162.079 138.313 159.865 138.103C154.263 137.553 147.89 138.81 142.246 139.136Z" fill="#EFB7B9"/>
<path d="M156.223 137.527C156.223 137.527 164.702 144.713 159.81 152.554L169.264 149.286V142.426C169.264 142.099 165.674 137.201 165.674 137.201L161.433 136.546L156.223 137.527Z" fill="white"/>
<path d="M67.4363 137.082H70.6165C72.3577 137.082 74.0276 137.775 75.2588 139.007C76.49 140.24 77.1817 141.912 77.1817 143.656V153.414H60.8711V143.656C60.8711 142.793 61.0409 141.938 61.3708 141.14C61.7008 140.343 62.1844 139.618 62.794 139.007C63.4036 138.397 64.1274 137.913 64.9239 137.582C65.7204 137.252 66.5742 137.082 67.4363 137.082Z" fill="#3F3D56"/>
<path opacity="0.1" d="M67.4363 137.082H70.6165C72.3577 137.082 74.0276 137.775 75.2588 139.007C76.49 140.24 77.1817 141.912 77.1817 143.656V153.414H60.8711V143.656C60.8711 142.793 61.0409 141.938 61.3708 141.14C61.7008 140.343 62.1844 139.618 62.794 139.007C63.4036 138.397 64.1274 137.913 64.9239 137.582C65.7204 137.252 66.5742 137.082 67.4363 137.082Z" fill="black"/>
<path d="M68.3716 140.674C69.0924 140.674 69.6767 140.089 69.6767 139.367C69.6767 138.646 69.0924 138.061 68.3716 138.061C67.6507 138.061 67.0664 138.646 67.0664 139.367C67.0664 140.089 67.6507 140.674 68.3716 140.674Z" fill="#3F3D56"/>
<path d="M68.3716 139.041C69.0924 139.041 69.6767 138.456 69.6767 137.735C69.6767 137.013 69.0924 136.428 68.3716 136.428C67.6507 136.428 67.0664 137.013 67.0664 137.735C67.0664 138.456 67.6507 139.041 68.3716 139.041Z" fill="#3F3D56"/>
<path d="M68.3716 137.409C69.0924 137.409 69.6767 136.824 69.6767 136.102C69.6767 135.38 69.0924 134.795 68.3716 134.795C67.6507 134.795 67.0664 135.38 67.0664 136.102C67.0664 136.824 67.6507 137.409 68.3716 137.409Z" fill="#3F3D56"/>
<path d="M68.3716 135.776C69.0924 135.776 69.6767 135.191 69.6767 134.469C69.6767 133.747 69.0924 133.162 68.3716 133.162C67.6507 133.162 67.0664 133.747 67.0664 134.469C67.0664 135.191 67.6507 135.776 68.3716 135.776Z" fill="#3F3D56"/>
<path d="M68.3716 134.143C69.0924 134.143 69.6767 133.558 69.6767 132.836C69.6767 132.114 69.0924 131.529 68.3716 131.529C67.6507 131.529 67.0664 132.114 67.0664 132.836C67.0664 133.558 67.6507 134.143 68.3716 134.143Z" fill="#3F3D56"/>
<path d="M68.3716 132.509C69.0924 132.509 69.6767 131.924 69.6767 131.202C69.6767 130.481 69.0924 129.896 68.3716 129.896C67.6507 129.896 67.0664 130.481 67.0664 131.202C67.0664 131.924 67.6507 132.509 68.3716 132.509Z" fill="#3F3D56"/>
<path d="M68.3716 130.874C69.0924 130.874 69.6767 130.288 69.6767 129.567C69.6767 128.845 69.0924 128.26 68.3716 128.26C67.6507 128.26 67.0664 128.845 67.0664 129.567C67.0664 130.288 67.6507 130.874 68.3716 130.874Z" fill="#3F3D56"/>
<path d="M70.3325 131.529C71.0533 131.529 71.6377 130.944 71.6377 130.222C71.6377 129.5 71.0533 128.915 70.3325 128.915C69.6117 128.915 69.0273 129.5 69.0273 130.222C69.0273 130.944 69.6117 131.529 70.3325 131.529Z" fill="#3F3D56"/>
<path d="M71.6372 130.874C72.358 130.874 72.9424 130.288 72.9424 129.567C72.9424 128.845 72.358 128.26 71.6372 128.26C70.9164 128.26 70.332 128.845 70.332 129.567C70.332 130.288 70.9164 130.874 71.6372 130.874Z" fill="#3F3D56"/>
<path d="M72.9419 130.222C73.6627 130.222 74.2471 129.637 74.2471 128.915C74.2471 128.194 73.6627 127.608 72.9419 127.608C72.2211 127.608 71.6367 128.194 71.6367 128.915C71.6367 129.637 72.2211 130.222 72.9419 130.222Z" fill="#3F3D56"/>
<path d="M68.3716 129.241C69.0924 129.241 69.6767 128.656 69.6767 127.934C69.6767 127.212 69.0924 126.627 68.3716 126.627C67.6507 126.627 67.0664 127.212 67.0664 127.934C67.0664 128.656 67.6507 129.241 68.3716 129.241Z" fill="#3F3D56"/>
<path d="M68.3716 127.608C69.0924 127.608 69.6767 127.023 69.6767 126.301C69.6767 125.579 69.0924 124.994 68.3716 124.994C67.6507 124.994 67.0664 125.579 67.0664 126.301C67.0664 127.023 67.6507 127.608 68.3716 127.608Z" fill="#3F3D56"/>
<path d="M68.3716 125.975C69.0924 125.975 69.6767 125.39 69.6767 124.668C69.6767 123.946 69.0924 123.361 68.3716 123.361C67.6507 123.361 67.0664 123.946 67.0664 124.668C67.0664 125.39 67.6507 125.975 68.3716 125.975Z" fill="#3F3D56"/>
<path d="M68.3716 124.342C69.0924 124.342 69.6767 123.757 69.6767 123.035C69.6767 122.314 69.0924 121.729 68.3716 121.729C67.6507 121.729 67.0664 122.314 67.0664 123.035C67.0664 123.757 67.6507 124.342 68.3716 124.342Z" fill="#3F3D56"/>
<path d="M73.792 118.82C73.4664 118.868 73.1408 118.902 72.8151 118.923C73.1179 118.658 73.3989 118.37 73.6555 118.06C73.4747 117.511 73.2088 116.994 72.8677 116.527C72.5442 116.709 72.1865 116.822 71.8172 116.859C71.4942 116.906 71.1686 116.94 70.8429 116.964C71.271 116.614 71.6702 116.088 72.0903 115.649C71.1489 114.795 69.9429 114.29 68.6743 114.22C67.4056 114.15 66.1515 114.519 65.122 115.264C64.0925 116.01 63.3501 117.087 63.0193 118.316C62.6884 119.544 62.7892 120.849 63.3048 122.011C63.8203 123.174 64.7193 124.124 65.851 124.702C66.9828 125.281 68.2786 125.452 69.5214 125.187C70.7642 124.923 71.8784 124.239 72.6774 123.249C73.4764 122.26 73.9117 121.026 73.9102 119.754C73.9103 119.434 73.8822 119.114 73.8262 118.799L73.792 118.82Z" fill="url(#paint4_linear_354_93)"/>
<path d="M78.1459 125.312C77.813 125.518 77.4373 125.643 77.0482 125.678C76.7251 125.725 76.3995 125.762 76.0739 125.783C76.42 125.472 76.743 125.137 77.0403 124.779C76.2534 124.573 75.4182 124.669 74.6981 125.047C73.978 125.426 73.4248 126.059 73.1465 126.825C72.8682 127.59 72.8849 128.431 73.1933 129.185C73.5017 129.938 74.0797 130.549 74.8143 130.899C75.5488 131.248 76.3871 131.311 77.1652 131.074C77.9434 130.837 78.6054 130.319 79.0219 129.619C79.4384 128.92 79.5794 128.09 79.4174 127.292C79.2554 126.494 78.802 125.786 78.1459 125.305V125.312Z" fill="url(#paint5_linear_354_93)"/>
<path d="M66.4145 131.529C67.1354 131.529 67.7197 130.944 67.7197 130.222C67.7197 129.5 67.1354 128.915 66.4145 128.915C65.6937 128.915 65.1094 129.5 65.1094 130.222C65.1094 130.944 65.6937 131.529 66.4145 131.529Z" fill="#3F3D56"/>
<path d="M65.1099 130.874C65.8307 130.874 66.415 130.288 66.415 129.567C66.415 128.845 65.8307 128.26 65.1099 128.26C64.389 128.26 63.8047 128.845 63.8047 129.567C63.8047 130.288 64.389 130.874 65.1099 130.874Z" fill="#3F3D56"/>
<path d="M63.8052 130.222C64.526 130.222 65.1103 129.637 65.1103 128.915C65.1103 128.194 64.526 127.608 63.8052 127.608C63.0843 127.608 62.5 128.194 62.5 128.915C62.5 129.637 63.0843 130.222 63.8052 130.222Z" fill="#3F3D56"/>
<path d="M58.6027 125.312C58.9355 125.518 59.3112 125.643 59.7004 125.678C60.0234 125.725 60.349 125.762 60.6747 125.783C60.3279 125.473 60.0049 125.137 59.7083 124.779C60.4952 124.573 61.3303 124.669 62.0504 125.047C62.7705 125.426 63.3238 126.059 63.6021 126.825C63.8804 127.59 63.8637 128.431 63.5552 129.185C63.2468 129.938 62.6688 130.549 61.9343 130.899C61.1998 131.248 60.3615 131.311 59.5833 131.074C58.8052 130.837 58.1432 130.319 57.7267 129.619C57.3101 128.92 57.1691 128.09 57.3311 127.292C57.4931 126.494 57.9465 125.786 58.6027 125.305V125.312Z" fill="url(#paint6_linear_354_93)"/>
<path d="M67.4364 138.05H70.6166C72.3578 138.05 74.0276 138.742 75.2589 139.975C76.4901 141.208 77.1818 142.88 77.1818 144.624V153.267C77.1818 153.563 77.0645 153.846 76.8556 154.055C76.6468 154.264 76.3636 154.382 76.0683 154.382H61.9767C61.6814 154.382 61.3982 154.264 61.1894 154.055C60.9806 153.846 60.8633 153.563 60.8633 153.267V144.624C60.8633 143.76 61.0334 142.904 61.3638 142.106C61.6942 141.308 62.1785 140.583 62.789 139.972C63.3994 139.362 64.1241 138.878 64.9216 138.548C65.719 138.218 66.5736 138.049 67.4364 138.05Z" fill="#3F3D56"/>
<g opacity="0.1">
<path opacity="0.1" d="M73.8811 119.178C73.749 119.319 73.6087 119.453 73.4609 119.577C73.6106 119.577 73.7577 119.554 73.9074 119.538C73.9021 119.417 73.8942 119.296 73.8811 119.178Z" fill="black"/>
<path opacity="0.1" d="M71.5039 117.616C71.8322 117.595 72.1552 117.561 72.4808 117.513C72.773 117.476 73.0585 117.398 73.329 117.282C73.1962 117.019 73.0434 116.767 72.8721 116.527C72.7088 116.627 72.5318 116.702 72.3469 116.751C72.0894 117.061 71.8075 117.351 71.5039 117.616Z" fill="black"/>
<path opacity="0.1" d="M63.4805 120.421C63.4785 119.425 63.7451 118.446 64.2522 117.588C64.7593 116.73 65.488 116.024 66.3617 115.546C67.2354 115.068 68.2216 114.835 69.2166 114.871C70.2116 114.907 71.1784 115.211 72.0153 115.751L72.0993 115.662C71.5531 115.175 70.9162 114.802 70.2252 114.563C69.5342 114.324 68.8028 114.224 68.0732 114.269C67.3435 114.315 66.63 114.504 65.9738 114.827C65.3176 115.149 64.7316 115.599 64.2496 116.149C63.7677 116.7 63.3993 117.34 63.1656 118.034C62.932 118.727 62.8377 119.461 62.8883 120.191C62.9388 120.921 63.1332 121.634 63.4602 122.289C63.7872 122.943 64.2403 123.527 64.7935 124.005C63.9442 123.005 63.4787 121.734 63.4805 120.421Z" fill="black"/>
</g>
<g opacity="0.1">
<path opacity="0.1" d="M76.0703 126.435C76.3959 126.414 76.7216 126.38 77.0446 126.333C77.434 126.297 77.8097 126.171 78.1423 125.965C78.511 126.237 78.8185 126.583 79.0447 126.982C79.2709 127.38 79.4108 127.822 79.4553 128.279C79.4681 128.164 79.4742 128.049 79.4737 127.934C79.4762 127.424 79.3586 126.919 79.1305 126.463C78.9024 126.006 78.5702 125.609 78.1607 125.305C77.8279 125.51 77.4521 125.635 77.063 125.67L76.8004 125.704C76.5763 125.967 76.3322 126.211 76.0703 126.435Z" fill="black"/>
<path opacity="0.1" d="M76.203 125.32C76.3119 125.321 76.4207 125.329 76.5286 125.344C76.6993 125.162 76.8674 124.968 77.0381 124.778C76.5553 124.649 76.0493 124.633 75.5593 124.731C75.0693 124.829 74.6084 125.039 74.2123 125.344C73.8162 125.649 73.4956 126.041 73.2752 126.491C73.0548 126.94 72.9406 127.433 72.9414 127.934C72.9414 128.044 72.9414 128.152 72.9572 128.26C73.0379 127.454 73.4147 126.707 74.0145 126.164C74.6143 125.621 75.3943 125.32 76.203 125.32Z" fill="black"/>
</g>
<g opacity="0.1">
<path opacity="0.1" d="M60.6769 126.435C60.3512 126.414 60.0256 126.38 59.7026 126.333C59.3132 126.297 58.9375 126.171 58.6049 125.965C58.2362 126.237 57.9287 126.583 57.7025 126.982C57.4763 127.38 57.3364 127.822 57.2919 128.279C57.2791 128.164 57.273 128.049 57.2735 127.934C57.271 127.424 57.3886 126.919 57.6167 126.463C57.8448 126.006 58.177 125.609 58.5865 125.305C58.9193 125.51 59.2951 125.635 59.6842 125.67L59.9468 125.704C60.1695 125.968 60.4137 126.212 60.6769 126.435Z" fill="black"/>
<path opacity="0.1" d="M60.546 125.32C60.4362 125.321 60.3266 125.329 60.2178 125.344C60.0497 125.162 59.8816 124.968 59.7109 124.778C60.1937 124.649 60.6997 124.633 61.1897 124.731C61.6797 124.829 62.1406 125.039 62.5367 125.344C62.9328 125.649 63.2535 126.041 63.4738 126.491C63.6942 126.94 63.8084 127.433 63.8076 127.934C63.8076 128.044 63.8076 128.152 63.7919 128.26C63.7111 127.454 63.3343 126.707 62.7345 126.164C62.1347 125.621 61.3548 125.32 60.546 125.32Z" fill="black"/>
</g>
<path d="M51.6959 157.543H26.039C25.75 157.543 25.4728 157.428 25.2684 157.223C25.064 157.019 24.9492 156.741 24.9492 156.452V144.293C24.9492 144.109 24.9957 143.927 25.0844 143.766C25.1731 143.605 25.3011 143.469 25.4566 143.37C25.612 143.272 25.7898 143.214 25.9734 143.203C26.157 143.192 26.3404 143.228 26.5065 143.307C33.8779 146.809 41.8192 148.011 51.1917 143.362C51.3578 143.28 51.5421 143.241 51.7271 143.25C51.9122 143.259 52.0919 143.315 52.2495 143.413C52.407 143.51 52.5372 143.646 52.6278 143.808C52.7184 143.97 52.7664 144.152 52.7674 144.337V156.433C52.7698 156.577 52.744 156.719 52.6915 156.852C52.6389 156.986 52.5607 157.107 52.4612 157.21C52.3617 157.313 52.2429 157.396 52.1116 157.453C51.9803 157.51 51.839 157.54 51.6959 157.543Z" fill="url(#paint7_linear_354_93)"/>
<path opacity="0.1" d="M51.6959 157.543H26.039C25.75 157.543 25.4728 157.428 25.2684 157.223C25.064 157.019 24.9492 156.741 24.9492 156.452V144.293C24.9492 144.109 24.9957 143.927 25.0844 143.766C25.1731 143.605 25.3011 143.469 25.4566 143.37C25.612 143.272 25.7898 143.214 25.9734 143.203C26.157 143.192 26.3404 143.228 26.5065 143.307C33.8779 146.809 41.8192 148.011 51.1917 143.362C51.3578 143.28 51.5421 143.241 51.7271 143.25C51.9122 143.259 52.0919 143.315 52.2495 143.413C52.407 143.51 52.5372 143.646 52.6278 143.808C52.7184 143.97 52.7664 144.152 52.7674 144.337V156.433C52.7698 156.577 52.744 156.719 52.6915 156.852C52.6389 156.986 52.5607 157.107 52.4612 157.21C52.3617 157.313 52.2429 157.396 52.1116 157.453C51.9803 157.51 51.839 157.54 51.6959 157.543Z" fill="black"/>
<path d="M38.6859 148.3C39.5242 148.3 40.2037 147.409 40.2037 146.31C40.2037 145.211 39.5242 144.319 38.6859 144.319C37.8475 144.319 37.168 145.211 37.168 146.31C37.168 147.409 37.8475 148.3 38.6859 148.3Z" fill="#3F3D56"/>
<path d="M38.6859 145.868C39.5242 145.868 40.2037 144.977 40.2037 143.877C40.2037 142.778 39.5242 141.887 38.6859 141.887C37.8475 141.887 37.168 142.778 37.168 143.877C37.168 144.977 37.8475 145.868 38.6859 145.868Z" fill="#3F3D56"/>
<path d="M38.6859 143.432C39.5242 143.432 40.2037 142.541 40.2037 141.442C40.2037 140.342 39.5242 139.451 38.6859 139.451C37.8475 139.451 37.168 140.342 37.168 141.442C37.168 142.541 37.8475 143.432 38.6859 143.432Z" fill="#3F3D56"/>
<path d="M38.6859 141.001C39.5242 141.001 40.2037 140.109 40.2037 139.01C40.2037 137.911 39.5242 137.02 38.6859 137.02C37.8475 137.02 37.168 137.911 37.168 139.01C37.168 140.109 37.8475 141.001 38.6859 141.001Z" fill="#3F3D56"/>
<path d="M38.6859 138.565C39.5242 138.565 40.2037 137.674 40.2037 136.575C40.2037 135.475 39.5242 134.584 38.6859 134.584C37.8475 134.584 37.168 135.475 37.168 136.575C37.168 137.674 37.8475 138.565 38.6859 138.565Z" fill="#3F3D56"/>
<path d="M38.6859 136.131C39.5242 136.131 40.2037 135.239 40.2037 134.14C40.2037 133.041 39.5242 132.149 38.6859 132.149C37.8475 132.149 37.168 133.041 37.168 134.14C37.168 135.239 37.8475 136.131 38.6859 136.131Z" fill="#3F3D56"/>
<path d="M38.6859 133.698C39.5242 133.698 40.2037 132.807 40.2037 131.707C40.2037 130.608 39.5242 129.717 38.6859 129.717C37.8475 129.717 37.168 130.608 37.168 131.707C37.168 132.807 37.8475 133.698 38.6859 133.698Z" fill="#3F3D56"/>
<path d="M44.3828 115.052C44.5889 114.787 44.7775 114.508 44.9474 114.218L40.9557 113.561L45.273 113.592C45.6895 112.689 45.9168 111.709 45.9407 110.714C45.9647 109.719 45.7848 108.73 45.4122 107.808L39.6217 110.816L44.9631 106.871C44.463 106.005 43.7901 105.252 42.9863 104.657C42.1826 104.063 41.2652 103.641 40.2914 103.417C39.3176 103.193 38.3081 103.173 37.326 103.357C36.3439 103.54 35.4101 103.925 34.5829 104.486C33.7556 105.047 33.0526 105.773 32.5176 106.618C31.9827 107.463 31.6272 108.409 31.4734 109.397C31.3196 110.386 31.3708 111.395 31.6237 112.363C31.8767 113.331 32.3259 114.237 32.9435 115.023C32.619 115.434 32.3407 115.879 32.1137 116.351L37.2923 119.075L31.7776 117.208C31.391 118.356 31.2959 119.582 31.5009 120.775C31.7058 121.969 32.2043 123.092 32.9514 124.045C32.1072 125.12 31.582 126.411 31.4359 127.77C31.2898 129.13 31.5288 130.503 32.1254 131.733C32.7221 132.963 33.6523 134 34.8098 134.726C35.9674 135.451 37.3054 135.836 38.671 135.836C40.0367 135.836 41.3747 135.451 42.5322 134.726C43.6898 134 44.62 132.963 45.2167 131.733C45.8133 130.503 46.0522 129.13 45.9062 127.77C45.7601 126.411 45.2349 125.12 44.3907 124.045C45.3993 122.761 45.9477 121.174 45.9477 119.54C45.9477 117.907 45.3993 116.32 44.3907 115.036L44.3828 115.052Z" fill="url(#paint8_linear_354_93)"/>
<path opacity="0.1" d="M31.3789 119.557C31.3765 121.191 31.9252 122.778 32.9362 124.061C32.0919 125.136 31.5667 126.427 31.4207 127.786C31.2746 129.146 31.5135 130.519 32.1102 131.749C32.7068 132.979 33.6371 134.016 34.7946 134.742C35.9521 135.467 37.2902 135.852 38.6558 135.852C40.0214 135.852 41.3595 135.467 42.517 134.742C43.6745 134.016 44.6048 132.979 45.2014 131.749C45.7981 130.519 46.037 129.146 45.8909 127.786C45.7449 126.427 45.2197 125.136 44.3754 124.061C45.3497 122.822 31.3789 118.739 31.3789 119.557Z" fill="black"/>
<path d="M51.6959 158.187H26.039C25.75 158.187 25.4728 158.072 25.2684 157.867C25.064 157.663 24.9492 157.385 24.9492 157.096V144.293C24.9492 144.109 24.9957 143.927 25.0844 143.766C25.1731 143.605 25.3011 143.469 25.4566 143.37C25.612 143.272 25.7898 143.214 25.9734 143.203C26.157 143.192 26.3404 143.228 26.5065 143.307C33.8779 146.809 39.7236 150.893 51.1917 143.362C51.8719 142.915 52.7674 143.525 52.7674 144.337V157.091C52.7688 157.378 52.6571 157.654 52.4565 157.859C52.256 158.064 51.9827 158.182 51.6959 158.187Z" fill="url(#paint9_linear_354_93)"/>
<path d="M242.08 154.566L204.228 159.58L202.334 159.83L183.828 149.933V147.616L241.66 141.3L242.08 154.566Z" fill="#9C9CA1"/>
<path d="M194.551 150.985L235.557 146.144L235.137 153.724L203.196 156.07L194.551 150.985Z" fill="#939498"/>
<path opacity="0.4" d="M204.226 157.09V159.578L202.333 159.841L183.824 149.933V147.616L201.49 157.082C201.49 157.082 203.806 157.301 204.226 157.09Z" fill="black"/>
<path d="M211.497 117.608L202.999 157.064C202.913 157.459 202.924 157.869 203.029 158.259C203.135 158.649 203.333 159.008 203.607 159.305C203.88 159.603 204.221 159.83 204.601 159.967C204.98 160.105 205.387 160.149 205.788 160.096L259.552 152.97C260.02 152.908 260.461 152.715 260.825 152.414C261.19 152.113 261.462 151.715 261.61 151.266L273.21 116.241C273.338 115.852 273.37 115.438 273.303 115.034C273.236 114.631 273.071 114.249 272.824 113.923C272.577 113.597 272.255 113.336 271.885 113.163C271.514 112.989 271.108 112.909 270.699 112.928L213.839 115.631C213.286 115.657 212.757 115.865 212.334 116.222C211.91 116.58 211.616 117.067 211.497 117.608Z" fill="#3F3D56"/>
<path d="M241.038 132.164C241.17 130.907 240.623 129.82 239.817 129.735C239.01 129.65 238.25 130.6 238.118 131.857C237.986 133.113 238.533 134.201 239.339 134.285C240.145 134.37 240.906 133.421 241.038 132.164Z" fill="white"/>
</g>
<defs>
<linearGradient id="paint0_linear_354_93" x1="-1.32924e-06" y1="79.6054" x2="274.443" y2="185.727" gradientUnits="userSpaceOnUse">
<stop stop-color="#EB4B55"/>
<stop offset="1" stop-color="#8D59B5"/>
</linearGradient>
<linearGradient id="paint1_linear_354_93" x1="104.535" y1="106.879" x2="203.279" y2="133.139" gradientUnits="userSpaceOnUse">
<stop stop-color="#EB4B55"/>
<stop offset="1" stop-color="#8D59B5"/>
</linearGradient>
<linearGradient id="paint2_linear_354_93" x1="171.43" y1="120.21" x2="224.437" y2="129.96" gradientUnits="userSpaceOnUse">
<stop stop-color="#EB4B55"/>
<stop offset="1" stop-color="#8D59B5"/>
</linearGradient>
<linearGradient id="paint3_linear_354_93" x1="101.668" y1="121.03" x2="210.45" y2="166.367" gradientUnits="userSpaceOnUse">
<stop stop-color="#EB4B55"/>
<stop offset="1" stop-color="#8D59B5"/>
</linearGradient>
<linearGradient id="paint4_linear_354_93" x1="62.8281" y1="119.565" x2="73.9115" y2="121.903" gradientUnits="userSpaceOnUse">
<stop stop-color="#EB4B55"/>
<stop offset="1" stop-color="#8D59B5"/>
</linearGradient>
<linearGradient id="paint5_linear_354_93" x1="72.9492" y1="127.829" x2="79.4837" y2="129.208" gradientUnits="userSpaceOnUse">
<stop stop-color="#EB4B55"/>
<stop offset="1" stop-color="#8D59B5"/>
</linearGradient>
<linearGradient id="paint6_linear_354_93" x1="57.2656" y1="127.829" x2="63.8001" y2="129.208" gradientUnits="userSpaceOnUse">
<stop stop-color="#EB4B55"/>
<stop offset="1" stop-color="#8D59B5"/>
</linearGradient>
<linearGradient id="paint7_linear_354_93" x1="24.9492" y1="150.12" x2="49.8308" y2="160.316" gradientUnits="userSpaceOnUse">
<stop stop-color="#EB4B55"/>
<stop offset="1" stop-color="#8D59B5"/>
</linearGradient>
<linearGradient id="paint8_linear_354_93" x1="31.3867" y1="118.96" x2="46.4636" y2="120.383" gradientUnits="userSpaceOnUse">
<stop stop-color="#EB4B55"/>
<stop offset="1" stop-color="#8D59B5"/>
</linearGradient>
<linearGradient id="paint9_linear_354_93" x1="24.9492" y1="150.43" x2="50.1354" y2="160.308" gradientUnits="userSpaceOnUse">
<stop stop-color="#EB4B55"/>
<stop offset="1" stop-color="#8D59B5"/>
</linearGradient>
<clipPath id="clip0_354_93">
<rect width="302" height="165" fill="white"/>
</clipPath>
</defs>
</svg>
