<svg width="326" height="284" viewBox="0 0 326 284" fill="none" xmlns="http://www.w3.org/2000/svg">
<g clip-path="url(#clip0_318_195)">
<path d="M282.424 284C306.49 284 326 282.51 326 280.672C326 278.835 306.49 277.345 282.424 277.345C258.357 277.345 238.848 278.835 238.848 280.672C238.848 282.51 258.357 284 282.424 284Z" fill="#E6E6E6"/>
<path d="M299.31 185.403L295.096 197.172C294.777 198.064 294.775 199.039 295.092 199.932C295.408 200.825 296.023 201.581 296.832 202.072C297.421 202.43 298.091 202.633 298.779 202.663C299.467 202.694 300.152 202.55 300.77 202.246C301.388 201.941 301.92 201.486 302.316 200.922C302.712 200.357 302.96 199.702 303.037 199.017L304.374 187.093L314.503 153.571L305.781 149.346L299.31 185.403Z" fill="#A0616A"/>
<path d="M295.792 274.276H301.981V213.993L287.914 213.712L295.792 274.276Z" fill="#A0616A"/>
<path d="M268.221 274.276H274.411V213.993L260.344 213.712L268.221 274.276Z" fill="#A0616A"/>
<path d="M302.964 220.333L286.928 218.643L283.552 200.896L277.362 218.924L258.23 216.952L266.108 187.093C280.508 177.296 294.185 177.51 307.185 187.093L302.964 220.333Z" fill="#2F2E41"/>
<path d="M275.776 276.844C275.871 277.608 275.79 278.385 275.538 279.113C275.287 279.842 274.871 280.503 274.324 281.045C273.777 281.587 273.112 281.996 272.382 282.241C271.652 282.485 270.876 282.558 270.113 282.455L258.71 280.906C257.69 280.747 256.775 280.189 256.166 279.355C255.557 278.521 255.302 277.479 255.459 276.458C255.601 275.537 256.067 274.697 256.774 274.09C257.48 273.483 258.38 273.149 259.311 273.149H261.191L267.377 267.507C267.438 271.35 270.265 270.497 274.937 270.122L275.776 276.844Z" fill="#2F2E41"/>
<path d="M303.346 276.844C303.442 277.608 303.36 278.385 303.109 279.113C302.857 279.842 302.441 280.503 301.894 281.045C301.347 281.587 300.683 281.996 299.952 282.241C299.222 282.485 298.446 282.558 297.683 282.455L286.28 280.906C285.261 280.747 284.346 280.189 283.736 279.355C283.127 278.521 282.873 277.479 283.03 276.458C283.171 275.537 283.637 274.697 284.344 274.09C285.05 273.483 285.951 273.149 286.881 273.149H288.761L294.947 267.507C295.008 271.35 297.835 270.497 302.507 270.122L303.346 276.844Z" fill="#2F2E41"/>
<path d="M281.374 117.796C286.852 117.796 291.292 113.35 291.292 107.866C291.292 102.382 286.852 97.9365 281.374 97.9365C275.897 97.9365 271.457 102.382 271.457 107.866C271.457 113.35 275.897 117.796 281.374 117.796Z" fill="#A0616A"/>
<path d="M293.961 124.556L281.582 125.683V114.696L288.053 110.753L293.961 124.556Z" fill="#A0616A"/>
<path d="M308.593 191.318C296.139 182.187 281.185 183.115 264.703 190.191C272.171 169.025 275.352 149.298 269.486 132.611C269.486 129.662 270.466 126.798 272.272 124.469C274.078 122.14 276.607 120.479 279.46 119.748L281.584 119.204L291.994 119.767L301.769 125.505C303.762 126.675 305.417 128.344 306.57 130.349C307.724 132.354 308.336 134.625 308.346 136.939L308.593 191.318Z" fill="#E6E6E6"/>
<path d="M260.482 183.149L256.268 194.918C255.949 195.81 255.947 196.785 256.263 197.678C256.58 198.571 257.195 199.327 258.004 199.818C258.593 200.176 259.263 200.379 259.951 200.409C260.639 200.44 261.324 200.296 261.942 199.992C262.56 199.687 263.092 199.232 263.488 198.668C263.884 198.104 264.132 197.449 264.209 196.763L265.546 184.839L275.675 151.317L266.953 147.092L260.482 183.149Z" fill="#A0616A"/>
<path d="M316.751 160.05H302.965V126.247C305.349 127.573 307.421 129.397 309.039 131.596C310.657 133.794 311.784 136.315 312.343 138.988L316.751 160.05Z" fill="#E6E6E6"/>
<path d="M273.814 102.49C273.208 102.777 272.54 102.908 271.871 102.871C271.202 102.835 270.552 102.633 269.981 102.282C269.422 101.912 268.999 101.369 268.779 100.735C268.559 100.101 268.553 99.4127 268.762 98.7752C269.18 97.6987 270.238 97.0246 271.265 96.4979C273.53 95.3369 275.957 94.5251 278.464 94.0901C279.659 93.883 280.925 93.7691 282.055 94.2115C282.614 94.4304 283.115 94.7771 283.67 95.0063C284.69 95.4277 285.828 95.4295 286.908 95.6581C288.014 95.8998 289.054 96.3765 289.96 97.0558C290.866 97.7351 291.615 98.6013 292.157 99.5956C292.512 100.272 292.785 100.989 292.97 101.731C293.49 103.76 293.483 105.889 292.95 107.915C292.101 111.125 289.939 114.074 290.134 117.388C288.536 116.457 287.787 114.56 286.453 113.278C285.461 112.331 284.177 111.749 282.812 111.627C282.439 111.642 282.07 111.547 281.749 111.356C281.516 111.128 281.355 110.837 281.287 110.519L279.783 105.804C279.477 104.845 279.108 103.802 278.243 103.288C277.71 103.017 277.121 102.874 276.523 102.869C275.093 102.765 273.657 102.779 272.23 102.91" fill="#2F2E41"/>
<path d="M277.084 153.853L261.047 147.655L268.33 128.008C269.178 125.72 270.667 123.725 272.619 122.264C274.571 120.802 276.903 119.935 279.334 119.768L277.084 153.853Z" fill="#E6E6E6"/>
<path d="M190.806 210.343H14.68C13.8441 210.342 13.0428 210.009 12.4517 209.418C11.8607 208.826 11.5283 208.023 11.5273 207.187V14.8489C11.5283 14.012 11.8607 13.2097 12.4517 12.6179C13.0428 12.0262 13.8441 11.6933 14.68 11.6924H190.806C191.642 11.6933 192.444 12.0262 193.035 12.6179C193.626 13.2097 193.958 14.012 193.959 14.8489V207.187C193.958 208.023 193.626 208.826 193.035 209.418C192.444 210.009 191.642 210.342 190.806 210.343ZM14.68 12.955C14.1785 12.9555 13.6976 13.1553 13.343 13.5103C12.9884 13.8654 12.7889 14.3468 12.7884 14.8489V207.187C12.7889 207.689 12.9884 208.17 13.343 208.525C13.6976 208.88 14.1785 209.08 14.68 209.08H190.806C191.308 209.08 191.789 208.88 192.143 208.525C192.498 208.17 192.697 207.689 192.698 207.187V14.8489C192.697 14.3468 192.498 13.8654 192.143 13.5103C191.789 13.1553 191.308 12.9555 190.806 12.955H14.68Z" fill="#E6E6E6"/>
<path d="M51.0242 83.3859C53.3093 83.3859 55.1617 81.5311 55.1617 79.2432C55.1617 76.9553 53.3093 75.1006 51.0242 75.1006C48.7391 75.1006 46.8867 76.9553 46.8867 79.2432C46.8867 81.5311 48.7391 83.3859 51.0242 83.3859Z" fill="#E6E6E6"/>
<path d="M68.2625 83.3859C70.5476 83.3859 72.4 81.5311 72.4 79.2432C72.4 76.9553 70.5476 75.1006 68.2625 75.1006C65.9774 75.1006 64.125 76.9553 64.125 79.2432C64.125 81.5311 65.9774 83.3859 68.2625 83.3859Z" fill="#E6E6E6"/>
<path d="M85.5047 83.3859C87.7898 83.3859 89.6422 81.5311 89.6422 79.2432C89.6422 76.9553 87.7898 75.1006 85.5047 75.1006C83.2196 75.1006 81.3672 76.9553 81.3672 79.2432C81.3672 81.5311 83.2196 83.3859 85.5047 83.3859Z" fill="#DC4B53"/>
<path d="M102.743 83.3859C105.028 83.3859 106.88 81.5311 106.88 79.2432C106.88 76.9553 105.028 75.1006 102.743 75.1006C100.458 75.1006 98.6055 76.9553 98.6055 79.2432C98.6055 81.5311 100.458 83.3859 102.743 83.3859Z" fill="#DC4B53"/>
<path d="M119.985 83.3859C122.27 83.3859 124.123 81.5311 124.123 79.2432C124.123 76.9553 122.27 75.1006 119.985 75.1006C117.7 75.1006 115.848 76.9553 115.848 79.2432C115.848 81.5311 117.7 83.3859 119.985 83.3859Z" fill="#DC4B53"/>
<path d="M137.223 83.3859C139.509 83.3859 141.361 81.5311 141.361 79.2432C141.361 76.9553 139.509 75.1006 137.223 75.1006C134.938 75.1006 133.086 76.9553 133.086 79.2432C133.086 81.5311 134.938 83.3859 137.223 83.3859Z" fill="#E6E6E6"/>
<path d="M154.462 83.3859C156.747 83.3859 158.599 81.5311 158.599 79.2432C158.599 76.9553 156.747 75.1006 154.462 75.1006C152.177 75.1006 150.324 76.9553 150.324 79.2432C150.324 81.5311 152.177 83.3859 154.462 83.3859Z" fill="#E6E6E6"/>
<path d="M51.0242 96.504C53.3093 96.504 55.1617 94.6493 55.1617 92.3614C55.1617 90.0735 53.3093 88.2188 51.0242 88.2188C48.7391 88.2188 46.8867 90.0735 46.8867 92.3614C46.8867 94.6493 48.7391 96.504 51.0242 96.504Z" fill="#E6E6E6"/>
<path d="M68.2625 96.504C70.5476 96.504 72.4 94.6493 72.4 92.3614C72.4 90.0735 70.5476 88.2188 68.2625 88.2188C65.9774 88.2188 64.125 90.0735 64.125 92.3614C64.125 94.6493 65.9774 96.504 68.2625 96.504Z" fill="#E6E6E6"/>
<path d="M85.5047 96.504C87.7898 96.504 89.6422 94.6493 89.6422 92.3614C89.6422 90.0735 87.7898 88.2188 85.5047 88.2188C83.2196 88.2188 81.3672 90.0735 81.3672 92.3614C81.3672 94.6493 83.2196 96.504 85.5047 96.504Z" fill="#E6E6E6"/>
<path d="M102.743 96.504C105.028 96.504 106.88 94.6493 106.88 92.3614C106.88 90.0735 105.028 88.2188 102.743 88.2188C100.458 88.2188 98.6055 90.0735 98.6055 92.3614C98.6055 94.6493 100.458 96.504 102.743 96.504Z" fill="#E6E6E6"/>
<path d="M119.985 96.504C122.27 96.504 124.123 94.6493 124.123 92.3614C124.123 90.0735 122.27 88.2188 119.985 88.2188C117.7 88.2188 115.848 90.0735 115.848 92.3614C115.848 94.6493 117.7 96.504 119.985 96.504Z" fill="#E6E6E6"/>
<path d="M137.223 96.504C139.509 96.504 141.361 94.6493 141.361 92.3614C141.361 90.0735 139.509 88.2188 137.223 88.2188C134.938 88.2188 133.086 90.0735 133.086 92.3614C133.086 94.6493 134.938 96.504 137.223 96.504Z" fill="#E6E6E6"/>
<path d="M154.462 96.504C156.747 96.504 158.599 94.6493 158.599 92.3614C158.599 90.0735 156.747 88.2188 154.462 88.2188C152.177 88.2188 150.324 90.0735 150.324 92.3614C150.324 94.6493 152.177 96.504 154.462 96.504Z" fill="#E6E6E6"/>
<path d="M51.0242 109.622C53.3093 109.622 55.1617 107.767 55.1617 105.48C55.1617 103.192 53.3093 101.337 51.0242 101.337C48.7391 101.337 46.8867 103.192 46.8867 105.48C46.8867 107.767 48.7391 109.622 51.0242 109.622Z" fill="#DC4B53"/>
<path d="M68.2625 109.622C70.5476 109.622 72.4 107.767 72.4 105.48C72.4 103.192 70.5476 101.337 68.2625 101.337C65.9774 101.337 64.125 103.192 64.125 105.48C64.125 107.767 65.9774 109.622 68.2625 109.622Z" fill="#DC4B53"/>
<path d="M85.5047 109.622C87.7898 109.622 89.6422 107.767 89.6422 105.48C89.6422 103.192 87.7898 101.337 85.5047 101.337C83.2196 101.337 81.3672 103.192 81.3672 105.48C81.3672 107.767 83.2196 109.622 85.5047 109.622Z" fill="#DC4B53"/>
<path d="M102.743 109.622C105.028 109.622 106.88 107.767 106.88 105.48C106.88 103.192 105.028 101.337 102.743 101.337C100.458 101.337 98.6055 103.192 98.6055 105.48C98.6055 107.767 100.458 109.622 102.743 109.622Z" fill="#E6E6E6"/>
<path d="M119.985 109.622C122.27 109.622 124.123 107.767 124.123 105.48C124.123 103.192 122.27 101.337 119.985 101.337C117.7 101.337 115.848 103.192 115.848 105.48C115.848 107.767 117.7 109.622 119.985 109.622Z" fill="#E6E6E6"/>
<path d="M137.223 109.622C139.509 109.622 141.361 107.767 141.361 105.48C141.361 103.192 139.509 101.337 137.223 101.337C134.938 101.337 133.086 103.192 133.086 105.48C133.086 107.767 134.938 109.622 137.223 109.622Z" fill="#E6E6E6"/>
<path d="M154.462 109.622C156.747 109.622 158.599 107.767 158.599 105.48C158.599 103.192 156.747 101.337 154.462 101.337C152.177 101.337 150.324 103.192 150.324 105.48C150.324 107.767 152.177 109.622 154.462 109.622Z" fill="#E6E6E6"/>
<path d="M51.0242 122.74C53.3093 122.74 55.1617 120.886 55.1617 118.598C55.1617 116.31 53.3093 114.455 51.0242 114.455C48.7391 114.455 46.8867 116.31 46.8867 118.598C46.8867 120.886 48.7391 122.74 51.0242 122.74Z" fill="#E6E6E6"/>
<path d="M68.2625 122.74C70.5476 122.74 72.4 120.886 72.4 118.598C72.4 116.31 70.5476 114.455 68.2625 114.455C65.9774 114.455 64.125 116.31 64.125 118.598C64.125 120.886 65.9774 122.74 68.2625 122.74Z" fill="#E6E6E6"/>
<path d="M51.0242 135.859C53.3093 135.859 55.1617 134.005 55.1617 131.717C55.1617 129.429 53.3093 127.574 51.0242 127.574C48.7391 127.574 46.8867 129.429 46.8867 131.717C46.8867 134.005 48.7391 135.859 51.0242 135.859Z" fill="#E6E6E6"/>
<path d="M68.2625 135.859C70.5476 135.859 72.4 134.005 72.4 131.717C72.4 129.429 70.5476 127.574 68.2625 127.574C65.9774 127.574 64.125 129.429 64.125 131.717C64.125 134.005 65.9774 135.859 68.2625 135.859Z" fill="#E6E6E6"/>
<path d="M85.5047 135.859C87.7898 135.859 89.6422 134.005 89.6422 131.717C89.6422 129.429 87.7898 127.574 85.5047 127.574C83.2196 127.574 81.3672 129.429 81.3672 131.717C81.3672 134.005 83.2196 135.859 85.5047 135.859Z" fill="#E6E6E6"/>
<path d="M85.5047 122.74C87.7898 122.74 89.6422 120.886 89.6422 118.598C89.6422 116.31 87.7898 114.455 85.5047 114.455C83.2196 114.455 81.3672 116.31 81.3672 118.598C81.3672 120.886 83.2196 122.74 85.5047 122.74Z" fill="#E6E6E6"/>
<path d="M102.743 122.74C105.028 122.74 106.88 120.886 106.88 118.598C106.88 116.31 105.028 114.455 102.743 114.455C100.458 114.455 98.6055 116.31 98.6055 118.598C98.6055 120.886 100.458 122.74 102.743 122.74Z" fill="#DC4B53"/>
<path d="M119.985 122.74C122.27 122.74 124.123 120.886 124.123 118.598C124.123 116.31 122.27 114.455 119.985 114.455C117.7 114.455 115.848 116.31 115.848 118.598C115.848 120.886 117.7 122.74 119.985 122.74Z" fill="#DC4B53"/>
<path d="M137.223 122.74C139.509 122.74 141.361 120.886 141.361 118.598C141.361 116.31 139.509 114.455 137.223 114.455C134.938 114.455 133.086 116.31 133.086 118.598C133.086 120.886 134.938 122.74 137.223 122.74Z" fill="#DC4B53"/>
<path d="M154.462 122.74C156.747 122.74 158.599 120.886 158.599 118.598C158.599 116.31 156.747 114.455 154.462 114.455C152.177 114.455 150.324 116.31 150.324 118.598C150.324 120.886 152.177 122.74 154.462 122.74Z" fill="#E6E6E6"/>
<path d="M71.4235 42.6254C70.7677 42.6362 70.1424 42.9046 69.6825 43.3727C69.2226 43.8408 68.9648 44.4712 68.9648 45.1279C68.9648 45.7845 69.2226 46.4149 69.6825 46.883C70.1424 47.3511 70.7677 47.6196 71.4235 47.6304H134.092C134.42 47.6361 134.746 47.577 135.052 47.4564C135.358 47.3358 135.637 47.156 135.873 46.9275C136.109 46.6989 136.298 46.4259 136.429 46.1242C136.559 45.8224 136.629 45.4979 136.635 45.169C136.64 44.8401 136.581 44.5134 136.46 44.2076C136.339 43.9017 136.159 43.6227 135.931 43.3864C135.702 43.1502 135.429 42.9614 135.128 42.8308C134.826 42.7002 134.502 42.6304 134.174 42.6254C134.146 42.6249 134.119 42.6249 134.092 42.6254H71.4235Z" fill="#3F3D56"/>
<path d="M148.302 41.9284C148.256 41.9741 148.22 42.0284 148.195 42.0882C148.17 42.1479 148.158 42.212 148.158 42.2766C148.158 42.3413 148.17 42.4053 148.195 42.4651C148.22 42.5248 148.256 42.5791 148.302 42.6248L150.413 44.7388H145.207C145.076 44.7388 144.951 44.7907 144.859 44.883C144.767 44.9754 144.715 45.1007 144.715 45.2313C144.715 45.3619 144.767 45.4871 144.859 45.5795C144.951 45.6718 145.076 45.7237 145.207 45.7237H150.413L148.302 47.8377C148.256 47.8834 148.22 47.9377 148.195 47.9974C148.17 48.0572 148.158 48.1212 148.158 48.1859C148.158 48.2505 148.17 48.3146 148.195 48.3743C148.22 48.4341 148.256 48.4884 148.302 48.5341C148.347 48.5798 148.402 48.6161 148.461 48.6408C148.521 48.6656 148.585 48.6783 148.649 48.6783C148.714 48.6783 148.778 48.6656 148.838 48.6408C148.897 48.6161 148.952 48.5798 148.997 48.5341L151.948 45.5795C152.04 45.4871 152.092 45.3619 152.092 45.2313C152.092 45.1007 152.04 44.9754 151.948 44.883L148.997 41.9284C148.952 41.8827 148.897 41.8464 148.838 41.8217C148.778 41.7969 148.714 41.7842 148.649 41.7842C148.585 41.7842 148.521 41.7969 148.461 41.8217C148.402 41.8464 148.347 41.8827 148.302 41.9284Z" fill="#E6E6E6"/>
<path d="M57.1851 41.9284C57.2308 41.9741 57.267 42.0284 57.2917 42.0882C57.3164 42.1479 57.3292 42.212 57.3292 42.2766C57.3292 42.3413 57.3164 42.4053 57.2917 42.4651C57.267 42.5248 57.2308 42.5791 57.1851 42.6248L55.0738 44.7388H60.2801C60.4106 44.7388 60.5357 44.7907 60.6279 44.8831C60.7201 44.9754 60.772 45.1007 60.772 45.2313C60.772 45.3619 60.7201 45.4871 60.6279 45.5795C60.5357 45.6718 60.4106 45.7237 60.2801 45.7237H55.0738L57.1851 47.8377C57.2773 47.93 57.3292 48.0553 57.3292 48.1859C57.3292 48.3165 57.2774 48.4418 57.1851 48.5341C57.0929 48.6265 56.9678 48.6783 56.8373 48.6783C56.7069 48.6783 56.5818 48.6265 56.4896 48.5341L53.5386 45.5795C53.4464 45.4871 53.3945 45.3619 53.3945 45.2313C53.3945 45.1007 53.4464 44.9754 53.5386 44.8831L56.4896 41.9284C56.5352 41.8827 56.5895 41.8464 56.6491 41.8217C56.7088 41.7969 56.7727 41.7842 56.8373 41.7842C56.9019 41.7842 56.9659 41.7969 57.0255 41.8217C57.0852 41.8464 57.1394 41.8827 57.1851 41.9284Z" fill="#E6E6E6"/>
<path d="M67.92 162.299C66.7422 162.298 65.5758 162.53 64.4875 162.98C63.3991 163.431 62.4102 164.092 61.5771 164.926C60.744 165.759 60.0831 166.749 59.6322 167.838C59.1813 168.928 58.9492 170.095 58.9492 171.275C58.9492 172.454 59.1813 173.621 59.6322 174.711C60.0831 175.8 60.744 176.79 61.5771 177.624C62.4102 178.457 63.3991 179.118 64.4875 179.569C65.5758 180.019 66.7422 180.251 67.92 180.25H137.568C138.746 180.251 139.912 180.019 141.001 179.569C142.089 179.118 143.078 178.457 143.911 177.624C144.744 176.79 145.405 175.8 145.856 174.711C146.307 173.621 146.539 172.454 146.539 171.275C146.539 170.095 146.307 168.928 145.856 167.838C145.405 166.749 144.744 165.759 143.911 164.926C143.078 164.092 142.089 163.431 141.001 162.98C139.912 162.53 138.746 162.298 137.568 162.299H67.92Z" fill="#E6E6E6"/>
<path d="M14.4064 28.8485C11.5571 28.8485 8.77177 28.0026 6.40265 26.4176C4.03352 24.8327 2.18702 22.5799 1.09663 19.9442C0.00624235 17.3085 -0.279053 14.4083 0.276822 11.6102C0.832697 8.8122 2.20477 6.24205 4.21955 4.22478C6.23432 2.20751 8.8013 0.833729 11.5959 0.277165C14.3904 -0.279398 17.2871 0.00624767 19.9195 1.09799C22.552 2.18972 24.8019 4.03852 26.3849 6.41058C27.9679 8.78264 28.8129 11.5714 28.8129 14.4243C28.8085 18.2485 27.2893 21.9149 24.5885 24.619C21.8877 27.3231 18.2259 28.8442 14.4064 28.8485Z" fill="#DC4B53"/>
<path d="M20.0907 13.002H15.8275V8.73343C15.8275 8.35606 15.6777 7.99414 15.4112 7.7273C15.1447 7.46046 14.7832 7.31055 14.4063 7.31055C14.0294 7.31055 13.668 7.46046 13.4014 7.7273C13.1349 7.99414 12.9852 8.35606 12.9852 8.73343V13.002H8.72188C8.34498 13.002 7.98352 13.1519 7.71701 13.4188C7.4505 13.6856 7.30078 14.0475 7.30078 14.4249C7.30078 14.8023 7.4505 15.1642 7.71701 15.431C7.98352 15.6979 8.34498 15.8478 8.72188 15.8478H12.9852V20.1164C12.9852 20.4937 13.1349 20.8556 13.4014 21.1225C13.668 21.3893 14.0294 21.5392 14.4063 21.5392C14.7832 21.5392 15.1447 21.3893 15.4112 21.1225C15.6777 20.8556 15.8275 20.4937 15.8275 20.1164V15.8478H20.0907C20.4676 15.8478 20.8291 15.6979 21.0956 15.431C21.3621 15.1642 21.5118 14.8023 21.5118 14.4249C21.5118 14.0475 21.3621 13.6856 21.0956 13.4188C20.8291 13.1519 20.4676 13.002 20.0907 13.002Z" fill="white"/>
</g>
<defs>
<clipPath id="clip0_318_195">
<rect width="326" height="284" fill="white"/>
</clipPath>
</defs>
</svg>
