<svg width="168" height="186" viewBox="0 0 168 186" fill="none" xmlns="http://www.w3.org/2000/svg">
<g filter="url(#filter0_b_350_10)">
<path d="M39.1592 53.377C36.532 35.9397 48.7549 20.2393 67.4419 14.4854C74.3238 12.3663 81.6555 16.0031 84.1803 22.7882L90.1713 38.8886C92.1431 44.1878 90.7222 50.1615 86.5802 53.9867L68.7615 70.4423C66.9772 72.0901 66.1848 74.5714 66.6702 76.9596L66.8286 77.6846C66.9271 78.1175 67.072 78.7302 67.2674 79.4962C67.658 81.0268 68.2526 83.1791 69.0851 85.7418C70.7412 90.8398 73.3819 97.6964 77.311 104.548C81.24 111.4 85.8175 117.13 89.3746 121.123C91.1627 123.131 92.7167 124.725 93.838 125.831C94.3993 126.385 94.8538 126.817 95.1769 127.12L95.7302 127.628C97.5418 129.245 100.063 129.787 102.373 129.055L125.437 121.747C130.798 120.048 136.647 121.796 140.219 126.165L151.131 139.509C155.672 145.063 155.138 153.216 149.912 158.122C135.614 171.543 115.955 174.292 102.271 163.222C89.0797 152.55 73.5546 136.691 60.5852 114.244C47.5856 91.7451 41.7 70.2414 39.1592 53.377ZM81.1109 77.8723L95.8991 64.2153C104.183 56.5651 107.025 44.6175 103.081 34.0192L97.0902 17.9188C92.01 4.26622 77.2575 -3.05155 63.41 1.21227C40.2131 8.35493 21.5874 29.2976 25.529 55.4586C28.2816 73.7285 34.6482 96.9576 48.6687 121.223C62.6323 145.391 79.3688 162.5 93.6364 174.042C114.142 190.631 141.531 184.966 159.313 168.274C169.867 158.367 170.945 141.903 161.774 130.687L150.863 117.343C143.718 108.605 132.021 105.109 121.298 108.507L102.157 114.573C101.421 113.811 100.568 112.9 99.6376 111.856C96.4926 108.326 92.5586 103.378 89.2501 97.608C85.9415 91.8385 83.6524 85.9343 82.1882 81.427C81.7551 80.094 81.3981 78.895 81.1109 77.8723Z" fill="#C5C5C5" fill-opacity="0.5"/>
<path d="M18.1592 55.377C15.532 37.9397 27.7549 22.2393 46.4419 16.4854C53.3238 14.3663 60.6555 18.0031 63.1803 24.7882L69.1713 40.8886C71.1431 46.1878 69.7222 52.1615 65.5802 55.9867L47.7615 72.4423C45.9772 74.0901 45.1848 76.5714 45.6702 78.9596L45.8286 79.6846C45.9271 80.1175 46.072 80.7302 46.2674 81.4962C46.658 83.0268 47.2526 85.1791 48.0851 87.7418C49.7412 92.8398 52.3819 99.6964 56.311 106.548C60.24 113.4 64.8175 119.13 68.3746 123.123C70.1627 125.131 71.7167 126.725 72.838 127.831C73.3993 128.385 73.8538 128.817 74.1769 129.12L74.7302 129.628C76.5418 131.245 79.0634 131.787 81.373 131.055L104.437 123.747C109.798 122.048 115.647 123.796 119.219 128.165L130.131 141.509C134.672 147.063 134.138 155.216 128.912 160.122C114.614 173.543 94.9554 176.292 81.2715 165.222C68.0797 154.55 52.5546 138.691 39.5852 116.244C26.5856 93.7451 20.7 72.2414 18.1592 55.377ZM60.1109 79.8723L74.8991 66.2153C83.1831 58.5651 86.0248 46.6175 82.0812 36.0192L76.0902 19.9188C71.01 6.26622 56.2575 -1.05155 42.41 3.21227C19.2131 10.3549 0.587446 31.2976 4.52897 57.4586C7.28159 75.7285 13.6482 98.9576 27.6687 123.223C41.6323 147.391 58.3688 164.5 72.6364 176.042C93.1425 192.631 120.531 186.966 138.313 170.274C148.867 160.367 149.945 143.903 140.774 132.687L129.863 119.343C122.718 110.605 111.021 107.109 100.298 110.507L81.1567 116.573C80.4205 115.811 79.5678 114.9 78.6376 113.856C75.4926 110.326 71.5586 105.378 68.2501 99.608C64.9415 93.8385 62.6524 87.9343 61.1882 83.427C60.7551 82.094 60.3981 80.895 60.1109 79.8723Z" fill="url(#paint0_radial_350_10)" fill-opacity="0.68"/>
</g>
<g filter="url(#filter1_b_350_10)">
<path d="M35.1592 53.377C32.532 35.9397 44.7549 20.2393 63.4419 14.4854C70.3238 12.3663 77.6555 16.0031 80.1803 22.7882L86.1713 38.8886C88.1431 44.1878 86.7222 50.1615 82.5802 53.9867L64.7615 70.4423C62.9772 72.0901 62.1848 74.5714 62.6702 76.9596L62.8286 77.6846C62.9271 78.1175 63.072 78.7302 63.2674 79.4962C63.658 81.0268 64.2526 83.1791 65.0851 85.7418C66.7412 90.8398 69.3819 97.6964 73.311 104.548C77.24 111.4 81.8175 117.13 85.3746 121.123C87.1627 123.131 88.7167 124.725 89.838 125.831C90.3993 126.385 90.8538 126.817 91.1769 127.12L91.7302 127.628C93.5418 129.245 96.0634 129.787 98.373 129.055L121.437 121.747C126.798 120.048 132.647 121.796 136.219 126.165L147.131 139.509C151.672 145.063 151.138 153.216 145.912 158.122C131.614 171.543 111.955 174.292 98.2715 163.222C85.0797 152.55 69.5546 136.691 56.5852 114.244C43.5856 91.7451 37.7 70.2414 35.1592 53.377ZM77.1109 77.8723L91.8991 64.2153C100.183 56.5651 103.025 44.6175 99.0812 34.0192L93.0902 17.9188C88.01 4.26622 73.2575 -3.05155 59.41 1.21227C36.2131 8.35493 17.5874 29.2976 21.529 55.4586C24.2816 73.7285 30.6482 96.9576 44.6687 121.223C58.6323 145.391 75.3688 162.5 89.6364 174.042C110.142 190.631 137.531 184.966 155.313 168.274C165.867 158.367 166.945 141.903 157.774 130.687L146.863 117.343C139.718 108.605 128.021 105.109 117.298 108.507L98.1567 114.573C97.4205 113.811 96.5678 112.9 95.6376 111.856C92.4926 108.326 88.5586 103.378 85.2501 97.6081C81.9415 91.8385 79.6524 85.9344 78.1882 81.427C77.7551 80.094 77.3981 78.895 77.1109 77.8723Z" fill="#C5C5C5" fill-opacity="0.5"/>
<path d="M14.1592 55.377C11.532 37.9397 23.7549 22.2393 42.4419 16.4854C49.3238 14.3663 56.6555 18.0031 59.1803 24.7882L65.1713 40.8886C67.1431 46.1878 65.7222 52.1615 61.5802 55.9867L43.7615 72.4423C41.9772 74.0901 41.1848 76.5714 41.6702 78.9596L41.8286 79.6846C41.9271 80.1175 42.072 80.7302 42.2674 81.4962C42.658 83.0268 43.2526 85.1791 44.0851 87.7418C45.7412 92.8398 48.3819 99.6964 52.311 106.548C56.24 113.4 60.8175 119.13 64.3746 123.123C66.1627 125.131 67.7167 126.725 68.838 127.831C69.3993 128.385 69.8538 128.817 70.1769 129.12L70.7302 129.628C72.5418 131.245 75.0634 131.787 77.373 131.055L100.437 123.747C105.798 122.048 111.647 123.796 115.219 128.165L126.131 141.509C130.672 147.063 130.138 155.216 124.912 160.122C110.614 173.543 90.9554 176.292 77.2715 165.222C64.0797 154.55 48.5546 138.691 35.5852 116.244C22.5856 93.7451 16.7 72.2414 14.1592 55.377ZM56.1109 79.8723L70.8991 66.2153C79.1831 58.5651 82.0248 46.6175 78.0812 36.0192L72.0902 19.9188C67.01 6.26622 52.2575 -1.05155 38.41 3.21227C15.2131 10.3549 -3.41255 31.2976 0.528972 57.4586C3.28159 75.7285 9.64824 98.9576 23.6687 123.223C37.6323 147.391 54.3688 164.5 68.6364 176.042C89.1425 192.631 116.531 186.966 134.313 170.274C144.867 160.367 145.945 143.903 136.774 132.687L125.863 119.343C118.718 110.605 107.021 107.109 96.2981 110.507L77.1567 116.573C76.4205 115.811 75.5678 114.9 74.6376 113.856C71.4926 110.326 67.5586 105.378 64.2501 99.6081C60.9415 93.8385 58.6524 87.9344 57.1882 83.427C56.7551 82.094 56.3981 80.895 56.1109 79.8723Z" fill="url(#paint1_radial_350_10)" fill-opacity="0.68"/>
</g>
<defs>
<filter id="filter0_b_350_10" x="-26" y="-30" width="224" height="246" filterUnits="userSpaceOnUse" color-interpolation-filters="sRGB">
<feFlood flood-opacity="0" result="BackgroundImageFix"/>
<feGaussianBlur in="BackgroundImage" stdDeviation="15"/>
<feComposite in2="SourceAlpha" operator="in" result="effect1_backgroundBlur_350_10"/>
<feBlend mode="normal" in="SourceGraphic" in2="effect1_backgroundBlur_350_10" result="shape"/>
</filter>
<filter id="filter1_b_350_10" x="-30" y="-30" width="224" height="246" filterUnits="userSpaceOnUse" color-interpolation-filters="sRGB">
<feFlood flood-opacity="0" result="BackgroundImageFix"/>
<feGaussianBlur in="BackgroundImage" stdDeviation="15"/>
<feComposite in2="SourceAlpha" operator="in" result="effect1_backgroundBlur_350_10"/>
<feBlend mode="normal" in="SourceGraphic" in2="effect1_backgroundBlur_350_10" result="shape"/>
</filter>
<radialGradient id="paint0_radial_350_10" cx="0" cy="0" r="1" gradientUnits="userSpaceOnUse" gradientTransform="translate(19.2782 68.0839) rotate(31.2661) scale(168.574 3772.8)">
<stop stop-color="#FF0000"/>
<stop offset="1" stop-color="#4C1AB6"/>
</radialGradient>
<radialGradient id="paint1_radial_350_10" cx="0" cy="0" r="1" gradientUnits="userSpaceOnUse" gradientTransform="translate(15.2782 68.0839) rotate(31.2661) scale(168.574 3772.8)">
<stop stop-color="#FF0000"/>
<stop offset="1" stop-color="#4C1AB6"/>
</radialGradient>
</defs>
</svg>
