<svg width="229" height="239" viewBox="0 0 229 239" fill="none" xmlns="http://www.w3.org/2000/svg">
<g clip-path="url(#clip0_318_11)">
<path d="M217.016 222.708C217.016 231.706 168.436 239.001 108.508 239.001C48.5801 239.001 0 231.706 0 222.708C0 216.338 24.3513 210.819 59.8405 208.142C74.4751 207.035 91.0103 206.415 108.508 206.415C115.701 206.415 122.73 206.52 129.527 206.72C179.395 208.191 217.016 214.789 217.016 222.708Z" fill="#3F3D56"/>
<path opacity="0.1" d="M94.5086 226.036C117.513 226.036 136.162 223.761 136.162 220.956C136.162 218.15 117.513 215.875 94.5086 215.875C71.5042 215.875 52.8555 218.15 52.8555 220.956C52.8555 223.761 71.5042 226.036 94.5086 226.036Z" fill="black"/>
<path d="M94.3311 224.635C116.079 224.635 133.709 205.81 133.709 182.589C133.709 159.368 116.079 140.543 94.3311 140.543C72.5832 140.543 54.9531 159.368 54.9531 182.589C54.9531 205.81 72.5832 224.635 94.3311 224.635Z" fill="#3F3D56"/>
<path d="M106.76 207.466H82.2578V229.89H106.76V207.466Z" fill="#DC4B53"/>
<path d="M138.787 212.896L137.387 220.605L146.487 222.006L152.438 218.503L152.088 212.896H138.787Z" fill="#575A89"/>
<path d="M92.9335 68.1887C92.9335 68.1887 92.2334 76.2475 90.4833 76.5979C88.7332 76.9483 94.3336 90.9636 94.3336 90.9636H102.734L109.385 89.2117L106.234 81.5033C106.234 81.5033 102.034 75.8971 105.184 71.3422C108.335 66.7872 92.9335 68.1887 92.9335 68.1887Z" fill="#A0616A"/>
<path opacity="0.1" d="M92.9335 68.1887C92.9335 68.1887 92.2334 76.2475 90.4833 76.5979C88.7332 76.9483 94.3336 90.9636 94.3336 90.9636H102.734L109.385 89.2117L106.234 81.5033C106.234 81.5033 102.034 75.8971 105.184 71.3422C108.335 66.7872 92.9335 68.1887 92.9335 68.1887Z" fill="black"/>
<path d="M75.4303 129.857C75.4303 129.857 66.3296 147.376 73.6802 150.879C81.0307 154.383 82.7809 154.033 82.7809 155.084C82.7809 156.135 81.3807 155.785 82.0808 157.537C82.7809 159.289 80.6807 166.296 82.7809 170.501C84.881 174.705 84.181 177.859 84.181 177.859C84.181 177.859 84.181 178.209 84.881 179.611C85.5811 181.012 85.9311 182.063 85.5811 182.764C85.231 183.465 83.1309 188.02 85.231 189.071C87.3312 190.122 98.182 190.823 99.2321 189.071C100.282 187.319 98.182 186.268 99.2321 185.217C100.282 184.166 100.982 183.815 100.282 183.115C99.5821 182.414 98.8821 173.654 98.8821 173.654C98.8821 173.654 100.632 163.493 99.9321 162.092C99.2321 160.69 98.182 159.289 98.8821 158.238C99.5821 157.186 100.282 157.537 100.632 156.135C100.982 154.734 101.682 151.58 101.682 151.58L105.533 151.23L114.633 152.982C114.633 152.982 124.784 164.194 135.985 167.698C135.985 167.698 139.135 170.851 140.185 170.851C141.235 170.851 141.235 170.851 140.885 171.552C140.535 172.253 139.485 172.253 140.185 172.954C140.885 173.654 141.935 172.603 141.235 173.654C140.535 174.705 139.835 174.705 140.535 175.406C141.235 176.107 140.185 179.961 140.185 180.312C140.185 180.662 137.035 213.598 138.085 214.299C139.135 214.999 153.836 217.102 154.886 214.299C155.936 211.495 154.186 207.992 154.186 207.992C154.186 207.992 159.437 165.946 158.037 163.143C156.636 160.34 151.736 147.726 125.484 139.667C125.484 139.667 118.134 138.266 118.134 137.215C118.134 136.163 117.433 129.506 116.033 129.156C114.633 128.805 106.583 128.455 106.583 128.455L96.4319 131.609L82.4308 129.156L75.4303 129.857Z" fill="#2F2E41"/>
<path d="M87.6827 188.72L85.9326 195.027C85.9326 195.027 84.5325 205.188 86.2826 207.641C87.6573 209.567 90.1117 211.926 94.6638 212.34C95.9395 212.457 97.217 212.135 98.2849 211.427C99.3528 210.718 100.147 209.666 100.537 208.445C100.589 208.298 100.622 208.146 100.634 207.991C100.634 207.29 99.5836 198.881 99.5836 198.881L97.8335 190.122L97.4834 187.669L87.6827 188.72Z" fill="#2F2E41"/>
<path d="M138.784 218.853C138.784 218.853 137.034 217.101 136.684 218.853C136.334 220.605 134.934 227.963 137.384 228.313C139.834 228.664 163.286 232.168 165.736 230.766C168.187 229.365 172.737 227.262 169.937 226.211C167.136 225.16 159.086 222.006 159.086 222.006C159.086 222.006 154.536 216.05 153.835 215.7C153.135 215.349 149.285 216.05 147.535 217.452C145.785 218.853 138.784 218.853 138.784 218.853Z" fill="#2F2E41"/>
<path d="M101.331 75.5469C107.324 75.5469 112.182 70.6839 112.182 64.6851C112.182 58.6862 107.324 53.8232 101.331 53.8232C95.3385 53.8232 90.4805 58.6862 90.4805 64.6851C90.4805 70.6839 95.3385 75.5469 101.331 75.5469Z" fill="#A0616A"/>
<path d="M100.28 89.212L96.0794 84.657L91.4236 75.5471C91.4236 75.5471 88.0288 74.496 87.3288 76.2479C86.6287 77.9998 74.0278 83.6059 74.0278 83.6059C74.0278 83.6059 77.178 113.038 75.7779 115.841C74.3778 118.644 71.9276 129.856 74.0278 130.907C76.1279 131.959 85.9287 130.907 89.0789 132.309C92.2292 133.71 101.33 133.71 103.78 131.959C106.23 130.207 106.93 128.805 109.38 129.856C111.466 130.751 116.343 100.158 117.747 91.0406C117.865 90.2749 117.767 89.4913 117.463 88.7786C117.159 88.0659 116.663 87.4525 116.029 87.0078C112.888 84.8026 107.232 81.0024 106.23 81.5036C104.83 82.2044 100.28 89.212 100.28 89.212Z" fill="#575A89"/>
<path d="M115.334 87.8105C116.156 88.0162 116.896 88.4688 117.453 89.1074C118.011 89.746 118.36 90.54 118.453 91.383L121.285 116.892C121.285 116.892 114.284 131.959 110.784 121.798C107.284 111.636 115.334 87.8105 115.334 87.8105Z" fill="#575A89"/>
<path d="M114.633 119.344L122.333 117.242C122.333 117.242 123.734 127.053 125.134 127.053C126.534 127.053 120.233 132.659 117.083 131.958C113.933 131.257 109.382 128.805 109.032 127.053C108.682 125.301 112.183 117.943 112.183 117.943L114.633 119.344Z" fill="#575A89"/>
<path d="M93.1422 69.3713C93.88 67.7427 93.7519 65.8431 94.3619 64.1623C94.6885 63.2624 95.2186 62.4502 95.9107 61.7892C96.6028 61.1282 97.4382 60.6364 98.3516 60.3521C99.265 60.0678 100.232 59.9987 101.176 60.1503C102.121 60.3019 103.017 60.67 103.796 61.2259C104.581 61.7859 105.368 62.5728 106.325 62.4659C107.357 62.3508 108.277 61.1989 109.225 61.6211C110.276 62.0889 109.992 63.9745 111.057 64.41C111.618 64.6392 112.28 64.2863 112.603 63.7738C112.886 63.2353 113.04 62.6385 113.053 62.0302C113.2 60.5358 113.333 58.9542 112.685 57.5997C112.413 57.1406 112.176 56.6615 111.976 56.1667C111.862 55.7045 111.817 55.2283 111.841 54.7531C111.835 52.9966 111.707 51.1644 110.824 49.6466C109.844 47.9622 108.032 46.8852 106.143 46.4152C104.253 45.9453 102.273 46.0173 100.333 46.1818C97.1254 46.4536 93.7805 47.0362 91.2536 49.0321C90.9101 49.2833 90.6145 49.5942 90.3808 49.95C90.159 50.3726 90.0023 50.8264 89.916 51.2959C89.3696 53.523 88.5505 55.674 87.4771 57.6999C86.9608 58.5588 86.5388 59.4711 86.2186 60.4208C85.9506 61.3859 85.9687 62.4857 86.5297 63.3152C86.9864 63.9906 87.7165 64.3505 88.2901 64.9026C88.8585 65.4497 89.1245 66.5019 89.7541 66.9162C90.3038 67.2778 90.9622 67.0225 91.5228 67.4058C92.2425 67.898 92.2945 68.977 93.1422 69.3713Z" fill="#2F2E41"/>
<path d="M102.031 94.4675L103.081 92.3652C103.081 92.3652 118.482 96.9202 121.633 101.125C121.633 101.125 129.333 96.2194 133.534 96.9202L137.734 97.621L124.783 109.184L108.332 107.782L102.031 94.4675Z" fill="#F2F2F2"/>
<path d="M101.332 92.3652L86.9805 112.337L107.632 122.498C107.632 122.498 109.563 123.549 111.048 122.498L124.783 116.191L137.734 97.621L124.783 104.278C124.783 104.278 123.383 101.475 120.583 102.877L101.332 92.3652Z" fill="#DC4B53"/>
<path d="M123.383 127.753L126.183 120.395C126.183 120.395 132.484 112.337 128.983 108.482C125.483 104.628 121.633 119.695 121.633 119.695L123.383 127.753Z" fill="#A0616A"/>
<path d="M91.0742 126.58L97.1844 121.621C97.1844 121.621 106.674 117.814 105.577 112.722C104.481 107.63 93.5994 118.73 93.5994 118.73L91.0742 126.58Z" fill="#A0616A"/>
<path opacity="0.1" d="M75.9572 91.1386H75.6072C75.6072 91.1386 70.1818 84.6565 69.1317 93.4161C68.0816 102.176 64.5813 131.257 73.682 132.308C82.7827 133.36 89.2582 127.929 89.2582 127.929C89.2582 127.929 95.9087 117.768 93.4585 117.768C92.273 117.768 89.0488 117.235 86.108 117.417C82.9708 117.612 80.1519 118.497 80.3325 117.592C80.6825 115.841 85.7579 93.5913 75.9572 91.1386Z" fill="black"/>
<path d="M75.4323 84.3062L74.0322 83.6055C74.0322 83.6055 68.4317 84.6566 67.3817 93.4162C66.3316 102.176 62.8313 131.257 71.932 132.309C81.0327 133.36 93.2836 130.907 93.2836 130.907C93.2836 130.907 95.7338 117.592 93.2836 117.592C90.8334 117.592 78.2325 119.344 78.5825 117.592C78.9325 115.841 85.233 86.7589 75.4323 84.3062Z" fill="#575A89"/>
<path d="M118.309 123.725L122.168 117.803L124.609 127.579L118.309 130.382V123.725Z" fill="#575A89"/>
<path d="M39.0171 39.2829C44.2366 39.2829 48.4678 35.0474 48.4678 29.8226C48.4678 24.5978 44.2366 20.3623 39.0171 20.3623C33.7976 20.3623 29.5664 24.5978 29.5664 29.8226C29.5664 35.0474 33.7976 39.2829 39.0171 39.2829Z" fill="#F2F2F2"/>
<path d="M50.2181 100.249H27.8164V122.673H50.2181V100.249Z" fill="#F2F2F2"/>
<path d="M130.211 0L135.881 9.83066L141.551 19.6613H130.211H118.871L124.541 9.83066L130.211 0Z" fill="#F2F2F2"/>
<path d="M228.999 58.9447C228.864 63.1389 227.843 66.5006 225.938 69.0299C224.033 71.5595 221.769 72.8244 219.147 72.8247C217.012 72.8247 215.14 71.5868 213.532 69.1111C211.923 66.6354 211.119 62.8273 211.119 57.6866C211.119 56.5502 211.147 55.468 211.201 54.4398C211.254 53.4119 211.322 52.4378 211.403 51.5177L212.822 38.1654H203.457C201.835 55.0486 200.504 65.0933 199.463 68.2995C198.422 71.5056 196.659 73.1087 194.172 73.1088C193.05 73.0812 191.979 72.6321 191.172 71.8507C190.704 71.4357 190.334 70.9219 190.089 70.3463C189.843 69.7708 189.729 69.1479 189.753 68.5226C189.753 67.2785 190.733 65.5402 192.692 63.3076C194.652 61.0754 195.74 59.0394 195.956 57.1996L198.389 38.1654H194.456C193.348 38.172 192.256 38.4433 191.274 38.9567C190.369 39.3727 189.582 40.0072 188.983 40.8033L187.239 43.4008H185.82C187.144 39.2884 188.773 36.1972 190.706 34.1272C192.638 32.0574 194.861 31.0224 197.375 31.0225H228.351V38.1654H217.89C217.566 41.4122 217.316 44.6589 217.14 47.9056C216.964 51.1524 216.876 54.4127 216.877 57.6866C216.877 59.9054 217.39 61.7047 218.417 63.0844C219.444 64.4642 220.728 65.1542 222.269 65.1541C223.215 65.1541 224.208 64.7686 225.249 63.9974C225.743 63.6504 226.157 63.2005 226.461 62.6787C226.765 62.1569 226.954 61.5753 227.013 60.9739C227.094 60.3791 227.155 59.9123 227.195 59.5738C227.236 59.2358 227.256 59.0261 227.256 58.9447L228.999 58.9447Z" fill="#DC4B53"/>
<path opacity="0.1" d="M228.999 58.9447C228.864 63.1389 227.843 66.5006 225.938 69.0299C224.033 71.5595 221.769 72.8244 219.147 72.8247C217.012 72.8247 215.14 71.5868 213.532 69.1111C211.923 66.6354 211.119 62.8273 211.119 57.6866C211.119 56.5502 211.147 55.468 211.201 54.4398C211.254 53.4119 211.322 52.4378 211.403 51.5177L212.822 38.1654H203.457C201.835 55.0486 200.504 65.0933 199.463 68.2995C198.422 71.5056 196.659 73.1087 194.172 73.1088C193.05 73.0812 191.979 72.6321 191.172 71.8507C190.704 71.4357 190.334 70.9219 190.089 70.3463C189.843 69.7708 189.729 69.1479 189.753 68.5226C189.753 67.2785 190.733 65.5402 192.692 63.3076C194.652 61.0754 195.74 59.0394 195.956 57.1996L198.389 38.1654H194.456C193.348 38.172 192.256 38.4433 191.274 38.9567C190.369 39.3727 189.582 40.0072 188.983 40.8033L187.239 43.4008H185.82C187.144 39.2884 188.773 36.1972 190.706 34.1272C192.638 32.0574 194.861 31.0224 197.375 31.0225H228.351V38.1654H217.89C217.566 41.4122 217.316 44.6589 217.14 47.9056C216.964 51.1524 216.876 54.4127 216.877 57.6866C216.877 59.9054 217.39 61.7047 218.417 63.0844C219.444 64.4642 220.728 65.1542 222.269 65.1541C223.215 65.1541 224.208 64.7686 225.249 63.9974C225.743 63.6504 226.157 63.2005 226.461 62.6787C226.765 62.1569 226.954 61.5753 227.013 60.9739C227.094 60.3791 227.155 59.9123 227.195 59.5738C227.236 59.2358 227.256 59.0261 227.256 58.9447L228.999 58.9447Z" fill="black"/>
<path d="M228.999 57.6762C228.864 61.8703 227.843 65.2321 225.938 67.7614C224.033 70.291 221.769 71.5559 219.147 71.5561C217.012 71.5561 215.14 70.3183 213.532 67.8426C211.923 65.3669 211.119 61.5587 211.119 56.418C211.119 55.2817 211.147 54.1994 211.201 53.1712C211.254 52.1433 211.322 51.1693 211.403 50.2492L212.822 36.8968H203.457C201.835 53.78 200.504 63.8247 199.463 67.0309C198.422 70.237 196.659 71.8401 194.172 71.8402C193.05 71.8126 191.979 71.3635 191.172 70.5821C190.704 70.1671 190.334 69.6533 190.089 69.0778C189.843 68.5023 189.729 67.8794 189.753 67.2541C189.753 66.01 190.733 64.2716 192.692 62.039C194.652 59.8068 195.74 57.7708 195.956 55.931L198.389 36.8968H194.456C193.348 36.9035 192.256 37.1747 191.274 37.6882C190.369 38.1041 189.582 38.7387 188.983 39.5348L187.239 42.1322H185.82C187.144 38.0198 188.773 34.9287 190.706 32.8586C192.638 30.7888 194.861 29.7539 197.375 29.7539H228.351V36.8968H217.89C217.566 40.1436 217.316 43.3904 217.14 46.6371C216.964 49.8839 216.876 53.1442 216.877 56.418C216.877 58.6369 217.39 60.4361 218.417 61.8158C219.444 63.1957 220.728 63.8856 222.269 63.8856C223.215 63.8856 224.208 63.5 225.249 62.7289C225.743 62.3818 226.157 61.932 226.461 61.4102C226.765 60.8883 226.954 60.3068 227.013 59.7054C227.094 59.1105 227.155 58.6438 227.195 58.3052C227.236 57.9672 227.256 57.7575 227.256 57.6762H228.999Z" fill="#DC4B53"/>
</g>
<defs>
<clipPath id="clip0_318_11">
<rect width="229" height="239" fill="white"/>
</clipPath>
</defs>
</svg>
