<svg width="106" height="61" viewBox="0 0 106 61" fill="none" xmlns="http://www.w3.org/2000/svg">
<path d="M50.9978 34.824L3.77618 30.71C-0.186051 30.3648 -0.594064 28.4935 2.86486 26.5303L28.0362 12.2394C30.4035 10.8932 33.1434 9.33966 36.2851 7.55836C38.5502 6.27405 41.0241 4.87133 43.7178 3.34251C47.318 1.2992 53.6454 -0.0212518 57.556 0.45463L77.7808 1.96756C76.1258 2.26615 74.4398 2.50156 72.7251 2.74097C65.044 3.81341 56.7879 4.96615 48.1751 12.2394C46.6053 13.5651 45.8898 14.1591 45.9526 14.2578C46.249 14.7236 63.8735 4.16343 90.8502 7.4096C84.3156 7.4096 67.5123 10.3552 60.1775 19.9454C60.1775 19.9454 71.6464 14.1237 83.1154 12.2394C94.5843 10.3552 102.367 10.3552 102.367 10.3552L64.4263 31.898C64.0173 32.1302 63.5726 32.3532 63.0998 32.5656C59.5738 34.1461 54.4887 35.1281 50.9978 34.824Z" fill="url(#paint0_linear_337_101)"/>
<path d="M28.1472 41.9951L4.73438 35.1772L51.7673 39.5431C55.8489 39.9203 62.1203 38.5451 65.6422 36.5004L105.911 13.1177L101.643 16.9211C92.7058 24.8852 82.9357 31.8619 72.502 37.7301L68.5435 39.9565C63.0938 43.0215 56.8505 44.3828 50.6196 43.8644L32.4399 42.3522C39.2925 44.733 46.3548 46.7163 53.6088 46.7867C68.0212 46.9266 78.5924 43.6467 90.5157 39.5308C91.2831 43.0506 89.6642 46.6593 86.5248 48.4264L71.0953 57.112C66.3364 59.7908 60.8831 60.9798 55.4411 60.525L37.7964 59.0507C34.2063 58.7508 31.2321 56.1436 30.4647 52.6237L54.3999 54.9707C59.6827 55.4887 64.9948 54.3345 69.5863 51.6711L82.7109 44.058C72.0878 50.2192 61.8629 53.5965 49.5819 51.6413L34.3172 49.2111C31.5534 48.7711 28.7954 44.7175 28.1472 41.9951Z" fill="url(#paint1_linear_337_101)"/>
<defs>
<linearGradient id="paint0_linear_337_101" x1="0.515625" y1="29.4277" x2="97.3892" y2="65.2219" gradientUnits="userSpaceOnUse">
<stop stop-color="#EB4B55"/>
<stop offset="1" stop-color="#8D59B5"/>
</linearGradient>
<linearGradient id="paint1_linear_337_101" x1="0.515625" y1="29.4277" x2="97.3892" y2="65.2219" gradientUnits="userSpaceOnUse">
<stop stop-color="#EB4B55"/>
<stop offset="1" stop-color="#8D59B5"/>
</linearGradient>
</defs>
</svg>
